%TF.GenerationSoftware,KiCad,Pcbnew,(5.99.0-8593-g9f18fee124)*%
%TF.CreationDate,2021-02-26T16:48:12-06:00*%
%TF.ProjectId,EE223_Design,45453232-335f-4446-9573-69676e2e6b69,rev?*%
%TF.SameCoordinates,Original*%
%TF.FileFunction,Copper,L3,Inr*%
%TF.FilePolarity,Positive*%
%FSLAX46Y46*%
G04 Gerber Fmt 4.6, Leading zero omitted, Abs format (unit mm)*
G04 Created by KiCad (PCBNEW (5.99.0-8593-g9f18fee124)) date 2021-02-26 16:48:12*
%MOMM*%
%LPD*%
G01*
G04 APERTURE LIST*
G04 Aperture macros list*
%AMRoundRect*
0 Rectangle with rounded corners*
0 $1 Rounding radius*
0 $2 $3 $4 $5 $6 $7 $8 $9 X,Y pos of 4 corners*
0 Add a 4 corners polygon primitive as box body*
4,1,4,$2,$3,$4,$5,$6,$7,$8,$9,$2,$3,0*
0 Add four circle primitives for the rounded corners*
1,1,$1+$1,$2,$3*
1,1,$1+$1,$4,$5*
1,1,$1+$1,$6,$7*
1,1,$1+$1,$8,$9*
0 Add four rect primitives between the rounded corners*
20,1,$1+$1,$2,$3,$4,$5,0*
20,1,$1+$1,$4,$5,$6,$7,0*
20,1,$1+$1,$6,$7,$8,$9,0*
20,1,$1+$1,$8,$9,$2,$3,0*%
G04 Aperture macros list end*
%TA.AperFunction,ComponentPad*%
%ADD10RoundRect,0.250000X-0.620000X-0.845000X0.620000X-0.845000X0.620000X0.845000X-0.620000X0.845000X0*%
%TD*%
%TA.AperFunction,ComponentPad*%
%ADD11O,1.740000X2.190000*%
%TD*%
%TA.AperFunction,ComponentPad*%
%ADD12R,1.000000X1.000000*%
%TD*%
%TA.AperFunction,ComponentPad*%
%ADD13O,1.000000X1.000000*%
%TD*%
%TA.AperFunction,ComponentPad*%
%ADD14R,1.700000X1.700000*%
%TD*%
%TA.AperFunction,ComponentPad*%
%ADD15O,1.700000X1.700000*%
%TD*%
%TA.AperFunction,ComponentPad*%
%ADD16R,1.800000X1.800000*%
%TD*%
%TA.AperFunction,ComponentPad*%
%ADD17C,1.800000*%
%TD*%
%TA.AperFunction,ViaPad*%
%ADD18C,0.800000*%
%TD*%
G04 APERTURE END LIST*
D10*
%TO.N,Net-(J6-Pad1)*%
%TO.C,J6*%
X70000000Y-41250000D03*
D11*
%TO.N,Net-(J6-Pad2)*%
X72540000Y-41250000D03*
%TO.N,Net-(J6-Pad3)*%
X75080000Y-41250000D03*
%TO.N,Net-(J6-Pad4)*%
X77620000Y-41250000D03*
%TD*%
D10*
%TO.N,Net-(U5-Pad11)*%
%TO.C,J4*%
X55000000Y-41250000D03*
D11*
%TO.N,Net-(U5-Pad7)*%
X57540000Y-41250000D03*
%TO.N,Net-(U5-Pad5)*%
X60080000Y-41250000D03*
%TO.N,Net-(U5-Pad1)*%
X62620000Y-41250000D03*
%TD*%
D10*
%TO.N,Net-(J5-Pad1)*%
%TO.C,J5*%
X115000000Y-41250000D03*
D11*
%TO.N,Net-(J5-Pad2)*%
X117540000Y-41250000D03*
%TO.N,Net-(J5-Pad3)*%
X120080000Y-41250000D03*
%TO.N,Net-(J5-Pad4)*%
X122620000Y-41250000D03*
%TD*%
D12*
%TO.N,+3V3*%
%TO.C,J1*%
X123250000Y-71750000D03*
D13*
%TO.N,SWDIO*%
X124520000Y-71750000D03*
%TO.N,GND*%
X123250000Y-73020000D03*
%TO.N,SWCLK*%
X124520000Y-73020000D03*
%TO.N,GND*%
X123250000Y-74290000D03*
%TO.N,SWO*%
X124520000Y-74290000D03*
%TO.N,unconnected-(J1-Pad7)*%
X123250000Y-75560000D03*
%TO.N,unconnected-(J1-Pad8)*%
X124520000Y-75560000D03*
%TO.N,GND*%
X123250000Y-76830000D03*
%TO.N,NRST*%
X124520000Y-76830000D03*
%TD*%
D10*
%TO.N,Net-(J3-Pad1)*%
%TO.C,J3*%
X100000000Y-41250000D03*
D11*
%TO.N,Net-(J3-Pad2)*%
X102540000Y-41250000D03*
%TO.N,Net-(J3-Pad3)*%
X105080000Y-41250000D03*
%TO.N,Net-(J3-Pad4)*%
X107620000Y-41250000D03*
%TD*%
D10*
%TO.N,GND*%
%TO.C,J2*%
X130750000Y-41250000D03*
D11*
%TO.N,Net-(J2-Pad2)*%
X133290000Y-41250000D03*
%TO.N,Net-(J2-Pad3)*%
X135830000Y-41250000D03*
%TO.N,Net-(J2-Pad4)*%
X138370000Y-41250000D03*
%TO.N,Net-(J2-Pad5)*%
X140910000Y-41250000D03*
%TO.N,+12V*%
X143450000Y-41250000D03*
%TD*%
D10*
%TO.N,Net-(J7-Pad1)*%
%TO.C,J7*%
X85000000Y-41250000D03*
D11*
%TO.N,Net-(J7-Pad2)*%
X87540000Y-41250000D03*
%TO.N,Net-(J7-Pad3)*%
X90080000Y-41250000D03*
%TO.N,Net-(J7-Pad4)*%
X92620000Y-41250000D03*
%TD*%
D14*
%TO.N,+3V3*%
%TO.C,JP1*%
X131000000Y-65000000D03*
D15*
%TO.N,BOOT0*%
X133540000Y-65000000D03*
%TO.N,GND*%
X136080000Y-65000000D03*
%TD*%
D16*
%TO.N,Net-(D1-Pad1)*%
%TO.C,D1*%
X161040000Y-54500000D03*
D17*
%TO.N,Net-(D1-Pad2)*%
X158500000Y-54500000D03*
%TD*%
D18*
%TO.N,GND*%
X159250000Y-60250000D03*
X148500000Y-81500000D03*
X136750000Y-79250000D03*
X134500000Y-56050000D03*
X129500000Y-56000000D03*
X144500000Y-56050000D03*
X139500000Y-56000000D03*
X76000000Y-50000000D03*
X90200000Y-64400000D03*
X95500000Y-51500000D03*
X151600000Y-43800000D03*
X86500000Y-50000000D03*
X118700000Y-53100000D03*
X105500000Y-50000000D03*
X111000000Y-51000000D03*
X101500000Y-50500000D03*
X101400000Y-70000000D03*
X81000000Y-51500000D03*
X72000000Y-50000000D03*
X88400000Y-53200000D03*
X73600000Y-53200000D03*
X56750000Y-50000000D03*
X100000000Y-78200000D03*
X120800000Y-50000000D03*
X163500000Y-47000000D03*
X117000000Y-50200000D03*
X90500000Y-50000000D03*
X99000000Y-66500000D03*
X58200000Y-53200000D03*
X82000000Y-75200000D03*
X89400000Y-82000000D03*
X103300000Y-53200000D03*
X126000000Y-51000000D03*
X65250000Y-51000000D03*
X97000000Y-77200000D03*
X60500000Y-50000000D03*
%TO.N,V_MOTOR*%
X107800000Y-57600000D03*
X98800000Y-57600000D03*
X113800000Y-57600000D03*
X55000000Y-57600000D03*
X78000000Y-57600000D03*
X92600000Y-57600000D03*
X62400000Y-57600000D03*
X123000000Y-57600000D03*
X148700000Y-55700000D03*
X85400000Y-57600000D03*
X157700000Y-39700000D03*
X70800000Y-57600000D03*
%TO.N,+3V3*%
X89200000Y-59600000D03*
X82300000Y-72200000D03*
X75000000Y-53200000D03*
X119600000Y-59500000D03*
X158750000Y-78750000D03*
X89000000Y-64400000D03*
X158750000Y-81000000D03*
X99800000Y-68600000D03*
X74600000Y-59400000D03*
X111000000Y-52000000D03*
X126000000Y-52000000D03*
X98900000Y-80500000D03*
X95500000Y-52500000D03*
X59600000Y-53200000D03*
X81000000Y-52500000D03*
X65250000Y-52000000D03*
X158750000Y-76500000D03*
X147500000Y-75250000D03*
X89600000Y-53200000D03*
X90600000Y-82000000D03*
X104200000Y-59600000D03*
X59250000Y-59500000D03*
X90000000Y-75600000D03*
X120000000Y-53100000D03*
X104500000Y-53100000D03*
X142500000Y-79000000D03*
%TO.N,NRST*%
X96250000Y-72750000D03*
%TO.N,SWO*%
X94400000Y-70000000D03*
%TO.N,SWCLK*%
X97500000Y-66000000D03*
%TO.N,SWDIO*%
X124500000Y-69750000D03*
X97000000Y-70500000D03*
%TO.N,BOOT0*%
X92400000Y-63500000D03*
%TD*%
%TA.AperFunction,Conductor*%
%TO.N,+3V3*%
G36*
X169434121Y-35528002D02*
G01*
X169480614Y-35581658D01*
X169492000Y-35634000D01*
X169492000Y-89366000D01*
X169471998Y-89434121D01*
X169418342Y-89480614D01*
X169366000Y-89492000D01*
X50634000Y-89492000D01*
X50565879Y-89471998D01*
X50519386Y-89418342D01*
X50508000Y-89366000D01*
X50508000Y-82000000D01*
X88486500Y-82000000D01*
X88506462Y-82189927D01*
X88565476Y-82371554D01*
X88568779Y-82377276D01*
X88568780Y-82377277D01*
X88602689Y-82436008D01*
X88660963Y-82536942D01*
X88788749Y-82678863D01*
X88794091Y-82682744D01*
X88794093Y-82682746D01*
X88937908Y-82787233D01*
X88943250Y-82791114D01*
X88949278Y-82793798D01*
X88949280Y-82793799D01*
X89111682Y-82866105D01*
X89117713Y-82868790D01*
X89211113Y-82888643D01*
X89298056Y-82907124D01*
X89298061Y-82907124D01*
X89304513Y-82908496D01*
X89495487Y-82908496D01*
X89501939Y-82907124D01*
X89501944Y-82907124D01*
X89588887Y-82888643D01*
X89682287Y-82868790D01*
X89688318Y-82866105D01*
X89850720Y-82793799D01*
X89850722Y-82793798D01*
X89856750Y-82791114D01*
X89862092Y-82787233D01*
X90005907Y-82682746D01*
X90005909Y-82682744D01*
X90011251Y-82678863D01*
X90139037Y-82536942D01*
X90197311Y-82436008D01*
X90231220Y-82377277D01*
X90231221Y-82377276D01*
X90234524Y-82371554D01*
X90293538Y-82189927D01*
X90313500Y-82000000D01*
X90293538Y-81810073D01*
X90234524Y-81628446D01*
X90160366Y-81500000D01*
X147586500Y-81500000D01*
X147606462Y-81689927D01*
X147665476Y-81871554D01*
X147760963Y-82036942D01*
X147888749Y-82178863D01*
X147894091Y-82182744D01*
X147894093Y-82182746D01*
X148037908Y-82287233D01*
X148043250Y-82291114D01*
X148049278Y-82293798D01*
X148049280Y-82293799D01*
X148211682Y-82366105D01*
X148217713Y-82368790D01*
X148311113Y-82388643D01*
X148398056Y-82407124D01*
X148398061Y-82407124D01*
X148404513Y-82408496D01*
X148595487Y-82408496D01*
X148601939Y-82407124D01*
X148601944Y-82407124D01*
X148688887Y-82388643D01*
X148782287Y-82368790D01*
X148788318Y-82366105D01*
X148950720Y-82293799D01*
X148950722Y-82293798D01*
X148956750Y-82291114D01*
X148962092Y-82287233D01*
X149105907Y-82182746D01*
X149105909Y-82182744D01*
X149111251Y-82178863D01*
X149239037Y-82036942D01*
X149334524Y-81871554D01*
X149393538Y-81689927D01*
X149413500Y-81500000D01*
X149393538Y-81310073D01*
X149334524Y-81128446D01*
X149313196Y-81091504D01*
X149242338Y-80968776D01*
X149239037Y-80963058D01*
X149111251Y-80821137D01*
X149105909Y-80817256D01*
X149105907Y-80817254D01*
X148962092Y-80712767D01*
X148962091Y-80712766D01*
X148956750Y-80708886D01*
X148950722Y-80706202D01*
X148950720Y-80706201D01*
X148788318Y-80633895D01*
X148788317Y-80633895D01*
X148782287Y-80631210D01*
X148688887Y-80611357D01*
X148601944Y-80592876D01*
X148601939Y-80592876D01*
X148595487Y-80591504D01*
X148404513Y-80591504D01*
X148398061Y-80592876D01*
X148398056Y-80592876D01*
X148311113Y-80611357D01*
X148217713Y-80631210D01*
X148211683Y-80633895D01*
X148211682Y-80633895D01*
X148049280Y-80706201D01*
X148049278Y-80706202D01*
X148043250Y-80708886D01*
X148037909Y-80712766D01*
X148037908Y-80712767D01*
X147894093Y-80817254D01*
X147894091Y-80817256D01*
X147888749Y-80821137D01*
X147760963Y-80963058D01*
X147757662Y-80968776D01*
X147686805Y-81091504D01*
X147665476Y-81128446D01*
X147606462Y-81310073D01*
X147586500Y-81500000D01*
X90160366Y-81500000D01*
X90139037Y-81463058D01*
X90011251Y-81321137D01*
X90005909Y-81317256D01*
X90005907Y-81317254D01*
X89862092Y-81212767D01*
X89862091Y-81212766D01*
X89856750Y-81208886D01*
X89850722Y-81206202D01*
X89850720Y-81206201D01*
X89688318Y-81133895D01*
X89688317Y-81133895D01*
X89682287Y-81131210D01*
X89588887Y-81111357D01*
X89501944Y-81092876D01*
X89501939Y-81092876D01*
X89495487Y-81091504D01*
X89304513Y-81091504D01*
X89298061Y-81092876D01*
X89298056Y-81092876D01*
X89211113Y-81111357D01*
X89117713Y-81131210D01*
X89111683Y-81133895D01*
X89111682Y-81133895D01*
X88949280Y-81206201D01*
X88949278Y-81206202D01*
X88943250Y-81208886D01*
X88937909Y-81212766D01*
X88937908Y-81212767D01*
X88794093Y-81317254D01*
X88794091Y-81317256D01*
X88788749Y-81321137D01*
X88660963Y-81463058D01*
X88565476Y-81628446D01*
X88506462Y-81810073D01*
X88486500Y-82000000D01*
X50508000Y-82000000D01*
X50508000Y-79250000D01*
X135836500Y-79250000D01*
X135856462Y-79439927D01*
X135915476Y-79621554D01*
X136010963Y-79786942D01*
X136138749Y-79928863D01*
X136144091Y-79932744D01*
X136144093Y-79932746D01*
X136287908Y-80037233D01*
X136293250Y-80041114D01*
X136299278Y-80043798D01*
X136299280Y-80043799D01*
X136461682Y-80116105D01*
X136467713Y-80118790D01*
X136561113Y-80138643D01*
X136648056Y-80157124D01*
X136648061Y-80157124D01*
X136654513Y-80158496D01*
X136845487Y-80158496D01*
X136851939Y-80157124D01*
X136851944Y-80157124D01*
X136938887Y-80138643D01*
X137032287Y-80118790D01*
X137038318Y-80116105D01*
X137200720Y-80043799D01*
X137200722Y-80043798D01*
X137206750Y-80041114D01*
X137212092Y-80037233D01*
X137355907Y-79932746D01*
X137355909Y-79932744D01*
X137361251Y-79928863D01*
X137489037Y-79786942D01*
X137584524Y-79621554D01*
X137643538Y-79439927D01*
X137663500Y-79250000D01*
X137662810Y-79243435D01*
X137644228Y-79066637D01*
X137644228Y-79066636D01*
X137643538Y-79060073D01*
X137584524Y-78878446D01*
X137489037Y-78713058D01*
X137366780Y-78577277D01*
X137365673Y-78576048D01*
X137365672Y-78576047D01*
X137361251Y-78571137D01*
X137355909Y-78567256D01*
X137355907Y-78567254D01*
X137212092Y-78462767D01*
X137212091Y-78462766D01*
X137206750Y-78458886D01*
X137200722Y-78456202D01*
X137200720Y-78456201D01*
X137038318Y-78383895D01*
X137038317Y-78383895D01*
X137032287Y-78381210D01*
X136938887Y-78361357D01*
X136851944Y-78342876D01*
X136851939Y-78342876D01*
X136845487Y-78341504D01*
X136654513Y-78341504D01*
X136648061Y-78342876D01*
X136648056Y-78342876D01*
X136561113Y-78361357D01*
X136467713Y-78381210D01*
X136461683Y-78383895D01*
X136461682Y-78383895D01*
X136299280Y-78456201D01*
X136299278Y-78456202D01*
X136293250Y-78458886D01*
X136287909Y-78462766D01*
X136287908Y-78462767D01*
X136144093Y-78567254D01*
X136144091Y-78567256D01*
X136138749Y-78571137D01*
X136134328Y-78576047D01*
X136134327Y-78576048D01*
X136133221Y-78577277D01*
X136010963Y-78713058D01*
X135915476Y-78878446D01*
X135856462Y-79060073D01*
X135855772Y-79066636D01*
X135855772Y-79066637D01*
X135837190Y-79243435D01*
X135836500Y-79250000D01*
X50508000Y-79250000D01*
X50508000Y-78200000D01*
X99086500Y-78200000D01*
X99087190Y-78206565D01*
X99101373Y-78341504D01*
X99106462Y-78389927D01*
X99165476Y-78571554D01*
X99260963Y-78736942D01*
X99265381Y-78741849D01*
X99265382Y-78741850D01*
X99384327Y-78873952D01*
X99388749Y-78878863D01*
X99394091Y-78882744D01*
X99394093Y-78882746D01*
X99537908Y-78987233D01*
X99543250Y-78991114D01*
X99549278Y-78993798D01*
X99549280Y-78993799D01*
X99684031Y-79053794D01*
X99717713Y-79068790D01*
X99811113Y-79088643D01*
X99898056Y-79107124D01*
X99898061Y-79107124D01*
X99904513Y-79108496D01*
X100095487Y-79108496D01*
X100101939Y-79107124D01*
X100101944Y-79107124D01*
X100188887Y-79088643D01*
X100282287Y-79068790D01*
X100315969Y-79053794D01*
X100450720Y-78993799D01*
X100450722Y-78993798D01*
X100456750Y-78991114D01*
X100462092Y-78987233D01*
X100605907Y-78882746D01*
X100605909Y-78882744D01*
X100611251Y-78878863D01*
X100615673Y-78873952D01*
X100734618Y-78741850D01*
X100734619Y-78741849D01*
X100739037Y-78736942D01*
X100834524Y-78571554D01*
X100893538Y-78389927D01*
X100898628Y-78341504D01*
X100912810Y-78206565D01*
X100913500Y-78200000D01*
X100893538Y-78010073D01*
X100834524Y-77828446D01*
X100739037Y-77663058D01*
X100611251Y-77521137D01*
X100605909Y-77517256D01*
X100605907Y-77517254D01*
X100462092Y-77412767D01*
X100462091Y-77412766D01*
X100456750Y-77408886D01*
X100450722Y-77406202D01*
X100450720Y-77406201D01*
X100288318Y-77333895D01*
X100288317Y-77333895D01*
X100282287Y-77331210D01*
X100188887Y-77311357D01*
X100101944Y-77292876D01*
X100101939Y-77292876D01*
X100095487Y-77291504D01*
X99904513Y-77291504D01*
X99898061Y-77292876D01*
X99898056Y-77292876D01*
X99811113Y-77311357D01*
X99717713Y-77331210D01*
X99711683Y-77333895D01*
X99711682Y-77333895D01*
X99549280Y-77406201D01*
X99549278Y-77406202D01*
X99543250Y-77408886D01*
X99537909Y-77412766D01*
X99537908Y-77412767D01*
X99394093Y-77517254D01*
X99394091Y-77517256D01*
X99388749Y-77521137D01*
X99260963Y-77663058D01*
X99165476Y-77828446D01*
X99106462Y-78010073D01*
X99086500Y-78200000D01*
X50508000Y-78200000D01*
X50508000Y-77200000D01*
X96086500Y-77200000D01*
X96106462Y-77389927D01*
X96165476Y-77571554D01*
X96260963Y-77736942D01*
X96265381Y-77741849D01*
X96265382Y-77741850D01*
X96343353Y-77828446D01*
X96388749Y-77878863D01*
X96394091Y-77882744D01*
X96394093Y-77882746D01*
X96537908Y-77987233D01*
X96543250Y-77991114D01*
X96549278Y-77993798D01*
X96549280Y-77993799D01*
X96711682Y-78066105D01*
X96717713Y-78068790D01*
X96811113Y-78088643D01*
X96898056Y-78107124D01*
X96898061Y-78107124D01*
X96904513Y-78108496D01*
X97095487Y-78108496D01*
X97101939Y-78107124D01*
X97101944Y-78107124D01*
X97188887Y-78088643D01*
X97282287Y-78068790D01*
X97288318Y-78066105D01*
X97450720Y-77993799D01*
X97450722Y-77993798D01*
X97456750Y-77991114D01*
X97462092Y-77987233D01*
X97605907Y-77882746D01*
X97605909Y-77882744D01*
X97611251Y-77878863D01*
X97656647Y-77828446D01*
X97734618Y-77741850D01*
X97734619Y-77741849D01*
X97739037Y-77736942D01*
X97834524Y-77571554D01*
X97893538Y-77389927D01*
X97913500Y-77200000D01*
X97893538Y-77010073D01*
X97834524Y-76828446D01*
X97830799Y-76821993D01*
X97742338Y-76668776D01*
X97739037Y-76663058D01*
X97712102Y-76633143D01*
X97615673Y-76526048D01*
X97615672Y-76526047D01*
X97611251Y-76521137D01*
X97605909Y-76517256D01*
X97605907Y-76517254D01*
X97462092Y-76412767D01*
X97462091Y-76412766D01*
X97456750Y-76408886D01*
X97450722Y-76406202D01*
X97450720Y-76406201D01*
X97288318Y-76333895D01*
X97288317Y-76333895D01*
X97282287Y-76331210D01*
X97188887Y-76311357D01*
X97101944Y-76292876D01*
X97101939Y-76292876D01*
X97095487Y-76291504D01*
X96904513Y-76291504D01*
X96898061Y-76292876D01*
X96898056Y-76292876D01*
X96811113Y-76311357D01*
X96717713Y-76331210D01*
X96711683Y-76333895D01*
X96711682Y-76333895D01*
X96549280Y-76406201D01*
X96549278Y-76406202D01*
X96543250Y-76408886D01*
X96537909Y-76412766D01*
X96537908Y-76412767D01*
X96394093Y-76517254D01*
X96394091Y-76517256D01*
X96388749Y-76521137D01*
X96384328Y-76526047D01*
X96384327Y-76526048D01*
X96287899Y-76633143D01*
X96260963Y-76663058D01*
X96257662Y-76668776D01*
X96169202Y-76821993D01*
X96165476Y-76828446D01*
X96106462Y-77010073D01*
X96086500Y-77200000D01*
X50508000Y-77200000D01*
X50508000Y-75200000D01*
X81086500Y-75200000D01*
X81087190Y-75206565D01*
X81104292Y-75369276D01*
X81106462Y-75389927D01*
X81165476Y-75571554D01*
X81260963Y-75736942D01*
X81265381Y-75741849D01*
X81265382Y-75741850D01*
X81384327Y-75873952D01*
X81388749Y-75878863D01*
X81394091Y-75882744D01*
X81394093Y-75882746D01*
X81524637Y-75977591D01*
X81543250Y-75991114D01*
X81549278Y-75993798D01*
X81549280Y-75993799D01*
X81711682Y-76066105D01*
X81717713Y-76068790D01*
X81811113Y-76088643D01*
X81898056Y-76107124D01*
X81898061Y-76107124D01*
X81904513Y-76108496D01*
X82095487Y-76108496D01*
X82101939Y-76107124D01*
X82101944Y-76107124D01*
X82188887Y-76088643D01*
X82282287Y-76068790D01*
X82288318Y-76066105D01*
X82450720Y-75993799D01*
X82450722Y-75993798D01*
X82456750Y-75991114D01*
X82475363Y-75977591D01*
X82605907Y-75882746D01*
X82605909Y-75882744D01*
X82611251Y-75878863D01*
X82615673Y-75873952D01*
X82734618Y-75741850D01*
X82734619Y-75741849D01*
X82739037Y-75736942D01*
X82834524Y-75571554D01*
X82893538Y-75389927D01*
X82895709Y-75369276D01*
X82912810Y-75206565D01*
X82913500Y-75200000D01*
X82910173Y-75168346D01*
X82894228Y-75016637D01*
X82894228Y-75016636D01*
X82893538Y-75010073D01*
X82886173Y-74987404D01*
X82845352Y-74861770D01*
X82834524Y-74828446D01*
X82739037Y-74663058D01*
X82611251Y-74521137D01*
X82605909Y-74517256D01*
X82605907Y-74517254D01*
X82462092Y-74412767D01*
X82462091Y-74412766D01*
X82456750Y-74408886D01*
X82450722Y-74406202D01*
X82450720Y-74406201D01*
X82288318Y-74333895D01*
X82288317Y-74333895D01*
X82282287Y-74331210D01*
X82188887Y-74311357D01*
X82101944Y-74292876D01*
X82101939Y-74292876D01*
X82095487Y-74291504D01*
X81904513Y-74291504D01*
X81898061Y-74292876D01*
X81898056Y-74292876D01*
X81811113Y-74311357D01*
X81717713Y-74331210D01*
X81711683Y-74333895D01*
X81711682Y-74333895D01*
X81549280Y-74406201D01*
X81549278Y-74406202D01*
X81543250Y-74408886D01*
X81537909Y-74412766D01*
X81537908Y-74412767D01*
X81394093Y-74517254D01*
X81394091Y-74517256D01*
X81388749Y-74521137D01*
X81260963Y-74663058D01*
X81165476Y-74828446D01*
X81154648Y-74861770D01*
X81113828Y-74987404D01*
X81106462Y-75010073D01*
X81105772Y-75016636D01*
X81105772Y-75016637D01*
X81089827Y-75168346D01*
X81086500Y-75200000D01*
X50508000Y-75200000D01*
X50508000Y-72750000D01*
X95336500Y-72750000D01*
X95356462Y-72939927D01*
X95415476Y-73121554D01*
X95510963Y-73286942D01*
X95515381Y-73291849D01*
X95515382Y-73291850D01*
X95611474Y-73398571D01*
X95638749Y-73428863D01*
X95644091Y-73432744D01*
X95644093Y-73432746D01*
X95650762Y-73437591D01*
X95793250Y-73541114D01*
X95799278Y-73543798D01*
X95799280Y-73543799D01*
X95961682Y-73616105D01*
X95967713Y-73618790D01*
X96061113Y-73638643D01*
X96148056Y-73657124D01*
X96148061Y-73657124D01*
X96154513Y-73658496D01*
X96345487Y-73658496D01*
X96351939Y-73657124D01*
X96351944Y-73657124D01*
X96438887Y-73638643D01*
X96532287Y-73618790D01*
X96538318Y-73616105D01*
X96700720Y-73543799D01*
X96700722Y-73543798D01*
X96706750Y-73541114D01*
X96849238Y-73437591D01*
X96855907Y-73432746D01*
X96855909Y-73432744D01*
X96861251Y-73428863D01*
X96888526Y-73398571D01*
X96984618Y-73291850D01*
X96984619Y-73291849D01*
X96989037Y-73286942D01*
X97084524Y-73121554D01*
X97122119Y-73005849D01*
X122236599Y-73005849D01*
X122253150Y-73202956D01*
X122307672Y-73393094D01*
X122398086Y-73569021D01*
X122401911Y-73573847D01*
X122403689Y-73576090D01*
X122404250Y-73577475D01*
X122405251Y-73579029D01*
X122404956Y-73579219D01*
X122430325Y-73641901D01*
X122417153Y-73711665D01*
X122413743Y-73717404D01*
X122413747Y-73717406D01*
X122318456Y-73890740D01*
X122258647Y-74079282D01*
X122236599Y-74275849D01*
X122253150Y-74472956D01*
X122307672Y-74663094D01*
X122398086Y-74839021D01*
X122401911Y-74843847D01*
X122403689Y-74846090D01*
X122404250Y-74847475D01*
X122405251Y-74849029D01*
X122404956Y-74849219D01*
X122430325Y-74911901D01*
X122417153Y-74981665D01*
X122413743Y-74987404D01*
X122413747Y-74987406D01*
X122318456Y-75160740D01*
X122316595Y-75166607D01*
X122316594Y-75166609D01*
X122306002Y-75200000D01*
X122258647Y-75349282D01*
X122236599Y-75545849D01*
X122253150Y-75742956D01*
X122307672Y-75933094D01*
X122398086Y-76109021D01*
X122401911Y-76113847D01*
X122403689Y-76116090D01*
X122404250Y-76117475D01*
X122405251Y-76119029D01*
X122404956Y-76119219D01*
X122430325Y-76181901D01*
X122417153Y-76251665D01*
X122413743Y-76257404D01*
X122413747Y-76257406D01*
X122318456Y-76430740D01*
X122316595Y-76436607D01*
X122316594Y-76436609D01*
X122260509Y-76613412D01*
X122258647Y-76619282D01*
X122236599Y-76815849D01*
X122253150Y-77012956D01*
X122307672Y-77203094D01*
X122310487Y-77208571D01*
X122373515Y-77331210D01*
X122398086Y-77379021D01*
X122520949Y-77534036D01*
X122525636Y-77538025D01*
X122525639Y-77538028D01*
X122614886Y-77613983D01*
X122671582Y-77662235D01*
X122676960Y-77665241D01*
X122676962Y-77665242D01*
X122814036Y-77741850D01*
X122844246Y-77758734D01*
X123032366Y-77819857D01*
X123228775Y-77843278D01*
X123234910Y-77842806D01*
X123234912Y-77842806D01*
X123419850Y-77828576D01*
X123419854Y-77828575D01*
X123425992Y-77828103D01*
X123616507Y-77774910D01*
X123793060Y-77685726D01*
X123806560Y-77675179D01*
X123872551Y-77649002D01*
X123945600Y-77664481D01*
X124114246Y-77758734D01*
X124302366Y-77819857D01*
X124498775Y-77843278D01*
X124504910Y-77842806D01*
X124504912Y-77842806D01*
X124689850Y-77828576D01*
X124689854Y-77828575D01*
X124695992Y-77828103D01*
X124886507Y-77774910D01*
X125063060Y-77685726D01*
X125076559Y-77675180D01*
X125214073Y-77567742D01*
X125218929Y-77563948D01*
X125241303Y-77538028D01*
X125344147Y-77418882D01*
X125344148Y-77418880D01*
X125348176Y-77414214D01*
X125445878Y-77242228D01*
X125508314Y-77054539D01*
X125533105Y-76858299D01*
X125533500Y-76830000D01*
X125514198Y-76633143D01*
X125457027Y-76443785D01*
X125364166Y-76269138D01*
X125360268Y-76264359D01*
X125359857Y-76263740D01*
X125338816Y-76195933D01*
X125355245Y-76131770D01*
X125363366Y-76117475D01*
X125445878Y-75972228D01*
X125508314Y-75784539D01*
X125533105Y-75588299D01*
X125533500Y-75560000D01*
X125514198Y-75363143D01*
X125457027Y-75173785D01*
X125364166Y-74999138D01*
X125360268Y-74994359D01*
X125359857Y-74993740D01*
X125338816Y-74925933D01*
X125355245Y-74861770D01*
X125363366Y-74847475D01*
X125445878Y-74702228D01*
X125508314Y-74514539D01*
X125533105Y-74318299D01*
X125533500Y-74290000D01*
X125514198Y-74093143D01*
X125457027Y-73903785D01*
X125364166Y-73729138D01*
X125360268Y-73724359D01*
X125359857Y-73723740D01*
X125338816Y-73655933D01*
X125355245Y-73591770D01*
X125363366Y-73577475D01*
X125445878Y-73432228D01*
X125508314Y-73244539D01*
X125533105Y-73048299D01*
X125533500Y-73020000D01*
X125514198Y-72823143D01*
X125457027Y-72633785D01*
X125364166Y-72459138D01*
X125360268Y-72454359D01*
X125359857Y-72453740D01*
X125338816Y-72385933D01*
X125355245Y-72321770D01*
X125367271Y-72300601D01*
X125445878Y-72162228D01*
X125508314Y-71974539D01*
X125533105Y-71778299D01*
X125533500Y-71750000D01*
X125514198Y-71553143D01*
X125457027Y-71363785D01*
X125364166Y-71189138D01*
X125293973Y-71103073D01*
X125243045Y-71040628D01*
X125243042Y-71040625D01*
X125239150Y-71035853D01*
X125233555Y-71031224D01*
X125091491Y-70913698D01*
X125091486Y-70913695D01*
X125086742Y-70909770D01*
X125081323Y-70906840D01*
X125081320Y-70906838D01*
X124918165Y-70818621D01*
X124918161Y-70818619D01*
X124912747Y-70815692D01*
X124906864Y-70813871D01*
X124906862Y-70813870D01*
X124895145Y-70810243D01*
X124835985Y-70770992D01*
X124807438Y-70705988D01*
X124818566Y-70635869D01*
X124865838Y-70582897D01*
X124881155Y-70574771D01*
X124950720Y-70543799D01*
X124950722Y-70543798D01*
X124956750Y-70541114D01*
X124962092Y-70537233D01*
X125105907Y-70432746D01*
X125105909Y-70432744D01*
X125111251Y-70428863D01*
X125218210Y-70310073D01*
X125234618Y-70291850D01*
X125234619Y-70291849D01*
X125239037Y-70286942D01*
X125334524Y-70121554D01*
X125376152Y-69993435D01*
X125391498Y-69946206D01*
X125391498Y-69946205D01*
X125393538Y-69939927D01*
X125413500Y-69750000D01*
X125393538Y-69560073D01*
X125334524Y-69378446D01*
X125239037Y-69213058D01*
X125167759Y-69133895D01*
X125115673Y-69076048D01*
X125115672Y-69076047D01*
X125111251Y-69071137D01*
X125105909Y-69067256D01*
X125105907Y-69067254D01*
X124962092Y-68962767D01*
X124962091Y-68962766D01*
X124956750Y-68958886D01*
X124950722Y-68956202D01*
X124950720Y-68956201D01*
X124788318Y-68883895D01*
X124788317Y-68883895D01*
X124782287Y-68881210D01*
X124688887Y-68861357D01*
X124601944Y-68842876D01*
X124601939Y-68842876D01*
X124595487Y-68841504D01*
X124404513Y-68841504D01*
X124398061Y-68842876D01*
X124398056Y-68842876D01*
X124311113Y-68861357D01*
X124217713Y-68881210D01*
X124211683Y-68883895D01*
X124211682Y-68883895D01*
X124049280Y-68956201D01*
X124049278Y-68956202D01*
X124043250Y-68958886D01*
X124037909Y-68962766D01*
X124037908Y-68962767D01*
X123894093Y-69067254D01*
X123894091Y-69067256D01*
X123888749Y-69071137D01*
X123884328Y-69076047D01*
X123884327Y-69076048D01*
X123832242Y-69133895D01*
X123760963Y-69213058D01*
X123665476Y-69378446D01*
X123606462Y-69560073D01*
X123586500Y-69750000D01*
X123606462Y-69939927D01*
X123608502Y-69946205D01*
X123608502Y-69946206D01*
X123623848Y-69993435D01*
X123665476Y-70121554D01*
X123760963Y-70286942D01*
X123765381Y-70291849D01*
X123765382Y-70291850D01*
X123781790Y-70310073D01*
X123888749Y-70428863D01*
X123894091Y-70432744D01*
X123894093Y-70432746D01*
X124037908Y-70537233D01*
X124043250Y-70541114D01*
X124049278Y-70543798D01*
X124049280Y-70543799D01*
X124135993Y-70582406D01*
X124190089Y-70628386D01*
X124210738Y-70696314D01*
X124191386Y-70764622D01*
X124139250Y-70808222D01*
X124140336Y-70810299D01*
X123965045Y-70901939D01*
X123810891Y-71025882D01*
X123806933Y-71030599D01*
X123806931Y-71030601D01*
X123797492Y-71041850D01*
X123683747Y-71177406D01*
X123680783Y-71182798D01*
X123680780Y-71182802D01*
X123603031Y-71324227D01*
X123588456Y-71350740D01*
X123528647Y-71539282D01*
X123506599Y-71735849D01*
X123507115Y-71741993D01*
X123519007Y-71883621D01*
X123504775Y-71953177D01*
X123455198Y-72003996D01*
X123380280Y-72019474D01*
X123307018Y-72011774D01*
X123263205Y-72007169D01*
X123263203Y-72007169D01*
X123257076Y-72006525D01*
X123174226Y-72014065D01*
X123066228Y-72023893D01*
X123066225Y-72023894D01*
X123060089Y-72024452D01*
X123054183Y-72026190D01*
X123054179Y-72026191D01*
X122914659Y-72067254D01*
X122870336Y-72080299D01*
X122695045Y-72171939D01*
X122540891Y-72295882D01*
X122536933Y-72300599D01*
X122536931Y-72300601D01*
X122476414Y-72372723D01*
X122413747Y-72447406D01*
X122410783Y-72452798D01*
X122410780Y-72452802D01*
X122407297Y-72459138D01*
X122318456Y-72620740D01*
X122258647Y-72809282D01*
X122236599Y-73005849D01*
X97122119Y-73005849D01*
X97143538Y-72939927D01*
X97163500Y-72750000D01*
X97143538Y-72560073D01*
X97084524Y-72378446D01*
X96989037Y-72213058D01*
X96952014Y-72171939D01*
X96865673Y-72076048D01*
X96865672Y-72076047D01*
X96861251Y-72071137D01*
X96855909Y-72067256D01*
X96855907Y-72067254D01*
X96712092Y-71962767D01*
X96712091Y-71962766D01*
X96706750Y-71958886D01*
X96700722Y-71956202D01*
X96700720Y-71956201D01*
X96538318Y-71883895D01*
X96538317Y-71883895D01*
X96532287Y-71881210D01*
X96438887Y-71861357D01*
X96351944Y-71842876D01*
X96351939Y-71842876D01*
X96345487Y-71841504D01*
X96154513Y-71841504D01*
X96148061Y-71842876D01*
X96148056Y-71842876D01*
X96061113Y-71861357D01*
X95967713Y-71881210D01*
X95961683Y-71883895D01*
X95961682Y-71883895D01*
X95799280Y-71956201D01*
X95799278Y-71956202D01*
X95793250Y-71958886D01*
X95787909Y-71962766D01*
X95787908Y-71962767D01*
X95644093Y-72067254D01*
X95644091Y-72067256D01*
X95638749Y-72071137D01*
X95634328Y-72076047D01*
X95634327Y-72076048D01*
X95547987Y-72171939D01*
X95510963Y-72213058D01*
X95415476Y-72378446D01*
X95356462Y-72560073D01*
X95336500Y-72750000D01*
X50508000Y-72750000D01*
X50508000Y-70000000D01*
X93486500Y-70000000D01*
X93506462Y-70189927D01*
X93565476Y-70371554D01*
X93660963Y-70536942D01*
X93665381Y-70541849D01*
X93665382Y-70541850D01*
X93784327Y-70673952D01*
X93788749Y-70678863D01*
X93794091Y-70682744D01*
X93794093Y-70682746D01*
X93915554Y-70770992D01*
X93943250Y-70791114D01*
X93949278Y-70793798D01*
X93949280Y-70793799D01*
X94111682Y-70866105D01*
X94117713Y-70868790D01*
X94211113Y-70888643D01*
X94298056Y-70907124D01*
X94298061Y-70907124D01*
X94304513Y-70908496D01*
X94495487Y-70908496D01*
X94501939Y-70907124D01*
X94501944Y-70907124D01*
X94588887Y-70888643D01*
X94682287Y-70868790D01*
X94688318Y-70866105D01*
X94850720Y-70793799D01*
X94850722Y-70793798D01*
X94856750Y-70791114D01*
X94884446Y-70770992D01*
X95005907Y-70682746D01*
X95005909Y-70682744D01*
X95011251Y-70678863D01*
X95015673Y-70673952D01*
X95134618Y-70541850D01*
X95134619Y-70541849D01*
X95139037Y-70536942D01*
X95160366Y-70500000D01*
X96086500Y-70500000D01*
X96106462Y-70689927D01*
X96108502Y-70696205D01*
X96108502Y-70696206D01*
X96138079Y-70787233D01*
X96165476Y-70871554D01*
X96168779Y-70877276D01*
X96168780Y-70877277D01*
X96187540Y-70909770D01*
X96260963Y-71036942D01*
X96388749Y-71178863D01*
X96394091Y-71182744D01*
X96394093Y-71182746D01*
X96537908Y-71287233D01*
X96543250Y-71291114D01*
X96549278Y-71293798D01*
X96549280Y-71293799D01*
X96711682Y-71366105D01*
X96717713Y-71368790D01*
X96811113Y-71388643D01*
X96898056Y-71407124D01*
X96898061Y-71407124D01*
X96904513Y-71408496D01*
X97095487Y-71408496D01*
X97101939Y-71407124D01*
X97101944Y-71407124D01*
X97188887Y-71388643D01*
X97282287Y-71368790D01*
X97288318Y-71366105D01*
X97450720Y-71293799D01*
X97450722Y-71293798D01*
X97456750Y-71291114D01*
X97462092Y-71287233D01*
X97605907Y-71182746D01*
X97605909Y-71182744D01*
X97611251Y-71178863D01*
X97739037Y-71036942D01*
X97812460Y-70909770D01*
X97831220Y-70877277D01*
X97831221Y-70877276D01*
X97834524Y-70871554D01*
X97861921Y-70787233D01*
X97891498Y-70696206D01*
X97891498Y-70696205D01*
X97893538Y-70689927D01*
X97913500Y-70500000D01*
X97893538Y-70310073D01*
X97884165Y-70281224D01*
X97836566Y-70134731D01*
X97834524Y-70128446D01*
X97760366Y-70000000D01*
X100486500Y-70000000D01*
X100506462Y-70189927D01*
X100565476Y-70371554D01*
X100660963Y-70536942D01*
X100665381Y-70541849D01*
X100665382Y-70541850D01*
X100784327Y-70673952D01*
X100788749Y-70678863D01*
X100794091Y-70682744D01*
X100794093Y-70682746D01*
X100915554Y-70770992D01*
X100943250Y-70791114D01*
X100949278Y-70793798D01*
X100949280Y-70793799D01*
X101111682Y-70866105D01*
X101117713Y-70868790D01*
X101211113Y-70888643D01*
X101298056Y-70907124D01*
X101298061Y-70907124D01*
X101304513Y-70908496D01*
X101495487Y-70908496D01*
X101501939Y-70907124D01*
X101501944Y-70907124D01*
X101588887Y-70888643D01*
X101682287Y-70868790D01*
X101688318Y-70866105D01*
X101850720Y-70793799D01*
X101850722Y-70793798D01*
X101856750Y-70791114D01*
X101884446Y-70770992D01*
X102005907Y-70682746D01*
X102005909Y-70682744D01*
X102011251Y-70678863D01*
X102015673Y-70673952D01*
X102134618Y-70541850D01*
X102134619Y-70541849D01*
X102139037Y-70536942D01*
X102234524Y-70371554D01*
X102293538Y-70189927D01*
X102313500Y-70000000D01*
X102293538Y-69810073D01*
X102234524Y-69628446D01*
X102213196Y-69591504D01*
X102142338Y-69468776D01*
X102139037Y-69463058D01*
X102011251Y-69321137D01*
X102005909Y-69317256D01*
X102005907Y-69317254D01*
X101862092Y-69212767D01*
X101862091Y-69212766D01*
X101856750Y-69208886D01*
X101850722Y-69206202D01*
X101850720Y-69206201D01*
X101688318Y-69133895D01*
X101688317Y-69133895D01*
X101682287Y-69131210D01*
X101588887Y-69111357D01*
X101501944Y-69092876D01*
X101501939Y-69092876D01*
X101495487Y-69091504D01*
X101304513Y-69091504D01*
X101298061Y-69092876D01*
X101298056Y-69092876D01*
X101211113Y-69111357D01*
X101117713Y-69131210D01*
X101111683Y-69133895D01*
X101111682Y-69133895D01*
X100949280Y-69206201D01*
X100949278Y-69206202D01*
X100943250Y-69208886D01*
X100937909Y-69212766D01*
X100937908Y-69212767D01*
X100794093Y-69317254D01*
X100794091Y-69317256D01*
X100788749Y-69321137D01*
X100660963Y-69463058D01*
X100657662Y-69468776D01*
X100586805Y-69591504D01*
X100565476Y-69628446D01*
X100506462Y-69810073D01*
X100486500Y-70000000D01*
X97760366Y-70000000D01*
X97739037Y-69963058D01*
X97723864Y-69946206D01*
X97615673Y-69826048D01*
X97615672Y-69826047D01*
X97611251Y-69821137D01*
X97605909Y-69817256D01*
X97605907Y-69817254D01*
X97462092Y-69712767D01*
X97462091Y-69712766D01*
X97456750Y-69708886D01*
X97450722Y-69706202D01*
X97450720Y-69706201D01*
X97288318Y-69633895D01*
X97288317Y-69633895D01*
X97282287Y-69631210D01*
X97188887Y-69611357D01*
X97101944Y-69592876D01*
X97101939Y-69592876D01*
X97095487Y-69591504D01*
X96904513Y-69591504D01*
X96898061Y-69592876D01*
X96898056Y-69592876D01*
X96811113Y-69611357D01*
X96717713Y-69631210D01*
X96711683Y-69633895D01*
X96711682Y-69633895D01*
X96549280Y-69706201D01*
X96549278Y-69706202D01*
X96543250Y-69708886D01*
X96537909Y-69712766D01*
X96537908Y-69712767D01*
X96394093Y-69817254D01*
X96394091Y-69817256D01*
X96388749Y-69821137D01*
X96384328Y-69826047D01*
X96384327Y-69826048D01*
X96276137Y-69946206D01*
X96260963Y-69963058D01*
X96165476Y-70128446D01*
X96163434Y-70134731D01*
X96115836Y-70281224D01*
X96106462Y-70310073D01*
X96086500Y-70500000D01*
X95160366Y-70500000D01*
X95234524Y-70371554D01*
X95293538Y-70189927D01*
X95313500Y-70000000D01*
X95293538Y-69810073D01*
X95234524Y-69628446D01*
X95213196Y-69591504D01*
X95142338Y-69468776D01*
X95139037Y-69463058D01*
X95011251Y-69321137D01*
X95005909Y-69317256D01*
X95005907Y-69317254D01*
X94862092Y-69212767D01*
X94862091Y-69212766D01*
X94856750Y-69208886D01*
X94850722Y-69206202D01*
X94850720Y-69206201D01*
X94688318Y-69133895D01*
X94688317Y-69133895D01*
X94682287Y-69131210D01*
X94588887Y-69111357D01*
X94501944Y-69092876D01*
X94501939Y-69092876D01*
X94495487Y-69091504D01*
X94304513Y-69091504D01*
X94298061Y-69092876D01*
X94298056Y-69092876D01*
X94211113Y-69111357D01*
X94117713Y-69131210D01*
X94111683Y-69133895D01*
X94111682Y-69133895D01*
X93949280Y-69206201D01*
X93949278Y-69206202D01*
X93943250Y-69208886D01*
X93937909Y-69212766D01*
X93937908Y-69212767D01*
X93794093Y-69317254D01*
X93794091Y-69317256D01*
X93788749Y-69321137D01*
X93660963Y-69463058D01*
X93657662Y-69468776D01*
X93586805Y-69591504D01*
X93565476Y-69628446D01*
X93506462Y-69810073D01*
X93486500Y-70000000D01*
X50508000Y-70000000D01*
X50508000Y-66000000D01*
X96586500Y-66000000D01*
X96606462Y-66189927D01*
X96608502Y-66196205D01*
X96608502Y-66196206D01*
X96612802Y-66209439D01*
X96665476Y-66371554D01*
X96760963Y-66536942D01*
X96888749Y-66678863D01*
X96894091Y-66682744D01*
X96894093Y-66682746D01*
X97037905Y-66787231D01*
X97043250Y-66791114D01*
X97049278Y-66793798D01*
X97049280Y-66793799D01*
X97211682Y-66866105D01*
X97217713Y-66868790D01*
X97311113Y-66888643D01*
X97398056Y-66907124D01*
X97398061Y-66907124D01*
X97404513Y-66908496D01*
X97595487Y-66908496D01*
X97601939Y-66907124D01*
X97601944Y-66907124D01*
X97688887Y-66888643D01*
X97782287Y-66868790D01*
X97788318Y-66866105D01*
X97950720Y-66793799D01*
X97950722Y-66793798D01*
X97956750Y-66791114D01*
X97962092Y-66787232D01*
X97962095Y-66787231D01*
X97964168Y-66785725D01*
X97965570Y-66785225D01*
X97967809Y-66783932D01*
X97968045Y-66784342D01*
X98031036Y-66761868D01*
X98100187Y-66777951D01*
X98149666Y-66828866D01*
X98158059Y-66848727D01*
X98165476Y-66871554D01*
X98168779Y-66877276D01*
X98168780Y-66877277D01*
X98202689Y-66936008D01*
X98260963Y-67036942D01*
X98388749Y-67178863D01*
X98394091Y-67182744D01*
X98394093Y-67182746D01*
X98537908Y-67287233D01*
X98543250Y-67291114D01*
X98549278Y-67293798D01*
X98549280Y-67293799D01*
X98711682Y-67366105D01*
X98717713Y-67368790D01*
X98811113Y-67388643D01*
X98898056Y-67407124D01*
X98898061Y-67407124D01*
X98904513Y-67408496D01*
X99095487Y-67408496D01*
X99101939Y-67407124D01*
X99101944Y-67407124D01*
X99188887Y-67388643D01*
X99282287Y-67368790D01*
X99288318Y-67366105D01*
X99450720Y-67293799D01*
X99450722Y-67293798D01*
X99456750Y-67291114D01*
X99462092Y-67287233D01*
X99605907Y-67182746D01*
X99605909Y-67182744D01*
X99611251Y-67178863D01*
X99739037Y-67036942D01*
X99797311Y-66936008D01*
X99831220Y-66877277D01*
X99831221Y-66877276D01*
X99834524Y-66871554D01*
X99893538Y-66689927D01*
X99913500Y-66500000D01*
X99899339Y-66365269D01*
X99894228Y-66316637D01*
X99894228Y-66316636D01*
X99893538Y-66310073D01*
X99861509Y-66211496D01*
X99836566Y-66134731D01*
X99834524Y-66128446D01*
X99739037Y-65963058D01*
X99662814Y-65878403D01*
X99615673Y-65826048D01*
X99615672Y-65826047D01*
X99611251Y-65821137D01*
X99605909Y-65817256D01*
X99605907Y-65817254D01*
X99462092Y-65712767D01*
X99462091Y-65712766D01*
X99456750Y-65708886D01*
X99450722Y-65706202D01*
X99450720Y-65706201D01*
X99288318Y-65633895D01*
X99288317Y-65633895D01*
X99282287Y-65631210D01*
X99188887Y-65611357D01*
X99101944Y-65592876D01*
X99101939Y-65592876D01*
X99095487Y-65591504D01*
X98904513Y-65591504D01*
X98898061Y-65592876D01*
X98898056Y-65592876D01*
X98811113Y-65611357D01*
X98717713Y-65631210D01*
X98711683Y-65633895D01*
X98711682Y-65633895D01*
X98549280Y-65706201D01*
X98549278Y-65706202D01*
X98543250Y-65708886D01*
X98537908Y-65712767D01*
X98537905Y-65712769D01*
X98535832Y-65714275D01*
X98534430Y-65714775D01*
X98532191Y-65716068D01*
X98531955Y-65715658D01*
X98468964Y-65738132D01*
X98399813Y-65722049D01*
X98350334Y-65671134D01*
X98341941Y-65651273D01*
X98336566Y-65634731D01*
X98334524Y-65628446D01*
X98313196Y-65591504D01*
X98250164Y-65482331D01*
X98239037Y-65463058D01*
X98111251Y-65321137D01*
X98105909Y-65317256D01*
X98105907Y-65317254D01*
X97962092Y-65212767D01*
X97962091Y-65212766D01*
X97956750Y-65208886D01*
X97950722Y-65206202D01*
X97950720Y-65206201D01*
X97788318Y-65133895D01*
X97788317Y-65133895D01*
X97782287Y-65131210D01*
X97688887Y-65111357D01*
X97645964Y-65102233D01*
X132180338Y-65102233D01*
X132217002Y-65329861D01*
X132291494Y-65548056D01*
X132294044Y-65552743D01*
X132294045Y-65552745D01*
X132315880Y-65592876D01*
X132401685Y-65750580D01*
X132544424Y-65931644D01*
X132585591Y-65968776D01*
X132711659Y-66082489D01*
X132711665Y-66082494D01*
X132715629Y-66086069D01*
X132910406Y-66209439D01*
X133123184Y-66298228D01*
X133128387Y-66299425D01*
X133128392Y-66299426D01*
X133342678Y-66348701D01*
X133342683Y-66348702D01*
X133347881Y-66349897D01*
X133353209Y-66350200D01*
X133353212Y-66350200D01*
X133509293Y-66359063D01*
X133578071Y-66362968D01*
X133583378Y-66362368D01*
X133583380Y-66362368D01*
X133704272Y-66348701D01*
X133807173Y-66337068D01*
X133812288Y-66335587D01*
X133812292Y-66335586D01*
X133941298Y-66298228D01*
X134028635Y-66272937D01*
X134236125Y-66172409D01*
X134240463Y-66169309D01*
X134240468Y-66169306D01*
X134419370Y-66041459D01*
X134423711Y-66038357D01*
X134586030Y-65874617D01*
X134589090Y-65870255D01*
X134589095Y-65870249D01*
X134707634Y-65701271D01*
X134763130Y-65656990D01*
X134833755Y-65649743D01*
X134897088Y-65681829D01*
X134921461Y-65713410D01*
X134941685Y-65750580D01*
X135084424Y-65931644D01*
X135125591Y-65968776D01*
X135251659Y-66082489D01*
X135251665Y-66082494D01*
X135255629Y-66086069D01*
X135450406Y-66209439D01*
X135663184Y-66298228D01*
X135668387Y-66299425D01*
X135668392Y-66299426D01*
X135882678Y-66348701D01*
X135882683Y-66348702D01*
X135887881Y-66349897D01*
X135893209Y-66350200D01*
X135893212Y-66350200D01*
X136049293Y-66359063D01*
X136118071Y-66362968D01*
X136123378Y-66362368D01*
X136123380Y-66362368D01*
X136244272Y-66348701D01*
X136347173Y-66337068D01*
X136352288Y-66335587D01*
X136352292Y-66335586D01*
X136481298Y-66298228D01*
X136568635Y-66272937D01*
X136776125Y-66172409D01*
X136780463Y-66169309D01*
X136780468Y-66169306D01*
X136959370Y-66041459D01*
X136963711Y-66038357D01*
X137126030Y-65874617D01*
X137166365Y-65817120D01*
X137255375Y-65690236D01*
X137255376Y-65690234D01*
X137258439Y-65685868D01*
X137302496Y-65592876D01*
X137354868Y-65482331D01*
X137357153Y-65477508D01*
X137419349Y-65255494D01*
X137443249Y-65026176D01*
X137443500Y-65000000D01*
X137438150Y-64936942D01*
X137424458Y-64775576D01*
X137424457Y-64775572D01*
X137424007Y-64770265D01*
X137366084Y-64547098D01*
X137314731Y-64433098D01*
X137273578Y-64341743D01*
X137273577Y-64341741D01*
X137271388Y-64336882D01*
X137142627Y-64145626D01*
X136983482Y-63978799D01*
X136798504Y-63841171D01*
X136793753Y-63838755D01*
X136793749Y-63838753D01*
X136597740Y-63739097D01*
X136597739Y-63739097D01*
X136592982Y-63736678D01*
X136482887Y-63702492D01*
X136377895Y-63669891D01*
X136377889Y-63669890D01*
X136372792Y-63668307D01*
X136267798Y-63654391D01*
X136149515Y-63638714D01*
X136149510Y-63638714D01*
X136144230Y-63638014D01*
X136138900Y-63638214D01*
X136138899Y-63638214D01*
X136029030Y-63642339D01*
X135913831Y-63646663D01*
X135831368Y-63663966D01*
X135693411Y-63692912D01*
X135693408Y-63692913D01*
X135688184Y-63694009D01*
X135473740Y-63778697D01*
X135276631Y-63898306D01*
X135272601Y-63901803D01*
X135126657Y-64028446D01*
X135102492Y-64049415D01*
X135099109Y-64053541D01*
X135099105Y-64053545D01*
X135026768Y-64141767D01*
X134956304Y-64227705D01*
X134953667Y-64232338D01*
X134953666Y-64232339D01*
X134920116Y-64291278D01*
X134869033Y-64340584D01*
X134799402Y-64354445D01*
X134733332Y-64328461D01*
X134706094Y-64299312D01*
X134702383Y-64293799D01*
X134627618Y-64182746D01*
X134605607Y-64150052D01*
X134605605Y-64150050D01*
X134602627Y-64145626D01*
X134443482Y-63978799D01*
X134258504Y-63841171D01*
X134253753Y-63838755D01*
X134253749Y-63838753D01*
X134057740Y-63739097D01*
X134057739Y-63739097D01*
X134052982Y-63736678D01*
X133942887Y-63702492D01*
X133837895Y-63669891D01*
X133837889Y-63669890D01*
X133832792Y-63668307D01*
X133727798Y-63654391D01*
X133609515Y-63638714D01*
X133609510Y-63638714D01*
X133604230Y-63638014D01*
X133598900Y-63638214D01*
X133598899Y-63638214D01*
X133489030Y-63642339D01*
X133373831Y-63646663D01*
X133291368Y-63663966D01*
X133153411Y-63692912D01*
X133153408Y-63692913D01*
X133148184Y-63694009D01*
X132933740Y-63778697D01*
X132736631Y-63898306D01*
X132732601Y-63901803D01*
X132586657Y-64028446D01*
X132562492Y-64049415D01*
X132559109Y-64053541D01*
X132559105Y-64053545D01*
X132486768Y-64141767D01*
X132416304Y-64227705D01*
X132413666Y-64232339D01*
X132413663Y-64232344D01*
X132380209Y-64291114D01*
X132302245Y-64428077D01*
X132223578Y-64644802D01*
X132222629Y-64650051D01*
X132222628Y-64650054D01*
X132201794Y-64765269D01*
X132182551Y-64871683D01*
X132181464Y-64984946D01*
X132181097Y-65023210D01*
X132180338Y-65102233D01*
X97645964Y-65102233D01*
X97601944Y-65092876D01*
X97601939Y-65092876D01*
X97595487Y-65091504D01*
X97404513Y-65091504D01*
X97398061Y-65092876D01*
X97398056Y-65092876D01*
X97311113Y-65111357D01*
X97217713Y-65131210D01*
X97211683Y-65133895D01*
X97211682Y-65133895D01*
X97049280Y-65206201D01*
X97049278Y-65206202D01*
X97043250Y-65208886D01*
X97037909Y-65212766D01*
X97037908Y-65212767D01*
X96894093Y-65317254D01*
X96894091Y-65317256D01*
X96888749Y-65321137D01*
X96760963Y-65463058D01*
X96749836Y-65482331D01*
X96686805Y-65591504D01*
X96665476Y-65628446D01*
X96606462Y-65810073D01*
X96586500Y-66000000D01*
X50508000Y-66000000D01*
X50508000Y-64400000D01*
X89286500Y-64400000D01*
X89287190Y-64406565D01*
X89301961Y-64547098D01*
X89306462Y-64589927D01*
X89365476Y-64771554D01*
X89460963Y-64936942D01*
X89465381Y-64941849D01*
X89465382Y-64941850D01*
X89584327Y-65073952D01*
X89588749Y-65078863D01*
X89594091Y-65082744D01*
X89594093Y-65082746D01*
X89664494Y-65133895D01*
X89743250Y-65191114D01*
X89749278Y-65193798D01*
X89749280Y-65193799D01*
X89911682Y-65266105D01*
X89917713Y-65268790D01*
X90011113Y-65288643D01*
X90098056Y-65307124D01*
X90098061Y-65307124D01*
X90104513Y-65308496D01*
X90295487Y-65308496D01*
X90301939Y-65307124D01*
X90301944Y-65307124D01*
X90388887Y-65288643D01*
X90482287Y-65268790D01*
X90488318Y-65266105D01*
X90650720Y-65193799D01*
X90650722Y-65193798D01*
X90656750Y-65191114D01*
X90735506Y-65133895D01*
X90805907Y-65082746D01*
X90805909Y-65082744D01*
X90811251Y-65078863D01*
X90815673Y-65073952D01*
X90934618Y-64941850D01*
X90934619Y-64941849D01*
X90939037Y-64936942D01*
X91034524Y-64771554D01*
X91093538Y-64589927D01*
X91098040Y-64547098D01*
X91112810Y-64406565D01*
X91113500Y-64400000D01*
X91093538Y-64210073D01*
X91034524Y-64028446D01*
X90939037Y-63863058D01*
X90865572Y-63781466D01*
X90815673Y-63726048D01*
X90815672Y-63726047D01*
X90811251Y-63721137D01*
X90805909Y-63717256D01*
X90805907Y-63717254D01*
X90662092Y-63612767D01*
X90662091Y-63612766D01*
X90656750Y-63608886D01*
X90650722Y-63606202D01*
X90650720Y-63606201D01*
X90488318Y-63533895D01*
X90488317Y-63533895D01*
X90482287Y-63531210D01*
X90366343Y-63506565D01*
X90335458Y-63500000D01*
X91486500Y-63500000D01*
X91506462Y-63689927D01*
X91565476Y-63871554D01*
X91660963Y-64036942D01*
X91665381Y-64041849D01*
X91665382Y-64041850D01*
X91762808Y-64150053D01*
X91788749Y-64178863D01*
X91794091Y-64182744D01*
X91794093Y-64182746D01*
X91937908Y-64287233D01*
X91943250Y-64291114D01*
X91949278Y-64293798D01*
X91949280Y-64293799D01*
X92111682Y-64366105D01*
X92117713Y-64368790D01*
X92211113Y-64388643D01*
X92298056Y-64407124D01*
X92298061Y-64407124D01*
X92304513Y-64408496D01*
X92495487Y-64408496D01*
X92501939Y-64407124D01*
X92501944Y-64407124D01*
X92588887Y-64388643D01*
X92682287Y-64368790D01*
X92688318Y-64366105D01*
X92850720Y-64293799D01*
X92850722Y-64293798D01*
X92856750Y-64291114D01*
X92862092Y-64287233D01*
X93005907Y-64182746D01*
X93005909Y-64182744D01*
X93011251Y-64178863D01*
X93037192Y-64150053D01*
X93134618Y-64041850D01*
X93134619Y-64041849D01*
X93139037Y-64036942D01*
X93234524Y-63871554D01*
X93293538Y-63689927D01*
X93313500Y-63500000D01*
X93293538Y-63310073D01*
X93234524Y-63128446D01*
X93139037Y-62963058D01*
X93011251Y-62821137D01*
X93005909Y-62817256D01*
X93005907Y-62817254D01*
X92862092Y-62712767D01*
X92862091Y-62712766D01*
X92856750Y-62708886D01*
X92850722Y-62706202D01*
X92850720Y-62706201D01*
X92688318Y-62633895D01*
X92688317Y-62633895D01*
X92682287Y-62631210D01*
X92588887Y-62611357D01*
X92501944Y-62592876D01*
X92501939Y-62592876D01*
X92495487Y-62591504D01*
X92304513Y-62591504D01*
X92298061Y-62592876D01*
X92298056Y-62592876D01*
X92211113Y-62611357D01*
X92117713Y-62631210D01*
X92111683Y-62633895D01*
X92111682Y-62633895D01*
X91949280Y-62706201D01*
X91949278Y-62706202D01*
X91943250Y-62708886D01*
X91937909Y-62712766D01*
X91937908Y-62712767D01*
X91794093Y-62817254D01*
X91794091Y-62817256D01*
X91788749Y-62821137D01*
X91660963Y-62963058D01*
X91565476Y-63128446D01*
X91506462Y-63310073D01*
X91486500Y-63500000D01*
X90335458Y-63500000D01*
X90301944Y-63492876D01*
X90301939Y-63492876D01*
X90295487Y-63491504D01*
X90104513Y-63491504D01*
X90098061Y-63492876D01*
X90098056Y-63492876D01*
X90033657Y-63506565D01*
X89917713Y-63531210D01*
X89911683Y-63533895D01*
X89911682Y-63533895D01*
X89749280Y-63606201D01*
X89749278Y-63606202D01*
X89743250Y-63608886D01*
X89737909Y-63612766D01*
X89737908Y-63612767D01*
X89594093Y-63717254D01*
X89594091Y-63717256D01*
X89588749Y-63721137D01*
X89584328Y-63726047D01*
X89584327Y-63726048D01*
X89534429Y-63781466D01*
X89460963Y-63863058D01*
X89365476Y-64028446D01*
X89306462Y-64210073D01*
X89286500Y-64400000D01*
X50508000Y-64400000D01*
X50508000Y-60250000D01*
X158336500Y-60250000D01*
X158356462Y-60439927D01*
X158415476Y-60621554D01*
X158510963Y-60786942D01*
X158638749Y-60928863D01*
X158644091Y-60932744D01*
X158644093Y-60932746D01*
X158787908Y-61037233D01*
X158793250Y-61041114D01*
X158799278Y-61043798D01*
X158799280Y-61043799D01*
X158961682Y-61116105D01*
X158967713Y-61118790D01*
X159061113Y-61138643D01*
X159148056Y-61157124D01*
X159148061Y-61157124D01*
X159154513Y-61158496D01*
X159345487Y-61158496D01*
X159351939Y-61157124D01*
X159351944Y-61157124D01*
X159438887Y-61138643D01*
X159532287Y-61118790D01*
X159538318Y-61116105D01*
X159700720Y-61043799D01*
X159700722Y-61043798D01*
X159706750Y-61041114D01*
X159712092Y-61037233D01*
X159855907Y-60932746D01*
X159855909Y-60932744D01*
X159861251Y-60928863D01*
X159989037Y-60786942D01*
X160084524Y-60621554D01*
X160143538Y-60439927D01*
X160163500Y-60250000D01*
X160143538Y-60060073D01*
X160084524Y-59878446D01*
X159989037Y-59713058D01*
X159861251Y-59571137D01*
X159855909Y-59567256D01*
X159855907Y-59567254D01*
X159712092Y-59462767D01*
X159712091Y-59462766D01*
X159706750Y-59458886D01*
X159700722Y-59456202D01*
X159700720Y-59456201D01*
X159538318Y-59383895D01*
X159538317Y-59383895D01*
X159532287Y-59381210D01*
X159438887Y-59361357D01*
X159351944Y-59342876D01*
X159351939Y-59342876D01*
X159345487Y-59341504D01*
X159154513Y-59341504D01*
X159148061Y-59342876D01*
X159148056Y-59342876D01*
X159061113Y-59361357D01*
X158967713Y-59381210D01*
X158961683Y-59383895D01*
X158961682Y-59383895D01*
X158799280Y-59456201D01*
X158799278Y-59456202D01*
X158793250Y-59458886D01*
X158787909Y-59462766D01*
X158787908Y-59462767D01*
X158644093Y-59567254D01*
X158644091Y-59567256D01*
X158638749Y-59571137D01*
X158510963Y-59713058D01*
X158415476Y-59878446D01*
X158356462Y-60060073D01*
X158336500Y-60250000D01*
X50508000Y-60250000D01*
X50508000Y-57600000D01*
X54086500Y-57600000D01*
X54106462Y-57789927D01*
X54165476Y-57971554D01*
X54260963Y-58136942D01*
X54388749Y-58278863D01*
X54394091Y-58282744D01*
X54394093Y-58282746D01*
X54537908Y-58387233D01*
X54543250Y-58391114D01*
X54549278Y-58393798D01*
X54549280Y-58393799D01*
X54711682Y-58466105D01*
X54717713Y-58468790D01*
X54811113Y-58488643D01*
X54898056Y-58507124D01*
X54898061Y-58507124D01*
X54904513Y-58508496D01*
X55095487Y-58508496D01*
X55101939Y-58507124D01*
X55101944Y-58507124D01*
X55188887Y-58488643D01*
X55282287Y-58468790D01*
X55288318Y-58466105D01*
X55450720Y-58393799D01*
X55450722Y-58393798D01*
X55456750Y-58391114D01*
X55462092Y-58387233D01*
X55605907Y-58282746D01*
X55605909Y-58282744D01*
X55611251Y-58278863D01*
X55739037Y-58136942D01*
X55834524Y-57971554D01*
X55893538Y-57789927D01*
X55913500Y-57600000D01*
X61486500Y-57600000D01*
X61506462Y-57789927D01*
X61565476Y-57971554D01*
X61660963Y-58136942D01*
X61788749Y-58278863D01*
X61794091Y-58282744D01*
X61794093Y-58282746D01*
X61937908Y-58387233D01*
X61943250Y-58391114D01*
X61949278Y-58393798D01*
X61949280Y-58393799D01*
X62111682Y-58466105D01*
X62117713Y-58468790D01*
X62211113Y-58488643D01*
X62298056Y-58507124D01*
X62298061Y-58507124D01*
X62304513Y-58508496D01*
X62495487Y-58508496D01*
X62501939Y-58507124D01*
X62501944Y-58507124D01*
X62588887Y-58488643D01*
X62682287Y-58468790D01*
X62688318Y-58466105D01*
X62850720Y-58393799D01*
X62850722Y-58393798D01*
X62856750Y-58391114D01*
X62862092Y-58387233D01*
X63005907Y-58282746D01*
X63005909Y-58282744D01*
X63011251Y-58278863D01*
X63139037Y-58136942D01*
X63234524Y-57971554D01*
X63293538Y-57789927D01*
X63313500Y-57600000D01*
X69886500Y-57600000D01*
X69906462Y-57789927D01*
X69965476Y-57971554D01*
X70060963Y-58136942D01*
X70188749Y-58278863D01*
X70194091Y-58282744D01*
X70194093Y-58282746D01*
X70337908Y-58387233D01*
X70343250Y-58391114D01*
X70349278Y-58393798D01*
X70349280Y-58393799D01*
X70511682Y-58466105D01*
X70517713Y-58468790D01*
X70611113Y-58488643D01*
X70698056Y-58507124D01*
X70698061Y-58507124D01*
X70704513Y-58508496D01*
X70895487Y-58508496D01*
X70901939Y-58507124D01*
X70901944Y-58507124D01*
X70988887Y-58488643D01*
X71082287Y-58468790D01*
X71088318Y-58466105D01*
X71250720Y-58393799D01*
X71250722Y-58393798D01*
X71256750Y-58391114D01*
X71262092Y-58387233D01*
X71405907Y-58282746D01*
X71405909Y-58282744D01*
X71411251Y-58278863D01*
X71539037Y-58136942D01*
X71634524Y-57971554D01*
X71693538Y-57789927D01*
X71713500Y-57600000D01*
X77086500Y-57600000D01*
X77106462Y-57789927D01*
X77165476Y-57971554D01*
X77260963Y-58136942D01*
X77388749Y-58278863D01*
X77394091Y-58282744D01*
X77394093Y-58282746D01*
X77537908Y-58387233D01*
X77543250Y-58391114D01*
X77549278Y-58393798D01*
X77549280Y-58393799D01*
X77711682Y-58466105D01*
X77717713Y-58468790D01*
X77811113Y-58488643D01*
X77898056Y-58507124D01*
X77898061Y-58507124D01*
X77904513Y-58508496D01*
X78095487Y-58508496D01*
X78101939Y-58507124D01*
X78101944Y-58507124D01*
X78188887Y-58488643D01*
X78282287Y-58468790D01*
X78288318Y-58466105D01*
X78450720Y-58393799D01*
X78450722Y-58393798D01*
X78456750Y-58391114D01*
X78462092Y-58387233D01*
X78605907Y-58282746D01*
X78605909Y-58282744D01*
X78611251Y-58278863D01*
X78739037Y-58136942D01*
X78834524Y-57971554D01*
X78893538Y-57789927D01*
X78913500Y-57600000D01*
X84486500Y-57600000D01*
X84506462Y-57789927D01*
X84565476Y-57971554D01*
X84660963Y-58136942D01*
X84788749Y-58278863D01*
X84794091Y-58282744D01*
X84794093Y-58282746D01*
X84937908Y-58387233D01*
X84943250Y-58391114D01*
X84949278Y-58393798D01*
X84949280Y-58393799D01*
X85111682Y-58466105D01*
X85117713Y-58468790D01*
X85211113Y-58488643D01*
X85298056Y-58507124D01*
X85298061Y-58507124D01*
X85304513Y-58508496D01*
X85495487Y-58508496D01*
X85501939Y-58507124D01*
X85501944Y-58507124D01*
X85588887Y-58488643D01*
X85682287Y-58468790D01*
X85688318Y-58466105D01*
X85850720Y-58393799D01*
X85850722Y-58393798D01*
X85856750Y-58391114D01*
X85862092Y-58387233D01*
X86005907Y-58282746D01*
X86005909Y-58282744D01*
X86011251Y-58278863D01*
X86139037Y-58136942D01*
X86234524Y-57971554D01*
X86293538Y-57789927D01*
X86313500Y-57600000D01*
X91686500Y-57600000D01*
X91706462Y-57789927D01*
X91765476Y-57971554D01*
X91860963Y-58136942D01*
X91988749Y-58278863D01*
X91994091Y-58282744D01*
X91994093Y-58282746D01*
X92137908Y-58387233D01*
X92143250Y-58391114D01*
X92149278Y-58393798D01*
X92149280Y-58393799D01*
X92311682Y-58466105D01*
X92317713Y-58468790D01*
X92411113Y-58488643D01*
X92498056Y-58507124D01*
X92498061Y-58507124D01*
X92504513Y-58508496D01*
X92695487Y-58508496D01*
X92701939Y-58507124D01*
X92701944Y-58507124D01*
X92788887Y-58488643D01*
X92882287Y-58468790D01*
X92888318Y-58466105D01*
X93050720Y-58393799D01*
X93050722Y-58393798D01*
X93056750Y-58391114D01*
X93062092Y-58387233D01*
X93205907Y-58282746D01*
X93205909Y-58282744D01*
X93211251Y-58278863D01*
X93339037Y-58136942D01*
X93434524Y-57971554D01*
X93493538Y-57789927D01*
X93513500Y-57600000D01*
X97886500Y-57600000D01*
X97906462Y-57789927D01*
X97965476Y-57971554D01*
X98060963Y-58136942D01*
X98188749Y-58278863D01*
X98194091Y-58282744D01*
X98194093Y-58282746D01*
X98337908Y-58387233D01*
X98343250Y-58391114D01*
X98349278Y-58393798D01*
X98349280Y-58393799D01*
X98511682Y-58466105D01*
X98517713Y-58468790D01*
X98611113Y-58488643D01*
X98698056Y-58507124D01*
X98698061Y-58507124D01*
X98704513Y-58508496D01*
X98895487Y-58508496D01*
X98901939Y-58507124D01*
X98901944Y-58507124D01*
X98988887Y-58488643D01*
X99082287Y-58468790D01*
X99088318Y-58466105D01*
X99250720Y-58393799D01*
X99250722Y-58393798D01*
X99256750Y-58391114D01*
X99262092Y-58387233D01*
X99405907Y-58282746D01*
X99405909Y-58282744D01*
X99411251Y-58278863D01*
X99539037Y-58136942D01*
X99634524Y-57971554D01*
X99693538Y-57789927D01*
X99713500Y-57600000D01*
X106886500Y-57600000D01*
X106906462Y-57789927D01*
X106965476Y-57971554D01*
X107060963Y-58136942D01*
X107188749Y-58278863D01*
X107194091Y-58282744D01*
X107194093Y-58282746D01*
X107337908Y-58387233D01*
X107343250Y-58391114D01*
X107349278Y-58393798D01*
X107349280Y-58393799D01*
X107511682Y-58466105D01*
X107517713Y-58468790D01*
X107611113Y-58488643D01*
X107698056Y-58507124D01*
X107698061Y-58507124D01*
X107704513Y-58508496D01*
X107895487Y-58508496D01*
X107901939Y-58507124D01*
X107901944Y-58507124D01*
X107988887Y-58488643D01*
X108082287Y-58468790D01*
X108088318Y-58466105D01*
X108250720Y-58393799D01*
X108250722Y-58393798D01*
X108256750Y-58391114D01*
X108262092Y-58387233D01*
X108405907Y-58282746D01*
X108405909Y-58282744D01*
X108411251Y-58278863D01*
X108539037Y-58136942D01*
X108634524Y-57971554D01*
X108693538Y-57789927D01*
X108713500Y-57600000D01*
X112886500Y-57600000D01*
X112906462Y-57789927D01*
X112965476Y-57971554D01*
X113060963Y-58136942D01*
X113188749Y-58278863D01*
X113194091Y-58282744D01*
X113194093Y-58282746D01*
X113337908Y-58387233D01*
X113343250Y-58391114D01*
X113349278Y-58393798D01*
X113349280Y-58393799D01*
X113511682Y-58466105D01*
X113517713Y-58468790D01*
X113611113Y-58488643D01*
X113698056Y-58507124D01*
X113698061Y-58507124D01*
X113704513Y-58508496D01*
X113895487Y-58508496D01*
X113901939Y-58507124D01*
X113901944Y-58507124D01*
X113988887Y-58488643D01*
X114082287Y-58468790D01*
X114088318Y-58466105D01*
X114250720Y-58393799D01*
X114250722Y-58393798D01*
X114256750Y-58391114D01*
X114262092Y-58387233D01*
X114405907Y-58282746D01*
X114405909Y-58282744D01*
X114411251Y-58278863D01*
X114539037Y-58136942D01*
X114634524Y-57971554D01*
X114693538Y-57789927D01*
X114713500Y-57600000D01*
X122086500Y-57600000D01*
X122106462Y-57789927D01*
X122165476Y-57971554D01*
X122260963Y-58136942D01*
X122388749Y-58278863D01*
X122394091Y-58282744D01*
X122394093Y-58282746D01*
X122537908Y-58387233D01*
X122543250Y-58391114D01*
X122549278Y-58393798D01*
X122549280Y-58393799D01*
X122711682Y-58466105D01*
X122717713Y-58468790D01*
X122811113Y-58488643D01*
X122898056Y-58507124D01*
X122898061Y-58507124D01*
X122904513Y-58508496D01*
X123095487Y-58508496D01*
X123101939Y-58507124D01*
X123101944Y-58507124D01*
X123188887Y-58488643D01*
X123282287Y-58468790D01*
X123288318Y-58466105D01*
X123450720Y-58393799D01*
X123450722Y-58393798D01*
X123456750Y-58391114D01*
X123462092Y-58387233D01*
X123605907Y-58282746D01*
X123605909Y-58282744D01*
X123611251Y-58278863D01*
X123739037Y-58136942D01*
X123834524Y-57971554D01*
X123893538Y-57789927D01*
X123913500Y-57600000D01*
X123893538Y-57410073D01*
X123834524Y-57228446D01*
X123739037Y-57063058D01*
X123611251Y-56921137D01*
X123605909Y-56917256D01*
X123605907Y-56917254D01*
X123462092Y-56812767D01*
X123462091Y-56812766D01*
X123456750Y-56808886D01*
X123450722Y-56806202D01*
X123450720Y-56806201D01*
X123288318Y-56733895D01*
X123288317Y-56733895D01*
X123282287Y-56731210D01*
X123188887Y-56711357D01*
X123101944Y-56692876D01*
X123101939Y-56692876D01*
X123095487Y-56691504D01*
X122904513Y-56691504D01*
X122898061Y-56692876D01*
X122898056Y-56692876D01*
X122811113Y-56711357D01*
X122717713Y-56731210D01*
X122711683Y-56733895D01*
X122711682Y-56733895D01*
X122549280Y-56806201D01*
X122549278Y-56806202D01*
X122543250Y-56808886D01*
X122537909Y-56812766D01*
X122537908Y-56812767D01*
X122394093Y-56917254D01*
X122394091Y-56917256D01*
X122388749Y-56921137D01*
X122260963Y-57063058D01*
X122165476Y-57228446D01*
X122106462Y-57410073D01*
X122086500Y-57600000D01*
X114713500Y-57600000D01*
X114693538Y-57410073D01*
X114634524Y-57228446D01*
X114539037Y-57063058D01*
X114411251Y-56921137D01*
X114405909Y-56917256D01*
X114405907Y-56917254D01*
X114262092Y-56812767D01*
X114262091Y-56812766D01*
X114256750Y-56808886D01*
X114250722Y-56806202D01*
X114250720Y-56806201D01*
X114088318Y-56733895D01*
X114088317Y-56733895D01*
X114082287Y-56731210D01*
X113988887Y-56711357D01*
X113901944Y-56692876D01*
X113901939Y-56692876D01*
X113895487Y-56691504D01*
X113704513Y-56691504D01*
X113698061Y-56692876D01*
X113698056Y-56692876D01*
X113611113Y-56711357D01*
X113517713Y-56731210D01*
X113511683Y-56733895D01*
X113511682Y-56733895D01*
X113349280Y-56806201D01*
X113349278Y-56806202D01*
X113343250Y-56808886D01*
X113337909Y-56812766D01*
X113337908Y-56812767D01*
X113194093Y-56917254D01*
X113194091Y-56917256D01*
X113188749Y-56921137D01*
X113060963Y-57063058D01*
X112965476Y-57228446D01*
X112906462Y-57410073D01*
X112886500Y-57600000D01*
X108713500Y-57600000D01*
X108693538Y-57410073D01*
X108634524Y-57228446D01*
X108539037Y-57063058D01*
X108411251Y-56921137D01*
X108405909Y-56917256D01*
X108405907Y-56917254D01*
X108262092Y-56812767D01*
X108262091Y-56812766D01*
X108256750Y-56808886D01*
X108250722Y-56806202D01*
X108250720Y-56806201D01*
X108088318Y-56733895D01*
X108088317Y-56733895D01*
X108082287Y-56731210D01*
X107988887Y-56711357D01*
X107901944Y-56692876D01*
X107901939Y-56692876D01*
X107895487Y-56691504D01*
X107704513Y-56691504D01*
X107698061Y-56692876D01*
X107698056Y-56692876D01*
X107611113Y-56711357D01*
X107517713Y-56731210D01*
X107511683Y-56733895D01*
X107511682Y-56733895D01*
X107349280Y-56806201D01*
X107349278Y-56806202D01*
X107343250Y-56808886D01*
X107337909Y-56812766D01*
X107337908Y-56812767D01*
X107194093Y-56917254D01*
X107194091Y-56917256D01*
X107188749Y-56921137D01*
X107060963Y-57063058D01*
X106965476Y-57228446D01*
X106906462Y-57410073D01*
X106886500Y-57600000D01*
X99713500Y-57600000D01*
X99693538Y-57410073D01*
X99634524Y-57228446D01*
X99539037Y-57063058D01*
X99411251Y-56921137D01*
X99405909Y-56917256D01*
X99405907Y-56917254D01*
X99262092Y-56812767D01*
X99262091Y-56812766D01*
X99256750Y-56808886D01*
X99250722Y-56806202D01*
X99250720Y-56806201D01*
X99088318Y-56733895D01*
X99088317Y-56733895D01*
X99082287Y-56731210D01*
X98988887Y-56711357D01*
X98901944Y-56692876D01*
X98901939Y-56692876D01*
X98895487Y-56691504D01*
X98704513Y-56691504D01*
X98698061Y-56692876D01*
X98698056Y-56692876D01*
X98611113Y-56711357D01*
X98517713Y-56731210D01*
X98511683Y-56733895D01*
X98511682Y-56733895D01*
X98349280Y-56806201D01*
X98349278Y-56806202D01*
X98343250Y-56808886D01*
X98337909Y-56812766D01*
X98337908Y-56812767D01*
X98194093Y-56917254D01*
X98194091Y-56917256D01*
X98188749Y-56921137D01*
X98060963Y-57063058D01*
X97965476Y-57228446D01*
X97906462Y-57410073D01*
X97886500Y-57600000D01*
X93513500Y-57600000D01*
X93493538Y-57410073D01*
X93434524Y-57228446D01*
X93339037Y-57063058D01*
X93211251Y-56921137D01*
X93205909Y-56917256D01*
X93205907Y-56917254D01*
X93062092Y-56812767D01*
X93062091Y-56812766D01*
X93056750Y-56808886D01*
X93050722Y-56806202D01*
X93050720Y-56806201D01*
X92888318Y-56733895D01*
X92888317Y-56733895D01*
X92882287Y-56731210D01*
X92788887Y-56711357D01*
X92701944Y-56692876D01*
X92701939Y-56692876D01*
X92695487Y-56691504D01*
X92504513Y-56691504D01*
X92498061Y-56692876D01*
X92498056Y-56692876D01*
X92411113Y-56711357D01*
X92317713Y-56731210D01*
X92311683Y-56733895D01*
X92311682Y-56733895D01*
X92149280Y-56806201D01*
X92149278Y-56806202D01*
X92143250Y-56808886D01*
X92137909Y-56812766D01*
X92137908Y-56812767D01*
X91994093Y-56917254D01*
X91994091Y-56917256D01*
X91988749Y-56921137D01*
X91860963Y-57063058D01*
X91765476Y-57228446D01*
X91706462Y-57410073D01*
X91686500Y-57600000D01*
X86313500Y-57600000D01*
X86293538Y-57410073D01*
X86234524Y-57228446D01*
X86139037Y-57063058D01*
X86011251Y-56921137D01*
X86005909Y-56917256D01*
X86005907Y-56917254D01*
X85862092Y-56812767D01*
X85862091Y-56812766D01*
X85856750Y-56808886D01*
X85850722Y-56806202D01*
X85850720Y-56806201D01*
X85688318Y-56733895D01*
X85688317Y-56733895D01*
X85682287Y-56731210D01*
X85588887Y-56711357D01*
X85501944Y-56692876D01*
X85501939Y-56692876D01*
X85495487Y-56691504D01*
X85304513Y-56691504D01*
X85298061Y-56692876D01*
X85298056Y-56692876D01*
X85211113Y-56711357D01*
X85117713Y-56731210D01*
X85111683Y-56733895D01*
X85111682Y-56733895D01*
X84949280Y-56806201D01*
X84949278Y-56806202D01*
X84943250Y-56808886D01*
X84937909Y-56812766D01*
X84937908Y-56812767D01*
X84794093Y-56917254D01*
X84794091Y-56917256D01*
X84788749Y-56921137D01*
X84660963Y-57063058D01*
X84565476Y-57228446D01*
X84506462Y-57410073D01*
X84486500Y-57600000D01*
X78913500Y-57600000D01*
X78893538Y-57410073D01*
X78834524Y-57228446D01*
X78739037Y-57063058D01*
X78611251Y-56921137D01*
X78605909Y-56917256D01*
X78605907Y-56917254D01*
X78462092Y-56812767D01*
X78462091Y-56812766D01*
X78456750Y-56808886D01*
X78450722Y-56806202D01*
X78450720Y-56806201D01*
X78288318Y-56733895D01*
X78288317Y-56733895D01*
X78282287Y-56731210D01*
X78188887Y-56711357D01*
X78101944Y-56692876D01*
X78101939Y-56692876D01*
X78095487Y-56691504D01*
X77904513Y-56691504D01*
X77898061Y-56692876D01*
X77898056Y-56692876D01*
X77811113Y-56711357D01*
X77717713Y-56731210D01*
X77711683Y-56733895D01*
X77711682Y-56733895D01*
X77549280Y-56806201D01*
X77549278Y-56806202D01*
X77543250Y-56808886D01*
X77537909Y-56812766D01*
X77537908Y-56812767D01*
X77394093Y-56917254D01*
X77394091Y-56917256D01*
X77388749Y-56921137D01*
X77260963Y-57063058D01*
X77165476Y-57228446D01*
X77106462Y-57410073D01*
X77086500Y-57600000D01*
X71713500Y-57600000D01*
X71693538Y-57410073D01*
X71634524Y-57228446D01*
X71539037Y-57063058D01*
X71411251Y-56921137D01*
X71405909Y-56917256D01*
X71405907Y-56917254D01*
X71262092Y-56812767D01*
X71262091Y-56812766D01*
X71256750Y-56808886D01*
X71250722Y-56806202D01*
X71250720Y-56806201D01*
X71088318Y-56733895D01*
X71088317Y-56733895D01*
X71082287Y-56731210D01*
X70988887Y-56711357D01*
X70901944Y-56692876D01*
X70901939Y-56692876D01*
X70895487Y-56691504D01*
X70704513Y-56691504D01*
X70698061Y-56692876D01*
X70698056Y-56692876D01*
X70611113Y-56711357D01*
X70517713Y-56731210D01*
X70511683Y-56733895D01*
X70511682Y-56733895D01*
X70349280Y-56806201D01*
X70349278Y-56806202D01*
X70343250Y-56808886D01*
X70337909Y-56812766D01*
X70337908Y-56812767D01*
X70194093Y-56917254D01*
X70194091Y-56917256D01*
X70188749Y-56921137D01*
X70060963Y-57063058D01*
X69965476Y-57228446D01*
X69906462Y-57410073D01*
X69886500Y-57600000D01*
X63313500Y-57600000D01*
X63293538Y-57410073D01*
X63234524Y-57228446D01*
X63139037Y-57063058D01*
X63011251Y-56921137D01*
X63005909Y-56917256D01*
X63005907Y-56917254D01*
X62862092Y-56812767D01*
X62862091Y-56812766D01*
X62856750Y-56808886D01*
X62850722Y-56806202D01*
X62850720Y-56806201D01*
X62688318Y-56733895D01*
X62688317Y-56733895D01*
X62682287Y-56731210D01*
X62588887Y-56711357D01*
X62501944Y-56692876D01*
X62501939Y-56692876D01*
X62495487Y-56691504D01*
X62304513Y-56691504D01*
X62298061Y-56692876D01*
X62298056Y-56692876D01*
X62211113Y-56711357D01*
X62117713Y-56731210D01*
X62111683Y-56733895D01*
X62111682Y-56733895D01*
X61949280Y-56806201D01*
X61949278Y-56806202D01*
X61943250Y-56808886D01*
X61937909Y-56812766D01*
X61937908Y-56812767D01*
X61794093Y-56917254D01*
X61794091Y-56917256D01*
X61788749Y-56921137D01*
X61660963Y-57063058D01*
X61565476Y-57228446D01*
X61506462Y-57410073D01*
X61486500Y-57600000D01*
X55913500Y-57600000D01*
X55893538Y-57410073D01*
X55834524Y-57228446D01*
X55739037Y-57063058D01*
X55611251Y-56921137D01*
X55605909Y-56917256D01*
X55605907Y-56917254D01*
X55462092Y-56812767D01*
X55462091Y-56812766D01*
X55456750Y-56808886D01*
X55450722Y-56806202D01*
X55450720Y-56806201D01*
X55288318Y-56733895D01*
X55288317Y-56733895D01*
X55282287Y-56731210D01*
X55188887Y-56711357D01*
X55101944Y-56692876D01*
X55101939Y-56692876D01*
X55095487Y-56691504D01*
X54904513Y-56691504D01*
X54898061Y-56692876D01*
X54898056Y-56692876D01*
X54811113Y-56711357D01*
X54717713Y-56731210D01*
X54711683Y-56733895D01*
X54711682Y-56733895D01*
X54549280Y-56806201D01*
X54549278Y-56806202D01*
X54543250Y-56808886D01*
X54537909Y-56812766D01*
X54537908Y-56812767D01*
X54394093Y-56917254D01*
X54394091Y-56917256D01*
X54388749Y-56921137D01*
X54260963Y-57063058D01*
X54165476Y-57228446D01*
X54106462Y-57410073D01*
X54086500Y-57600000D01*
X50508000Y-57600000D01*
X50508000Y-56000000D01*
X128586500Y-56000000D01*
X128606462Y-56189927D01*
X128665476Y-56371554D01*
X128760963Y-56536942D01*
X128765381Y-56541849D01*
X128765382Y-56541850D01*
X128805983Y-56586942D01*
X128888749Y-56678863D01*
X128894091Y-56682744D01*
X128894093Y-56682746D01*
X128962913Y-56732746D01*
X129043250Y-56791114D01*
X129049278Y-56793798D01*
X129049280Y-56793799D01*
X129161582Y-56843799D01*
X129217713Y-56868790D01*
X129311113Y-56888643D01*
X129398056Y-56907124D01*
X129398061Y-56907124D01*
X129404513Y-56908496D01*
X129595487Y-56908496D01*
X129601939Y-56907124D01*
X129601944Y-56907124D01*
X129688887Y-56888643D01*
X129782287Y-56868790D01*
X129838418Y-56843799D01*
X129950720Y-56793799D01*
X129950722Y-56793798D01*
X129956750Y-56791114D01*
X130037087Y-56732746D01*
X130105907Y-56682746D01*
X130105909Y-56682744D01*
X130111251Y-56678863D01*
X130194017Y-56586942D01*
X130234618Y-56541850D01*
X130234619Y-56541849D01*
X130239037Y-56536942D01*
X130334524Y-56371554D01*
X130393538Y-56189927D01*
X130408245Y-56050000D01*
X133586500Y-56050000D01*
X133606462Y-56239927D01*
X133665476Y-56421554D01*
X133760963Y-56586942D01*
X133888749Y-56728863D01*
X133894091Y-56732744D01*
X133894093Y-56732746D01*
X134037908Y-56837233D01*
X134043250Y-56841114D01*
X134049278Y-56843798D01*
X134049280Y-56843799D01*
X134194592Y-56908496D01*
X134217713Y-56918790D01*
X134311113Y-56938643D01*
X134398056Y-56957124D01*
X134398061Y-56957124D01*
X134404513Y-56958496D01*
X134595487Y-56958496D01*
X134601939Y-56957124D01*
X134601944Y-56957124D01*
X134688887Y-56938643D01*
X134782287Y-56918790D01*
X134805408Y-56908496D01*
X134950720Y-56843799D01*
X134950722Y-56843798D01*
X134956750Y-56841114D01*
X134962092Y-56837233D01*
X135105907Y-56732746D01*
X135105909Y-56732744D01*
X135111251Y-56728863D01*
X135239037Y-56586942D01*
X135334524Y-56421554D01*
X135393538Y-56239927D01*
X135413500Y-56050000D01*
X135408245Y-56000000D01*
X138586500Y-56000000D01*
X138606462Y-56189927D01*
X138665476Y-56371554D01*
X138760963Y-56536942D01*
X138765381Y-56541849D01*
X138765382Y-56541850D01*
X138805983Y-56586942D01*
X138888749Y-56678863D01*
X138894091Y-56682744D01*
X138894093Y-56682746D01*
X138962913Y-56732746D01*
X139043250Y-56791114D01*
X139049278Y-56793798D01*
X139049280Y-56793799D01*
X139161582Y-56843799D01*
X139217713Y-56868790D01*
X139311113Y-56888643D01*
X139398056Y-56907124D01*
X139398061Y-56907124D01*
X139404513Y-56908496D01*
X139595487Y-56908496D01*
X139601939Y-56907124D01*
X139601944Y-56907124D01*
X139688887Y-56888643D01*
X139782287Y-56868790D01*
X139838418Y-56843799D01*
X139950720Y-56793799D01*
X139950722Y-56793798D01*
X139956750Y-56791114D01*
X140037087Y-56732746D01*
X140105907Y-56682746D01*
X140105909Y-56682744D01*
X140111251Y-56678863D01*
X140194017Y-56586942D01*
X140234618Y-56541850D01*
X140234619Y-56541849D01*
X140239037Y-56536942D01*
X140334524Y-56371554D01*
X140393538Y-56189927D01*
X140408245Y-56050000D01*
X143586500Y-56050000D01*
X143606462Y-56239927D01*
X143665476Y-56421554D01*
X143760963Y-56586942D01*
X143888749Y-56728863D01*
X143894091Y-56732744D01*
X143894093Y-56732746D01*
X144037908Y-56837233D01*
X144043250Y-56841114D01*
X144049278Y-56843798D01*
X144049280Y-56843799D01*
X144194592Y-56908496D01*
X144217713Y-56918790D01*
X144311113Y-56938643D01*
X144398056Y-56957124D01*
X144398061Y-56957124D01*
X144404513Y-56958496D01*
X144595487Y-56958496D01*
X144601939Y-56957124D01*
X144601944Y-56957124D01*
X144688887Y-56938643D01*
X144782287Y-56918790D01*
X144805408Y-56908496D01*
X144950720Y-56843799D01*
X144950722Y-56843798D01*
X144956750Y-56841114D01*
X144962092Y-56837233D01*
X145105907Y-56732746D01*
X145105909Y-56732744D01*
X145111251Y-56728863D01*
X145239037Y-56586942D01*
X145334524Y-56421554D01*
X145393538Y-56239927D01*
X145413500Y-56050000D01*
X145399153Y-55913500D01*
X145394228Y-55866637D01*
X145394228Y-55866636D01*
X145393538Y-55860073D01*
X145389301Y-55847031D01*
X145353312Y-55736271D01*
X145341527Y-55700000D01*
X147786500Y-55700000D01*
X147787190Y-55706565D01*
X147792154Y-55753790D01*
X147806462Y-55889927D01*
X147808502Y-55896205D01*
X147808502Y-55896206D01*
X147813747Y-55912349D01*
X147865476Y-56071554D01*
X147960963Y-56236942D01*
X148088749Y-56378863D01*
X148094091Y-56382744D01*
X148094093Y-56382746D01*
X148147508Y-56421554D01*
X148243250Y-56491114D01*
X148249278Y-56493798D01*
X148249280Y-56493799D01*
X148411682Y-56566105D01*
X148417713Y-56568790D01*
X148503111Y-56586942D01*
X148598056Y-56607124D01*
X148598061Y-56607124D01*
X148604513Y-56608496D01*
X148795487Y-56608496D01*
X148801939Y-56607124D01*
X148801944Y-56607124D01*
X148896889Y-56586942D01*
X148982287Y-56568790D01*
X148988318Y-56566105D01*
X149150720Y-56493799D01*
X149150722Y-56493798D01*
X149156750Y-56491114D01*
X149252492Y-56421554D01*
X149305907Y-56382746D01*
X149305909Y-56382744D01*
X149311251Y-56378863D01*
X149439037Y-56236942D01*
X149534524Y-56071554D01*
X149586253Y-55912349D01*
X149591498Y-55896206D01*
X149591498Y-55896205D01*
X149593538Y-55889927D01*
X149607847Y-55753790D01*
X149612810Y-55706565D01*
X149613500Y-55700000D01*
X149600114Y-55572639D01*
X149594228Y-55516637D01*
X149594228Y-55516636D01*
X149593538Y-55510073D01*
X149534524Y-55328446D01*
X149439037Y-55163058D01*
X149311251Y-55021137D01*
X149305909Y-55017256D01*
X149305907Y-55017254D01*
X149162092Y-54912767D01*
X149162091Y-54912766D01*
X149156750Y-54908886D01*
X149150722Y-54906202D01*
X149150720Y-54906201D01*
X148988318Y-54833895D01*
X148988317Y-54833895D01*
X148982287Y-54831210D01*
X148888887Y-54811357D01*
X148801944Y-54792876D01*
X148801939Y-54792876D01*
X148795487Y-54791504D01*
X148604513Y-54791504D01*
X148598061Y-54792876D01*
X148598056Y-54792876D01*
X148511113Y-54811357D01*
X148417713Y-54831210D01*
X148411683Y-54833895D01*
X148411682Y-54833895D01*
X148249280Y-54906201D01*
X148249278Y-54906202D01*
X148243250Y-54908886D01*
X148237909Y-54912766D01*
X148237908Y-54912767D01*
X148094093Y-55017254D01*
X148094091Y-55017256D01*
X148088749Y-55021137D01*
X147960963Y-55163058D01*
X147865476Y-55328446D01*
X147806462Y-55510073D01*
X147805772Y-55516636D01*
X147805772Y-55516637D01*
X147799886Y-55572639D01*
X147786500Y-55700000D01*
X145341527Y-55700000D01*
X145334524Y-55678446D01*
X145329314Y-55669421D01*
X145252621Y-55536586D01*
X145239037Y-55513058D01*
X145199166Y-55468776D01*
X145115673Y-55376048D01*
X145115672Y-55376047D01*
X145111251Y-55371137D01*
X145105909Y-55367256D01*
X145105907Y-55367254D01*
X144962092Y-55262767D01*
X144962091Y-55262766D01*
X144956750Y-55258886D01*
X144950722Y-55256202D01*
X144950720Y-55256201D01*
X144788318Y-55183895D01*
X144788317Y-55183895D01*
X144782287Y-55181210D01*
X144688887Y-55161357D01*
X144601944Y-55142876D01*
X144601939Y-55142876D01*
X144595487Y-55141504D01*
X144404513Y-55141504D01*
X144398061Y-55142876D01*
X144398056Y-55142876D01*
X144311113Y-55161357D01*
X144217713Y-55181210D01*
X144211683Y-55183895D01*
X144211682Y-55183895D01*
X144049280Y-55256201D01*
X144049278Y-55256202D01*
X144043250Y-55258886D01*
X144037909Y-55262766D01*
X144037908Y-55262767D01*
X143894093Y-55367254D01*
X143894091Y-55367256D01*
X143888749Y-55371137D01*
X143884328Y-55376047D01*
X143884327Y-55376048D01*
X143800835Y-55468776D01*
X143760963Y-55513058D01*
X143747379Y-55536586D01*
X143670687Y-55669421D01*
X143665476Y-55678446D01*
X143646688Y-55736271D01*
X143610700Y-55847031D01*
X143606462Y-55860073D01*
X143605772Y-55866636D01*
X143605772Y-55866637D01*
X143600847Y-55913500D01*
X143586500Y-56050000D01*
X140408245Y-56050000D01*
X140413500Y-56000000D01*
X140398133Y-55853794D01*
X140394228Y-55816637D01*
X140394228Y-55816636D01*
X140393538Y-55810073D01*
X140384179Y-55781267D01*
X140348910Y-55672723D01*
X140334524Y-55628446D01*
X140330165Y-55620895D01*
X140269971Y-55516637D01*
X140239037Y-55463058D01*
X140186265Y-55404448D01*
X140115673Y-55326048D01*
X140115672Y-55326047D01*
X140111251Y-55321137D01*
X140105909Y-55317256D01*
X140105907Y-55317254D01*
X139962092Y-55212767D01*
X139962091Y-55212766D01*
X139956750Y-55208886D01*
X139950722Y-55206202D01*
X139950720Y-55206201D01*
X139788318Y-55133895D01*
X139788317Y-55133895D01*
X139782287Y-55131210D01*
X139688887Y-55111357D01*
X139601944Y-55092876D01*
X139601939Y-55092876D01*
X139595487Y-55091504D01*
X139404513Y-55091504D01*
X139398061Y-55092876D01*
X139398056Y-55092876D01*
X139311113Y-55111357D01*
X139217713Y-55131210D01*
X139211683Y-55133895D01*
X139211682Y-55133895D01*
X139049280Y-55206201D01*
X139049278Y-55206202D01*
X139043250Y-55208886D01*
X139037909Y-55212766D01*
X139037908Y-55212767D01*
X138894093Y-55317254D01*
X138894091Y-55317256D01*
X138888749Y-55321137D01*
X138884328Y-55326047D01*
X138884327Y-55326048D01*
X138813736Y-55404448D01*
X138760963Y-55463058D01*
X138730029Y-55516637D01*
X138669836Y-55620895D01*
X138665476Y-55628446D01*
X138651090Y-55672723D01*
X138615822Y-55781267D01*
X138606462Y-55810073D01*
X138605772Y-55816636D01*
X138605772Y-55816637D01*
X138601867Y-55853794D01*
X138586500Y-56000000D01*
X135408245Y-56000000D01*
X135399153Y-55913500D01*
X135394228Y-55866637D01*
X135394228Y-55866636D01*
X135393538Y-55860073D01*
X135389301Y-55847031D01*
X135353312Y-55736271D01*
X135334524Y-55678446D01*
X135329314Y-55669421D01*
X135252621Y-55536586D01*
X135239037Y-55513058D01*
X135199166Y-55468776D01*
X135115673Y-55376048D01*
X135115672Y-55376047D01*
X135111251Y-55371137D01*
X135105909Y-55367256D01*
X135105907Y-55367254D01*
X134962092Y-55262767D01*
X134962091Y-55262766D01*
X134956750Y-55258886D01*
X134950722Y-55256202D01*
X134950720Y-55256201D01*
X134788318Y-55183895D01*
X134788317Y-55183895D01*
X134782287Y-55181210D01*
X134688887Y-55161357D01*
X134601944Y-55142876D01*
X134601939Y-55142876D01*
X134595487Y-55141504D01*
X134404513Y-55141504D01*
X134398061Y-55142876D01*
X134398056Y-55142876D01*
X134311113Y-55161357D01*
X134217713Y-55181210D01*
X134211683Y-55183895D01*
X134211682Y-55183895D01*
X134049280Y-55256201D01*
X134049278Y-55256202D01*
X134043250Y-55258886D01*
X134037909Y-55262766D01*
X134037908Y-55262767D01*
X133894093Y-55367254D01*
X133894091Y-55367256D01*
X133888749Y-55371137D01*
X133884328Y-55376047D01*
X133884327Y-55376048D01*
X133800835Y-55468776D01*
X133760963Y-55513058D01*
X133747379Y-55536586D01*
X133670687Y-55669421D01*
X133665476Y-55678446D01*
X133646688Y-55736271D01*
X133610700Y-55847031D01*
X133606462Y-55860073D01*
X133605772Y-55866636D01*
X133605772Y-55866637D01*
X133600847Y-55913500D01*
X133586500Y-56050000D01*
X130408245Y-56050000D01*
X130413500Y-56000000D01*
X130398133Y-55853794D01*
X130394228Y-55816637D01*
X130394228Y-55816636D01*
X130393538Y-55810073D01*
X130384179Y-55781267D01*
X130348910Y-55672723D01*
X130334524Y-55628446D01*
X130330165Y-55620895D01*
X130269971Y-55516637D01*
X130239037Y-55463058D01*
X130186265Y-55404448D01*
X130115673Y-55326048D01*
X130115672Y-55326047D01*
X130111251Y-55321137D01*
X130105909Y-55317256D01*
X130105907Y-55317254D01*
X129962092Y-55212767D01*
X129962091Y-55212766D01*
X129956750Y-55208886D01*
X129950722Y-55206202D01*
X129950720Y-55206201D01*
X129788318Y-55133895D01*
X129788317Y-55133895D01*
X129782287Y-55131210D01*
X129688887Y-55111357D01*
X129601944Y-55092876D01*
X129601939Y-55092876D01*
X129595487Y-55091504D01*
X129404513Y-55091504D01*
X129398061Y-55092876D01*
X129398056Y-55092876D01*
X129311113Y-55111357D01*
X129217713Y-55131210D01*
X129211683Y-55133895D01*
X129211682Y-55133895D01*
X129049280Y-55206201D01*
X129049278Y-55206202D01*
X129043250Y-55208886D01*
X129037909Y-55212766D01*
X129037908Y-55212767D01*
X128894093Y-55317254D01*
X128894091Y-55317256D01*
X128888749Y-55321137D01*
X128884328Y-55326047D01*
X128884327Y-55326048D01*
X128813736Y-55404448D01*
X128760963Y-55463058D01*
X128730029Y-55516637D01*
X128669836Y-55620895D01*
X128665476Y-55628446D01*
X128651090Y-55672723D01*
X128615822Y-55781267D01*
X128606462Y-55810073D01*
X128605772Y-55816636D01*
X128605772Y-55816637D01*
X128601867Y-55853794D01*
X128586500Y-56000000D01*
X50508000Y-56000000D01*
X50508000Y-54605982D01*
X157090479Y-54605982D01*
X157091328Y-54611252D01*
X157091328Y-54611254D01*
X157120582Y-54792876D01*
X157128487Y-54841957D01*
X157130212Y-54847009D01*
X157130212Y-54847010D01*
X157189660Y-55021137D01*
X157205711Y-55068153D01*
X157319943Y-55278105D01*
X157467916Y-55465807D01*
X157645399Y-55625895D01*
X157847318Y-55753790D01*
X157982198Y-55810073D01*
X158034707Y-55831984D01*
X158067900Y-55845835D01*
X158171402Y-55869635D01*
X158295629Y-55898201D01*
X158295633Y-55898202D01*
X158300836Y-55899398D01*
X158306169Y-55899701D01*
X158306170Y-55899701D01*
X158420151Y-55906173D01*
X158539467Y-55912949D01*
X158544774Y-55912349D01*
X158544776Y-55912349D01*
X158687568Y-55896206D01*
X158776970Y-55886099D01*
X158782085Y-55884618D01*
X158782089Y-55884617D01*
X159001430Y-55821100D01*
X159001435Y-55821098D01*
X159006553Y-55819616D01*
X159221652Y-55715401D01*
X159289790Y-55666709D01*
X159411771Y-55579540D01*
X159411773Y-55579538D01*
X159416117Y-55576434D01*
X159455619Y-55536586D01*
X159517782Y-55502289D01*
X159588619Y-55507045D01*
X159645640Y-55549344D01*
X159665997Y-55589793D01*
X159672904Y-55613316D01*
X159678950Y-55622723D01*
X159747051Y-55728691D01*
X159747053Y-55728694D01*
X159751923Y-55736271D01*
X159758733Y-55742172D01*
X159855569Y-55826082D01*
X159855572Y-55826084D01*
X159862381Y-55831984D01*
X159870579Y-55835728D01*
X159982188Y-55886698D01*
X159995330Y-55892700D01*
X160004245Y-55893982D01*
X160004246Y-55893982D01*
X160135552Y-55912861D01*
X160135559Y-55912862D01*
X160140000Y-55913500D01*
X161940000Y-55913500D01*
X162013079Y-55908273D01*
X162097915Y-55883363D01*
X162144670Y-55869635D01*
X162144672Y-55869634D01*
X162153316Y-55867096D01*
X162230817Y-55817289D01*
X162268691Y-55792949D01*
X162268694Y-55792947D01*
X162276271Y-55788077D01*
X162305981Y-55753790D01*
X162366082Y-55684431D01*
X162366084Y-55684428D01*
X162371984Y-55677619D01*
X162432700Y-55544670D01*
X162436423Y-55518776D01*
X162452861Y-55404448D01*
X162452862Y-55404441D01*
X162453500Y-55400000D01*
X162453500Y-53600000D01*
X162448273Y-53526921D01*
X162407096Y-53386684D01*
X162361393Y-53315569D01*
X162332949Y-53271309D01*
X162332947Y-53271306D01*
X162328077Y-53263729D01*
X162296861Y-53236680D01*
X162224431Y-53173918D01*
X162224428Y-53173916D01*
X162217619Y-53168016D01*
X162135175Y-53130365D01*
X162092864Y-53111042D01*
X162092863Y-53111042D01*
X162084670Y-53107300D01*
X162075755Y-53106018D01*
X162075754Y-53106018D01*
X161944448Y-53087139D01*
X161944441Y-53087138D01*
X161940000Y-53086500D01*
X160140000Y-53086500D01*
X160066921Y-53091727D01*
X160013884Y-53107300D01*
X159935330Y-53130365D01*
X159935328Y-53130366D01*
X159926684Y-53132904D01*
X159919105Y-53137775D01*
X159811309Y-53207051D01*
X159811306Y-53207053D01*
X159803729Y-53211923D01*
X159797828Y-53218733D01*
X159713918Y-53315569D01*
X159713916Y-53315572D01*
X159708016Y-53322381D01*
X159704272Y-53330579D01*
X159660725Y-53425934D01*
X159614232Y-53479590D01*
X159546111Y-53499592D01*
X159477990Y-53479590D01*
X159454941Y-53460563D01*
X159440298Y-53445213D01*
X159440293Y-53445208D01*
X159436613Y-53441351D01*
X159374759Y-53395330D01*
X159249134Y-53301863D01*
X159244852Y-53298677D01*
X159240101Y-53296261D01*
X159240097Y-53296259D01*
X159036549Y-53192770D01*
X159036548Y-53192770D01*
X159031793Y-53190352D01*
X158803528Y-53119474D01*
X158739911Y-53111042D01*
X158571868Y-53088769D01*
X158571865Y-53088769D01*
X158566585Y-53088069D01*
X158561256Y-53088269D01*
X158561255Y-53088269D01*
X158481988Y-53091245D01*
X158327738Y-53097036D01*
X158260986Y-53111042D01*
X158099043Y-53145021D01*
X158099040Y-53145022D01*
X158093816Y-53146118D01*
X157871508Y-53233911D01*
X157866944Y-53236680D01*
X157866945Y-53236680D01*
X157671732Y-53355138D01*
X157671729Y-53355140D01*
X157667171Y-53357906D01*
X157486647Y-53514557D01*
X157483264Y-53518683D01*
X157483259Y-53518688D01*
X157404866Y-53614296D01*
X157335098Y-53699385D01*
X157216857Y-53907104D01*
X157135304Y-54131777D01*
X157092773Y-54366978D01*
X157090479Y-54605982D01*
X50508000Y-54605982D01*
X50508000Y-53200000D01*
X57286500Y-53200000D01*
X57287190Y-53206565D01*
X57305325Y-53379105D01*
X57306462Y-53389927D01*
X57365476Y-53571554D01*
X57460963Y-53736942D01*
X57588749Y-53878863D01*
X57594091Y-53882744D01*
X57594093Y-53882746D01*
X57714412Y-53970162D01*
X57743250Y-53991114D01*
X57749278Y-53993798D01*
X57749280Y-53993799D01*
X57911682Y-54066105D01*
X57917713Y-54068790D01*
X58011113Y-54088643D01*
X58098056Y-54107124D01*
X58098061Y-54107124D01*
X58104513Y-54108496D01*
X58295487Y-54108496D01*
X58301939Y-54107124D01*
X58301944Y-54107124D01*
X58388887Y-54088643D01*
X58482287Y-54068790D01*
X58488318Y-54066105D01*
X58650720Y-53993799D01*
X58650722Y-53993798D01*
X58656750Y-53991114D01*
X58685588Y-53970162D01*
X58805907Y-53882746D01*
X58805909Y-53882744D01*
X58811251Y-53878863D01*
X58939037Y-53736942D01*
X59034524Y-53571554D01*
X59093538Y-53389927D01*
X59094676Y-53379105D01*
X59112810Y-53206565D01*
X59113500Y-53200000D01*
X72686500Y-53200000D01*
X72687190Y-53206565D01*
X72705325Y-53379105D01*
X72706462Y-53389927D01*
X72765476Y-53571554D01*
X72860963Y-53736942D01*
X72988749Y-53878863D01*
X72994091Y-53882744D01*
X72994093Y-53882746D01*
X73114412Y-53970162D01*
X73143250Y-53991114D01*
X73149278Y-53993798D01*
X73149280Y-53993799D01*
X73311682Y-54066105D01*
X73317713Y-54068790D01*
X73411113Y-54088643D01*
X73498056Y-54107124D01*
X73498061Y-54107124D01*
X73504513Y-54108496D01*
X73695487Y-54108496D01*
X73701939Y-54107124D01*
X73701944Y-54107124D01*
X73788887Y-54088643D01*
X73882287Y-54068790D01*
X73888318Y-54066105D01*
X74050720Y-53993799D01*
X74050722Y-53993798D01*
X74056750Y-53991114D01*
X74085588Y-53970162D01*
X74205907Y-53882746D01*
X74205909Y-53882744D01*
X74211251Y-53878863D01*
X74339037Y-53736942D01*
X74434524Y-53571554D01*
X74493538Y-53389927D01*
X74494676Y-53379105D01*
X74512810Y-53206565D01*
X74513500Y-53200000D01*
X87486500Y-53200000D01*
X87487190Y-53206565D01*
X87505325Y-53379105D01*
X87506462Y-53389927D01*
X87565476Y-53571554D01*
X87660963Y-53736942D01*
X87788749Y-53878863D01*
X87794091Y-53882744D01*
X87794093Y-53882746D01*
X87914412Y-53970162D01*
X87943250Y-53991114D01*
X87949278Y-53993798D01*
X87949280Y-53993799D01*
X88111682Y-54066105D01*
X88117713Y-54068790D01*
X88211113Y-54088643D01*
X88298056Y-54107124D01*
X88298061Y-54107124D01*
X88304513Y-54108496D01*
X88495487Y-54108496D01*
X88501939Y-54107124D01*
X88501944Y-54107124D01*
X88588887Y-54088643D01*
X88682287Y-54068790D01*
X88688318Y-54066105D01*
X88850720Y-53993799D01*
X88850722Y-53993798D01*
X88856750Y-53991114D01*
X88885588Y-53970162D01*
X89005907Y-53882746D01*
X89005909Y-53882744D01*
X89011251Y-53878863D01*
X89139037Y-53736942D01*
X89234524Y-53571554D01*
X89293538Y-53389927D01*
X89294676Y-53379105D01*
X89312810Y-53206565D01*
X89313500Y-53200000D01*
X102386500Y-53200000D01*
X102387190Y-53206565D01*
X102405325Y-53379105D01*
X102406462Y-53389927D01*
X102465476Y-53571554D01*
X102560963Y-53736942D01*
X102688749Y-53878863D01*
X102694091Y-53882744D01*
X102694093Y-53882746D01*
X102814412Y-53970162D01*
X102843250Y-53991114D01*
X102849278Y-53993798D01*
X102849280Y-53993799D01*
X103011682Y-54066105D01*
X103017713Y-54068790D01*
X103111113Y-54088643D01*
X103198056Y-54107124D01*
X103198061Y-54107124D01*
X103204513Y-54108496D01*
X103395487Y-54108496D01*
X103401939Y-54107124D01*
X103401944Y-54107124D01*
X103488887Y-54088643D01*
X103582287Y-54068790D01*
X103588318Y-54066105D01*
X103750720Y-53993799D01*
X103750722Y-53993798D01*
X103756750Y-53991114D01*
X103785588Y-53970162D01*
X103905907Y-53882746D01*
X103905909Y-53882744D01*
X103911251Y-53878863D01*
X104039037Y-53736942D01*
X104134524Y-53571554D01*
X104193538Y-53389927D01*
X104194676Y-53379105D01*
X104212810Y-53206565D01*
X104213500Y-53200000D01*
X104202990Y-53100000D01*
X117786500Y-53100000D01*
X117787190Y-53106565D01*
X117800866Y-53236680D01*
X117806462Y-53289927D01*
X117808502Y-53296205D01*
X117808502Y-53296206D01*
X117827650Y-53355138D01*
X117865476Y-53471554D01*
X117868779Y-53477276D01*
X117868780Y-53477277D01*
X117881664Y-53499592D01*
X117960963Y-53636942D01*
X118088749Y-53778863D01*
X118094091Y-53782744D01*
X118094093Y-53782746D01*
X118219628Y-53873952D01*
X118243250Y-53891114D01*
X118249278Y-53893798D01*
X118249280Y-53893799D01*
X118411682Y-53966105D01*
X118417713Y-53968790D01*
X118504480Y-53987233D01*
X118598056Y-54007124D01*
X118598061Y-54007124D01*
X118604513Y-54008496D01*
X118795487Y-54008496D01*
X118801939Y-54007124D01*
X118801944Y-54007124D01*
X118895520Y-53987233D01*
X118982287Y-53968790D01*
X118988318Y-53966105D01*
X119150720Y-53893799D01*
X119150722Y-53893798D01*
X119156750Y-53891114D01*
X119180372Y-53873952D01*
X119305907Y-53782746D01*
X119305909Y-53782744D01*
X119311251Y-53778863D01*
X119439037Y-53636942D01*
X119518336Y-53499592D01*
X119531220Y-53477277D01*
X119531221Y-53477276D01*
X119534524Y-53471554D01*
X119572350Y-53355138D01*
X119591498Y-53296206D01*
X119591498Y-53296205D01*
X119593538Y-53289927D01*
X119599135Y-53236680D01*
X119612810Y-53106565D01*
X119613500Y-53100000D01*
X119593538Y-52910073D01*
X119534524Y-52728446D01*
X119439037Y-52563058D01*
X119311251Y-52421137D01*
X119305909Y-52417256D01*
X119305907Y-52417254D01*
X119162092Y-52312767D01*
X119162091Y-52312766D01*
X119156750Y-52308886D01*
X119150722Y-52306202D01*
X119150720Y-52306201D01*
X118988318Y-52233895D01*
X118988317Y-52233895D01*
X118982287Y-52231210D01*
X118888887Y-52211357D01*
X118801944Y-52192876D01*
X118801939Y-52192876D01*
X118795487Y-52191504D01*
X118604513Y-52191504D01*
X118598061Y-52192876D01*
X118598056Y-52192876D01*
X118511113Y-52211357D01*
X118417713Y-52231210D01*
X118411683Y-52233895D01*
X118411682Y-52233895D01*
X118249280Y-52306201D01*
X118249278Y-52306202D01*
X118243250Y-52308886D01*
X118237909Y-52312766D01*
X118237908Y-52312767D01*
X118094093Y-52417254D01*
X118094091Y-52417256D01*
X118088749Y-52421137D01*
X117960963Y-52563058D01*
X117865476Y-52728446D01*
X117806462Y-52910073D01*
X117786500Y-53100000D01*
X104202990Y-53100000D01*
X104202120Y-53091727D01*
X104194228Y-53016637D01*
X104194228Y-53016636D01*
X104193538Y-53010073D01*
X104134524Y-52828446D01*
X104039037Y-52663058D01*
X103911251Y-52521137D01*
X103905909Y-52517256D01*
X103905907Y-52517254D01*
X103762092Y-52412767D01*
X103762091Y-52412766D01*
X103756750Y-52408886D01*
X103750722Y-52406202D01*
X103750720Y-52406201D01*
X103588318Y-52333895D01*
X103588317Y-52333895D01*
X103582287Y-52331210D01*
X103477262Y-52308886D01*
X103401944Y-52292876D01*
X103401939Y-52292876D01*
X103395487Y-52291504D01*
X103204513Y-52291504D01*
X103198061Y-52292876D01*
X103198056Y-52292876D01*
X103122738Y-52308886D01*
X103017713Y-52331210D01*
X103011683Y-52333895D01*
X103011682Y-52333895D01*
X102849280Y-52406201D01*
X102849278Y-52406202D01*
X102843250Y-52408886D01*
X102837909Y-52412766D01*
X102837908Y-52412767D01*
X102694093Y-52517254D01*
X102694091Y-52517256D01*
X102688749Y-52521137D01*
X102560963Y-52663058D01*
X102465476Y-52828446D01*
X102406462Y-53010073D01*
X102405772Y-53016636D01*
X102405772Y-53016637D01*
X102397880Y-53091727D01*
X102386500Y-53200000D01*
X89313500Y-53200000D01*
X89302120Y-53091727D01*
X89294228Y-53016637D01*
X89294228Y-53016636D01*
X89293538Y-53010073D01*
X89234524Y-52828446D01*
X89139037Y-52663058D01*
X89011251Y-52521137D01*
X89005909Y-52517256D01*
X89005907Y-52517254D01*
X88862092Y-52412767D01*
X88862091Y-52412766D01*
X88856750Y-52408886D01*
X88850722Y-52406202D01*
X88850720Y-52406201D01*
X88688318Y-52333895D01*
X88688317Y-52333895D01*
X88682287Y-52331210D01*
X88577262Y-52308886D01*
X88501944Y-52292876D01*
X88501939Y-52292876D01*
X88495487Y-52291504D01*
X88304513Y-52291504D01*
X88298061Y-52292876D01*
X88298056Y-52292876D01*
X88222738Y-52308886D01*
X88117713Y-52331210D01*
X88111683Y-52333895D01*
X88111682Y-52333895D01*
X87949280Y-52406201D01*
X87949278Y-52406202D01*
X87943250Y-52408886D01*
X87937909Y-52412766D01*
X87937908Y-52412767D01*
X87794093Y-52517254D01*
X87794091Y-52517256D01*
X87788749Y-52521137D01*
X87660963Y-52663058D01*
X87565476Y-52828446D01*
X87506462Y-53010073D01*
X87505772Y-53016636D01*
X87505772Y-53016637D01*
X87497880Y-53091727D01*
X87486500Y-53200000D01*
X74513500Y-53200000D01*
X74502120Y-53091727D01*
X74494228Y-53016637D01*
X74494228Y-53016636D01*
X74493538Y-53010073D01*
X74434524Y-52828446D01*
X74339037Y-52663058D01*
X74211251Y-52521137D01*
X74205909Y-52517256D01*
X74205907Y-52517254D01*
X74062092Y-52412767D01*
X74062091Y-52412766D01*
X74056750Y-52408886D01*
X74050722Y-52406202D01*
X74050720Y-52406201D01*
X73888318Y-52333895D01*
X73888317Y-52333895D01*
X73882287Y-52331210D01*
X73777262Y-52308886D01*
X73701944Y-52292876D01*
X73701939Y-52292876D01*
X73695487Y-52291504D01*
X73504513Y-52291504D01*
X73498061Y-52292876D01*
X73498056Y-52292876D01*
X73422738Y-52308886D01*
X73317713Y-52331210D01*
X73311683Y-52333895D01*
X73311682Y-52333895D01*
X73149280Y-52406201D01*
X73149278Y-52406202D01*
X73143250Y-52408886D01*
X73137909Y-52412766D01*
X73137908Y-52412767D01*
X72994093Y-52517254D01*
X72994091Y-52517256D01*
X72988749Y-52521137D01*
X72860963Y-52663058D01*
X72765476Y-52828446D01*
X72706462Y-53010073D01*
X72705772Y-53016636D01*
X72705772Y-53016637D01*
X72697880Y-53091727D01*
X72686500Y-53200000D01*
X59113500Y-53200000D01*
X59102120Y-53091727D01*
X59094228Y-53016637D01*
X59094228Y-53016636D01*
X59093538Y-53010073D01*
X59034524Y-52828446D01*
X58939037Y-52663058D01*
X58811251Y-52521137D01*
X58805909Y-52517256D01*
X58805907Y-52517254D01*
X58662092Y-52412767D01*
X58662091Y-52412766D01*
X58656750Y-52408886D01*
X58650722Y-52406202D01*
X58650720Y-52406201D01*
X58488318Y-52333895D01*
X58488317Y-52333895D01*
X58482287Y-52331210D01*
X58377262Y-52308886D01*
X58301944Y-52292876D01*
X58301939Y-52292876D01*
X58295487Y-52291504D01*
X58104513Y-52291504D01*
X58098061Y-52292876D01*
X58098056Y-52292876D01*
X58022738Y-52308886D01*
X57917713Y-52331210D01*
X57911683Y-52333895D01*
X57911682Y-52333895D01*
X57749280Y-52406201D01*
X57749278Y-52406202D01*
X57743250Y-52408886D01*
X57737909Y-52412766D01*
X57737908Y-52412767D01*
X57594093Y-52517254D01*
X57594091Y-52517256D01*
X57588749Y-52521137D01*
X57460963Y-52663058D01*
X57365476Y-52828446D01*
X57306462Y-53010073D01*
X57305772Y-53016636D01*
X57305772Y-53016637D01*
X57297880Y-53091727D01*
X57286500Y-53200000D01*
X50508000Y-53200000D01*
X50508000Y-51000000D01*
X64336500Y-51000000D01*
X64356462Y-51189927D01*
X64415476Y-51371554D01*
X64418779Y-51377276D01*
X64418780Y-51377277D01*
X64452689Y-51436008D01*
X64510963Y-51536942D01*
X64638749Y-51678863D01*
X64644091Y-51682744D01*
X64644093Y-51682746D01*
X64787908Y-51787233D01*
X64793250Y-51791114D01*
X64799278Y-51793798D01*
X64799280Y-51793799D01*
X64961682Y-51866105D01*
X64967713Y-51868790D01*
X65061113Y-51888643D01*
X65148056Y-51907124D01*
X65148061Y-51907124D01*
X65154513Y-51908496D01*
X65345487Y-51908496D01*
X65351939Y-51907124D01*
X65351944Y-51907124D01*
X65438887Y-51888643D01*
X65532287Y-51868790D01*
X65538318Y-51866105D01*
X65700720Y-51793799D01*
X65700722Y-51793798D01*
X65706750Y-51791114D01*
X65712092Y-51787233D01*
X65855907Y-51682746D01*
X65855909Y-51682744D01*
X65861251Y-51678863D01*
X65989037Y-51536942D01*
X66010365Y-51500000D01*
X80086500Y-51500000D01*
X80106462Y-51689927D01*
X80165476Y-51871554D01*
X80168779Y-51877276D01*
X80168780Y-51877277D01*
X80202689Y-51936008D01*
X80260963Y-52036942D01*
X80388749Y-52178863D01*
X80394091Y-52182744D01*
X80394093Y-52182746D01*
X80464494Y-52233895D01*
X80543250Y-52291114D01*
X80549278Y-52293798D01*
X80549280Y-52293799D01*
X80711682Y-52366105D01*
X80717713Y-52368790D01*
X80811113Y-52388643D01*
X80898056Y-52407124D01*
X80898061Y-52407124D01*
X80904513Y-52408496D01*
X81095487Y-52408496D01*
X81101939Y-52407124D01*
X81101944Y-52407124D01*
X81188887Y-52388643D01*
X81282287Y-52368790D01*
X81288318Y-52366105D01*
X81450720Y-52293799D01*
X81450722Y-52293798D01*
X81456750Y-52291114D01*
X81535506Y-52233895D01*
X81605907Y-52182746D01*
X81605909Y-52182744D01*
X81611251Y-52178863D01*
X81739037Y-52036942D01*
X81797311Y-51936008D01*
X81831220Y-51877277D01*
X81831221Y-51877276D01*
X81834524Y-51871554D01*
X81893538Y-51689927D01*
X81913500Y-51500000D01*
X94586500Y-51500000D01*
X94606462Y-51689927D01*
X94665476Y-51871554D01*
X94668779Y-51877276D01*
X94668780Y-51877277D01*
X94702689Y-51936008D01*
X94760963Y-52036942D01*
X94888749Y-52178863D01*
X94894091Y-52182744D01*
X94894093Y-52182746D01*
X94964494Y-52233895D01*
X95043250Y-52291114D01*
X95049278Y-52293798D01*
X95049280Y-52293799D01*
X95211682Y-52366105D01*
X95217713Y-52368790D01*
X95311113Y-52388643D01*
X95398056Y-52407124D01*
X95398061Y-52407124D01*
X95404513Y-52408496D01*
X95595487Y-52408496D01*
X95601939Y-52407124D01*
X95601944Y-52407124D01*
X95688887Y-52388643D01*
X95782287Y-52368790D01*
X95788318Y-52366105D01*
X95950720Y-52293799D01*
X95950722Y-52293798D01*
X95956750Y-52291114D01*
X96035506Y-52233895D01*
X96105907Y-52182746D01*
X96105909Y-52182744D01*
X96111251Y-52178863D01*
X96239037Y-52036942D01*
X96297311Y-51936008D01*
X96331220Y-51877277D01*
X96331221Y-51877276D01*
X96334524Y-51871554D01*
X96393538Y-51689927D01*
X96413500Y-51500000D01*
X96393538Y-51310073D01*
X96334524Y-51128446D01*
X96239037Y-50963058D01*
X96111251Y-50821137D01*
X96105909Y-50817256D01*
X96105907Y-50817254D01*
X95962092Y-50712767D01*
X95962091Y-50712766D01*
X95956750Y-50708886D01*
X95950722Y-50706202D01*
X95950720Y-50706201D01*
X95788318Y-50633895D01*
X95788317Y-50633895D01*
X95782287Y-50631210D01*
X95688887Y-50611357D01*
X95601944Y-50592876D01*
X95601939Y-50592876D01*
X95595487Y-50591504D01*
X95404513Y-50591504D01*
X95398061Y-50592876D01*
X95398056Y-50592876D01*
X95311113Y-50611357D01*
X95217713Y-50631210D01*
X95211683Y-50633895D01*
X95211682Y-50633895D01*
X95049280Y-50706201D01*
X95049278Y-50706202D01*
X95043250Y-50708886D01*
X95037909Y-50712766D01*
X95037908Y-50712767D01*
X94894093Y-50817254D01*
X94894091Y-50817256D01*
X94888749Y-50821137D01*
X94760963Y-50963058D01*
X94665476Y-51128446D01*
X94606462Y-51310073D01*
X94586500Y-51500000D01*
X81913500Y-51500000D01*
X81893538Y-51310073D01*
X81834524Y-51128446D01*
X81739037Y-50963058D01*
X81611251Y-50821137D01*
X81605909Y-50817256D01*
X81605907Y-50817254D01*
X81462092Y-50712767D01*
X81462091Y-50712766D01*
X81456750Y-50708886D01*
X81450722Y-50706202D01*
X81450720Y-50706201D01*
X81288318Y-50633895D01*
X81288317Y-50633895D01*
X81282287Y-50631210D01*
X81188887Y-50611357D01*
X81101944Y-50592876D01*
X81101939Y-50592876D01*
X81095487Y-50591504D01*
X80904513Y-50591504D01*
X80898061Y-50592876D01*
X80898056Y-50592876D01*
X80811113Y-50611357D01*
X80717713Y-50631210D01*
X80711683Y-50633895D01*
X80711682Y-50633895D01*
X80549280Y-50706201D01*
X80549278Y-50706202D01*
X80543250Y-50708886D01*
X80537909Y-50712766D01*
X80537908Y-50712767D01*
X80394093Y-50817254D01*
X80394091Y-50817256D01*
X80388749Y-50821137D01*
X80260963Y-50963058D01*
X80165476Y-51128446D01*
X80106462Y-51310073D01*
X80086500Y-51500000D01*
X66010365Y-51500000D01*
X66047311Y-51436008D01*
X66081220Y-51377277D01*
X66081221Y-51377276D01*
X66084524Y-51371554D01*
X66143538Y-51189927D01*
X66163500Y-51000000D01*
X66143538Y-50810073D01*
X66117919Y-50731224D01*
X66086566Y-50634731D01*
X66084524Y-50628446D01*
X66063196Y-50591504D01*
X66014156Y-50506565D01*
X65989037Y-50463058D01*
X65917280Y-50383363D01*
X65865673Y-50326048D01*
X65865672Y-50326047D01*
X65861251Y-50321137D01*
X65855909Y-50317256D01*
X65855907Y-50317254D01*
X65712092Y-50212767D01*
X65712091Y-50212766D01*
X65706750Y-50208886D01*
X65700722Y-50206202D01*
X65700720Y-50206201D01*
X65538318Y-50133895D01*
X65538317Y-50133895D01*
X65532287Y-50131210D01*
X65438887Y-50111357D01*
X65351944Y-50092876D01*
X65351939Y-50092876D01*
X65345487Y-50091504D01*
X65154513Y-50091504D01*
X65148061Y-50092876D01*
X65148056Y-50092876D01*
X65061113Y-50111357D01*
X64967713Y-50131210D01*
X64961683Y-50133895D01*
X64961682Y-50133895D01*
X64799280Y-50206201D01*
X64799278Y-50206202D01*
X64793250Y-50208886D01*
X64787909Y-50212766D01*
X64787908Y-50212767D01*
X64644093Y-50317254D01*
X64644091Y-50317256D01*
X64638749Y-50321137D01*
X64634328Y-50326047D01*
X64634327Y-50326048D01*
X64582721Y-50383363D01*
X64510963Y-50463058D01*
X64485844Y-50506565D01*
X64436805Y-50591504D01*
X64415476Y-50628446D01*
X64413434Y-50634731D01*
X64382082Y-50731224D01*
X64356462Y-50810073D01*
X64336500Y-51000000D01*
X50508000Y-51000000D01*
X50508000Y-50000000D01*
X55836500Y-50000000D01*
X55856462Y-50189927D01*
X55915476Y-50371554D01*
X56010963Y-50536942D01*
X56138749Y-50678863D01*
X56144091Y-50682744D01*
X56144093Y-50682746D01*
X56287908Y-50787233D01*
X56293250Y-50791114D01*
X56299278Y-50793798D01*
X56299280Y-50793799D01*
X56461682Y-50866105D01*
X56467713Y-50868790D01*
X56561113Y-50888643D01*
X56648056Y-50907124D01*
X56648061Y-50907124D01*
X56654513Y-50908496D01*
X56845487Y-50908496D01*
X56851939Y-50907124D01*
X56851944Y-50907124D01*
X56938887Y-50888643D01*
X57032287Y-50868790D01*
X57038318Y-50866105D01*
X57200720Y-50793799D01*
X57200722Y-50793798D01*
X57206750Y-50791114D01*
X57212092Y-50787233D01*
X57355907Y-50682746D01*
X57355909Y-50682744D01*
X57361251Y-50678863D01*
X57489037Y-50536942D01*
X57584524Y-50371554D01*
X57643538Y-50189927D01*
X57663500Y-50000000D01*
X59586500Y-50000000D01*
X59606462Y-50189927D01*
X59665476Y-50371554D01*
X59760963Y-50536942D01*
X59888749Y-50678863D01*
X59894091Y-50682744D01*
X59894093Y-50682746D01*
X60037908Y-50787233D01*
X60043250Y-50791114D01*
X60049278Y-50793798D01*
X60049280Y-50793799D01*
X60211682Y-50866105D01*
X60217713Y-50868790D01*
X60311113Y-50888643D01*
X60398056Y-50907124D01*
X60398061Y-50907124D01*
X60404513Y-50908496D01*
X60595487Y-50908496D01*
X60601939Y-50907124D01*
X60601944Y-50907124D01*
X60688887Y-50888643D01*
X60782287Y-50868790D01*
X60788318Y-50866105D01*
X60950720Y-50793799D01*
X60950722Y-50793798D01*
X60956750Y-50791114D01*
X60962092Y-50787233D01*
X61105907Y-50682746D01*
X61105909Y-50682744D01*
X61111251Y-50678863D01*
X61239037Y-50536942D01*
X61334524Y-50371554D01*
X61393538Y-50189927D01*
X61413500Y-50000000D01*
X71086500Y-50000000D01*
X71106462Y-50189927D01*
X71165476Y-50371554D01*
X71260963Y-50536942D01*
X71388749Y-50678863D01*
X71394091Y-50682744D01*
X71394093Y-50682746D01*
X71537908Y-50787233D01*
X71543250Y-50791114D01*
X71549278Y-50793798D01*
X71549280Y-50793799D01*
X71711682Y-50866105D01*
X71717713Y-50868790D01*
X71811113Y-50888643D01*
X71898056Y-50907124D01*
X71898061Y-50907124D01*
X71904513Y-50908496D01*
X72095487Y-50908496D01*
X72101939Y-50907124D01*
X72101944Y-50907124D01*
X72188887Y-50888643D01*
X72282287Y-50868790D01*
X72288318Y-50866105D01*
X72450720Y-50793799D01*
X72450722Y-50793798D01*
X72456750Y-50791114D01*
X72462092Y-50787233D01*
X72605907Y-50682746D01*
X72605909Y-50682744D01*
X72611251Y-50678863D01*
X72739037Y-50536942D01*
X72834524Y-50371554D01*
X72893538Y-50189927D01*
X72913500Y-50000000D01*
X75086500Y-50000000D01*
X75106462Y-50189927D01*
X75165476Y-50371554D01*
X75260963Y-50536942D01*
X75388749Y-50678863D01*
X75394091Y-50682744D01*
X75394093Y-50682746D01*
X75537908Y-50787233D01*
X75543250Y-50791114D01*
X75549278Y-50793798D01*
X75549280Y-50793799D01*
X75711682Y-50866105D01*
X75717713Y-50868790D01*
X75811113Y-50888643D01*
X75898056Y-50907124D01*
X75898061Y-50907124D01*
X75904513Y-50908496D01*
X76095487Y-50908496D01*
X76101939Y-50907124D01*
X76101944Y-50907124D01*
X76188887Y-50888643D01*
X76282287Y-50868790D01*
X76288318Y-50866105D01*
X76450720Y-50793799D01*
X76450722Y-50793798D01*
X76456750Y-50791114D01*
X76462092Y-50787233D01*
X76605907Y-50682746D01*
X76605909Y-50682744D01*
X76611251Y-50678863D01*
X76739037Y-50536942D01*
X76834524Y-50371554D01*
X76893538Y-50189927D01*
X76913500Y-50000000D01*
X85586500Y-50000000D01*
X85606462Y-50189927D01*
X85665476Y-50371554D01*
X85760963Y-50536942D01*
X85888749Y-50678863D01*
X85894091Y-50682744D01*
X85894093Y-50682746D01*
X86037908Y-50787233D01*
X86043250Y-50791114D01*
X86049278Y-50793798D01*
X86049280Y-50793799D01*
X86211682Y-50866105D01*
X86217713Y-50868790D01*
X86311113Y-50888643D01*
X86398056Y-50907124D01*
X86398061Y-50907124D01*
X86404513Y-50908496D01*
X86595487Y-50908496D01*
X86601939Y-50907124D01*
X86601944Y-50907124D01*
X86688887Y-50888643D01*
X86782287Y-50868790D01*
X86788318Y-50866105D01*
X86950720Y-50793799D01*
X86950722Y-50793798D01*
X86956750Y-50791114D01*
X86962092Y-50787233D01*
X87105907Y-50682746D01*
X87105909Y-50682744D01*
X87111251Y-50678863D01*
X87239037Y-50536942D01*
X87334524Y-50371554D01*
X87393538Y-50189927D01*
X87413500Y-50000000D01*
X89586500Y-50000000D01*
X89606462Y-50189927D01*
X89665476Y-50371554D01*
X89760963Y-50536942D01*
X89888749Y-50678863D01*
X89894091Y-50682744D01*
X89894093Y-50682746D01*
X90037908Y-50787233D01*
X90043250Y-50791114D01*
X90049278Y-50793798D01*
X90049280Y-50793799D01*
X90211682Y-50866105D01*
X90217713Y-50868790D01*
X90311113Y-50888643D01*
X90398056Y-50907124D01*
X90398061Y-50907124D01*
X90404513Y-50908496D01*
X90595487Y-50908496D01*
X90601939Y-50907124D01*
X90601944Y-50907124D01*
X90688887Y-50888643D01*
X90782287Y-50868790D01*
X90788318Y-50866105D01*
X90950720Y-50793799D01*
X90950722Y-50793798D01*
X90956750Y-50791114D01*
X90962092Y-50787233D01*
X91105907Y-50682746D01*
X91105909Y-50682744D01*
X91111251Y-50678863D01*
X91239037Y-50536942D01*
X91260366Y-50500000D01*
X100586500Y-50500000D01*
X100606462Y-50689927D01*
X100665476Y-50871554D01*
X100668779Y-50877276D01*
X100668780Y-50877277D01*
X100702689Y-50936008D01*
X100760963Y-51036942D01*
X100888749Y-51178863D01*
X100894091Y-51182744D01*
X100894093Y-51182746D01*
X101037908Y-51287233D01*
X101043250Y-51291114D01*
X101049278Y-51293798D01*
X101049280Y-51293799D01*
X101211682Y-51366105D01*
X101217713Y-51368790D01*
X101311113Y-51388643D01*
X101398056Y-51407124D01*
X101398061Y-51407124D01*
X101404513Y-51408496D01*
X101595487Y-51408496D01*
X101601939Y-51407124D01*
X101601944Y-51407124D01*
X101688887Y-51388643D01*
X101782287Y-51368790D01*
X101788318Y-51366105D01*
X101950720Y-51293799D01*
X101950722Y-51293798D01*
X101956750Y-51291114D01*
X101962092Y-51287233D01*
X102105907Y-51182746D01*
X102105909Y-51182744D01*
X102111251Y-51178863D01*
X102239037Y-51036942D01*
X102260365Y-51000000D01*
X110086500Y-51000000D01*
X110106462Y-51189927D01*
X110165476Y-51371554D01*
X110168779Y-51377276D01*
X110168780Y-51377277D01*
X110202689Y-51436008D01*
X110260963Y-51536942D01*
X110388749Y-51678863D01*
X110394091Y-51682744D01*
X110394093Y-51682746D01*
X110537908Y-51787233D01*
X110543250Y-51791114D01*
X110549278Y-51793798D01*
X110549280Y-51793799D01*
X110711682Y-51866105D01*
X110717713Y-51868790D01*
X110811113Y-51888643D01*
X110898056Y-51907124D01*
X110898061Y-51907124D01*
X110904513Y-51908496D01*
X111095487Y-51908496D01*
X111101939Y-51907124D01*
X111101944Y-51907124D01*
X111188887Y-51888643D01*
X111282287Y-51868790D01*
X111288318Y-51866105D01*
X111450720Y-51793799D01*
X111450722Y-51793798D01*
X111456750Y-51791114D01*
X111462092Y-51787233D01*
X111605907Y-51682746D01*
X111605909Y-51682744D01*
X111611251Y-51678863D01*
X111739037Y-51536942D01*
X111797311Y-51436008D01*
X111831220Y-51377277D01*
X111831221Y-51377276D01*
X111834524Y-51371554D01*
X111893538Y-51189927D01*
X111913500Y-51000000D01*
X111893538Y-50810073D01*
X111867919Y-50731224D01*
X111836566Y-50634731D01*
X111834524Y-50628446D01*
X111813196Y-50591504D01*
X111764156Y-50506565D01*
X111739037Y-50463058D01*
X111667280Y-50383363D01*
X111615673Y-50326048D01*
X111615672Y-50326047D01*
X111611251Y-50321137D01*
X111605909Y-50317256D01*
X111605907Y-50317254D01*
X111462092Y-50212767D01*
X111462091Y-50212766D01*
X111456750Y-50208886D01*
X111450722Y-50206202D01*
X111450720Y-50206201D01*
X111436792Y-50200000D01*
X116086500Y-50200000D01*
X116106462Y-50389927D01*
X116108502Y-50396205D01*
X116108502Y-50396206D01*
X116140094Y-50493435D01*
X116165476Y-50571554D01*
X116260963Y-50736942D01*
X116265381Y-50741849D01*
X116265382Y-50741850D01*
X116382168Y-50871554D01*
X116388749Y-50878863D01*
X116394091Y-50882744D01*
X116394093Y-50882746D01*
X116504634Y-50963058D01*
X116543250Y-50991114D01*
X116549278Y-50993798D01*
X116549280Y-50993799D01*
X116711682Y-51066105D01*
X116717713Y-51068790D01*
X116811113Y-51088643D01*
X116898056Y-51107124D01*
X116898061Y-51107124D01*
X116904513Y-51108496D01*
X117095487Y-51108496D01*
X117101939Y-51107124D01*
X117101944Y-51107124D01*
X117188887Y-51088643D01*
X117282287Y-51068790D01*
X117288318Y-51066105D01*
X117436792Y-51000000D01*
X125086500Y-51000000D01*
X125106462Y-51189927D01*
X125165476Y-51371554D01*
X125168779Y-51377276D01*
X125168780Y-51377277D01*
X125202689Y-51436008D01*
X125260963Y-51536942D01*
X125388749Y-51678863D01*
X125394091Y-51682744D01*
X125394093Y-51682746D01*
X125537908Y-51787233D01*
X125543250Y-51791114D01*
X125549278Y-51793798D01*
X125549280Y-51793799D01*
X125711682Y-51866105D01*
X125717713Y-51868790D01*
X125811113Y-51888643D01*
X125898056Y-51907124D01*
X125898061Y-51907124D01*
X125904513Y-51908496D01*
X126095487Y-51908496D01*
X126101939Y-51907124D01*
X126101944Y-51907124D01*
X126188887Y-51888643D01*
X126282287Y-51868790D01*
X126288318Y-51866105D01*
X126450720Y-51793799D01*
X126450722Y-51793798D01*
X126456750Y-51791114D01*
X126462092Y-51787233D01*
X126605907Y-51682746D01*
X126605909Y-51682744D01*
X126611251Y-51678863D01*
X126739037Y-51536942D01*
X126797311Y-51436008D01*
X126831220Y-51377277D01*
X126831221Y-51377276D01*
X126834524Y-51371554D01*
X126893538Y-51189927D01*
X126913500Y-51000000D01*
X126893538Y-50810073D01*
X126867919Y-50731224D01*
X126836566Y-50634731D01*
X126834524Y-50628446D01*
X126813196Y-50591504D01*
X126764156Y-50506565D01*
X126739037Y-50463058D01*
X126667280Y-50383363D01*
X126615673Y-50326048D01*
X126615672Y-50326047D01*
X126611251Y-50321137D01*
X126605909Y-50317256D01*
X126605907Y-50317254D01*
X126462092Y-50212767D01*
X126462091Y-50212766D01*
X126456750Y-50208886D01*
X126450722Y-50206202D01*
X126450720Y-50206201D01*
X126288318Y-50133895D01*
X126288317Y-50133895D01*
X126282287Y-50131210D01*
X126188887Y-50111357D01*
X126101944Y-50092876D01*
X126101939Y-50092876D01*
X126095487Y-50091504D01*
X125904513Y-50091504D01*
X125898061Y-50092876D01*
X125898056Y-50092876D01*
X125811113Y-50111357D01*
X125717713Y-50131210D01*
X125711683Y-50133895D01*
X125711682Y-50133895D01*
X125549280Y-50206201D01*
X125549278Y-50206202D01*
X125543250Y-50208886D01*
X125537909Y-50212766D01*
X125537908Y-50212767D01*
X125394093Y-50317254D01*
X125394091Y-50317256D01*
X125388749Y-50321137D01*
X125384328Y-50326047D01*
X125384327Y-50326048D01*
X125332721Y-50383363D01*
X125260963Y-50463058D01*
X125235844Y-50506565D01*
X125186805Y-50591504D01*
X125165476Y-50628446D01*
X125163434Y-50634731D01*
X125132082Y-50731224D01*
X125106462Y-50810073D01*
X125086500Y-51000000D01*
X117436792Y-51000000D01*
X117450720Y-50993799D01*
X117450722Y-50993798D01*
X117456750Y-50991114D01*
X117495366Y-50963058D01*
X117605907Y-50882746D01*
X117605909Y-50882744D01*
X117611251Y-50878863D01*
X117617832Y-50871554D01*
X117734618Y-50741850D01*
X117734619Y-50741849D01*
X117739037Y-50736942D01*
X117834524Y-50571554D01*
X117859906Y-50493435D01*
X117891498Y-50396206D01*
X117891498Y-50396205D01*
X117893538Y-50389927D01*
X117913500Y-50200000D01*
X117893538Y-50010073D01*
X117890265Y-50000000D01*
X119886500Y-50000000D01*
X119906462Y-50189927D01*
X119965476Y-50371554D01*
X120060963Y-50536942D01*
X120188749Y-50678863D01*
X120194091Y-50682744D01*
X120194093Y-50682746D01*
X120337908Y-50787233D01*
X120343250Y-50791114D01*
X120349278Y-50793798D01*
X120349280Y-50793799D01*
X120511682Y-50866105D01*
X120517713Y-50868790D01*
X120611113Y-50888643D01*
X120698056Y-50907124D01*
X120698061Y-50907124D01*
X120704513Y-50908496D01*
X120895487Y-50908496D01*
X120901939Y-50907124D01*
X120901944Y-50907124D01*
X120988887Y-50888643D01*
X121082287Y-50868790D01*
X121088318Y-50866105D01*
X121250720Y-50793799D01*
X121250722Y-50793798D01*
X121256750Y-50791114D01*
X121262092Y-50787233D01*
X121405907Y-50682746D01*
X121405909Y-50682744D01*
X121411251Y-50678863D01*
X121539037Y-50536942D01*
X121634524Y-50371554D01*
X121693538Y-50189927D01*
X121713500Y-50000000D01*
X121693538Y-49810073D01*
X121634524Y-49628446D01*
X121613196Y-49591504D01*
X121542338Y-49468776D01*
X121539037Y-49463058D01*
X121490261Y-49408886D01*
X121415673Y-49326048D01*
X121415672Y-49326047D01*
X121411251Y-49321137D01*
X121405909Y-49317256D01*
X121405907Y-49317254D01*
X121262092Y-49212767D01*
X121262091Y-49212766D01*
X121256750Y-49208886D01*
X121250722Y-49206202D01*
X121250720Y-49206201D01*
X121088318Y-49133895D01*
X121088317Y-49133895D01*
X121082287Y-49131210D01*
X120988887Y-49111357D01*
X120901944Y-49092876D01*
X120901939Y-49092876D01*
X120895487Y-49091504D01*
X120704513Y-49091504D01*
X120698061Y-49092876D01*
X120698056Y-49092876D01*
X120611113Y-49111357D01*
X120517713Y-49131210D01*
X120511683Y-49133895D01*
X120511682Y-49133895D01*
X120349280Y-49206201D01*
X120349278Y-49206202D01*
X120343250Y-49208886D01*
X120337909Y-49212766D01*
X120337908Y-49212767D01*
X120194093Y-49317254D01*
X120194091Y-49317256D01*
X120188749Y-49321137D01*
X120184328Y-49326047D01*
X120184327Y-49326048D01*
X120109740Y-49408886D01*
X120060963Y-49463058D01*
X120057662Y-49468776D01*
X119986805Y-49591504D01*
X119965476Y-49628446D01*
X119906462Y-49810073D01*
X119886500Y-50000000D01*
X117890265Y-50000000D01*
X117834524Y-49828446D01*
X117739037Y-49663058D01*
X117611251Y-49521137D01*
X117605909Y-49517256D01*
X117605907Y-49517254D01*
X117462092Y-49412767D01*
X117462091Y-49412766D01*
X117456750Y-49408886D01*
X117450722Y-49406202D01*
X117450720Y-49406201D01*
X117288318Y-49333895D01*
X117288317Y-49333895D01*
X117282287Y-49331210D01*
X117188887Y-49311357D01*
X117101944Y-49292876D01*
X117101939Y-49292876D01*
X117095487Y-49291504D01*
X116904513Y-49291504D01*
X116898061Y-49292876D01*
X116898056Y-49292876D01*
X116811113Y-49311357D01*
X116717713Y-49331210D01*
X116711683Y-49333895D01*
X116711682Y-49333895D01*
X116549280Y-49406201D01*
X116549278Y-49406202D01*
X116543250Y-49408886D01*
X116537909Y-49412766D01*
X116537908Y-49412767D01*
X116394093Y-49517254D01*
X116394091Y-49517256D01*
X116388749Y-49521137D01*
X116260963Y-49663058D01*
X116165476Y-49828446D01*
X116106462Y-50010073D01*
X116086500Y-50200000D01*
X111436792Y-50200000D01*
X111288318Y-50133895D01*
X111288317Y-50133895D01*
X111282287Y-50131210D01*
X111188887Y-50111357D01*
X111101944Y-50092876D01*
X111101939Y-50092876D01*
X111095487Y-50091504D01*
X110904513Y-50091504D01*
X110898061Y-50092876D01*
X110898056Y-50092876D01*
X110811113Y-50111357D01*
X110717713Y-50131210D01*
X110711683Y-50133895D01*
X110711682Y-50133895D01*
X110549280Y-50206201D01*
X110549278Y-50206202D01*
X110543250Y-50208886D01*
X110537909Y-50212766D01*
X110537908Y-50212767D01*
X110394093Y-50317254D01*
X110394091Y-50317256D01*
X110388749Y-50321137D01*
X110384328Y-50326047D01*
X110384327Y-50326048D01*
X110332721Y-50383363D01*
X110260963Y-50463058D01*
X110235844Y-50506565D01*
X110186805Y-50591504D01*
X110165476Y-50628446D01*
X110163434Y-50634731D01*
X110132082Y-50731224D01*
X110106462Y-50810073D01*
X110086500Y-51000000D01*
X102260365Y-51000000D01*
X102297311Y-50936008D01*
X102331220Y-50877277D01*
X102331221Y-50877276D01*
X102334524Y-50871554D01*
X102393538Y-50689927D01*
X102413500Y-50500000D01*
X102393538Y-50310073D01*
X102334524Y-50128446D01*
X102313196Y-50091504D01*
X102262556Y-50003794D01*
X102260366Y-50000000D01*
X104586500Y-50000000D01*
X104606462Y-50189927D01*
X104665476Y-50371554D01*
X104760963Y-50536942D01*
X104888749Y-50678863D01*
X104894091Y-50682744D01*
X104894093Y-50682746D01*
X105037908Y-50787233D01*
X105043250Y-50791114D01*
X105049278Y-50793798D01*
X105049280Y-50793799D01*
X105211682Y-50866105D01*
X105217713Y-50868790D01*
X105311113Y-50888643D01*
X105398056Y-50907124D01*
X105398061Y-50907124D01*
X105404513Y-50908496D01*
X105595487Y-50908496D01*
X105601939Y-50907124D01*
X105601944Y-50907124D01*
X105688887Y-50888643D01*
X105782287Y-50868790D01*
X105788318Y-50866105D01*
X105950720Y-50793799D01*
X105950722Y-50793798D01*
X105956750Y-50791114D01*
X105962092Y-50787233D01*
X106105907Y-50682746D01*
X106105909Y-50682744D01*
X106111251Y-50678863D01*
X106239037Y-50536942D01*
X106334524Y-50371554D01*
X106393538Y-50189927D01*
X106413500Y-50000000D01*
X106393538Y-49810073D01*
X106334524Y-49628446D01*
X106313196Y-49591504D01*
X106242338Y-49468776D01*
X106239037Y-49463058D01*
X106190261Y-49408886D01*
X106115673Y-49326048D01*
X106115672Y-49326047D01*
X106111251Y-49321137D01*
X106105909Y-49317256D01*
X106105907Y-49317254D01*
X105962092Y-49212767D01*
X105962091Y-49212766D01*
X105956750Y-49208886D01*
X105950722Y-49206202D01*
X105950720Y-49206201D01*
X105788318Y-49133895D01*
X105788317Y-49133895D01*
X105782287Y-49131210D01*
X105688887Y-49111357D01*
X105601944Y-49092876D01*
X105601939Y-49092876D01*
X105595487Y-49091504D01*
X105404513Y-49091504D01*
X105398061Y-49092876D01*
X105398056Y-49092876D01*
X105311113Y-49111357D01*
X105217713Y-49131210D01*
X105211683Y-49133895D01*
X105211682Y-49133895D01*
X105049280Y-49206201D01*
X105049278Y-49206202D01*
X105043250Y-49208886D01*
X105037909Y-49212766D01*
X105037908Y-49212767D01*
X104894093Y-49317254D01*
X104894091Y-49317256D01*
X104888749Y-49321137D01*
X104884328Y-49326047D01*
X104884327Y-49326048D01*
X104809740Y-49408886D01*
X104760963Y-49463058D01*
X104757662Y-49468776D01*
X104686805Y-49591504D01*
X104665476Y-49628446D01*
X104606462Y-49810073D01*
X104586500Y-50000000D01*
X102260366Y-50000000D01*
X102239037Y-49963058D01*
X102111251Y-49821137D01*
X102105909Y-49817256D01*
X102105907Y-49817254D01*
X101962092Y-49712767D01*
X101962091Y-49712766D01*
X101956750Y-49708886D01*
X101950722Y-49706202D01*
X101950720Y-49706201D01*
X101788318Y-49633895D01*
X101788317Y-49633895D01*
X101782287Y-49631210D01*
X101688887Y-49611357D01*
X101601944Y-49592876D01*
X101601939Y-49592876D01*
X101595487Y-49591504D01*
X101404513Y-49591504D01*
X101398061Y-49592876D01*
X101398056Y-49592876D01*
X101311113Y-49611357D01*
X101217713Y-49631210D01*
X101211683Y-49633895D01*
X101211682Y-49633895D01*
X101049280Y-49706201D01*
X101049278Y-49706202D01*
X101043250Y-49708886D01*
X101037909Y-49712766D01*
X101037908Y-49712767D01*
X100894093Y-49817254D01*
X100894091Y-49817256D01*
X100888749Y-49821137D01*
X100760963Y-49963058D01*
X100737444Y-50003794D01*
X100686805Y-50091504D01*
X100665476Y-50128446D01*
X100606462Y-50310073D01*
X100586500Y-50500000D01*
X91260366Y-50500000D01*
X91334524Y-50371554D01*
X91393538Y-50189927D01*
X91413500Y-50000000D01*
X91393538Y-49810073D01*
X91334524Y-49628446D01*
X91313196Y-49591504D01*
X91242338Y-49468776D01*
X91239037Y-49463058D01*
X91190261Y-49408886D01*
X91115673Y-49326048D01*
X91115672Y-49326047D01*
X91111251Y-49321137D01*
X91105909Y-49317256D01*
X91105907Y-49317254D01*
X90962092Y-49212767D01*
X90962091Y-49212766D01*
X90956750Y-49208886D01*
X90950722Y-49206202D01*
X90950720Y-49206201D01*
X90788318Y-49133895D01*
X90788317Y-49133895D01*
X90782287Y-49131210D01*
X90688887Y-49111357D01*
X90601944Y-49092876D01*
X90601939Y-49092876D01*
X90595487Y-49091504D01*
X90404513Y-49091504D01*
X90398061Y-49092876D01*
X90398056Y-49092876D01*
X90311113Y-49111357D01*
X90217713Y-49131210D01*
X90211683Y-49133895D01*
X90211682Y-49133895D01*
X90049280Y-49206201D01*
X90049278Y-49206202D01*
X90043250Y-49208886D01*
X90037909Y-49212766D01*
X90037908Y-49212767D01*
X89894093Y-49317254D01*
X89894091Y-49317256D01*
X89888749Y-49321137D01*
X89884328Y-49326047D01*
X89884327Y-49326048D01*
X89809740Y-49408886D01*
X89760963Y-49463058D01*
X89757662Y-49468776D01*
X89686805Y-49591504D01*
X89665476Y-49628446D01*
X89606462Y-49810073D01*
X89586500Y-50000000D01*
X87413500Y-50000000D01*
X87393538Y-49810073D01*
X87334524Y-49628446D01*
X87313196Y-49591504D01*
X87242338Y-49468776D01*
X87239037Y-49463058D01*
X87190261Y-49408886D01*
X87115673Y-49326048D01*
X87115672Y-49326047D01*
X87111251Y-49321137D01*
X87105909Y-49317256D01*
X87105907Y-49317254D01*
X86962092Y-49212767D01*
X86962091Y-49212766D01*
X86956750Y-49208886D01*
X86950722Y-49206202D01*
X86950720Y-49206201D01*
X86788318Y-49133895D01*
X86788317Y-49133895D01*
X86782287Y-49131210D01*
X86688887Y-49111357D01*
X86601944Y-49092876D01*
X86601939Y-49092876D01*
X86595487Y-49091504D01*
X86404513Y-49091504D01*
X86398061Y-49092876D01*
X86398056Y-49092876D01*
X86311113Y-49111357D01*
X86217713Y-49131210D01*
X86211683Y-49133895D01*
X86211682Y-49133895D01*
X86049280Y-49206201D01*
X86049278Y-49206202D01*
X86043250Y-49208886D01*
X86037909Y-49212766D01*
X86037908Y-49212767D01*
X85894093Y-49317254D01*
X85894091Y-49317256D01*
X85888749Y-49321137D01*
X85884328Y-49326047D01*
X85884327Y-49326048D01*
X85809740Y-49408886D01*
X85760963Y-49463058D01*
X85757662Y-49468776D01*
X85686805Y-49591504D01*
X85665476Y-49628446D01*
X85606462Y-49810073D01*
X85586500Y-50000000D01*
X76913500Y-50000000D01*
X76893538Y-49810073D01*
X76834524Y-49628446D01*
X76813196Y-49591504D01*
X76742338Y-49468776D01*
X76739037Y-49463058D01*
X76690261Y-49408886D01*
X76615673Y-49326048D01*
X76615672Y-49326047D01*
X76611251Y-49321137D01*
X76605909Y-49317256D01*
X76605907Y-49317254D01*
X76462092Y-49212767D01*
X76462091Y-49212766D01*
X76456750Y-49208886D01*
X76450722Y-49206202D01*
X76450720Y-49206201D01*
X76288318Y-49133895D01*
X76288317Y-49133895D01*
X76282287Y-49131210D01*
X76188887Y-49111357D01*
X76101944Y-49092876D01*
X76101939Y-49092876D01*
X76095487Y-49091504D01*
X75904513Y-49091504D01*
X75898061Y-49092876D01*
X75898056Y-49092876D01*
X75811113Y-49111357D01*
X75717713Y-49131210D01*
X75711683Y-49133895D01*
X75711682Y-49133895D01*
X75549280Y-49206201D01*
X75549278Y-49206202D01*
X75543250Y-49208886D01*
X75537909Y-49212766D01*
X75537908Y-49212767D01*
X75394093Y-49317254D01*
X75394091Y-49317256D01*
X75388749Y-49321137D01*
X75384328Y-49326047D01*
X75384327Y-49326048D01*
X75309740Y-49408886D01*
X75260963Y-49463058D01*
X75257662Y-49468776D01*
X75186805Y-49591504D01*
X75165476Y-49628446D01*
X75106462Y-49810073D01*
X75086500Y-50000000D01*
X72913500Y-50000000D01*
X72893538Y-49810073D01*
X72834524Y-49628446D01*
X72813196Y-49591504D01*
X72742338Y-49468776D01*
X72739037Y-49463058D01*
X72690261Y-49408886D01*
X72615673Y-49326048D01*
X72615672Y-49326047D01*
X72611251Y-49321137D01*
X72605909Y-49317256D01*
X72605907Y-49317254D01*
X72462092Y-49212767D01*
X72462091Y-49212766D01*
X72456750Y-49208886D01*
X72450722Y-49206202D01*
X72450720Y-49206201D01*
X72288318Y-49133895D01*
X72288317Y-49133895D01*
X72282287Y-49131210D01*
X72188887Y-49111357D01*
X72101944Y-49092876D01*
X72101939Y-49092876D01*
X72095487Y-49091504D01*
X71904513Y-49091504D01*
X71898061Y-49092876D01*
X71898056Y-49092876D01*
X71811113Y-49111357D01*
X71717713Y-49131210D01*
X71711683Y-49133895D01*
X71711682Y-49133895D01*
X71549280Y-49206201D01*
X71549278Y-49206202D01*
X71543250Y-49208886D01*
X71537909Y-49212766D01*
X71537908Y-49212767D01*
X71394093Y-49317254D01*
X71394091Y-49317256D01*
X71388749Y-49321137D01*
X71384328Y-49326047D01*
X71384327Y-49326048D01*
X71309740Y-49408886D01*
X71260963Y-49463058D01*
X71257662Y-49468776D01*
X71186805Y-49591504D01*
X71165476Y-49628446D01*
X71106462Y-49810073D01*
X71086500Y-50000000D01*
X61413500Y-50000000D01*
X61393538Y-49810073D01*
X61334524Y-49628446D01*
X61313196Y-49591504D01*
X61242338Y-49468776D01*
X61239037Y-49463058D01*
X61190261Y-49408886D01*
X61115673Y-49326048D01*
X61115672Y-49326047D01*
X61111251Y-49321137D01*
X61105909Y-49317256D01*
X61105907Y-49317254D01*
X60962092Y-49212767D01*
X60962091Y-49212766D01*
X60956750Y-49208886D01*
X60950722Y-49206202D01*
X60950720Y-49206201D01*
X60788318Y-49133895D01*
X60788317Y-49133895D01*
X60782287Y-49131210D01*
X60688887Y-49111357D01*
X60601944Y-49092876D01*
X60601939Y-49092876D01*
X60595487Y-49091504D01*
X60404513Y-49091504D01*
X60398061Y-49092876D01*
X60398056Y-49092876D01*
X60311113Y-49111357D01*
X60217713Y-49131210D01*
X60211683Y-49133895D01*
X60211682Y-49133895D01*
X60049280Y-49206201D01*
X60049278Y-49206202D01*
X60043250Y-49208886D01*
X60037909Y-49212766D01*
X60037908Y-49212767D01*
X59894093Y-49317254D01*
X59894091Y-49317256D01*
X59888749Y-49321137D01*
X59884328Y-49326047D01*
X59884327Y-49326048D01*
X59809740Y-49408886D01*
X59760963Y-49463058D01*
X59757662Y-49468776D01*
X59686805Y-49591504D01*
X59665476Y-49628446D01*
X59606462Y-49810073D01*
X59586500Y-50000000D01*
X57663500Y-50000000D01*
X57643538Y-49810073D01*
X57584524Y-49628446D01*
X57563196Y-49591504D01*
X57492338Y-49468776D01*
X57489037Y-49463058D01*
X57440261Y-49408886D01*
X57365673Y-49326048D01*
X57365672Y-49326047D01*
X57361251Y-49321137D01*
X57355909Y-49317256D01*
X57355907Y-49317254D01*
X57212092Y-49212767D01*
X57212091Y-49212766D01*
X57206750Y-49208886D01*
X57200722Y-49206202D01*
X57200720Y-49206201D01*
X57038318Y-49133895D01*
X57038317Y-49133895D01*
X57032287Y-49131210D01*
X56938887Y-49111357D01*
X56851944Y-49092876D01*
X56851939Y-49092876D01*
X56845487Y-49091504D01*
X56654513Y-49091504D01*
X56648061Y-49092876D01*
X56648056Y-49092876D01*
X56561113Y-49111357D01*
X56467713Y-49131210D01*
X56461683Y-49133895D01*
X56461682Y-49133895D01*
X56299280Y-49206201D01*
X56299278Y-49206202D01*
X56293250Y-49208886D01*
X56287909Y-49212766D01*
X56287908Y-49212767D01*
X56144093Y-49317254D01*
X56144091Y-49317256D01*
X56138749Y-49321137D01*
X56134328Y-49326047D01*
X56134327Y-49326048D01*
X56059740Y-49408886D01*
X56010963Y-49463058D01*
X56007662Y-49468776D01*
X55936805Y-49591504D01*
X55915476Y-49628446D01*
X55856462Y-49810073D01*
X55836500Y-50000000D01*
X50508000Y-50000000D01*
X50508000Y-47000000D01*
X162586500Y-47000000D01*
X162606462Y-47189927D01*
X162665476Y-47371554D01*
X162760963Y-47536942D01*
X162888749Y-47678863D01*
X162894091Y-47682744D01*
X162894093Y-47682746D01*
X163037908Y-47787233D01*
X163043250Y-47791114D01*
X163049278Y-47793798D01*
X163049280Y-47793799D01*
X163211682Y-47866105D01*
X163217713Y-47868790D01*
X163311113Y-47888643D01*
X163398056Y-47907124D01*
X163398061Y-47907124D01*
X163404513Y-47908496D01*
X163595487Y-47908496D01*
X163601939Y-47907124D01*
X163601944Y-47907124D01*
X163688887Y-47888643D01*
X163782287Y-47868790D01*
X163788318Y-47866105D01*
X163950720Y-47793799D01*
X163950722Y-47793798D01*
X163956750Y-47791114D01*
X163962092Y-47787233D01*
X164105907Y-47682746D01*
X164105909Y-47682744D01*
X164111251Y-47678863D01*
X164239037Y-47536942D01*
X164334524Y-47371554D01*
X164393538Y-47189927D01*
X164413500Y-47000000D01*
X164393538Y-46810073D01*
X164334524Y-46628446D01*
X164239037Y-46463058D01*
X164111251Y-46321137D01*
X164105909Y-46317256D01*
X164105907Y-46317254D01*
X163962092Y-46212767D01*
X163962091Y-46212766D01*
X163956750Y-46208886D01*
X163950722Y-46206202D01*
X163950720Y-46206201D01*
X163788318Y-46133895D01*
X163788317Y-46133895D01*
X163782287Y-46131210D01*
X163688887Y-46111357D01*
X163601944Y-46092876D01*
X163601939Y-46092876D01*
X163595487Y-46091504D01*
X163404513Y-46091504D01*
X163398061Y-46092876D01*
X163398056Y-46092876D01*
X163311113Y-46111357D01*
X163217713Y-46131210D01*
X163211683Y-46133895D01*
X163211682Y-46133895D01*
X163049280Y-46206201D01*
X163049278Y-46206202D01*
X163043250Y-46208886D01*
X163037909Y-46212766D01*
X163037908Y-46212767D01*
X162894093Y-46317254D01*
X162894091Y-46317256D01*
X162888749Y-46321137D01*
X162760963Y-46463058D01*
X162665476Y-46628446D01*
X162606462Y-46810073D01*
X162586500Y-47000000D01*
X50508000Y-47000000D01*
X50508000Y-43800000D01*
X150686500Y-43800000D01*
X150706462Y-43989927D01*
X150765476Y-44171554D01*
X150860963Y-44336942D01*
X150988749Y-44478863D01*
X150994091Y-44482744D01*
X150994093Y-44482746D01*
X151137908Y-44587233D01*
X151143250Y-44591114D01*
X151149278Y-44593798D01*
X151149280Y-44593799D01*
X151311682Y-44666105D01*
X151317713Y-44668790D01*
X151411113Y-44688643D01*
X151498056Y-44707124D01*
X151498061Y-44707124D01*
X151504513Y-44708496D01*
X151695487Y-44708496D01*
X151701939Y-44707124D01*
X151701944Y-44707124D01*
X151788887Y-44688643D01*
X151882287Y-44668790D01*
X151888318Y-44666105D01*
X152050720Y-44593799D01*
X152050722Y-44593798D01*
X152056750Y-44591114D01*
X152062092Y-44587233D01*
X152205907Y-44482746D01*
X152205909Y-44482744D01*
X152211251Y-44478863D01*
X152339037Y-44336942D01*
X152434524Y-44171554D01*
X152493538Y-43989927D01*
X152513500Y-43800000D01*
X152493538Y-43610073D01*
X152434524Y-43428446D01*
X152339037Y-43263058D01*
X152211251Y-43121137D01*
X152205909Y-43117256D01*
X152205907Y-43117254D01*
X152062092Y-43012767D01*
X152062091Y-43012766D01*
X152056750Y-43008886D01*
X152050722Y-43006202D01*
X152050720Y-43006201D01*
X151888318Y-42933895D01*
X151888317Y-42933895D01*
X151882287Y-42931210D01*
X151788887Y-42911357D01*
X151701944Y-42892876D01*
X151701939Y-42892876D01*
X151695487Y-42891504D01*
X151504513Y-42891504D01*
X151498061Y-42892876D01*
X151498056Y-42892876D01*
X151411113Y-42911357D01*
X151317713Y-42931210D01*
X151311683Y-42933895D01*
X151311682Y-42933895D01*
X151149280Y-43006201D01*
X151149278Y-43006202D01*
X151143250Y-43008886D01*
X151137909Y-43012766D01*
X151137908Y-43012767D01*
X150994093Y-43117254D01*
X150994091Y-43117256D01*
X150988749Y-43121137D01*
X150860963Y-43263058D01*
X150765476Y-43428446D01*
X150706462Y-43610073D01*
X150686500Y-43800000D01*
X50508000Y-43800000D01*
X50508000Y-40348978D01*
X53621500Y-40348978D01*
X53621500Y-42137886D01*
X53631250Y-42221515D01*
X53635577Y-42258623D01*
X53636978Y-42270643D01*
X53697313Y-42436864D01*
X53794269Y-42584747D01*
X53922645Y-42706358D01*
X54075555Y-42795175D01*
X54244796Y-42846433D01*
X54251236Y-42847008D01*
X54251237Y-42847008D01*
X54321185Y-42853251D01*
X54321191Y-42853251D01*
X54323978Y-42853500D01*
X55662886Y-42853500D01*
X55758106Y-42842398D01*
X55788371Y-42838870D01*
X55788372Y-42838870D01*
X55795643Y-42838022D01*
X55802521Y-42835526D01*
X55802523Y-42835525D01*
X55954985Y-42780184D01*
X55961864Y-42777687D01*
X56109747Y-42680731D01*
X56231358Y-42552355D01*
X56235033Y-42546028D01*
X56235036Y-42546024D01*
X56310252Y-42416529D01*
X56361763Y-42367670D01*
X56431511Y-42354416D01*
X56497353Y-42380976D01*
X56510376Y-42392842D01*
X56558209Y-42442984D01*
X56623265Y-42511180D01*
X56810957Y-42650827D01*
X57019494Y-42756852D01*
X57073670Y-42773674D01*
X57237811Y-42824642D01*
X57237817Y-42824643D01*
X57242914Y-42826226D01*
X57367795Y-42842778D01*
X57469544Y-42856264D01*
X57469548Y-42856264D01*
X57474828Y-42856964D01*
X57480158Y-42856764D01*
X57480159Y-42856764D01*
X57591717Y-42852576D01*
X57708606Y-42848188D01*
X57823084Y-42824168D01*
X57932346Y-42801242D01*
X57932350Y-42801241D01*
X57937563Y-42800147D01*
X58070544Y-42747630D01*
X58150183Y-42716180D01*
X58150186Y-42716179D01*
X58155153Y-42714217D01*
X58355153Y-42592854D01*
X58531846Y-42439528D01*
X58615521Y-42337479D01*
X58676795Y-42262751D01*
X58676799Y-42262745D01*
X58680179Y-42258623D01*
X58701302Y-42221515D01*
X58752384Y-42172209D01*
X58822014Y-42158347D01*
X58888085Y-42184330D01*
X58915324Y-42213480D01*
X58942593Y-42253984D01*
X59001786Y-42341906D01*
X59005465Y-42345763D01*
X59005467Y-42345765D01*
X59039057Y-42380976D01*
X59163265Y-42511180D01*
X59350957Y-42650827D01*
X59559494Y-42756852D01*
X59613670Y-42773674D01*
X59777811Y-42824642D01*
X59777817Y-42824643D01*
X59782914Y-42826226D01*
X59907795Y-42842778D01*
X60009544Y-42856264D01*
X60009548Y-42856264D01*
X60014828Y-42856964D01*
X60020158Y-42856764D01*
X60020159Y-42856764D01*
X60131717Y-42852576D01*
X60248606Y-42848188D01*
X60363084Y-42824168D01*
X60472346Y-42801242D01*
X60472350Y-42801241D01*
X60477563Y-42800147D01*
X60610544Y-42747630D01*
X60690183Y-42716180D01*
X60690186Y-42716179D01*
X60695153Y-42714217D01*
X60895153Y-42592854D01*
X61071846Y-42439528D01*
X61155521Y-42337479D01*
X61216795Y-42262751D01*
X61216799Y-42262745D01*
X61220179Y-42258623D01*
X61241302Y-42221515D01*
X61292384Y-42172209D01*
X61362014Y-42158347D01*
X61428085Y-42184330D01*
X61455324Y-42213480D01*
X61482593Y-42253984D01*
X61541786Y-42341906D01*
X61545465Y-42345763D01*
X61545467Y-42345765D01*
X61579057Y-42380976D01*
X61703265Y-42511180D01*
X61890957Y-42650827D01*
X62099494Y-42756852D01*
X62153670Y-42773674D01*
X62317811Y-42824642D01*
X62317817Y-42824643D01*
X62322914Y-42826226D01*
X62447795Y-42842778D01*
X62549544Y-42856264D01*
X62549548Y-42856264D01*
X62554828Y-42856964D01*
X62560158Y-42856764D01*
X62560159Y-42856764D01*
X62671717Y-42852576D01*
X62788606Y-42848188D01*
X62903084Y-42824168D01*
X63012346Y-42801242D01*
X63012350Y-42801241D01*
X63017563Y-42800147D01*
X63150544Y-42747630D01*
X63230183Y-42716180D01*
X63230186Y-42716179D01*
X63235153Y-42714217D01*
X63435153Y-42592854D01*
X63611846Y-42439528D01*
X63695521Y-42337479D01*
X63756795Y-42262751D01*
X63756799Y-42262745D01*
X63760179Y-42258623D01*
X63875910Y-42055312D01*
X63955731Y-41835408D01*
X63997360Y-41605199D01*
X63998500Y-41581025D01*
X63998500Y-40966073D01*
X63983721Y-40791895D01*
X63982383Y-40786740D01*
X63982382Y-40786734D01*
X63926291Y-40570626D01*
X63924949Y-40565455D01*
X63828864Y-40352155D01*
X63826725Y-40348978D01*
X68621500Y-40348978D01*
X68621500Y-42137886D01*
X68631250Y-42221515D01*
X68635577Y-42258623D01*
X68636978Y-42270643D01*
X68697313Y-42436864D01*
X68794269Y-42584747D01*
X68922645Y-42706358D01*
X69075555Y-42795175D01*
X69244796Y-42846433D01*
X69251236Y-42847008D01*
X69251237Y-42847008D01*
X69321185Y-42853251D01*
X69321191Y-42853251D01*
X69323978Y-42853500D01*
X70662886Y-42853500D01*
X70758106Y-42842398D01*
X70788371Y-42838870D01*
X70788372Y-42838870D01*
X70795643Y-42838022D01*
X70802521Y-42835526D01*
X70802523Y-42835525D01*
X70954985Y-42780184D01*
X70961864Y-42777687D01*
X71109747Y-42680731D01*
X71231358Y-42552355D01*
X71235033Y-42546028D01*
X71235036Y-42546024D01*
X71310252Y-42416529D01*
X71361763Y-42367670D01*
X71431511Y-42354416D01*
X71497353Y-42380976D01*
X71510376Y-42392842D01*
X71558209Y-42442984D01*
X71623265Y-42511180D01*
X71810957Y-42650827D01*
X72019494Y-42756852D01*
X72073670Y-42773674D01*
X72237811Y-42824642D01*
X72237817Y-42824643D01*
X72242914Y-42826226D01*
X72367795Y-42842778D01*
X72469544Y-42856264D01*
X72469548Y-42856264D01*
X72474828Y-42856964D01*
X72480158Y-42856764D01*
X72480159Y-42856764D01*
X72591717Y-42852576D01*
X72708606Y-42848188D01*
X72823085Y-42824167D01*
X72932346Y-42801242D01*
X72932350Y-42801241D01*
X72937563Y-42800147D01*
X73070544Y-42747630D01*
X73150183Y-42716180D01*
X73150186Y-42716179D01*
X73155153Y-42714217D01*
X73355153Y-42592854D01*
X73531846Y-42439528D01*
X73615521Y-42337479D01*
X73676795Y-42262751D01*
X73676799Y-42262745D01*
X73680179Y-42258623D01*
X73701302Y-42221515D01*
X73752384Y-42172209D01*
X73822014Y-42158347D01*
X73888085Y-42184330D01*
X73915324Y-42213480D01*
X73942593Y-42253984D01*
X74001786Y-42341906D01*
X74005465Y-42345763D01*
X74005467Y-42345765D01*
X74039057Y-42380976D01*
X74163265Y-42511180D01*
X74350957Y-42650827D01*
X74559494Y-42756852D01*
X74613670Y-42773674D01*
X74777811Y-42824642D01*
X74777817Y-42824643D01*
X74782914Y-42826226D01*
X74907795Y-42842778D01*
X75009544Y-42856264D01*
X75009548Y-42856264D01*
X75014828Y-42856964D01*
X75020158Y-42856764D01*
X75020159Y-42856764D01*
X75131717Y-42852576D01*
X75248606Y-42848188D01*
X75363085Y-42824167D01*
X75472346Y-42801242D01*
X75472350Y-42801241D01*
X75477563Y-42800147D01*
X75610544Y-42747630D01*
X75690183Y-42716180D01*
X75690186Y-42716179D01*
X75695153Y-42714217D01*
X75895153Y-42592854D01*
X76071846Y-42439528D01*
X76155521Y-42337479D01*
X76216795Y-42262751D01*
X76216799Y-42262745D01*
X76220179Y-42258623D01*
X76241302Y-42221515D01*
X76292384Y-42172209D01*
X76362014Y-42158347D01*
X76428085Y-42184330D01*
X76455324Y-42213480D01*
X76482593Y-42253984D01*
X76541786Y-42341906D01*
X76545465Y-42345763D01*
X76545467Y-42345765D01*
X76579057Y-42380976D01*
X76703265Y-42511180D01*
X76890957Y-42650827D01*
X77099494Y-42756852D01*
X77153670Y-42773674D01*
X77317811Y-42824642D01*
X77317817Y-42824643D01*
X77322914Y-42826226D01*
X77447795Y-42842778D01*
X77549544Y-42856264D01*
X77549548Y-42856264D01*
X77554828Y-42856964D01*
X77560158Y-42856764D01*
X77560159Y-42856764D01*
X77671717Y-42852576D01*
X77788606Y-42848188D01*
X77903085Y-42824167D01*
X78012346Y-42801242D01*
X78012350Y-42801241D01*
X78017563Y-42800147D01*
X78150544Y-42747630D01*
X78230183Y-42716180D01*
X78230186Y-42716179D01*
X78235153Y-42714217D01*
X78435153Y-42592854D01*
X78611846Y-42439528D01*
X78695521Y-42337479D01*
X78756795Y-42262751D01*
X78756799Y-42262745D01*
X78760179Y-42258623D01*
X78875910Y-42055312D01*
X78955731Y-41835408D01*
X78997360Y-41605199D01*
X78998500Y-41581025D01*
X78998500Y-40966073D01*
X78983721Y-40791895D01*
X78982383Y-40786740D01*
X78982382Y-40786734D01*
X78926291Y-40570626D01*
X78924949Y-40565455D01*
X78828864Y-40352155D01*
X78826725Y-40348978D01*
X83621500Y-40348978D01*
X83621500Y-42137886D01*
X83631250Y-42221515D01*
X83635577Y-42258623D01*
X83636978Y-42270643D01*
X83697313Y-42436864D01*
X83794269Y-42584747D01*
X83922645Y-42706358D01*
X84075555Y-42795175D01*
X84244796Y-42846433D01*
X84251236Y-42847008D01*
X84251237Y-42847008D01*
X84321185Y-42853251D01*
X84321191Y-42853251D01*
X84323978Y-42853500D01*
X85662886Y-42853500D01*
X85758106Y-42842398D01*
X85788371Y-42838870D01*
X85788372Y-42838870D01*
X85795643Y-42838022D01*
X85802521Y-42835526D01*
X85802523Y-42835525D01*
X85954985Y-42780184D01*
X85961864Y-42777687D01*
X86109747Y-42680731D01*
X86231358Y-42552355D01*
X86235033Y-42546028D01*
X86235036Y-42546024D01*
X86310252Y-42416529D01*
X86361763Y-42367670D01*
X86431511Y-42354416D01*
X86497353Y-42380976D01*
X86510376Y-42392842D01*
X86558209Y-42442984D01*
X86623265Y-42511180D01*
X86810957Y-42650827D01*
X87019494Y-42756852D01*
X87073670Y-42773674D01*
X87237811Y-42824642D01*
X87237817Y-42824643D01*
X87242914Y-42826226D01*
X87367795Y-42842778D01*
X87469544Y-42856264D01*
X87469548Y-42856264D01*
X87474828Y-42856964D01*
X87480158Y-42856764D01*
X87480159Y-42856764D01*
X87591717Y-42852576D01*
X87708606Y-42848188D01*
X87823085Y-42824167D01*
X87932346Y-42801242D01*
X87932350Y-42801241D01*
X87937563Y-42800147D01*
X88070544Y-42747630D01*
X88150183Y-42716180D01*
X88150186Y-42716179D01*
X88155153Y-42714217D01*
X88355153Y-42592854D01*
X88531846Y-42439528D01*
X88615521Y-42337479D01*
X88676795Y-42262751D01*
X88676799Y-42262745D01*
X88680179Y-42258623D01*
X88701302Y-42221515D01*
X88752384Y-42172209D01*
X88822014Y-42158347D01*
X88888085Y-42184330D01*
X88915324Y-42213480D01*
X88942593Y-42253984D01*
X89001786Y-42341906D01*
X89005465Y-42345763D01*
X89005467Y-42345765D01*
X89039057Y-42380976D01*
X89163265Y-42511180D01*
X89350957Y-42650827D01*
X89559494Y-42756852D01*
X89613670Y-42773674D01*
X89777811Y-42824642D01*
X89777817Y-42824643D01*
X89782914Y-42826226D01*
X89907795Y-42842778D01*
X90009544Y-42856264D01*
X90009548Y-42856264D01*
X90014828Y-42856964D01*
X90020158Y-42856764D01*
X90020159Y-42856764D01*
X90131717Y-42852576D01*
X90248606Y-42848188D01*
X90363085Y-42824167D01*
X90472346Y-42801242D01*
X90472350Y-42801241D01*
X90477563Y-42800147D01*
X90610544Y-42747630D01*
X90690183Y-42716180D01*
X90690186Y-42716179D01*
X90695153Y-42714217D01*
X90895153Y-42592854D01*
X91071846Y-42439528D01*
X91155521Y-42337479D01*
X91216795Y-42262751D01*
X91216799Y-42262745D01*
X91220179Y-42258623D01*
X91241302Y-42221515D01*
X91292384Y-42172209D01*
X91362014Y-42158347D01*
X91428085Y-42184330D01*
X91455324Y-42213480D01*
X91482593Y-42253984D01*
X91541786Y-42341906D01*
X91545465Y-42345763D01*
X91545467Y-42345765D01*
X91579057Y-42380976D01*
X91703265Y-42511180D01*
X91890957Y-42650827D01*
X92099494Y-42756852D01*
X92153670Y-42773674D01*
X92317811Y-42824642D01*
X92317817Y-42824643D01*
X92322914Y-42826226D01*
X92447795Y-42842778D01*
X92549544Y-42856264D01*
X92549548Y-42856264D01*
X92554828Y-42856964D01*
X92560158Y-42856764D01*
X92560159Y-42856764D01*
X92671717Y-42852576D01*
X92788606Y-42848188D01*
X92903085Y-42824167D01*
X93012346Y-42801242D01*
X93012350Y-42801241D01*
X93017563Y-42800147D01*
X93150544Y-42747630D01*
X93230183Y-42716180D01*
X93230186Y-42716179D01*
X93235153Y-42714217D01*
X93435153Y-42592854D01*
X93611846Y-42439528D01*
X93695521Y-42337479D01*
X93756795Y-42262751D01*
X93756799Y-42262745D01*
X93760179Y-42258623D01*
X93875910Y-42055312D01*
X93955731Y-41835408D01*
X93997360Y-41605199D01*
X93998500Y-41581025D01*
X93998500Y-40966073D01*
X93983721Y-40791895D01*
X93982383Y-40786740D01*
X93982382Y-40786734D01*
X93926291Y-40570626D01*
X93924949Y-40565455D01*
X93828864Y-40352155D01*
X93826725Y-40348978D01*
X98621500Y-40348978D01*
X98621500Y-42137886D01*
X98631250Y-42221515D01*
X98635577Y-42258623D01*
X98636978Y-42270643D01*
X98697313Y-42436864D01*
X98794269Y-42584747D01*
X98922645Y-42706358D01*
X99075555Y-42795175D01*
X99244796Y-42846433D01*
X99251236Y-42847008D01*
X99251237Y-42847008D01*
X99321185Y-42853251D01*
X99321191Y-42853251D01*
X99323978Y-42853500D01*
X100662886Y-42853500D01*
X100758106Y-42842398D01*
X100788371Y-42838870D01*
X100788372Y-42838870D01*
X100795643Y-42838022D01*
X100802521Y-42835526D01*
X100802523Y-42835525D01*
X100954985Y-42780184D01*
X100961864Y-42777687D01*
X101109747Y-42680731D01*
X101231358Y-42552355D01*
X101235033Y-42546028D01*
X101235036Y-42546024D01*
X101310252Y-42416529D01*
X101361763Y-42367670D01*
X101431511Y-42354416D01*
X101497353Y-42380976D01*
X101510376Y-42392842D01*
X101558209Y-42442984D01*
X101623265Y-42511180D01*
X101810957Y-42650827D01*
X102019494Y-42756852D01*
X102073670Y-42773674D01*
X102237811Y-42824642D01*
X102237817Y-42824643D01*
X102242914Y-42826226D01*
X102367795Y-42842778D01*
X102469544Y-42856264D01*
X102469548Y-42856264D01*
X102474828Y-42856964D01*
X102480158Y-42856764D01*
X102480159Y-42856764D01*
X102591717Y-42852576D01*
X102708606Y-42848188D01*
X102823085Y-42824167D01*
X102932346Y-42801242D01*
X102932350Y-42801241D01*
X102937563Y-42800147D01*
X103070544Y-42747630D01*
X103150183Y-42716180D01*
X103150186Y-42716179D01*
X103155153Y-42714217D01*
X103355153Y-42592854D01*
X103531846Y-42439528D01*
X103615521Y-42337479D01*
X103676795Y-42262751D01*
X103676799Y-42262745D01*
X103680179Y-42258623D01*
X103701302Y-42221515D01*
X103752384Y-42172209D01*
X103822014Y-42158347D01*
X103888085Y-42184330D01*
X103915324Y-42213480D01*
X103942593Y-42253984D01*
X104001786Y-42341906D01*
X104005465Y-42345763D01*
X104005467Y-42345765D01*
X104039057Y-42380976D01*
X104163265Y-42511180D01*
X104350957Y-42650827D01*
X104559494Y-42756852D01*
X104613670Y-42773674D01*
X104777811Y-42824642D01*
X104777817Y-42824643D01*
X104782914Y-42826226D01*
X104907795Y-42842778D01*
X105009544Y-42856264D01*
X105009548Y-42856264D01*
X105014828Y-42856964D01*
X105020158Y-42856764D01*
X105020159Y-42856764D01*
X105131717Y-42852576D01*
X105248606Y-42848188D01*
X105363085Y-42824167D01*
X105472346Y-42801242D01*
X105472350Y-42801241D01*
X105477563Y-42800147D01*
X105610544Y-42747630D01*
X105690183Y-42716180D01*
X105690186Y-42716179D01*
X105695153Y-42714217D01*
X105895153Y-42592854D01*
X106071846Y-42439528D01*
X106155521Y-42337479D01*
X106216795Y-42262751D01*
X106216799Y-42262745D01*
X106220179Y-42258623D01*
X106241302Y-42221515D01*
X106292384Y-42172209D01*
X106362014Y-42158347D01*
X106428085Y-42184330D01*
X106455324Y-42213480D01*
X106482593Y-42253984D01*
X106541786Y-42341906D01*
X106545465Y-42345763D01*
X106545467Y-42345765D01*
X106579057Y-42380976D01*
X106703265Y-42511180D01*
X106890957Y-42650827D01*
X107099494Y-42756852D01*
X107153670Y-42773674D01*
X107317811Y-42824642D01*
X107317817Y-42824643D01*
X107322914Y-42826226D01*
X107447795Y-42842778D01*
X107549544Y-42856264D01*
X107549548Y-42856264D01*
X107554828Y-42856964D01*
X107560158Y-42856764D01*
X107560159Y-42856764D01*
X107671717Y-42852576D01*
X107788606Y-42848188D01*
X107903085Y-42824167D01*
X108012346Y-42801242D01*
X108012350Y-42801241D01*
X108017563Y-42800147D01*
X108150544Y-42747630D01*
X108230183Y-42716180D01*
X108230186Y-42716179D01*
X108235153Y-42714217D01*
X108435153Y-42592854D01*
X108611846Y-42439528D01*
X108695521Y-42337479D01*
X108756795Y-42262751D01*
X108756799Y-42262745D01*
X108760179Y-42258623D01*
X108875910Y-42055312D01*
X108955731Y-41835408D01*
X108997360Y-41605199D01*
X108998500Y-41581025D01*
X108998500Y-40966073D01*
X108983721Y-40791895D01*
X108982383Y-40786740D01*
X108982382Y-40786734D01*
X108926291Y-40570626D01*
X108924949Y-40565455D01*
X108828864Y-40352155D01*
X108826725Y-40348978D01*
X113621500Y-40348978D01*
X113621500Y-42137886D01*
X113631250Y-42221515D01*
X113635577Y-42258623D01*
X113636978Y-42270643D01*
X113697313Y-42436864D01*
X113794269Y-42584747D01*
X113922645Y-42706358D01*
X114075555Y-42795175D01*
X114244796Y-42846433D01*
X114251236Y-42847008D01*
X114251237Y-42847008D01*
X114321185Y-42853251D01*
X114321191Y-42853251D01*
X114323978Y-42853500D01*
X115662886Y-42853500D01*
X115758106Y-42842398D01*
X115788371Y-42838870D01*
X115788372Y-42838870D01*
X115795643Y-42838022D01*
X115802521Y-42835526D01*
X115802523Y-42835525D01*
X115954985Y-42780184D01*
X115961864Y-42777687D01*
X116109747Y-42680731D01*
X116231358Y-42552355D01*
X116235033Y-42546028D01*
X116235036Y-42546024D01*
X116310252Y-42416529D01*
X116361763Y-42367670D01*
X116431511Y-42354416D01*
X116497353Y-42380976D01*
X116510376Y-42392842D01*
X116558209Y-42442984D01*
X116623265Y-42511180D01*
X116810957Y-42650827D01*
X117019494Y-42756852D01*
X117073670Y-42773674D01*
X117237811Y-42824642D01*
X117237817Y-42824643D01*
X117242914Y-42826226D01*
X117367795Y-42842778D01*
X117469544Y-42856264D01*
X117469548Y-42856264D01*
X117474828Y-42856964D01*
X117480158Y-42856764D01*
X117480159Y-42856764D01*
X117591717Y-42852576D01*
X117708606Y-42848188D01*
X117823085Y-42824167D01*
X117932346Y-42801242D01*
X117932350Y-42801241D01*
X117937563Y-42800147D01*
X118070544Y-42747630D01*
X118150183Y-42716180D01*
X118150186Y-42716179D01*
X118155153Y-42714217D01*
X118355153Y-42592854D01*
X118531846Y-42439528D01*
X118615521Y-42337479D01*
X118676795Y-42262751D01*
X118676799Y-42262745D01*
X118680179Y-42258623D01*
X118701302Y-42221515D01*
X118752384Y-42172209D01*
X118822014Y-42158347D01*
X118888085Y-42184330D01*
X118915324Y-42213480D01*
X118942593Y-42253984D01*
X119001786Y-42341906D01*
X119005465Y-42345763D01*
X119005467Y-42345765D01*
X119039057Y-42380976D01*
X119163265Y-42511180D01*
X119350957Y-42650827D01*
X119559494Y-42756852D01*
X119613670Y-42773674D01*
X119777811Y-42824642D01*
X119777817Y-42824643D01*
X119782914Y-42826226D01*
X119907795Y-42842778D01*
X120009544Y-42856264D01*
X120009548Y-42856264D01*
X120014828Y-42856964D01*
X120020158Y-42856764D01*
X120020159Y-42856764D01*
X120131717Y-42852576D01*
X120248606Y-42848188D01*
X120363085Y-42824167D01*
X120472346Y-42801242D01*
X120472350Y-42801241D01*
X120477563Y-42800147D01*
X120610544Y-42747630D01*
X120690183Y-42716180D01*
X120690186Y-42716179D01*
X120695153Y-42714217D01*
X120895153Y-42592854D01*
X121071846Y-42439528D01*
X121155521Y-42337479D01*
X121216795Y-42262751D01*
X121216799Y-42262745D01*
X121220179Y-42258623D01*
X121241302Y-42221515D01*
X121292384Y-42172209D01*
X121362014Y-42158347D01*
X121428085Y-42184330D01*
X121455324Y-42213480D01*
X121482593Y-42253984D01*
X121541786Y-42341906D01*
X121545465Y-42345763D01*
X121545467Y-42345765D01*
X121579057Y-42380976D01*
X121703265Y-42511180D01*
X121890957Y-42650827D01*
X122099494Y-42756852D01*
X122153670Y-42773674D01*
X122317811Y-42824642D01*
X122317817Y-42824643D01*
X122322914Y-42826226D01*
X122447795Y-42842778D01*
X122549544Y-42856264D01*
X122549548Y-42856264D01*
X122554828Y-42856964D01*
X122560158Y-42856764D01*
X122560159Y-42856764D01*
X122671717Y-42852576D01*
X122788606Y-42848188D01*
X122903085Y-42824167D01*
X123012346Y-42801242D01*
X123012350Y-42801241D01*
X123017563Y-42800147D01*
X123150544Y-42747630D01*
X123230183Y-42716180D01*
X123230186Y-42716179D01*
X123235153Y-42714217D01*
X123435153Y-42592854D01*
X123611846Y-42439528D01*
X123695521Y-42337479D01*
X123756795Y-42262751D01*
X123756799Y-42262745D01*
X123760179Y-42258623D01*
X123875910Y-42055312D01*
X123955731Y-41835408D01*
X123997360Y-41605199D01*
X123998500Y-41581025D01*
X123998500Y-40966073D01*
X123983721Y-40791895D01*
X123982383Y-40786740D01*
X123982382Y-40786734D01*
X123926291Y-40570626D01*
X123924949Y-40565455D01*
X123828864Y-40352155D01*
X123826725Y-40348978D01*
X129371500Y-40348978D01*
X129371500Y-42137886D01*
X129381250Y-42221515D01*
X129385577Y-42258623D01*
X129386978Y-42270643D01*
X129447313Y-42436864D01*
X129544269Y-42584747D01*
X129672645Y-42706358D01*
X129825555Y-42795175D01*
X129994796Y-42846433D01*
X130001236Y-42847008D01*
X130001237Y-42847008D01*
X130071185Y-42853251D01*
X130071191Y-42853251D01*
X130073978Y-42853500D01*
X131412886Y-42853500D01*
X131508106Y-42842398D01*
X131538371Y-42838870D01*
X131538372Y-42838870D01*
X131545643Y-42838022D01*
X131552521Y-42835526D01*
X131552523Y-42835525D01*
X131704985Y-42780184D01*
X131711864Y-42777687D01*
X131859747Y-42680731D01*
X131981358Y-42552355D01*
X131985033Y-42546028D01*
X131985036Y-42546024D01*
X132060252Y-42416529D01*
X132111763Y-42367670D01*
X132181511Y-42354416D01*
X132247353Y-42380976D01*
X132260376Y-42392842D01*
X132308209Y-42442984D01*
X132373265Y-42511180D01*
X132560957Y-42650827D01*
X132769494Y-42756852D01*
X132823670Y-42773674D01*
X132987811Y-42824642D01*
X132987817Y-42824643D01*
X132992914Y-42826226D01*
X133117795Y-42842778D01*
X133219544Y-42856264D01*
X133219548Y-42856264D01*
X133224828Y-42856964D01*
X133230158Y-42856764D01*
X133230159Y-42856764D01*
X133341717Y-42852576D01*
X133458606Y-42848188D01*
X133573085Y-42824167D01*
X133682346Y-42801242D01*
X133682350Y-42801241D01*
X133687563Y-42800147D01*
X133820544Y-42747630D01*
X133900183Y-42716180D01*
X133900186Y-42716179D01*
X133905153Y-42714217D01*
X134105153Y-42592854D01*
X134281846Y-42439528D01*
X134365521Y-42337479D01*
X134426795Y-42262751D01*
X134426799Y-42262745D01*
X134430179Y-42258623D01*
X134451302Y-42221515D01*
X134502384Y-42172209D01*
X134572014Y-42158347D01*
X134638085Y-42184330D01*
X134665324Y-42213480D01*
X134692593Y-42253984D01*
X134751786Y-42341906D01*
X134755465Y-42345763D01*
X134755467Y-42345765D01*
X134789057Y-42380976D01*
X134913265Y-42511180D01*
X135100957Y-42650827D01*
X135309494Y-42756852D01*
X135363670Y-42773674D01*
X135527811Y-42824642D01*
X135527817Y-42824643D01*
X135532914Y-42826226D01*
X135657795Y-42842778D01*
X135759544Y-42856264D01*
X135759548Y-42856264D01*
X135764828Y-42856964D01*
X135770158Y-42856764D01*
X135770159Y-42856764D01*
X135881717Y-42852576D01*
X135998606Y-42848188D01*
X136113085Y-42824167D01*
X136222346Y-42801242D01*
X136222350Y-42801241D01*
X136227563Y-42800147D01*
X136360544Y-42747630D01*
X136440183Y-42716180D01*
X136440186Y-42716179D01*
X136445153Y-42714217D01*
X136645153Y-42592854D01*
X136821846Y-42439528D01*
X136905521Y-42337479D01*
X136966795Y-42262751D01*
X136966799Y-42262745D01*
X136970179Y-42258623D01*
X136991302Y-42221515D01*
X137042384Y-42172209D01*
X137112014Y-42158347D01*
X137178085Y-42184330D01*
X137205324Y-42213480D01*
X137232593Y-42253984D01*
X137291786Y-42341906D01*
X137295465Y-42345763D01*
X137295467Y-42345765D01*
X137329057Y-42380976D01*
X137453265Y-42511180D01*
X137640957Y-42650827D01*
X137849494Y-42756852D01*
X137903670Y-42773674D01*
X138067811Y-42824642D01*
X138067817Y-42824643D01*
X138072914Y-42826226D01*
X138197795Y-42842778D01*
X138299544Y-42856264D01*
X138299548Y-42856264D01*
X138304828Y-42856964D01*
X138310158Y-42856764D01*
X138310159Y-42856764D01*
X138421717Y-42852576D01*
X138538606Y-42848188D01*
X138653085Y-42824167D01*
X138762346Y-42801242D01*
X138762350Y-42801241D01*
X138767563Y-42800147D01*
X138900544Y-42747630D01*
X138980183Y-42716180D01*
X138980186Y-42716179D01*
X138985153Y-42714217D01*
X139185153Y-42592854D01*
X139361846Y-42439528D01*
X139445521Y-42337479D01*
X139506795Y-42262751D01*
X139506799Y-42262745D01*
X139510179Y-42258623D01*
X139531302Y-42221515D01*
X139582384Y-42172209D01*
X139652014Y-42158347D01*
X139718085Y-42184330D01*
X139745324Y-42213480D01*
X139772593Y-42253984D01*
X139831786Y-42341906D01*
X139835465Y-42345763D01*
X139835467Y-42345765D01*
X139869057Y-42380976D01*
X139993265Y-42511180D01*
X140180957Y-42650827D01*
X140389494Y-42756852D01*
X140443670Y-42773674D01*
X140607811Y-42824642D01*
X140607817Y-42824643D01*
X140612914Y-42826226D01*
X140737795Y-42842778D01*
X140839544Y-42856264D01*
X140839548Y-42856264D01*
X140844828Y-42856964D01*
X140850158Y-42856764D01*
X140850159Y-42856764D01*
X140961717Y-42852576D01*
X141078606Y-42848188D01*
X141193085Y-42824167D01*
X141302346Y-42801242D01*
X141302350Y-42801241D01*
X141307563Y-42800147D01*
X141440544Y-42747630D01*
X141520183Y-42716180D01*
X141520186Y-42716179D01*
X141525153Y-42714217D01*
X141725153Y-42592854D01*
X141901846Y-42439528D01*
X141985521Y-42337479D01*
X142046795Y-42262751D01*
X142046799Y-42262745D01*
X142050179Y-42258623D01*
X142071302Y-42221515D01*
X142122384Y-42172209D01*
X142192014Y-42158347D01*
X142258085Y-42184330D01*
X142285324Y-42213480D01*
X142312593Y-42253984D01*
X142371786Y-42341906D01*
X142375465Y-42345763D01*
X142375467Y-42345765D01*
X142409057Y-42380976D01*
X142533265Y-42511180D01*
X142720957Y-42650827D01*
X142929494Y-42756852D01*
X142983670Y-42773674D01*
X143147811Y-42824642D01*
X143147817Y-42824643D01*
X143152914Y-42826226D01*
X143277795Y-42842778D01*
X143379544Y-42856264D01*
X143379548Y-42856264D01*
X143384828Y-42856964D01*
X143390158Y-42856764D01*
X143390159Y-42856764D01*
X143501717Y-42852576D01*
X143618606Y-42848188D01*
X143733085Y-42824167D01*
X143842346Y-42801242D01*
X143842350Y-42801241D01*
X143847563Y-42800147D01*
X143980544Y-42747630D01*
X144060183Y-42716180D01*
X144060186Y-42716179D01*
X144065153Y-42714217D01*
X144265153Y-42592854D01*
X144441846Y-42439528D01*
X144525521Y-42337479D01*
X144586795Y-42262751D01*
X144586799Y-42262745D01*
X144590179Y-42258623D01*
X144705910Y-42055312D01*
X144785731Y-41835408D01*
X144827360Y-41605199D01*
X144828500Y-41581025D01*
X144828500Y-40966073D01*
X144813721Y-40791895D01*
X144812383Y-40786740D01*
X144812382Y-40786734D01*
X144756291Y-40570626D01*
X144754949Y-40565455D01*
X144658864Y-40352155D01*
X144528214Y-40158094D01*
X144366735Y-39988820D01*
X144179043Y-39849173D01*
X143970506Y-39743148D01*
X143895365Y-39719816D01*
X143831548Y-39700000D01*
X156786500Y-39700000D01*
X156787190Y-39706565D01*
X156790869Y-39741564D01*
X156806462Y-39889927D01*
X156865476Y-40071554D01*
X156960963Y-40236942D01*
X156965381Y-40241849D01*
X156965382Y-40241850D01*
X157031850Y-40315670D01*
X157088749Y-40378863D01*
X157094091Y-40382744D01*
X157094093Y-40382746D01*
X157236105Y-40485923D01*
X157243250Y-40491114D01*
X157249278Y-40493798D01*
X157249280Y-40493799D01*
X157410222Y-40565455D01*
X157417713Y-40568790D01*
X157511113Y-40588643D01*
X157598056Y-40607124D01*
X157598061Y-40607124D01*
X157604513Y-40608496D01*
X157795487Y-40608496D01*
X157801939Y-40607124D01*
X157801944Y-40607124D01*
X157888887Y-40588643D01*
X157982287Y-40568790D01*
X157989778Y-40565455D01*
X158150720Y-40493799D01*
X158150722Y-40493798D01*
X158156750Y-40491114D01*
X158163895Y-40485923D01*
X158305907Y-40382746D01*
X158305909Y-40382744D01*
X158311251Y-40378863D01*
X158368150Y-40315670D01*
X158434618Y-40241850D01*
X158434619Y-40241849D01*
X158439037Y-40236942D01*
X158534524Y-40071554D01*
X158593538Y-39889927D01*
X158609132Y-39741564D01*
X158612810Y-39706565D01*
X158613500Y-39700000D01*
X158593538Y-39510073D01*
X158534524Y-39328446D01*
X158439037Y-39163058D01*
X158311251Y-39021137D01*
X158305909Y-39017256D01*
X158305907Y-39017254D01*
X158162092Y-38912767D01*
X158162091Y-38912766D01*
X158156750Y-38908886D01*
X158150722Y-38906202D01*
X158150720Y-38906201D01*
X157988318Y-38833895D01*
X157988317Y-38833895D01*
X157982287Y-38831210D01*
X157888887Y-38811357D01*
X157801944Y-38792876D01*
X157801939Y-38792876D01*
X157795487Y-38791504D01*
X157604513Y-38791504D01*
X157598061Y-38792876D01*
X157598056Y-38792876D01*
X157511113Y-38811357D01*
X157417713Y-38831210D01*
X157411683Y-38833895D01*
X157411682Y-38833895D01*
X157249280Y-38906201D01*
X157249278Y-38906202D01*
X157243250Y-38908886D01*
X157237909Y-38912766D01*
X157237908Y-38912767D01*
X157094093Y-39017254D01*
X157094091Y-39017256D01*
X157088749Y-39021137D01*
X156960963Y-39163058D01*
X156865476Y-39328446D01*
X156806462Y-39510073D01*
X156786500Y-39700000D01*
X143831548Y-39700000D01*
X143752189Y-39675358D01*
X143752183Y-39675357D01*
X143747086Y-39673774D01*
X143608774Y-39655442D01*
X143520456Y-39643736D01*
X143520452Y-39643736D01*
X143515172Y-39643036D01*
X143509842Y-39643236D01*
X143509841Y-39643236D01*
X143398283Y-39647424D01*
X143281394Y-39651812D01*
X143180067Y-39673073D01*
X143057654Y-39698758D01*
X143057650Y-39698759D01*
X143052437Y-39699853D01*
X142936679Y-39745568D01*
X142839817Y-39783820D01*
X142839814Y-39783821D01*
X142834847Y-39785783D01*
X142779664Y-39819269D01*
X142652876Y-39896206D01*
X142634847Y-39907146D01*
X142458154Y-40060472D01*
X142444375Y-40077277D01*
X142313205Y-40237249D01*
X142313201Y-40237255D01*
X142309821Y-40241377D01*
X142297168Y-40263605D01*
X142288698Y-40278485D01*
X142237616Y-40327791D01*
X142167986Y-40341653D01*
X142101915Y-40315670D01*
X142074676Y-40286520D01*
X141991194Y-40162521D01*
X141988214Y-40158094D01*
X141826735Y-39988820D01*
X141639043Y-39849173D01*
X141430506Y-39743148D01*
X141355365Y-39719816D01*
X141212189Y-39675358D01*
X141212183Y-39675357D01*
X141207086Y-39673774D01*
X141068774Y-39655442D01*
X140980456Y-39643736D01*
X140980452Y-39643736D01*
X140975172Y-39643036D01*
X140969842Y-39643236D01*
X140969841Y-39643236D01*
X140858283Y-39647424D01*
X140741394Y-39651812D01*
X140640067Y-39673073D01*
X140517654Y-39698758D01*
X140517650Y-39698759D01*
X140512437Y-39699853D01*
X140396679Y-39745568D01*
X140299817Y-39783820D01*
X140299814Y-39783821D01*
X140294847Y-39785783D01*
X140239664Y-39819269D01*
X140112876Y-39896206D01*
X140094847Y-39907146D01*
X139918154Y-40060472D01*
X139904375Y-40077277D01*
X139773205Y-40237249D01*
X139773201Y-40237255D01*
X139769821Y-40241377D01*
X139757168Y-40263605D01*
X139748698Y-40278485D01*
X139697616Y-40327791D01*
X139627986Y-40341653D01*
X139561915Y-40315670D01*
X139534676Y-40286520D01*
X139451194Y-40162521D01*
X139448214Y-40158094D01*
X139286735Y-39988820D01*
X139099043Y-39849173D01*
X138890506Y-39743148D01*
X138815365Y-39719816D01*
X138672189Y-39675358D01*
X138672183Y-39675357D01*
X138667086Y-39673774D01*
X138528774Y-39655442D01*
X138440456Y-39643736D01*
X138440452Y-39643736D01*
X138435172Y-39643036D01*
X138429842Y-39643236D01*
X138429841Y-39643236D01*
X138318283Y-39647424D01*
X138201394Y-39651812D01*
X138100067Y-39673073D01*
X137977654Y-39698758D01*
X137977650Y-39698759D01*
X137972437Y-39699853D01*
X137856679Y-39745568D01*
X137759817Y-39783820D01*
X137759814Y-39783821D01*
X137754847Y-39785783D01*
X137699664Y-39819269D01*
X137572876Y-39896206D01*
X137554847Y-39907146D01*
X137378154Y-40060472D01*
X137364375Y-40077277D01*
X137233205Y-40237249D01*
X137233201Y-40237255D01*
X137229821Y-40241377D01*
X137217168Y-40263605D01*
X137208698Y-40278485D01*
X137157616Y-40327791D01*
X137087986Y-40341653D01*
X137021915Y-40315670D01*
X136994676Y-40286520D01*
X136911194Y-40162521D01*
X136908214Y-40158094D01*
X136746735Y-39988820D01*
X136559043Y-39849173D01*
X136350506Y-39743148D01*
X136275365Y-39719816D01*
X136132189Y-39675358D01*
X136132183Y-39675357D01*
X136127086Y-39673774D01*
X135988774Y-39655442D01*
X135900456Y-39643736D01*
X135900452Y-39643736D01*
X135895172Y-39643036D01*
X135889842Y-39643236D01*
X135889841Y-39643236D01*
X135778283Y-39647424D01*
X135661394Y-39651812D01*
X135560067Y-39673073D01*
X135437654Y-39698758D01*
X135437650Y-39698759D01*
X135432437Y-39699853D01*
X135316679Y-39745568D01*
X135219817Y-39783820D01*
X135219814Y-39783821D01*
X135214847Y-39785783D01*
X135159664Y-39819269D01*
X135032876Y-39896206D01*
X135014847Y-39907146D01*
X134838154Y-40060472D01*
X134824375Y-40077277D01*
X134693205Y-40237249D01*
X134693201Y-40237255D01*
X134689821Y-40241377D01*
X134677168Y-40263605D01*
X134668698Y-40278485D01*
X134617616Y-40327791D01*
X134547986Y-40341653D01*
X134481915Y-40315670D01*
X134454676Y-40286520D01*
X134371194Y-40162521D01*
X134368214Y-40158094D01*
X134206735Y-39988820D01*
X134019043Y-39849173D01*
X133810506Y-39743148D01*
X133735365Y-39719816D01*
X133592189Y-39675358D01*
X133592183Y-39675357D01*
X133587086Y-39673774D01*
X133448774Y-39655442D01*
X133360456Y-39643736D01*
X133360452Y-39643736D01*
X133355172Y-39643036D01*
X133349842Y-39643236D01*
X133349841Y-39643236D01*
X133238283Y-39647424D01*
X133121394Y-39651812D01*
X133020067Y-39673073D01*
X132897654Y-39698758D01*
X132897650Y-39698759D01*
X132892437Y-39699853D01*
X132776679Y-39745568D01*
X132679817Y-39783820D01*
X132679814Y-39783821D01*
X132674847Y-39785783D01*
X132619664Y-39819269D01*
X132492876Y-39896206D01*
X132474847Y-39907146D01*
X132298154Y-40060472D01*
X132267480Y-40097881D01*
X132208822Y-40137875D01*
X132137852Y-40139807D01*
X132077103Y-40103063D01*
X132057384Y-40074409D01*
X132055185Y-40070018D01*
X132052687Y-40063136D01*
X131955731Y-39915253D01*
X131827355Y-39793642D01*
X131674445Y-39704825D01*
X131505204Y-39653567D01*
X131498764Y-39652992D01*
X131498763Y-39652992D01*
X131428815Y-39646749D01*
X131428809Y-39646749D01*
X131426022Y-39646500D01*
X130087114Y-39646500D01*
X129991894Y-39657602D01*
X129961629Y-39661130D01*
X129961628Y-39661130D01*
X129954357Y-39661978D01*
X129947479Y-39664474D01*
X129947477Y-39664475D01*
X129842161Y-39702703D01*
X129788136Y-39722313D01*
X129640253Y-39819269D01*
X129518642Y-39947645D01*
X129429825Y-40100555D01*
X129378567Y-40269796D01*
X129377992Y-40276236D01*
X129377992Y-40276237D01*
X129372154Y-40341653D01*
X129371500Y-40348978D01*
X123826725Y-40348978D01*
X123698214Y-40158094D01*
X123536735Y-39988820D01*
X123349043Y-39849173D01*
X123140506Y-39743148D01*
X123065365Y-39719816D01*
X122922189Y-39675358D01*
X122922183Y-39675357D01*
X122917086Y-39673774D01*
X122778774Y-39655442D01*
X122690456Y-39643736D01*
X122690452Y-39643736D01*
X122685172Y-39643036D01*
X122679842Y-39643236D01*
X122679841Y-39643236D01*
X122568283Y-39647424D01*
X122451394Y-39651812D01*
X122350067Y-39673073D01*
X122227654Y-39698758D01*
X122227650Y-39698759D01*
X122222437Y-39699853D01*
X122106679Y-39745568D01*
X122009817Y-39783820D01*
X122009814Y-39783821D01*
X122004847Y-39785783D01*
X121949664Y-39819269D01*
X121822876Y-39896206D01*
X121804847Y-39907146D01*
X121628154Y-40060472D01*
X121614375Y-40077277D01*
X121483205Y-40237249D01*
X121483201Y-40237255D01*
X121479821Y-40241377D01*
X121467168Y-40263605D01*
X121458698Y-40278485D01*
X121407616Y-40327791D01*
X121337986Y-40341653D01*
X121271915Y-40315670D01*
X121244676Y-40286520D01*
X121161194Y-40162521D01*
X121158214Y-40158094D01*
X120996735Y-39988820D01*
X120809043Y-39849173D01*
X120600506Y-39743148D01*
X120525365Y-39719816D01*
X120382189Y-39675358D01*
X120382183Y-39675357D01*
X120377086Y-39673774D01*
X120238774Y-39655442D01*
X120150456Y-39643736D01*
X120150452Y-39643736D01*
X120145172Y-39643036D01*
X120139842Y-39643236D01*
X120139841Y-39643236D01*
X120028283Y-39647424D01*
X119911394Y-39651812D01*
X119810067Y-39673073D01*
X119687654Y-39698758D01*
X119687650Y-39698759D01*
X119682437Y-39699853D01*
X119566679Y-39745568D01*
X119469817Y-39783820D01*
X119469814Y-39783821D01*
X119464847Y-39785783D01*
X119409664Y-39819269D01*
X119282876Y-39896206D01*
X119264847Y-39907146D01*
X119088154Y-40060472D01*
X119074375Y-40077277D01*
X118943205Y-40237249D01*
X118943201Y-40237255D01*
X118939821Y-40241377D01*
X118927168Y-40263605D01*
X118918698Y-40278485D01*
X118867616Y-40327791D01*
X118797986Y-40341653D01*
X118731915Y-40315670D01*
X118704676Y-40286520D01*
X118621194Y-40162521D01*
X118618214Y-40158094D01*
X118456735Y-39988820D01*
X118269043Y-39849173D01*
X118060506Y-39743148D01*
X117985365Y-39719816D01*
X117842189Y-39675358D01*
X117842183Y-39675357D01*
X117837086Y-39673774D01*
X117698774Y-39655442D01*
X117610456Y-39643736D01*
X117610452Y-39643736D01*
X117605172Y-39643036D01*
X117599842Y-39643236D01*
X117599841Y-39643236D01*
X117488283Y-39647424D01*
X117371394Y-39651812D01*
X117270067Y-39673073D01*
X117147654Y-39698758D01*
X117147650Y-39698759D01*
X117142437Y-39699853D01*
X117026679Y-39745568D01*
X116929817Y-39783820D01*
X116929814Y-39783821D01*
X116924847Y-39785783D01*
X116869664Y-39819269D01*
X116742876Y-39896206D01*
X116724847Y-39907146D01*
X116548154Y-40060472D01*
X116517480Y-40097881D01*
X116458822Y-40137875D01*
X116387852Y-40139807D01*
X116327103Y-40103063D01*
X116307384Y-40074409D01*
X116305185Y-40070018D01*
X116302687Y-40063136D01*
X116205731Y-39915253D01*
X116077355Y-39793642D01*
X115924445Y-39704825D01*
X115755204Y-39653567D01*
X115748764Y-39652992D01*
X115748763Y-39652992D01*
X115678815Y-39646749D01*
X115678809Y-39646749D01*
X115676022Y-39646500D01*
X114337114Y-39646500D01*
X114241894Y-39657602D01*
X114211629Y-39661130D01*
X114211628Y-39661130D01*
X114204357Y-39661978D01*
X114197479Y-39664474D01*
X114197477Y-39664475D01*
X114092161Y-39702703D01*
X114038136Y-39722313D01*
X113890253Y-39819269D01*
X113768642Y-39947645D01*
X113679825Y-40100555D01*
X113628567Y-40269796D01*
X113627992Y-40276236D01*
X113627992Y-40276237D01*
X113622154Y-40341653D01*
X113621500Y-40348978D01*
X108826725Y-40348978D01*
X108698214Y-40158094D01*
X108536735Y-39988820D01*
X108349043Y-39849173D01*
X108140506Y-39743148D01*
X108065365Y-39719816D01*
X107922189Y-39675358D01*
X107922183Y-39675357D01*
X107917086Y-39673774D01*
X107778774Y-39655442D01*
X107690456Y-39643736D01*
X107690452Y-39643736D01*
X107685172Y-39643036D01*
X107679842Y-39643236D01*
X107679841Y-39643236D01*
X107568283Y-39647424D01*
X107451394Y-39651812D01*
X107350067Y-39673073D01*
X107227654Y-39698758D01*
X107227650Y-39698759D01*
X107222437Y-39699853D01*
X107106679Y-39745568D01*
X107009817Y-39783820D01*
X107009814Y-39783821D01*
X107004847Y-39785783D01*
X106949664Y-39819269D01*
X106822876Y-39896206D01*
X106804847Y-39907146D01*
X106628154Y-40060472D01*
X106614375Y-40077277D01*
X106483205Y-40237249D01*
X106483201Y-40237255D01*
X106479821Y-40241377D01*
X106467168Y-40263605D01*
X106458698Y-40278485D01*
X106407616Y-40327791D01*
X106337986Y-40341653D01*
X106271915Y-40315670D01*
X106244676Y-40286520D01*
X106161194Y-40162521D01*
X106158214Y-40158094D01*
X105996735Y-39988820D01*
X105809043Y-39849173D01*
X105600506Y-39743148D01*
X105525365Y-39719816D01*
X105382189Y-39675358D01*
X105382183Y-39675357D01*
X105377086Y-39673774D01*
X105238774Y-39655442D01*
X105150456Y-39643736D01*
X105150452Y-39643736D01*
X105145172Y-39643036D01*
X105139842Y-39643236D01*
X105139841Y-39643236D01*
X105028283Y-39647424D01*
X104911394Y-39651812D01*
X104810067Y-39673073D01*
X104687654Y-39698758D01*
X104687650Y-39698759D01*
X104682437Y-39699853D01*
X104566679Y-39745568D01*
X104469817Y-39783820D01*
X104469814Y-39783821D01*
X104464847Y-39785783D01*
X104409664Y-39819269D01*
X104282876Y-39896206D01*
X104264847Y-39907146D01*
X104088154Y-40060472D01*
X104074375Y-40077277D01*
X103943205Y-40237249D01*
X103943201Y-40237255D01*
X103939821Y-40241377D01*
X103927168Y-40263605D01*
X103918698Y-40278485D01*
X103867616Y-40327791D01*
X103797986Y-40341653D01*
X103731915Y-40315670D01*
X103704676Y-40286520D01*
X103621194Y-40162521D01*
X103618214Y-40158094D01*
X103456735Y-39988820D01*
X103269043Y-39849173D01*
X103060506Y-39743148D01*
X102985365Y-39719816D01*
X102842189Y-39675358D01*
X102842183Y-39675357D01*
X102837086Y-39673774D01*
X102698774Y-39655442D01*
X102610456Y-39643736D01*
X102610452Y-39643736D01*
X102605172Y-39643036D01*
X102599842Y-39643236D01*
X102599841Y-39643236D01*
X102488283Y-39647424D01*
X102371394Y-39651812D01*
X102270067Y-39673073D01*
X102147654Y-39698758D01*
X102147650Y-39698759D01*
X102142437Y-39699853D01*
X102026679Y-39745568D01*
X101929817Y-39783820D01*
X101929814Y-39783821D01*
X101924847Y-39785783D01*
X101869664Y-39819269D01*
X101742876Y-39896206D01*
X101724847Y-39907146D01*
X101548154Y-40060472D01*
X101517480Y-40097881D01*
X101458822Y-40137875D01*
X101387852Y-40139807D01*
X101327103Y-40103063D01*
X101307384Y-40074409D01*
X101305185Y-40070018D01*
X101302687Y-40063136D01*
X101205731Y-39915253D01*
X101077355Y-39793642D01*
X100924445Y-39704825D01*
X100755204Y-39653567D01*
X100748764Y-39652992D01*
X100748763Y-39652992D01*
X100678815Y-39646749D01*
X100678809Y-39646749D01*
X100676022Y-39646500D01*
X99337114Y-39646500D01*
X99241894Y-39657602D01*
X99211629Y-39661130D01*
X99211628Y-39661130D01*
X99204357Y-39661978D01*
X99197479Y-39664474D01*
X99197477Y-39664475D01*
X99092161Y-39702703D01*
X99038136Y-39722313D01*
X98890253Y-39819269D01*
X98768642Y-39947645D01*
X98679825Y-40100555D01*
X98628567Y-40269796D01*
X98627992Y-40276236D01*
X98627992Y-40276237D01*
X98622154Y-40341653D01*
X98621500Y-40348978D01*
X93826725Y-40348978D01*
X93698214Y-40158094D01*
X93536735Y-39988820D01*
X93349043Y-39849173D01*
X93140506Y-39743148D01*
X93065365Y-39719816D01*
X92922189Y-39675358D01*
X92922183Y-39675357D01*
X92917086Y-39673774D01*
X92778774Y-39655442D01*
X92690456Y-39643736D01*
X92690452Y-39643736D01*
X92685172Y-39643036D01*
X92679842Y-39643236D01*
X92679841Y-39643236D01*
X92568283Y-39647424D01*
X92451394Y-39651812D01*
X92350067Y-39673073D01*
X92227654Y-39698758D01*
X92227650Y-39698759D01*
X92222437Y-39699853D01*
X92106679Y-39745568D01*
X92009817Y-39783820D01*
X92009814Y-39783821D01*
X92004847Y-39785783D01*
X91949664Y-39819269D01*
X91822876Y-39896206D01*
X91804847Y-39907146D01*
X91628154Y-40060472D01*
X91614375Y-40077277D01*
X91483205Y-40237249D01*
X91483201Y-40237255D01*
X91479821Y-40241377D01*
X91467168Y-40263605D01*
X91458698Y-40278485D01*
X91407616Y-40327791D01*
X91337986Y-40341653D01*
X91271915Y-40315670D01*
X91244676Y-40286520D01*
X91161194Y-40162521D01*
X91158214Y-40158094D01*
X90996735Y-39988820D01*
X90809043Y-39849173D01*
X90600506Y-39743148D01*
X90525365Y-39719816D01*
X90382189Y-39675358D01*
X90382183Y-39675357D01*
X90377086Y-39673774D01*
X90238774Y-39655442D01*
X90150456Y-39643736D01*
X90150452Y-39643736D01*
X90145172Y-39643036D01*
X90139842Y-39643236D01*
X90139841Y-39643236D01*
X90028283Y-39647424D01*
X89911394Y-39651812D01*
X89810067Y-39673073D01*
X89687654Y-39698758D01*
X89687650Y-39698759D01*
X89682437Y-39699853D01*
X89566679Y-39745568D01*
X89469817Y-39783820D01*
X89469814Y-39783821D01*
X89464847Y-39785783D01*
X89409664Y-39819269D01*
X89282876Y-39896206D01*
X89264847Y-39907146D01*
X89088154Y-40060472D01*
X89074375Y-40077277D01*
X88943205Y-40237249D01*
X88943201Y-40237255D01*
X88939821Y-40241377D01*
X88927168Y-40263605D01*
X88918698Y-40278485D01*
X88867616Y-40327791D01*
X88797986Y-40341653D01*
X88731915Y-40315670D01*
X88704676Y-40286520D01*
X88621194Y-40162521D01*
X88618214Y-40158094D01*
X88456735Y-39988820D01*
X88269043Y-39849173D01*
X88060506Y-39743148D01*
X87985365Y-39719816D01*
X87842189Y-39675358D01*
X87842183Y-39675357D01*
X87837086Y-39673774D01*
X87698774Y-39655442D01*
X87610456Y-39643736D01*
X87610452Y-39643736D01*
X87605172Y-39643036D01*
X87599842Y-39643236D01*
X87599841Y-39643236D01*
X87488283Y-39647424D01*
X87371394Y-39651812D01*
X87270067Y-39673073D01*
X87147654Y-39698758D01*
X87147650Y-39698759D01*
X87142437Y-39699853D01*
X87026679Y-39745568D01*
X86929817Y-39783820D01*
X86929814Y-39783821D01*
X86924847Y-39785783D01*
X86869664Y-39819269D01*
X86742876Y-39896206D01*
X86724847Y-39907146D01*
X86548154Y-40060472D01*
X86517480Y-40097881D01*
X86458822Y-40137875D01*
X86387852Y-40139807D01*
X86327103Y-40103063D01*
X86307384Y-40074409D01*
X86305185Y-40070018D01*
X86302687Y-40063136D01*
X86205731Y-39915253D01*
X86077355Y-39793642D01*
X85924445Y-39704825D01*
X85755204Y-39653567D01*
X85748764Y-39652992D01*
X85748763Y-39652992D01*
X85678815Y-39646749D01*
X85678809Y-39646749D01*
X85676022Y-39646500D01*
X84337114Y-39646500D01*
X84241894Y-39657602D01*
X84211629Y-39661130D01*
X84211628Y-39661130D01*
X84204357Y-39661978D01*
X84197479Y-39664474D01*
X84197477Y-39664475D01*
X84092161Y-39702703D01*
X84038136Y-39722313D01*
X83890253Y-39819269D01*
X83768642Y-39947645D01*
X83679825Y-40100555D01*
X83628567Y-40269796D01*
X83627992Y-40276236D01*
X83627992Y-40276237D01*
X83622154Y-40341653D01*
X83621500Y-40348978D01*
X78826725Y-40348978D01*
X78698214Y-40158094D01*
X78536735Y-39988820D01*
X78349043Y-39849173D01*
X78140506Y-39743148D01*
X78065365Y-39719816D01*
X77922189Y-39675358D01*
X77922183Y-39675357D01*
X77917086Y-39673774D01*
X77778774Y-39655442D01*
X77690456Y-39643736D01*
X77690452Y-39643736D01*
X77685172Y-39643036D01*
X77679842Y-39643236D01*
X77679841Y-39643236D01*
X77568283Y-39647424D01*
X77451394Y-39651812D01*
X77350067Y-39673073D01*
X77227654Y-39698758D01*
X77227650Y-39698759D01*
X77222437Y-39699853D01*
X77106679Y-39745568D01*
X77009817Y-39783820D01*
X77009814Y-39783821D01*
X77004847Y-39785783D01*
X76949664Y-39819269D01*
X76822876Y-39896206D01*
X76804847Y-39907146D01*
X76628154Y-40060472D01*
X76614375Y-40077277D01*
X76483205Y-40237249D01*
X76483201Y-40237255D01*
X76479821Y-40241377D01*
X76467168Y-40263605D01*
X76458698Y-40278485D01*
X76407616Y-40327791D01*
X76337986Y-40341653D01*
X76271915Y-40315670D01*
X76244676Y-40286520D01*
X76161194Y-40162521D01*
X76158214Y-40158094D01*
X75996735Y-39988820D01*
X75809043Y-39849173D01*
X75600506Y-39743148D01*
X75525365Y-39719816D01*
X75382189Y-39675358D01*
X75382183Y-39675357D01*
X75377086Y-39673774D01*
X75238774Y-39655442D01*
X75150456Y-39643736D01*
X75150452Y-39643736D01*
X75145172Y-39643036D01*
X75139842Y-39643236D01*
X75139841Y-39643236D01*
X75028283Y-39647424D01*
X74911394Y-39651812D01*
X74810067Y-39673073D01*
X74687654Y-39698758D01*
X74687650Y-39698759D01*
X74682437Y-39699853D01*
X74566679Y-39745568D01*
X74469817Y-39783820D01*
X74469814Y-39783821D01*
X74464847Y-39785783D01*
X74409664Y-39819269D01*
X74282876Y-39896206D01*
X74264847Y-39907146D01*
X74088154Y-40060472D01*
X74074375Y-40077277D01*
X73943205Y-40237249D01*
X73943201Y-40237255D01*
X73939821Y-40241377D01*
X73927168Y-40263605D01*
X73918698Y-40278485D01*
X73867616Y-40327791D01*
X73797986Y-40341653D01*
X73731915Y-40315670D01*
X73704676Y-40286520D01*
X73621194Y-40162521D01*
X73618214Y-40158094D01*
X73456735Y-39988820D01*
X73269043Y-39849173D01*
X73060506Y-39743148D01*
X72985365Y-39719816D01*
X72842189Y-39675358D01*
X72842183Y-39675357D01*
X72837086Y-39673774D01*
X72698774Y-39655442D01*
X72610456Y-39643736D01*
X72610452Y-39643736D01*
X72605172Y-39643036D01*
X72599842Y-39643236D01*
X72599841Y-39643236D01*
X72488283Y-39647424D01*
X72371394Y-39651812D01*
X72270067Y-39673073D01*
X72147654Y-39698758D01*
X72147650Y-39698759D01*
X72142437Y-39699853D01*
X72026679Y-39745568D01*
X71929817Y-39783820D01*
X71929814Y-39783821D01*
X71924847Y-39785783D01*
X71869664Y-39819269D01*
X71742876Y-39896206D01*
X71724847Y-39907146D01*
X71548154Y-40060472D01*
X71517480Y-40097881D01*
X71458822Y-40137875D01*
X71387852Y-40139807D01*
X71327103Y-40103063D01*
X71307384Y-40074409D01*
X71305185Y-40070018D01*
X71302687Y-40063136D01*
X71205731Y-39915253D01*
X71077355Y-39793642D01*
X70924445Y-39704825D01*
X70755204Y-39653567D01*
X70748764Y-39652992D01*
X70748763Y-39652992D01*
X70678815Y-39646749D01*
X70678809Y-39646749D01*
X70676022Y-39646500D01*
X69337114Y-39646500D01*
X69241894Y-39657602D01*
X69211629Y-39661130D01*
X69211628Y-39661130D01*
X69204357Y-39661978D01*
X69197479Y-39664474D01*
X69197477Y-39664475D01*
X69092161Y-39702703D01*
X69038136Y-39722313D01*
X68890253Y-39819269D01*
X68768642Y-39947645D01*
X68679825Y-40100555D01*
X68628567Y-40269796D01*
X68627992Y-40276236D01*
X68627992Y-40276237D01*
X68622154Y-40341653D01*
X68621500Y-40348978D01*
X63826725Y-40348978D01*
X63698214Y-40158094D01*
X63536735Y-39988820D01*
X63349043Y-39849173D01*
X63140506Y-39743148D01*
X63065365Y-39719816D01*
X62922189Y-39675358D01*
X62922183Y-39675357D01*
X62917086Y-39673774D01*
X62778774Y-39655442D01*
X62690456Y-39643736D01*
X62690452Y-39643736D01*
X62685172Y-39643036D01*
X62679842Y-39643236D01*
X62679841Y-39643236D01*
X62568283Y-39647424D01*
X62451394Y-39651812D01*
X62350067Y-39673073D01*
X62227654Y-39698758D01*
X62227650Y-39698759D01*
X62222437Y-39699853D01*
X62106679Y-39745568D01*
X62009817Y-39783820D01*
X62009814Y-39783821D01*
X62004847Y-39785783D01*
X61949664Y-39819269D01*
X61822876Y-39896206D01*
X61804847Y-39907146D01*
X61628154Y-40060472D01*
X61614375Y-40077277D01*
X61483205Y-40237249D01*
X61483201Y-40237255D01*
X61479821Y-40241377D01*
X61467168Y-40263605D01*
X61458698Y-40278485D01*
X61407616Y-40327791D01*
X61337986Y-40341653D01*
X61271915Y-40315670D01*
X61244676Y-40286520D01*
X61161194Y-40162521D01*
X61158214Y-40158094D01*
X60996735Y-39988820D01*
X60809043Y-39849173D01*
X60600506Y-39743148D01*
X60525365Y-39719816D01*
X60382189Y-39675358D01*
X60382183Y-39675357D01*
X60377086Y-39673774D01*
X60238774Y-39655442D01*
X60150456Y-39643736D01*
X60150452Y-39643736D01*
X60145172Y-39643036D01*
X60139842Y-39643236D01*
X60139841Y-39643236D01*
X60028283Y-39647424D01*
X59911394Y-39651812D01*
X59810067Y-39673073D01*
X59687654Y-39698758D01*
X59687650Y-39698759D01*
X59682437Y-39699853D01*
X59566679Y-39745568D01*
X59469817Y-39783820D01*
X59469814Y-39783821D01*
X59464847Y-39785783D01*
X59409664Y-39819269D01*
X59282876Y-39896206D01*
X59264847Y-39907146D01*
X59088154Y-40060472D01*
X59074375Y-40077277D01*
X58943205Y-40237249D01*
X58943201Y-40237255D01*
X58939821Y-40241377D01*
X58927168Y-40263605D01*
X58918698Y-40278485D01*
X58867616Y-40327791D01*
X58797986Y-40341653D01*
X58731915Y-40315670D01*
X58704676Y-40286520D01*
X58621194Y-40162521D01*
X58618214Y-40158094D01*
X58456735Y-39988820D01*
X58269043Y-39849173D01*
X58060506Y-39743148D01*
X57985365Y-39719816D01*
X57842189Y-39675358D01*
X57842183Y-39675357D01*
X57837086Y-39673774D01*
X57698774Y-39655442D01*
X57610456Y-39643736D01*
X57610452Y-39643736D01*
X57605172Y-39643036D01*
X57599842Y-39643236D01*
X57599841Y-39643236D01*
X57488283Y-39647424D01*
X57371394Y-39651812D01*
X57270067Y-39673073D01*
X57147654Y-39698758D01*
X57147650Y-39698759D01*
X57142437Y-39699853D01*
X57026679Y-39745568D01*
X56929817Y-39783820D01*
X56929814Y-39783821D01*
X56924847Y-39785783D01*
X56869664Y-39819269D01*
X56742876Y-39896206D01*
X56724847Y-39907146D01*
X56548154Y-40060472D01*
X56517480Y-40097881D01*
X56458822Y-40137875D01*
X56387852Y-40139807D01*
X56327103Y-40103063D01*
X56307384Y-40074409D01*
X56305185Y-40070018D01*
X56302687Y-40063136D01*
X56205731Y-39915253D01*
X56077355Y-39793642D01*
X55924445Y-39704825D01*
X55755204Y-39653567D01*
X55748764Y-39652992D01*
X55748763Y-39652992D01*
X55678815Y-39646749D01*
X55678809Y-39646749D01*
X55676022Y-39646500D01*
X54337114Y-39646500D01*
X54241894Y-39657602D01*
X54211629Y-39661130D01*
X54211628Y-39661130D01*
X54204357Y-39661978D01*
X54197479Y-39664474D01*
X54197477Y-39664475D01*
X54092161Y-39702703D01*
X54038136Y-39722313D01*
X53890253Y-39819269D01*
X53768642Y-39947645D01*
X53679825Y-40100555D01*
X53628567Y-40269796D01*
X53627992Y-40276236D01*
X53627992Y-40276237D01*
X53622154Y-40341653D01*
X53621500Y-40348978D01*
X50508000Y-40348978D01*
X50508000Y-35634000D01*
X50528002Y-35565879D01*
X50581658Y-35519386D01*
X50634000Y-35508000D01*
X169366000Y-35508000D01*
X169434121Y-35528002D01*
G37*
%TD.AperFunction*%
%TD*%
M02*
