M48
; DRILL file {KiCad (5.99.0-8593-g9f18fee124)} date 02/26/21 16:48:10
; FORMAT={-:-/ absolute / inch / decimal}
; #@! TF.CreationDate,2021-02-26T16:48:10-06:00
; #@! TF.GenerationSoftware,Kicad,Pcbnew,(5.99.0-8593-g9f18fee124)
; #@! TF.FileFunction,Plated,1,4,PTH
FMAT,2
INCH
T1C0.0157
T2C0.0256
T3C0.0354
T4C0.0394
T5C0.0469
%
G90
G05
T1
X2.1654Y-2.2677
X2.2343Y-1.9685
X2.2913Y-2.0945
X2.3327Y-2.3425
X2.3465Y-2.0945
X2.3819Y-1.9685
X2.4567Y-2.2677
X2.5689Y-2.0079
X2.5689Y-2.0472
X2.7874Y-2.2677
X2.8346Y-1.9685
X2.8976Y-2.0945
X2.937Y-2.3386
X2.9528Y-2.0945
X2.9921Y-1.9685
X3.0709Y-2.2677
X3.189Y-2.0276
X3.189Y-2.0669
X3.2283Y-2.9606
X3.2402Y-2.8425
X3.3622Y-2.2677
X3.4055Y-1.9685
X3.4803Y-2.0945
X3.5039Y-2.5354
X3.5118Y-2.3465
X3.5197Y-3.2283
X3.5276Y-2.0945
X3.5433Y-2.9764
X3.5512Y-2.5354
X3.563Y-1.9685
X3.5669Y-3.2283
X3.6378Y-2.5
X3.6457Y-2.2677
X3.7165Y-2.7559
X3.7598Y-2.0276
X3.7598Y-2.0669
X3.7894Y-2.8642
X3.8189Y-2.7756
X3.8189Y-3.0394
X3.8386Y-2.5984
X3.8898Y-2.2677
X3.8937Y-3.1693
X3.8976Y-2.6181
X3.9291Y-2.7008
X3.937Y-3.0787
X3.9921Y-2.7559
X3.9961Y-1.9882
X4.0669Y-2.0945
X4.1024Y-2.3465
X4.1142Y-2.0906
X4.1535Y-1.9685
X4.2441Y-2.2677
X4.3701Y-2.0079
X4.3701Y-2.0472
X4.4803Y-2.2677
X4.6063Y-1.9764
X4.6732Y-2.0906
X4.7087Y-2.3425
X4.7244Y-2.0906
X4.7559Y-1.9685
X4.8425Y-2.2677
X4.9016Y-2.7461
X4.9606Y-2.0079
X4.9606Y-2.0472
X5.0984Y-2.2047
X5.2953Y-2.2067
X5.3839Y-3.1201
X5.4921Y-2.2047
X5.6102Y-3.1102
X5.689Y-2.2067
X5.8071Y-2.9626
X5.8465Y-3.2087
X5.8543Y-2.1929
X5.9685Y-1.7244
X6.2087Y-1.563
X6.25Y-3.0118
X6.25Y-3.1004
X6.25Y-3.189
X6.2697Y-2.372
X6.437Y-1.8504
T2
X4.8524Y-2.8248
X4.8524Y-2.8748
X4.8524Y-2.9248
X4.8524Y-2.9748
X4.8524Y-3.0248
X4.9024Y-2.8248
X4.9024Y-2.8748
X4.9024Y-2.9248
X4.9024Y-2.9748
X4.9024Y-3.0248
T3
X6.2402Y-2.1457
X6.3402Y-2.1457
T4
X5.1575Y-2.5591
X5.2575Y-2.5591
X5.3575Y-2.5591
T5
X2.1654Y-1.624
X2.2654Y-1.624
X2.3654Y-1.624
X2.4654Y-1.624
X2.7559Y-1.624
X2.8559Y-1.624
X2.9559Y-1.624
X3.0559Y-1.624
X3.3465Y-1.624
X3.4465Y-1.624
X3.5465Y-1.624
X3.6465Y-1.624
X3.937Y-1.624
X4.037Y-1.624
X4.137Y-1.624
X4.237Y-1.624
X4.5276Y-1.624
X4.6276Y-1.624
X4.7276Y-1.624
X4.8276Y-1.624
X5.1476Y-1.624
X5.2476Y-1.624
X5.3476Y-1.624
X5.4476Y-1.624
X5.5476Y-1.624
X5.6476Y-1.624
T0
M30
