%TF.GenerationSoftware,KiCad,Pcbnew,(5.99.0-8593-g9f18fee124)*%
%TF.CreationDate,2021-02-26T16:48:12-06:00*%
%TF.ProjectId,EE223_Design,45453232-335f-4446-9573-69676e2e6b69,rev?*%
%TF.SameCoordinates,Original*%
%TF.FileFunction,Legend,Top*%
%TF.FilePolarity,Positive*%
%FSLAX46Y46*%
G04 Gerber Fmt 4.6, Leading zero omitted, Abs format (unit mm)*
G04 Created by KiCad (PCBNEW (5.99.0-8593-g9f18fee124)) date 2021-02-26 16:48:12*
%MOMM*%
%LPD*%
G01*
G04 APERTURE LIST*
%ADD10C,0.300000*%
%ADD11C,0.150000*%
%ADD12C,0.500000*%
%ADD13C,0.120000*%
G04 APERTURE END LIST*
D10*
X134214285Y-37578571D02*
X134214285Y-36078571D01*
X134785714Y-36078571D01*
X134928571Y-36150000D01*
X135000000Y-36221428D01*
X135071428Y-36364285D01*
X135071428Y-36578571D01*
X135000000Y-36721428D01*
X134928571Y-36792857D01*
X134785714Y-36864285D01*
X134214285Y-36864285D01*
X136285714Y-37507142D02*
X136142857Y-37578571D01*
X135857142Y-37578571D01*
X135714285Y-37507142D01*
X135642857Y-37364285D01*
X135642857Y-36792857D01*
X135714285Y-36650000D01*
X135857142Y-36578571D01*
X136142857Y-36578571D01*
X136285714Y-36650000D01*
X136357142Y-36792857D01*
X136357142Y-36935714D01*
X135642857Y-37078571D01*
X137642857Y-37578571D02*
X137642857Y-36078571D01*
X137642857Y-37507142D02*
X137500000Y-37578571D01*
X137214285Y-37578571D01*
X137071428Y-37507142D01*
X137000000Y-37435714D01*
X136928571Y-37292857D01*
X136928571Y-36864285D01*
X137000000Y-36721428D01*
X137071428Y-36650000D01*
X137214285Y-36578571D01*
X137500000Y-36578571D01*
X137642857Y-36650000D01*
X139000000Y-37578571D02*
X139000000Y-36792857D01*
X138928571Y-36650000D01*
X138785714Y-36578571D01*
X138500000Y-36578571D01*
X138357142Y-36650000D01*
X139000000Y-37507142D02*
X138857142Y-37578571D01*
X138500000Y-37578571D01*
X138357142Y-37507142D01*
X138285714Y-37364285D01*
X138285714Y-37221428D01*
X138357142Y-37078571D01*
X138500000Y-37007142D01*
X138857142Y-37007142D01*
X139000000Y-36935714D01*
X139928571Y-37578571D02*
X139785714Y-37507142D01*
X139714285Y-37364285D01*
X139714285Y-36078571D01*
X114964285Y-37578571D02*
X114964285Y-36078571D01*
X115464285Y-37150000D01*
X115964285Y-36078571D01*
X115964285Y-37578571D01*
X116892857Y-37578571D02*
X116750000Y-37507142D01*
X116678571Y-37435714D01*
X116607142Y-37292857D01*
X116607142Y-36864285D01*
X116678571Y-36721428D01*
X116750000Y-36650000D01*
X116892857Y-36578571D01*
X117107142Y-36578571D01*
X117250000Y-36650000D01*
X117321428Y-36721428D01*
X117392857Y-36864285D01*
X117392857Y-37292857D01*
X117321428Y-37435714D01*
X117250000Y-37507142D01*
X117107142Y-37578571D01*
X116892857Y-37578571D01*
X117821428Y-36578571D02*
X118392857Y-36578571D01*
X118035714Y-36078571D02*
X118035714Y-37364285D01*
X118107142Y-37507142D01*
X118250000Y-37578571D01*
X118392857Y-37578571D01*
X119107142Y-37578571D02*
X118964285Y-37507142D01*
X118892857Y-37435714D01*
X118821428Y-37292857D01*
X118821428Y-36864285D01*
X118892857Y-36721428D01*
X118964285Y-36650000D01*
X119107142Y-36578571D01*
X119321428Y-36578571D01*
X119464285Y-36650000D01*
X119535714Y-36721428D01*
X119607142Y-36864285D01*
X119607142Y-37292857D01*
X119535714Y-37435714D01*
X119464285Y-37507142D01*
X119321428Y-37578571D01*
X119107142Y-37578571D01*
X120250000Y-37578571D02*
X120250000Y-36578571D01*
X120250000Y-36864285D02*
X120321428Y-36721428D01*
X120392857Y-36650000D01*
X120535714Y-36578571D01*
X120678571Y-36578571D01*
X123035714Y-36078571D02*
X122321428Y-36078571D01*
X122250000Y-36792857D01*
X122321428Y-36721428D01*
X122464285Y-36650000D01*
X122821428Y-36650000D01*
X122964285Y-36721428D01*
X123035714Y-36792857D01*
X123107142Y-36935714D01*
X123107142Y-37292857D01*
X123035714Y-37435714D01*
X122964285Y-37507142D01*
X122821428Y-37578571D01*
X122464285Y-37578571D01*
X122321428Y-37507142D01*
X122250000Y-37435714D01*
X99764285Y-37578571D02*
X99764285Y-36078571D01*
X100264285Y-37150000D01*
X100764285Y-36078571D01*
X100764285Y-37578571D01*
X101692857Y-37578571D02*
X101550000Y-37507142D01*
X101478571Y-37435714D01*
X101407142Y-37292857D01*
X101407142Y-36864285D01*
X101478571Y-36721428D01*
X101550000Y-36650000D01*
X101692857Y-36578571D01*
X101907142Y-36578571D01*
X102050000Y-36650000D01*
X102121428Y-36721428D01*
X102192857Y-36864285D01*
X102192857Y-37292857D01*
X102121428Y-37435714D01*
X102050000Y-37507142D01*
X101907142Y-37578571D01*
X101692857Y-37578571D01*
X102621428Y-36578571D02*
X103192857Y-36578571D01*
X102835714Y-36078571D02*
X102835714Y-37364285D01*
X102907142Y-37507142D01*
X103050000Y-37578571D01*
X103192857Y-37578571D01*
X103907142Y-37578571D02*
X103764285Y-37507142D01*
X103692857Y-37435714D01*
X103621428Y-37292857D01*
X103621428Y-36864285D01*
X103692857Y-36721428D01*
X103764285Y-36650000D01*
X103907142Y-36578571D01*
X104121428Y-36578571D01*
X104264285Y-36650000D01*
X104335714Y-36721428D01*
X104407142Y-36864285D01*
X104407142Y-37292857D01*
X104335714Y-37435714D01*
X104264285Y-37507142D01*
X104121428Y-37578571D01*
X103907142Y-37578571D01*
X105050000Y-37578571D02*
X105050000Y-36578571D01*
X105050000Y-36864285D02*
X105121428Y-36721428D01*
X105192857Y-36650000D01*
X105335714Y-36578571D01*
X105478571Y-36578571D01*
X107764285Y-36578571D02*
X107764285Y-37578571D01*
X107407142Y-36007142D02*
X107050000Y-37078571D01*
X107978571Y-37078571D01*
X84864285Y-37578571D02*
X84864285Y-36078571D01*
X85364285Y-37150000D01*
X85864285Y-36078571D01*
X85864285Y-37578571D01*
X86792857Y-37578571D02*
X86650000Y-37507142D01*
X86578571Y-37435714D01*
X86507142Y-37292857D01*
X86507142Y-36864285D01*
X86578571Y-36721428D01*
X86650000Y-36650000D01*
X86792857Y-36578571D01*
X87007142Y-36578571D01*
X87150000Y-36650000D01*
X87221428Y-36721428D01*
X87292857Y-36864285D01*
X87292857Y-37292857D01*
X87221428Y-37435714D01*
X87150000Y-37507142D01*
X87007142Y-37578571D01*
X86792857Y-37578571D01*
X87721428Y-36578571D02*
X88292857Y-36578571D01*
X87935714Y-36078571D02*
X87935714Y-37364285D01*
X88007142Y-37507142D01*
X88150000Y-37578571D01*
X88292857Y-37578571D01*
X89007142Y-37578571D02*
X88864285Y-37507142D01*
X88792857Y-37435714D01*
X88721428Y-37292857D01*
X88721428Y-36864285D01*
X88792857Y-36721428D01*
X88864285Y-36650000D01*
X89007142Y-36578571D01*
X89221428Y-36578571D01*
X89364285Y-36650000D01*
X89435714Y-36721428D01*
X89507142Y-36864285D01*
X89507142Y-37292857D01*
X89435714Y-37435714D01*
X89364285Y-37507142D01*
X89221428Y-37578571D01*
X89007142Y-37578571D01*
X90150000Y-37578571D02*
X90150000Y-36578571D01*
X90150000Y-36864285D02*
X90221428Y-36721428D01*
X90292857Y-36650000D01*
X90435714Y-36578571D01*
X90578571Y-36578571D01*
X92078571Y-36078571D02*
X93007142Y-36078571D01*
X92507142Y-36650000D01*
X92721428Y-36650000D01*
X92864285Y-36721428D01*
X92935714Y-36792857D01*
X93007142Y-36935714D01*
X93007142Y-37292857D01*
X92935714Y-37435714D01*
X92864285Y-37507142D01*
X92721428Y-37578571D01*
X92292857Y-37578571D01*
X92150000Y-37507142D01*
X92078571Y-37435714D01*
X69764285Y-37578571D02*
X69764285Y-36078571D01*
X70264285Y-37150000D01*
X70764285Y-36078571D01*
X70764285Y-37578571D01*
X71692857Y-37578571D02*
X71550000Y-37507142D01*
X71478571Y-37435714D01*
X71407142Y-37292857D01*
X71407142Y-36864285D01*
X71478571Y-36721428D01*
X71550000Y-36650000D01*
X71692857Y-36578571D01*
X71907142Y-36578571D01*
X72050000Y-36650000D01*
X72121428Y-36721428D01*
X72192857Y-36864285D01*
X72192857Y-37292857D01*
X72121428Y-37435714D01*
X72050000Y-37507142D01*
X71907142Y-37578571D01*
X71692857Y-37578571D01*
X72621428Y-36578571D02*
X73192857Y-36578571D01*
X72835714Y-36078571D02*
X72835714Y-37364285D01*
X72907142Y-37507142D01*
X73050000Y-37578571D01*
X73192857Y-37578571D01*
X73907142Y-37578571D02*
X73764285Y-37507142D01*
X73692857Y-37435714D01*
X73621428Y-37292857D01*
X73621428Y-36864285D01*
X73692857Y-36721428D01*
X73764285Y-36650000D01*
X73907142Y-36578571D01*
X74121428Y-36578571D01*
X74264285Y-36650000D01*
X74335714Y-36721428D01*
X74407142Y-36864285D01*
X74407142Y-37292857D01*
X74335714Y-37435714D01*
X74264285Y-37507142D01*
X74121428Y-37578571D01*
X73907142Y-37578571D01*
X75050000Y-37578571D02*
X75050000Y-36578571D01*
X75050000Y-36864285D02*
X75121428Y-36721428D01*
X75192857Y-36650000D01*
X75335714Y-36578571D01*
X75478571Y-36578571D01*
X77050000Y-36221428D02*
X77121428Y-36150000D01*
X77264285Y-36078571D01*
X77621428Y-36078571D01*
X77764285Y-36150000D01*
X77835714Y-36221428D01*
X77907142Y-36364285D01*
X77907142Y-36507142D01*
X77835714Y-36721428D01*
X76978571Y-37578571D01*
X77907142Y-37578571D01*
X54764285Y-37578571D02*
X54764285Y-36078571D01*
X55264285Y-37150000D01*
X55764285Y-36078571D01*
X55764285Y-37578571D01*
X56692857Y-37578571D02*
X56550000Y-37507142D01*
X56478571Y-37435714D01*
X56407142Y-37292857D01*
X56407142Y-36864285D01*
X56478571Y-36721428D01*
X56550000Y-36650000D01*
X56692857Y-36578571D01*
X56907142Y-36578571D01*
X57050000Y-36650000D01*
X57121428Y-36721428D01*
X57192857Y-36864285D01*
X57192857Y-37292857D01*
X57121428Y-37435714D01*
X57050000Y-37507142D01*
X56907142Y-37578571D01*
X56692857Y-37578571D01*
X57621428Y-36578571D02*
X58192857Y-36578571D01*
X57835714Y-36078571D02*
X57835714Y-37364285D01*
X57907142Y-37507142D01*
X58050000Y-37578571D01*
X58192857Y-37578571D01*
X58907142Y-37578571D02*
X58764285Y-37507142D01*
X58692857Y-37435714D01*
X58621428Y-37292857D01*
X58621428Y-36864285D01*
X58692857Y-36721428D01*
X58764285Y-36650000D01*
X58907142Y-36578571D01*
X59121428Y-36578571D01*
X59264285Y-36650000D01*
X59335714Y-36721428D01*
X59407142Y-36864285D01*
X59407142Y-37292857D01*
X59335714Y-37435714D01*
X59264285Y-37507142D01*
X59121428Y-37578571D01*
X58907142Y-37578571D01*
X60050000Y-37578571D02*
X60050000Y-36578571D01*
X60050000Y-36864285D02*
X60121428Y-36721428D01*
X60192857Y-36650000D01*
X60335714Y-36578571D01*
X60478571Y-36578571D01*
X62907142Y-37578571D02*
X62050000Y-37578571D01*
X62478571Y-37578571D02*
X62478571Y-36078571D01*
X62335714Y-36292857D01*
X62192857Y-36435714D01*
X62050000Y-36507142D01*
D11*
X130452380Y-69738095D02*
X130452380Y-69119047D01*
X130833333Y-69452380D01*
X130833333Y-69309523D01*
X130880952Y-69214285D01*
X130928571Y-69166666D01*
X131023809Y-69119047D01*
X131261904Y-69119047D01*
X131357142Y-69166666D01*
X131404761Y-69214285D01*
X131452380Y-69309523D01*
X131452380Y-69595238D01*
X131404761Y-69690476D01*
X131357142Y-69738095D01*
X130452380Y-68833333D02*
X131452380Y-68500000D01*
X130452380Y-68166666D01*
X130452380Y-67928571D02*
X130452380Y-67309523D01*
X130833333Y-67642857D01*
X130833333Y-67500000D01*
X130880952Y-67404761D01*
X130928571Y-67357142D01*
X131023809Y-67309523D01*
X131261904Y-67309523D01*
X131357142Y-67357142D01*
X131404761Y-67404761D01*
X131452380Y-67500000D01*
X131452380Y-67785714D01*
X131404761Y-67880952D01*
X131357142Y-67928571D01*
X135500000Y-69261904D02*
X135452380Y-69357142D01*
X135452380Y-69500000D01*
X135500000Y-69642857D01*
X135595238Y-69738095D01*
X135690476Y-69785714D01*
X135880952Y-69833333D01*
X136023809Y-69833333D01*
X136214285Y-69785714D01*
X136309523Y-69738095D01*
X136404761Y-69642857D01*
X136452380Y-69500000D01*
X136452380Y-69404761D01*
X136404761Y-69261904D01*
X136357142Y-69214285D01*
X136023809Y-69214285D01*
X136023809Y-69404761D01*
X136452380Y-68785714D02*
X135452380Y-68785714D01*
X136452380Y-68214285D01*
X135452380Y-68214285D01*
X136452380Y-67738095D02*
X135452380Y-67738095D01*
X135452380Y-67500000D01*
X135500000Y-67357142D01*
X135595238Y-67261904D01*
X135690476Y-67214285D01*
X135880952Y-67166666D01*
X136023809Y-67166666D01*
X136214285Y-67214285D01*
X136309523Y-67261904D01*
X136404761Y-67357142D01*
X136452380Y-67500000D01*
X136452380Y-67738095D01*
D12*
X110071428Y-83285714D02*
X110500000Y-83428571D01*
X110642857Y-83571428D01*
X110785714Y-83857142D01*
X110785714Y-84285714D01*
X110642857Y-84571428D01*
X110500000Y-84714285D01*
X110214285Y-84857142D01*
X109071428Y-84857142D01*
X109071428Y-81857142D01*
X110071428Y-81857142D01*
X110357142Y-82000000D01*
X110500000Y-82142857D01*
X110642857Y-82428571D01*
X110642857Y-82714285D01*
X110500000Y-83000000D01*
X110357142Y-83142857D01*
X110071428Y-83285714D01*
X109071428Y-83285714D01*
X113357142Y-84857142D02*
X113357142Y-83285714D01*
X113214285Y-83000000D01*
X112928571Y-82857142D01*
X112357142Y-82857142D01*
X112071428Y-83000000D01*
X113357142Y-84714285D02*
X113071428Y-84857142D01*
X112357142Y-84857142D01*
X112071428Y-84714285D01*
X111928571Y-84428571D01*
X111928571Y-84142857D01*
X112071428Y-83857142D01*
X112357142Y-83714285D01*
X113071428Y-83714285D01*
X113357142Y-83571428D01*
X114642857Y-84714285D02*
X114928571Y-84857142D01*
X115500000Y-84857142D01*
X115785714Y-84714285D01*
X115928571Y-84428571D01*
X115928571Y-84285714D01*
X115785714Y-84000000D01*
X115500000Y-83857142D01*
X115071428Y-83857142D01*
X114785714Y-83714285D01*
X114642857Y-83428571D01*
X114642857Y-83285714D01*
X114785714Y-83000000D01*
X115071428Y-82857142D01*
X115500000Y-82857142D01*
X115785714Y-83000000D01*
X117071428Y-84714285D02*
X117357142Y-84857142D01*
X117928571Y-84857142D01*
X118214285Y-84714285D01*
X118357142Y-84428571D01*
X118357142Y-84285714D01*
X118214285Y-84000000D01*
X117928571Y-83857142D01*
X117500000Y-83857142D01*
X117214285Y-83714285D01*
X117071428Y-83428571D01*
X117071428Y-83285714D01*
X117214285Y-83000000D01*
X117500000Y-82857142D01*
X117928571Y-82857142D01*
X118214285Y-83000000D01*
X119642857Y-83714285D02*
X121928571Y-83714285D01*
X123214285Y-84000000D02*
X124642857Y-84000000D01*
X122928571Y-84857142D02*
X123928571Y-81857142D01*
X124928571Y-84857142D01*
X125785714Y-84714285D02*
X126071428Y-84857142D01*
X126642857Y-84857142D01*
X126928571Y-84714285D01*
X127071428Y-84428571D01*
X127071428Y-84285714D01*
X126928571Y-84000000D01*
X126642857Y-83857142D01*
X126214285Y-83857142D01*
X125928571Y-83714285D01*
X125785714Y-83428571D01*
X125785714Y-83285714D01*
X125928571Y-83000000D01*
X126214285Y-82857142D01*
X126642857Y-82857142D01*
X126928571Y-83000000D01*
X128214285Y-84714285D02*
X128500000Y-84857142D01*
X129071428Y-84857142D01*
X129357142Y-84714285D01*
X129500000Y-84428571D01*
X129500000Y-84285714D01*
X129357142Y-84000000D01*
X129071428Y-83857142D01*
X128642857Y-83857142D01*
X128357142Y-83714285D01*
X128214285Y-83428571D01*
X128214285Y-83285714D01*
X128357142Y-83000000D01*
X128642857Y-82857142D01*
X129071428Y-82857142D01*
X129357142Y-83000000D01*
X130785714Y-84857142D02*
X130785714Y-82857142D01*
X130785714Y-81857142D02*
X130642857Y-82000000D01*
X130785714Y-82142857D01*
X130928571Y-82000000D01*
X130785714Y-81857142D01*
X130785714Y-82142857D01*
X132071428Y-84714285D02*
X132357142Y-84857142D01*
X132928571Y-84857142D01*
X133214285Y-84714285D01*
X133357142Y-84428571D01*
X133357142Y-84285714D01*
X133214285Y-84000000D01*
X132928571Y-83857142D01*
X132500000Y-83857142D01*
X132214285Y-83714285D01*
X132071428Y-83428571D01*
X132071428Y-83285714D01*
X132214285Y-83000000D01*
X132500000Y-82857142D01*
X132928571Y-82857142D01*
X133214285Y-83000000D01*
X134214285Y-82857142D02*
X135357142Y-82857142D01*
X134642857Y-81857142D02*
X134642857Y-84428571D01*
X134785714Y-84714285D01*
X135071428Y-84857142D01*
X135357142Y-84857142D01*
D11*
%TO.C,C8*%
X101657142Y-64666666D02*
X101704761Y-64714285D01*
X101752380Y-64857142D01*
X101752380Y-64952380D01*
X101704761Y-65095238D01*
X101609523Y-65190476D01*
X101514285Y-65238095D01*
X101323809Y-65285714D01*
X101180952Y-65285714D01*
X100990476Y-65238095D01*
X100895238Y-65190476D01*
X100800000Y-65095238D01*
X100752380Y-64952380D01*
X100752380Y-64857142D01*
X100800000Y-64714285D01*
X100847619Y-64666666D01*
X101180952Y-64095238D02*
X101133333Y-64190476D01*
X101085714Y-64238095D01*
X100990476Y-64285714D01*
X100942857Y-64285714D01*
X100847619Y-64238095D01*
X100800000Y-64190476D01*
X100752380Y-64095238D01*
X100752380Y-63904761D01*
X100800000Y-63809523D01*
X100847619Y-63761904D01*
X100942857Y-63714285D01*
X100990476Y-63714285D01*
X101085714Y-63761904D01*
X101133333Y-63809523D01*
X101180952Y-63904761D01*
X101180952Y-64095238D01*
X101228571Y-64190476D01*
X101276190Y-64238095D01*
X101371428Y-64285714D01*
X101561904Y-64285714D01*
X101657142Y-64238095D01*
X101704761Y-64190476D01*
X101752380Y-64095238D01*
X101752380Y-63904761D01*
X101704761Y-63809523D01*
X101657142Y-63761904D01*
X101561904Y-63714285D01*
X101371428Y-63714285D01*
X101276190Y-63761904D01*
X101228571Y-63809523D01*
X101180952Y-63904761D01*
%TO.C,Q1*%
X148904761Y-44547619D02*
X148809523Y-44500000D01*
X148714285Y-44404761D01*
X148571428Y-44261904D01*
X148476190Y-44214285D01*
X148380952Y-44214285D01*
X148428571Y-44452380D02*
X148333333Y-44404761D01*
X148238095Y-44309523D01*
X148190476Y-44119047D01*
X148190476Y-43785714D01*
X148238095Y-43595238D01*
X148333333Y-43500000D01*
X148428571Y-43452380D01*
X148619047Y-43452380D01*
X148714285Y-43500000D01*
X148809523Y-43595238D01*
X148857142Y-43785714D01*
X148857142Y-44119047D01*
X148809523Y-44309523D01*
X148714285Y-44404761D01*
X148619047Y-44452380D01*
X148428571Y-44452380D01*
X149809523Y-44452380D02*
X149238095Y-44452380D01*
X149523809Y-44452380D02*
X149523809Y-43452380D01*
X149428571Y-43595238D01*
X149333333Y-43690476D01*
X149238095Y-43738095D01*
%TO.C,R12*%
X88482380Y-58245357D02*
X88006190Y-58578690D01*
X88482380Y-58816785D02*
X87482380Y-58816785D01*
X87482380Y-58435833D01*
X87530000Y-58340595D01*
X87577619Y-58292976D01*
X87672857Y-58245357D01*
X87815714Y-58245357D01*
X87910952Y-58292976D01*
X87958571Y-58340595D01*
X88006190Y-58435833D01*
X88006190Y-58816785D01*
X88482380Y-57292976D02*
X88482380Y-57864404D01*
X88482380Y-57578690D02*
X87482380Y-57578690D01*
X87625238Y-57673928D01*
X87720476Y-57769166D01*
X87768095Y-57864404D01*
X87577619Y-56912023D02*
X87530000Y-56864404D01*
X87482380Y-56769166D01*
X87482380Y-56531071D01*
X87530000Y-56435833D01*
X87577619Y-56388214D01*
X87672857Y-56340595D01*
X87768095Y-56340595D01*
X87910952Y-56388214D01*
X88482380Y-56959642D01*
X88482380Y-56340595D01*
%TO.C,R6*%
X128532380Y-46569166D02*
X128056190Y-46902500D01*
X128532380Y-47140595D02*
X127532380Y-47140595D01*
X127532380Y-46759642D01*
X127580000Y-46664404D01*
X127627619Y-46616785D01*
X127722857Y-46569166D01*
X127865714Y-46569166D01*
X127960952Y-46616785D01*
X128008571Y-46664404D01*
X128056190Y-46759642D01*
X128056190Y-47140595D01*
X127532380Y-45712023D02*
X127532380Y-45902500D01*
X127580000Y-45997738D01*
X127627619Y-46045357D01*
X127770476Y-46140595D01*
X127960952Y-46188214D01*
X128341904Y-46188214D01*
X128437142Y-46140595D01*
X128484761Y-46092976D01*
X128532380Y-45997738D01*
X128532380Y-45807261D01*
X128484761Y-45712023D01*
X128437142Y-45664404D01*
X128341904Y-45616785D01*
X128103809Y-45616785D01*
X128008571Y-45664404D01*
X127960952Y-45712023D01*
X127913333Y-45807261D01*
X127913333Y-45997738D01*
X127960952Y-46092976D01*
X128008571Y-46140595D01*
X128103809Y-46188214D01*
%TO.C,C1*%
X141607142Y-83416666D02*
X141654761Y-83464285D01*
X141702380Y-83607142D01*
X141702380Y-83702380D01*
X141654761Y-83845238D01*
X141559523Y-83940476D01*
X141464285Y-83988095D01*
X141273809Y-84035714D01*
X141130952Y-84035714D01*
X140940476Y-83988095D01*
X140845238Y-83940476D01*
X140750000Y-83845238D01*
X140702380Y-83702380D01*
X140702380Y-83607142D01*
X140750000Y-83464285D01*
X140797619Y-83416666D01*
X141702380Y-82464285D02*
X141702380Y-83035714D01*
X141702380Y-82750000D02*
X140702380Y-82750000D01*
X140845238Y-82845238D01*
X140940476Y-82940476D01*
X140988095Y-83035714D01*
%TO.C,C10*%
X101557142Y-79957142D02*
X101509523Y-80004761D01*
X101366666Y-80052380D01*
X101271428Y-80052380D01*
X101128571Y-80004761D01*
X101033333Y-79909523D01*
X100985714Y-79814285D01*
X100938095Y-79623809D01*
X100938095Y-79480952D01*
X100985714Y-79290476D01*
X101033333Y-79195238D01*
X101128571Y-79100000D01*
X101271428Y-79052380D01*
X101366666Y-79052380D01*
X101509523Y-79100000D01*
X101557142Y-79147619D01*
X102509523Y-80052380D02*
X101938095Y-80052380D01*
X102223809Y-80052380D02*
X102223809Y-79052380D01*
X102128571Y-79195238D01*
X102033333Y-79290476D01*
X101938095Y-79338095D01*
X103128571Y-79052380D02*
X103223809Y-79052380D01*
X103319047Y-79100000D01*
X103366666Y-79147619D01*
X103414285Y-79242857D01*
X103461904Y-79433333D01*
X103461904Y-79671428D01*
X103414285Y-79861904D01*
X103366666Y-79957142D01*
X103319047Y-80004761D01*
X103223809Y-80052380D01*
X103128571Y-80052380D01*
X103033333Y-80004761D01*
X102985714Y-79957142D01*
X102938095Y-79861904D01*
X102890476Y-79671428D01*
X102890476Y-79433333D01*
X102938095Y-79242857D01*
X102985714Y-79147619D01*
X103033333Y-79100000D01*
X103128571Y-79052380D01*
%TO.C,C2*%
X139607142Y-83416666D02*
X139654761Y-83464285D01*
X139702380Y-83607142D01*
X139702380Y-83702380D01*
X139654761Y-83845238D01*
X139559523Y-83940476D01*
X139464285Y-83988095D01*
X139273809Y-84035714D01*
X139130952Y-84035714D01*
X138940476Y-83988095D01*
X138845238Y-83940476D01*
X138750000Y-83845238D01*
X138702380Y-83702380D01*
X138702380Y-83607142D01*
X138750000Y-83464285D01*
X138797619Y-83416666D01*
X138797619Y-83035714D02*
X138750000Y-82988095D01*
X138702380Y-82892857D01*
X138702380Y-82654761D01*
X138750000Y-82559523D01*
X138797619Y-82511904D01*
X138892857Y-82464285D01*
X138988095Y-82464285D01*
X139130952Y-82511904D01*
X139702380Y-83083333D01*
X139702380Y-82464285D01*
%TO.C,R13*%
X83657142Y-71482380D02*
X83323809Y-71006190D01*
X83085714Y-71482380D02*
X83085714Y-70482380D01*
X83466666Y-70482380D01*
X83561904Y-70530000D01*
X83609523Y-70577619D01*
X83657142Y-70672857D01*
X83657142Y-70815714D01*
X83609523Y-70910952D01*
X83561904Y-70958571D01*
X83466666Y-71006190D01*
X83085714Y-71006190D01*
X84609523Y-71482380D02*
X84038095Y-71482380D01*
X84323809Y-71482380D02*
X84323809Y-70482380D01*
X84228571Y-70625238D01*
X84133333Y-70720476D01*
X84038095Y-70768095D01*
X84942857Y-70482380D02*
X85561904Y-70482380D01*
X85228571Y-70863333D01*
X85371428Y-70863333D01*
X85466666Y-70910952D01*
X85514285Y-70958571D01*
X85561904Y-71053809D01*
X85561904Y-71291904D01*
X85514285Y-71387142D01*
X85466666Y-71434761D01*
X85371428Y-71482380D01*
X85085714Y-71482380D01*
X84990476Y-71434761D01*
X84942857Y-71387142D01*
%TO.C,C6*%
X145583333Y-76857142D02*
X145535714Y-76904761D01*
X145392857Y-76952380D01*
X145297619Y-76952380D01*
X145154761Y-76904761D01*
X145059523Y-76809523D01*
X145011904Y-76714285D01*
X144964285Y-76523809D01*
X144964285Y-76380952D01*
X145011904Y-76190476D01*
X145059523Y-76095238D01*
X145154761Y-76000000D01*
X145297619Y-75952380D01*
X145392857Y-75952380D01*
X145535714Y-76000000D01*
X145583333Y-76047619D01*
X146440476Y-75952380D02*
X146250000Y-75952380D01*
X146154761Y-76000000D01*
X146107142Y-76047619D01*
X146011904Y-76190476D01*
X145964285Y-76380952D01*
X145964285Y-76761904D01*
X146011904Y-76857142D01*
X146059523Y-76904761D01*
X146154761Y-76952380D01*
X146345238Y-76952380D01*
X146440476Y-76904761D01*
X146488095Y-76857142D01*
X146535714Y-76761904D01*
X146535714Y-76523809D01*
X146488095Y-76428571D01*
X146440476Y-76380952D01*
X146345238Y-76333333D01*
X146154761Y-76333333D01*
X146059523Y-76380952D01*
X146011904Y-76428571D01*
X145964285Y-76523809D01*
%TO.C,R5*%
X161180833Y-48702380D02*
X160847500Y-48226190D01*
X160609404Y-48702380D02*
X160609404Y-47702380D01*
X160990357Y-47702380D01*
X161085595Y-47750000D01*
X161133214Y-47797619D01*
X161180833Y-47892857D01*
X161180833Y-48035714D01*
X161133214Y-48130952D01*
X161085595Y-48178571D01*
X160990357Y-48226190D01*
X160609404Y-48226190D01*
X162085595Y-47702380D02*
X161609404Y-47702380D01*
X161561785Y-48178571D01*
X161609404Y-48130952D01*
X161704642Y-48083333D01*
X161942738Y-48083333D01*
X162037976Y-48130952D01*
X162085595Y-48178571D01*
X162133214Y-48273809D01*
X162133214Y-48511904D01*
X162085595Y-48607142D01*
X162037976Y-48654761D01*
X161942738Y-48702380D01*
X161704642Y-48702380D01*
X161609404Y-48654761D01*
X161561785Y-48607142D01*
%TO.C,U2*%
X148922380Y-54761904D02*
X149731904Y-54761904D01*
X149827142Y-54714285D01*
X149874761Y-54666666D01*
X149922380Y-54571428D01*
X149922380Y-54380952D01*
X149874761Y-54285714D01*
X149827142Y-54238095D01*
X149731904Y-54190476D01*
X148922380Y-54190476D01*
X149017619Y-53761904D02*
X148970000Y-53714285D01*
X148922380Y-53619047D01*
X148922380Y-53380952D01*
X148970000Y-53285714D01*
X149017619Y-53238095D01*
X149112857Y-53190476D01*
X149208095Y-53190476D01*
X149350952Y-53238095D01*
X149922380Y-53809523D01*
X149922380Y-53190476D01*
%TO.C,R7*%
X161083333Y-62202380D02*
X160750000Y-61726190D01*
X160511904Y-62202380D02*
X160511904Y-61202380D01*
X160892857Y-61202380D01*
X160988095Y-61250000D01*
X161035714Y-61297619D01*
X161083333Y-61392857D01*
X161083333Y-61535714D01*
X161035714Y-61630952D01*
X160988095Y-61678571D01*
X160892857Y-61726190D01*
X160511904Y-61726190D01*
X161416666Y-61202380D02*
X162083333Y-61202380D01*
X161654761Y-62202380D01*
%TO.C,R9*%
X58532380Y-57819166D02*
X58056190Y-58152500D01*
X58532380Y-58390595D02*
X57532380Y-58390595D01*
X57532380Y-58009642D01*
X57580000Y-57914404D01*
X57627619Y-57866785D01*
X57722857Y-57819166D01*
X57865714Y-57819166D01*
X57960952Y-57866785D01*
X58008571Y-57914404D01*
X58056190Y-58009642D01*
X58056190Y-58390595D01*
X58532380Y-57342976D02*
X58532380Y-57152500D01*
X58484761Y-57057261D01*
X58437142Y-57009642D01*
X58294285Y-56914404D01*
X58103809Y-56866785D01*
X57722857Y-56866785D01*
X57627619Y-56914404D01*
X57580000Y-56962023D01*
X57532380Y-57057261D01*
X57532380Y-57247738D01*
X57580000Y-57342976D01*
X57627619Y-57390595D01*
X57722857Y-57438214D01*
X57960952Y-57438214D01*
X58056190Y-57390595D01*
X58103809Y-57342976D01*
X58151428Y-57247738D01*
X58151428Y-57057261D01*
X58103809Y-56962023D01*
X58056190Y-56914404D01*
X57960952Y-56866785D01*
%TO.C,C7*%
X100257142Y-64666666D02*
X100304761Y-64714285D01*
X100352380Y-64857142D01*
X100352380Y-64952380D01*
X100304761Y-65095238D01*
X100209523Y-65190476D01*
X100114285Y-65238095D01*
X99923809Y-65285714D01*
X99780952Y-65285714D01*
X99590476Y-65238095D01*
X99495238Y-65190476D01*
X99400000Y-65095238D01*
X99352380Y-64952380D01*
X99352380Y-64857142D01*
X99400000Y-64714285D01*
X99447619Y-64666666D01*
X99352380Y-64333333D02*
X99352380Y-63666666D01*
X100352380Y-64095238D01*
%TO.C,U4*%
X108452380Y-48761904D02*
X109261904Y-48761904D01*
X109357142Y-48714285D01*
X109404761Y-48666666D01*
X109452380Y-48571428D01*
X109452380Y-48380952D01*
X109404761Y-48285714D01*
X109357142Y-48238095D01*
X109261904Y-48190476D01*
X108452380Y-48190476D01*
X108785714Y-47285714D02*
X109452380Y-47285714D01*
X108404761Y-47523809D02*
X109119047Y-47761904D01*
X109119047Y-47142857D01*
%TO.C,C18*%
X94357142Y-55642857D02*
X94404761Y-55690476D01*
X94452380Y-55833333D01*
X94452380Y-55928571D01*
X94404761Y-56071428D01*
X94309523Y-56166666D01*
X94214285Y-56214285D01*
X94023809Y-56261904D01*
X93880952Y-56261904D01*
X93690476Y-56214285D01*
X93595238Y-56166666D01*
X93500000Y-56071428D01*
X93452380Y-55928571D01*
X93452380Y-55833333D01*
X93500000Y-55690476D01*
X93547619Y-55642857D01*
X94452380Y-54690476D02*
X94452380Y-55261904D01*
X94452380Y-54976190D02*
X93452380Y-54976190D01*
X93595238Y-55071428D01*
X93690476Y-55166666D01*
X93738095Y-55261904D01*
X93880952Y-54119047D02*
X93833333Y-54214285D01*
X93785714Y-54261904D01*
X93690476Y-54309523D01*
X93642857Y-54309523D01*
X93547619Y-54261904D01*
X93500000Y-54214285D01*
X93452380Y-54119047D01*
X93452380Y-53928571D01*
X93500000Y-53833333D01*
X93547619Y-53785714D01*
X93642857Y-53738095D01*
X93690476Y-53738095D01*
X93785714Y-53785714D01*
X93833333Y-53833333D01*
X93880952Y-53928571D01*
X93880952Y-54119047D01*
X93928571Y-54214285D01*
X93976190Y-54261904D01*
X94071428Y-54309523D01*
X94261904Y-54309523D01*
X94357142Y-54261904D01*
X94404761Y-54214285D01*
X94452380Y-54119047D01*
X94452380Y-53928571D01*
X94404761Y-53833333D01*
X94357142Y-53785714D01*
X94261904Y-53738095D01*
X94071428Y-53738095D01*
X93976190Y-53785714D01*
X93928571Y-53833333D01*
X93880952Y-53928571D01*
%TO.C,C13*%
X88657142Y-63157142D02*
X88609523Y-63204761D01*
X88466666Y-63252380D01*
X88371428Y-63252380D01*
X88228571Y-63204761D01*
X88133333Y-63109523D01*
X88085714Y-63014285D01*
X88038095Y-62823809D01*
X88038095Y-62680952D01*
X88085714Y-62490476D01*
X88133333Y-62395238D01*
X88228571Y-62300000D01*
X88371428Y-62252380D01*
X88466666Y-62252380D01*
X88609523Y-62300000D01*
X88657142Y-62347619D01*
X89609523Y-63252380D02*
X89038095Y-63252380D01*
X89323809Y-63252380D02*
X89323809Y-62252380D01*
X89228571Y-62395238D01*
X89133333Y-62490476D01*
X89038095Y-62538095D01*
X89942857Y-62252380D02*
X90561904Y-62252380D01*
X90228571Y-62633333D01*
X90371428Y-62633333D01*
X90466666Y-62680952D01*
X90514285Y-62728571D01*
X90561904Y-62823809D01*
X90561904Y-63061904D01*
X90514285Y-63157142D01*
X90466666Y-63204761D01*
X90371428Y-63252380D01*
X90085714Y-63252380D01*
X89990476Y-63204761D01*
X89942857Y-63157142D01*
%TO.C,R11*%
X73882380Y-58245357D02*
X73406190Y-58578690D01*
X73882380Y-58816785D02*
X72882380Y-58816785D01*
X72882380Y-58435833D01*
X72930000Y-58340595D01*
X72977619Y-58292976D01*
X73072857Y-58245357D01*
X73215714Y-58245357D01*
X73310952Y-58292976D01*
X73358571Y-58340595D01*
X73406190Y-58435833D01*
X73406190Y-58816785D01*
X73882380Y-57292976D02*
X73882380Y-57864404D01*
X73882380Y-57578690D02*
X72882380Y-57578690D01*
X73025238Y-57673928D01*
X73120476Y-57769166D01*
X73168095Y-57864404D01*
X73882380Y-56340595D02*
X73882380Y-56912023D01*
X73882380Y-56626309D02*
X72882380Y-56626309D01*
X73025238Y-56721547D01*
X73120476Y-56816785D01*
X73168095Y-56912023D01*
%TO.C,R10*%
X118882380Y-58145357D02*
X118406190Y-58478690D01*
X118882380Y-58716785D02*
X117882380Y-58716785D01*
X117882380Y-58335833D01*
X117930000Y-58240595D01*
X117977619Y-58192976D01*
X118072857Y-58145357D01*
X118215714Y-58145357D01*
X118310952Y-58192976D01*
X118358571Y-58240595D01*
X118406190Y-58335833D01*
X118406190Y-58716785D01*
X118882380Y-57192976D02*
X118882380Y-57764404D01*
X118882380Y-57478690D02*
X117882380Y-57478690D01*
X118025238Y-57573928D01*
X118120476Y-57669166D01*
X118168095Y-57764404D01*
X117882380Y-56573928D02*
X117882380Y-56478690D01*
X117930000Y-56383452D01*
X117977619Y-56335833D01*
X118072857Y-56288214D01*
X118263333Y-56240595D01*
X118501428Y-56240595D01*
X118691904Y-56288214D01*
X118787142Y-56335833D01*
X118834761Y-56383452D01*
X118882380Y-56478690D01*
X118882380Y-56573928D01*
X118834761Y-56669166D01*
X118787142Y-56716785D01*
X118691904Y-56764404D01*
X118501428Y-56812023D01*
X118263333Y-56812023D01*
X118072857Y-56764404D01*
X117977619Y-56716785D01*
X117930000Y-56669166D01*
X117882380Y-56573928D01*
%TO.C,C17*%
X79857142Y-55642857D02*
X79904761Y-55690476D01*
X79952380Y-55833333D01*
X79952380Y-55928571D01*
X79904761Y-56071428D01*
X79809523Y-56166666D01*
X79714285Y-56214285D01*
X79523809Y-56261904D01*
X79380952Y-56261904D01*
X79190476Y-56214285D01*
X79095238Y-56166666D01*
X79000000Y-56071428D01*
X78952380Y-55928571D01*
X78952380Y-55833333D01*
X79000000Y-55690476D01*
X79047619Y-55642857D01*
X79952380Y-54690476D02*
X79952380Y-55261904D01*
X79952380Y-54976190D02*
X78952380Y-54976190D01*
X79095238Y-55071428D01*
X79190476Y-55166666D01*
X79238095Y-55261904D01*
X78952380Y-54357142D02*
X78952380Y-53690476D01*
X79952380Y-54119047D01*
%TO.C,C3*%
X154333333Y-44357142D02*
X154285714Y-44404761D01*
X154142857Y-44452380D01*
X154047619Y-44452380D01*
X153904761Y-44404761D01*
X153809523Y-44309523D01*
X153761904Y-44214285D01*
X153714285Y-44023809D01*
X153714285Y-43880952D01*
X153761904Y-43690476D01*
X153809523Y-43595238D01*
X153904761Y-43500000D01*
X154047619Y-43452380D01*
X154142857Y-43452380D01*
X154285714Y-43500000D01*
X154333333Y-43547619D01*
X154666666Y-43452380D02*
X155285714Y-43452380D01*
X154952380Y-43833333D01*
X155095238Y-43833333D01*
X155190476Y-43880952D01*
X155238095Y-43928571D01*
X155285714Y-44023809D01*
X155285714Y-44261904D01*
X155238095Y-44357142D01*
X155190476Y-44404761D01*
X155095238Y-44452380D01*
X154809523Y-44452380D01*
X154714285Y-44404761D01*
X154666666Y-44357142D01*
%TO.C,U7*%
X78952380Y-48761904D02*
X79761904Y-48761904D01*
X79857142Y-48714285D01*
X79904761Y-48666666D01*
X79952380Y-48571428D01*
X79952380Y-48380952D01*
X79904761Y-48285714D01*
X79857142Y-48238095D01*
X79761904Y-48190476D01*
X78952380Y-48190476D01*
X78952380Y-47809523D02*
X78952380Y-47142857D01*
X79952380Y-47571428D01*
%TO.C,C5*%
X141607142Y-76166666D02*
X141654761Y-76214285D01*
X141702380Y-76357142D01*
X141702380Y-76452380D01*
X141654761Y-76595238D01*
X141559523Y-76690476D01*
X141464285Y-76738095D01*
X141273809Y-76785714D01*
X141130952Y-76785714D01*
X140940476Y-76738095D01*
X140845238Y-76690476D01*
X140750000Y-76595238D01*
X140702380Y-76452380D01*
X140702380Y-76357142D01*
X140750000Y-76214285D01*
X140797619Y-76166666D01*
X140702380Y-75261904D02*
X140702380Y-75738095D01*
X141178571Y-75785714D01*
X141130952Y-75738095D01*
X141083333Y-75642857D01*
X141083333Y-75404761D01*
X141130952Y-75309523D01*
X141178571Y-75261904D01*
X141273809Y-75214285D01*
X141511904Y-75214285D01*
X141607142Y-75261904D01*
X141654761Y-75309523D01*
X141702380Y-75404761D01*
X141702380Y-75642857D01*
X141654761Y-75738095D01*
X141607142Y-75785714D01*
%TO.C,U1*%
X142988095Y-80702380D02*
X142988095Y-81511904D01*
X143035714Y-81607142D01*
X143083333Y-81654761D01*
X143178571Y-81702380D01*
X143369047Y-81702380D01*
X143464285Y-81654761D01*
X143511904Y-81607142D01*
X143559523Y-81511904D01*
X143559523Y-80702380D01*
X144559523Y-81702380D02*
X143988095Y-81702380D01*
X144273809Y-81702380D02*
X144273809Y-80702380D01*
X144178571Y-80845238D01*
X144083333Y-80940476D01*
X143988095Y-80988095D01*
%TO.C,C4*%
X145465833Y-84357142D02*
X145418214Y-84404761D01*
X145275357Y-84452380D01*
X145180119Y-84452380D01*
X145037261Y-84404761D01*
X144942023Y-84309523D01*
X144894404Y-84214285D01*
X144846785Y-84023809D01*
X144846785Y-83880952D01*
X144894404Y-83690476D01*
X144942023Y-83595238D01*
X145037261Y-83500000D01*
X145180119Y-83452380D01*
X145275357Y-83452380D01*
X145418214Y-83500000D01*
X145465833Y-83547619D01*
X146322976Y-83785714D02*
X146322976Y-84452380D01*
X146084880Y-83404761D02*
X145846785Y-84119047D01*
X146465833Y-84119047D01*
%TO.C,U8*%
X93452380Y-48761904D02*
X94261904Y-48761904D01*
X94357142Y-48714285D01*
X94404761Y-48666666D01*
X94452380Y-48571428D01*
X94452380Y-48380952D01*
X94404761Y-48285714D01*
X94357142Y-48238095D01*
X94261904Y-48190476D01*
X93452380Y-48190476D01*
X93880952Y-47571428D02*
X93833333Y-47666666D01*
X93785714Y-47714285D01*
X93690476Y-47761904D01*
X93642857Y-47761904D01*
X93547619Y-47714285D01*
X93500000Y-47666666D01*
X93452380Y-47571428D01*
X93452380Y-47380952D01*
X93500000Y-47285714D01*
X93547619Y-47238095D01*
X93642857Y-47190476D01*
X93690476Y-47190476D01*
X93785714Y-47238095D01*
X93833333Y-47285714D01*
X93880952Y-47380952D01*
X93880952Y-47571428D01*
X93928571Y-47666666D01*
X93976190Y-47714285D01*
X94071428Y-47761904D01*
X94261904Y-47761904D01*
X94357142Y-47714285D01*
X94404761Y-47666666D01*
X94452380Y-47571428D01*
X94452380Y-47380952D01*
X94404761Y-47285714D01*
X94357142Y-47238095D01*
X94261904Y-47190476D01*
X94071428Y-47190476D01*
X93976190Y-47238095D01*
X93928571Y-47285714D01*
X93880952Y-47380952D01*
%TO.C,R8*%
X103482380Y-57869166D02*
X103006190Y-58202500D01*
X103482380Y-58440595D02*
X102482380Y-58440595D01*
X102482380Y-58059642D01*
X102530000Y-57964404D01*
X102577619Y-57916785D01*
X102672857Y-57869166D01*
X102815714Y-57869166D01*
X102910952Y-57916785D01*
X102958571Y-57964404D01*
X103006190Y-58059642D01*
X103006190Y-58440595D01*
X102910952Y-57297738D02*
X102863333Y-57392976D01*
X102815714Y-57440595D01*
X102720476Y-57488214D01*
X102672857Y-57488214D01*
X102577619Y-57440595D01*
X102530000Y-57392976D01*
X102482380Y-57297738D01*
X102482380Y-57107261D01*
X102530000Y-57012023D01*
X102577619Y-56964404D01*
X102672857Y-56916785D01*
X102720476Y-56916785D01*
X102815714Y-56964404D01*
X102863333Y-57012023D01*
X102910952Y-57107261D01*
X102910952Y-57297738D01*
X102958571Y-57392976D01*
X103006190Y-57440595D01*
X103101428Y-57488214D01*
X103291904Y-57488214D01*
X103387142Y-57440595D01*
X103434761Y-57392976D01*
X103482380Y-57297738D01*
X103482380Y-57107261D01*
X103434761Y-57012023D01*
X103387142Y-56964404D01*
X103291904Y-56916785D01*
X103101428Y-56916785D01*
X103006190Y-56964404D01*
X102958571Y-57012023D01*
X102910952Y-57107261D01*
%TO.C,J1*%
X126702380Y-74833333D02*
X127416666Y-74833333D01*
X127559523Y-74880952D01*
X127654761Y-74976190D01*
X127702380Y-75119047D01*
X127702380Y-75214285D01*
X127702380Y-73833333D02*
X127702380Y-74404761D01*
X127702380Y-74119047D02*
X126702380Y-74119047D01*
X126845238Y-74214285D01*
X126940476Y-74309523D01*
X126988095Y-74404761D01*
X119170714Y-78977380D02*
X119170714Y-77977380D01*
X119551666Y-77977380D01*
X119646904Y-78025000D01*
X119694523Y-78072619D01*
X119742142Y-78167857D01*
X119742142Y-78310714D01*
X119694523Y-78405952D01*
X119646904Y-78453571D01*
X119551666Y-78501190D01*
X119170714Y-78501190D01*
X120170714Y-78977380D02*
X120170714Y-78310714D01*
X120170714Y-78501190D02*
X120218333Y-78405952D01*
X120265952Y-78358333D01*
X120361190Y-78310714D01*
X120456428Y-78310714D01*
X120932619Y-78977380D02*
X120837380Y-78929761D01*
X120789761Y-78882142D01*
X120742142Y-78786904D01*
X120742142Y-78501190D01*
X120789761Y-78405952D01*
X120837380Y-78358333D01*
X120932619Y-78310714D01*
X121075476Y-78310714D01*
X121170714Y-78358333D01*
X121218333Y-78405952D01*
X121265952Y-78501190D01*
X121265952Y-78786904D01*
X121218333Y-78882142D01*
X121170714Y-78929761D01*
X121075476Y-78977380D01*
X120932619Y-78977380D01*
X122123095Y-78310714D02*
X122123095Y-79120238D01*
X122075476Y-79215476D01*
X122027857Y-79263095D01*
X121932619Y-79310714D01*
X121789761Y-79310714D01*
X121694523Y-79263095D01*
X122123095Y-78929761D02*
X122027857Y-78977380D01*
X121837380Y-78977380D01*
X121742142Y-78929761D01*
X121694523Y-78882142D01*
X121646904Y-78786904D01*
X121646904Y-78501190D01*
X121694523Y-78405952D01*
X121742142Y-78358333D01*
X121837380Y-78310714D01*
X122027857Y-78310714D01*
X122123095Y-78358333D01*
X122599285Y-78977380D02*
X122599285Y-78310714D01*
X122599285Y-78501190D02*
X122646904Y-78405952D01*
X122694523Y-78358333D01*
X122789761Y-78310714D01*
X122885000Y-78310714D01*
X123646904Y-78977380D02*
X123646904Y-78453571D01*
X123599285Y-78358333D01*
X123504047Y-78310714D01*
X123313571Y-78310714D01*
X123218333Y-78358333D01*
X123646904Y-78929761D02*
X123551666Y-78977380D01*
X123313571Y-78977380D01*
X123218333Y-78929761D01*
X123170714Y-78834523D01*
X123170714Y-78739285D01*
X123218333Y-78644047D01*
X123313571Y-78596428D01*
X123551666Y-78596428D01*
X123646904Y-78548809D01*
X124123095Y-78977380D02*
X124123095Y-78310714D01*
X124123095Y-78405952D02*
X124170714Y-78358333D01*
X124265952Y-78310714D01*
X124408809Y-78310714D01*
X124504047Y-78358333D01*
X124551666Y-78453571D01*
X124551666Y-78977380D01*
X124551666Y-78453571D02*
X124599285Y-78358333D01*
X124694523Y-78310714D01*
X124837380Y-78310714D01*
X124932619Y-78358333D01*
X124980238Y-78453571D01*
X124980238Y-78977380D01*
X125456428Y-78977380D02*
X125456428Y-78310714D01*
X125456428Y-78405952D02*
X125504047Y-78358333D01*
X125599285Y-78310714D01*
X125742142Y-78310714D01*
X125837380Y-78358333D01*
X125885000Y-78453571D01*
X125885000Y-78977380D01*
X125885000Y-78453571D02*
X125932619Y-78358333D01*
X126027857Y-78310714D01*
X126170714Y-78310714D01*
X126265952Y-78358333D01*
X126313571Y-78453571D01*
X126313571Y-78977380D01*
X126789761Y-78977380D02*
X126789761Y-78310714D01*
X126789761Y-77977380D02*
X126742142Y-78025000D01*
X126789761Y-78072619D01*
X126837380Y-78025000D01*
X126789761Y-77977380D01*
X126789761Y-78072619D01*
X127265952Y-78310714D02*
X127265952Y-78977380D01*
X127265952Y-78405952D02*
X127313571Y-78358333D01*
X127408809Y-78310714D01*
X127551666Y-78310714D01*
X127646904Y-78358333D01*
X127694523Y-78453571D01*
X127694523Y-78977380D01*
X128599285Y-78310714D02*
X128599285Y-79120238D01*
X128551666Y-79215476D01*
X128504047Y-79263095D01*
X128408809Y-79310714D01*
X128265952Y-79310714D01*
X128170714Y-79263095D01*
X128599285Y-78929761D02*
X128504047Y-78977380D01*
X128313571Y-78977380D01*
X128218333Y-78929761D01*
X128170714Y-78882142D01*
X128123095Y-78786904D01*
X128123095Y-78501190D01*
X128170714Y-78405952D01*
X128218333Y-78358333D01*
X128313571Y-78310714D01*
X128504047Y-78310714D01*
X128599285Y-78358333D01*
%TO.C,C14*%
X109357142Y-55142857D02*
X109404761Y-55190476D01*
X109452380Y-55333333D01*
X109452380Y-55428571D01*
X109404761Y-55571428D01*
X109309523Y-55666666D01*
X109214285Y-55714285D01*
X109023809Y-55761904D01*
X108880952Y-55761904D01*
X108690476Y-55714285D01*
X108595238Y-55666666D01*
X108500000Y-55571428D01*
X108452380Y-55428571D01*
X108452380Y-55333333D01*
X108500000Y-55190476D01*
X108547619Y-55142857D01*
X109452380Y-54190476D02*
X109452380Y-54761904D01*
X109452380Y-54476190D02*
X108452380Y-54476190D01*
X108595238Y-54571428D01*
X108690476Y-54666666D01*
X108738095Y-54761904D01*
X108785714Y-53333333D02*
X109452380Y-53333333D01*
X108404761Y-53571428D02*
X109119047Y-53809523D01*
X109119047Y-53190476D01*
%TO.C,C11*%
X85357142Y-80557142D02*
X85309523Y-80604761D01*
X85166666Y-80652380D01*
X85071428Y-80652380D01*
X84928571Y-80604761D01*
X84833333Y-80509523D01*
X84785714Y-80414285D01*
X84738095Y-80223809D01*
X84738095Y-80080952D01*
X84785714Y-79890476D01*
X84833333Y-79795238D01*
X84928571Y-79700000D01*
X85071428Y-79652380D01*
X85166666Y-79652380D01*
X85309523Y-79700000D01*
X85357142Y-79747619D01*
X86309523Y-80652380D02*
X85738095Y-80652380D01*
X86023809Y-80652380D02*
X86023809Y-79652380D01*
X85928571Y-79795238D01*
X85833333Y-79890476D01*
X85738095Y-79938095D01*
X87261904Y-80652380D02*
X86690476Y-80652380D01*
X86976190Y-80652380D02*
X86976190Y-79652380D01*
X86880952Y-79795238D01*
X86785714Y-79890476D01*
X86690476Y-79938095D01*
%TO.C,U5*%
X63452380Y-48761904D02*
X64261904Y-48761904D01*
X64357142Y-48714285D01*
X64404761Y-48666666D01*
X64452380Y-48571428D01*
X64452380Y-48380952D01*
X64404761Y-48285714D01*
X64357142Y-48238095D01*
X64261904Y-48190476D01*
X63452380Y-48190476D01*
X63452380Y-47238095D02*
X63452380Y-47714285D01*
X63928571Y-47761904D01*
X63880952Y-47714285D01*
X63833333Y-47619047D01*
X63833333Y-47380952D01*
X63880952Y-47285714D01*
X63928571Y-47238095D01*
X64023809Y-47190476D01*
X64261904Y-47190476D01*
X64357142Y-47238095D01*
X64404761Y-47285714D01*
X64452380Y-47380952D01*
X64452380Y-47619047D01*
X64404761Y-47714285D01*
X64357142Y-47761904D01*
%TO.C,U6*%
X123952380Y-48761904D02*
X124761904Y-48761904D01*
X124857142Y-48714285D01*
X124904761Y-48666666D01*
X124952380Y-48571428D01*
X124952380Y-48380952D01*
X124904761Y-48285714D01*
X124857142Y-48238095D01*
X124761904Y-48190476D01*
X123952380Y-48190476D01*
X123952380Y-47285714D02*
X123952380Y-47476190D01*
X124000000Y-47571428D01*
X124047619Y-47619047D01*
X124190476Y-47714285D01*
X124380952Y-47761904D01*
X124761904Y-47761904D01*
X124857142Y-47714285D01*
X124904761Y-47666666D01*
X124952380Y-47571428D01*
X124952380Y-47380952D01*
X124904761Y-47285714D01*
X124857142Y-47238095D01*
X124761904Y-47190476D01*
X124523809Y-47190476D01*
X124428571Y-47238095D01*
X124380952Y-47285714D01*
X124333333Y-47380952D01*
X124333333Y-47571428D01*
X124380952Y-47666666D01*
X124428571Y-47714285D01*
X124523809Y-47761904D01*
%TO.C,R1*%
X146333333Y-72452380D02*
X146000000Y-71976190D01*
X145761904Y-72452380D02*
X145761904Y-71452380D01*
X146142857Y-71452380D01*
X146238095Y-71500000D01*
X146285714Y-71547619D01*
X146333333Y-71642857D01*
X146333333Y-71785714D01*
X146285714Y-71880952D01*
X146238095Y-71928571D01*
X146142857Y-71976190D01*
X145761904Y-71976190D01*
X147285714Y-72452380D02*
X146714285Y-72452380D01*
X147000000Y-72452380D02*
X147000000Y-71452380D01*
X146904761Y-71595238D01*
X146809523Y-71690476D01*
X146714285Y-71738095D01*
%TO.C,R4*%
X163833333Y-45952380D02*
X163500000Y-45476190D01*
X163261904Y-45952380D02*
X163261904Y-44952380D01*
X163642857Y-44952380D01*
X163738095Y-45000000D01*
X163785714Y-45047619D01*
X163833333Y-45142857D01*
X163833333Y-45285714D01*
X163785714Y-45380952D01*
X163738095Y-45428571D01*
X163642857Y-45476190D01*
X163261904Y-45476190D01*
X164690476Y-45285714D02*
X164690476Y-45952380D01*
X164452380Y-44904761D02*
X164214285Y-45619047D01*
X164833333Y-45619047D01*
%TO.C,JP1*%
X128122380Y-65833333D02*
X128836666Y-65833333D01*
X128979523Y-65880952D01*
X129074761Y-65976190D01*
X129122380Y-66119047D01*
X129122380Y-66214285D01*
X129122380Y-65357142D02*
X128122380Y-65357142D01*
X128122380Y-64976190D01*
X128170000Y-64880952D01*
X128217619Y-64833333D01*
X128312857Y-64785714D01*
X128455714Y-64785714D01*
X128550952Y-64833333D01*
X128598571Y-64880952D01*
X128646190Y-64976190D01*
X128646190Y-65357142D01*
X129122380Y-63833333D02*
X129122380Y-64404761D01*
X129122380Y-64119047D02*
X128122380Y-64119047D01*
X128265238Y-64214285D01*
X128360476Y-64309523D01*
X128408095Y-64404761D01*
X133428571Y-74404761D02*
X133476190Y-74261904D01*
X133523809Y-74214285D01*
X133619047Y-74166666D01*
X133761904Y-74166666D01*
X133857142Y-74214285D01*
X133904761Y-74261904D01*
X133952380Y-74357142D01*
X133952380Y-74738095D01*
X132952380Y-74738095D01*
X132952380Y-74404761D01*
X133000000Y-74309523D01*
X133047619Y-74261904D01*
X133142857Y-74214285D01*
X133238095Y-74214285D01*
X133333333Y-74261904D01*
X133380952Y-74309523D01*
X133428571Y-74404761D01*
X133428571Y-74738095D01*
X133952380Y-73595238D02*
X133904761Y-73690476D01*
X133857142Y-73738095D01*
X133761904Y-73785714D01*
X133476190Y-73785714D01*
X133380952Y-73738095D01*
X133333333Y-73690476D01*
X133285714Y-73595238D01*
X133285714Y-73452380D01*
X133333333Y-73357142D01*
X133380952Y-73309523D01*
X133476190Y-73261904D01*
X133761904Y-73261904D01*
X133857142Y-73309523D01*
X133904761Y-73357142D01*
X133952380Y-73452380D01*
X133952380Y-73595238D01*
X133952380Y-72690476D02*
X133904761Y-72785714D01*
X133857142Y-72833333D01*
X133761904Y-72880952D01*
X133476190Y-72880952D01*
X133380952Y-72833333D01*
X133333333Y-72785714D01*
X133285714Y-72690476D01*
X133285714Y-72547619D01*
X133333333Y-72452380D01*
X133380952Y-72404761D01*
X133476190Y-72357142D01*
X133761904Y-72357142D01*
X133857142Y-72404761D01*
X133904761Y-72452380D01*
X133952380Y-72547619D01*
X133952380Y-72690476D01*
X133285714Y-72071428D02*
X133285714Y-71690476D01*
X132952380Y-71928571D02*
X133809523Y-71928571D01*
X133904761Y-71880952D01*
X133952380Y-71785714D01*
X133952380Y-71690476D01*
X133952380Y-70595238D02*
X132952380Y-70595238D01*
X133666666Y-70261904D01*
X132952380Y-69928571D01*
X133952380Y-69928571D01*
X133952380Y-69309523D02*
X133904761Y-69404761D01*
X133857142Y-69452380D01*
X133761904Y-69500000D01*
X133476190Y-69500000D01*
X133380952Y-69452380D01*
X133333333Y-69404761D01*
X133285714Y-69309523D01*
X133285714Y-69166666D01*
X133333333Y-69071428D01*
X133380952Y-69023809D01*
X133476190Y-68976190D01*
X133761904Y-68976190D01*
X133857142Y-69023809D01*
X133904761Y-69071428D01*
X133952380Y-69166666D01*
X133952380Y-69309523D01*
X133952380Y-68119047D02*
X132952380Y-68119047D01*
X133904761Y-68119047D02*
X133952380Y-68214285D01*
X133952380Y-68404761D01*
X133904761Y-68500000D01*
X133857142Y-68547619D01*
X133761904Y-68595238D01*
X133476190Y-68595238D01*
X133380952Y-68547619D01*
X133333333Y-68500000D01*
X133285714Y-68404761D01*
X133285714Y-68214285D01*
X133333333Y-68119047D01*
X133904761Y-67261904D02*
X133952380Y-67357142D01*
X133952380Y-67547619D01*
X133904761Y-67642857D01*
X133809523Y-67690476D01*
X133428571Y-67690476D01*
X133333333Y-67642857D01*
X133285714Y-67547619D01*
X133285714Y-67357142D01*
X133333333Y-67261904D01*
X133428571Y-67214285D01*
X133523809Y-67214285D01*
X133619047Y-67690476D01*
%TO.C,R3*%
X161180833Y-43782380D02*
X160847500Y-43306190D01*
X160609404Y-43782380D02*
X160609404Y-42782380D01*
X160990357Y-42782380D01*
X161085595Y-42830000D01*
X161133214Y-42877619D01*
X161180833Y-42972857D01*
X161180833Y-43115714D01*
X161133214Y-43210952D01*
X161085595Y-43258571D01*
X160990357Y-43306190D01*
X160609404Y-43306190D01*
X161514166Y-42782380D02*
X162133214Y-42782380D01*
X161799880Y-43163333D01*
X161942738Y-43163333D01*
X162037976Y-43210952D01*
X162085595Y-43258571D01*
X162133214Y-43353809D01*
X162133214Y-43591904D01*
X162085595Y-43687142D01*
X162037976Y-43734761D01*
X161942738Y-43782380D01*
X161657023Y-43782380D01*
X161561785Y-43734761D01*
X161514166Y-43687142D01*
%TO.C,C9*%
X103357142Y-64666666D02*
X103404761Y-64714285D01*
X103452380Y-64857142D01*
X103452380Y-64952380D01*
X103404761Y-65095238D01*
X103309523Y-65190476D01*
X103214285Y-65238095D01*
X103023809Y-65285714D01*
X102880952Y-65285714D01*
X102690476Y-65238095D01*
X102595238Y-65190476D01*
X102500000Y-65095238D01*
X102452380Y-64952380D01*
X102452380Y-64857142D01*
X102500000Y-64714285D01*
X102547619Y-64666666D01*
X103452380Y-64190476D02*
X103452380Y-64000000D01*
X103404761Y-63904761D01*
X103357142Y-63857142D01*
X103214285Y-63761904D01*
X103023809Y-63714285D01*
X102642857Y-63714285D01*
X102547619Y-63761904D01*
X102500000Y-63809523D01*
X102452380Y-63904761D01*
X102452380Y-64095238D01*
X102500000Y-64190476D01*
X102547619Y-64238095D01*
X102642857Y-64285714D01*
X102880952Y-64285714D01*
X102976190Y-64238095D01*
X103023809Y-64190476D01*
X103071428Y-64095238D01*
X103071428Y-63904761D01*
X103023809Y-63809523D01*
X102976190Y-63761904D01*
X102880952Y-63714285D01*
%TO.C,L1*%
X154183333Y-75152380D02*
X153707142Y-75152380D01*
X153707142Y-74152380D01*
X155040476Y-75152380D02*
X154469047Y-75152380D01*
X154754761Y-75152380D02*
X154754761Y-74152380D01*
X154659523Y-74295238D01*
X154564285Y-74390476D01*
X154469047Y-74438095D01*
%TO.C,U3*%
X101238095Y-75452380D02*
X101238095Y-76261904D01*
X101285714Y-76357142D01*
X101333333Y-76404761D01*
X101428571Y-76452380D01*
X101619047Y-76452380D01*
X101714285Y-76404761D01*
X101761904Y-76357142D01*
X101809523Y-76261904D01*
X101809523Y-75452380D01*
X102190476Y-75452380D02*
X102809523Y-75452380D01*
X102476190Y-75833333D01*
X102619047Y-75833333D01*
X102714285Y-75880952D01*
X102761904Y-75928571D01*
X102809523Y-76023809D01*
X102809523Y-76261904D01*
X102761904Y-76357142D01*
X102714285Y-76404761D01*
X102619047Y-76452380D01*
X102333333Y-76452380D01*
X102238095Y-76404761D01*
X102190476Y-76357142D01*
%TO.C,C12*%
X78757142Y-75557142D02*
X78709523Y-75604761D01*
X78566666Y-75652380D01*
X78471428Y-75652380D01*
X78328571Y-75604761D01*
X78233333Y-75509523D01*
X78185714Y-75414285D01*
X78138095Y-75223809D01*
X78138095Y-75080952D01*
X78185714Y-74890476D01*
X78233333Y-74795238D01*
X78328571Y-74700000D01*
X78471428Y-74652380D01*
X78566666Y-74652380D01*
X78709523Y-74700000D01*
X78757142Y-74747619D01*
X79709523Y-75652380D02*
X79138095Y-75652380D01*
X79423809Y-75652380D02*
X79423809Y-74652380D01*
X79328571Y-74795238D01*
X79233333Y-74890476D01*
X79138095Y-74938095D01*
X80090476Y-74747619D02*
X80138095Y-74700000D01*
X80233333Y-74652380D01*
X80471428Y-74652380D01*
X80566666Y-74700000D01*
X80614285Y-74747619D01*
X80661904Y-74842857D01*
X80661904Y-74938095D01*
X80614285Y-75080952D01*
X80042857Y-75652380D01*
X80661904Y-75652380D01*
%TO.C,D1*%
X163261904Y-54952380D02*
X163261904Y-53952380D01*
X163500000Y-53952380D01*
X163642857Y-54000000D01*
X163738095Y-54095238D01*
X163785714Y-54190476D01*
X163833333Y-54380952D01*
X163833333Y-54523809D01*
X163785714Y-54714285D01*
X163738095Y-54809523D01*
X163642857Y-54904761D01*
X163500000Y-54952380D01*
X163261904Y-54952380D01*
X164785714Y-54952380D02*
X164214285Y-54952380D01*
X164500000Y-54952380D02*
X164500000Y-53952380D01*
X164404761Y-54095238D01*
X164309523Y-54190476D01*
X164214285Y-54238095D01*
%TO.C,C15*%
X64357142Y-55142857D02*
X64404761Y-55190476D01*
X64452380Y-55333333D01*
X64452380Y-55428571D01*
X64404761Y-55571428D01*
X64309523Y-55666666D01*
X64214285Y-55714285D01*
X64023809Y-55761904D01*
X63880952Y-55761904D01*
X63690476Y-55714285D01*
X63595238Y-55666666D01*
X63500000Y-55571428D01*
X63452380Y-55428571D01*
X63452380Y-55333333D01*
X63500000Y-55190476D01*
X63547619Y-55142857D01*
X64452380Y-54190476D02*
X64452380Y-54761904D01*
X64452380Y-54476190D02*
X63452380Y-54476190D01*
X63595238Y-54571428D01*
X63690476Y-54666666D01*
X63738095Y-54761904D01*
X63452380Y-53285714D02*
X63452380Y-53761904D01*
X63928571Y-53809523D01*
X63880952Y-53761904D01*
X63833333Y-53666666D01*
X63833333Y-53428571D01*
X63880952Y-53333333D01*
X63928571Y-53285714D01*
X64023809Y-53238095D01*
X64261904Y-53238095D01*
X64357142Y-53285714D01*
X64404761Y-53333333D01*
X64452380Y-53428571D01*
X64452380Y-53666666D01*
X64404761Y-53761904D01*
X64357142Y-53809523D01*
%TO.C,C16*%
X124857142Y-55142857D02*
X124904761Y-55190476D01*
X124952380Y-55333333D01*
X124952380Y-55428571D01*
X124904761Y-55571428D01*
X124809523Y-55666666D01*
X124714285Y-55714285D01*
X124523809Y-55761904D01*
X124380952Y-55761904D01*
X124190476Y-55714285D01*
X124095238Y-55666666D01*
X124000000Y-55571428D01*
X123952380Y-55428571D01*
X123952380Y-55333333D01*
X124000000Y-55190476D01*
X124047619Y-55142857D01*
X124952380Y-54190476D02*
X124952380Y-54761904D01*
X124952380Y-54476190D02*
X123952380Y-54476190D01*
X124095238Y-54571428D01*
X124190476Y-54666666D01*
X124238095Y-54761904D01*
X123952380Y-53333333D02*
X123952380Y-53523809D01*
X124000000Y-53619047D01*
X124047619Y-53666666D01*
X124190476Y-53761904D01*
X124380952Y-53809523D01*
X124761904Y-53809523D01*
X124857142Y-53761904D01*
X124904761Y-53714285D01*
X124952380Y-53619047D01*
X124952380Y-53428571D01*
X124904761Y-53333333D01*
X124857142Y-53285714D01*
X124761904Y-53238095D01*
X124523809Y-53238095D01*
X124428571Y-53285714D01*
X124380952Y-53333333D01*
X124333333Y-53428571D01*
X124333333Y-53619047D01*
X124380952Y-53714285D01*
X124428571Y-53761904D01*
X124523809Y-53809523D01*
%TO.C,R2*%
X139702380Y-76166666D02*
X139226190Y-76500000D01*
X139702380Y-76738095D02*
X138702380Y-76738095D01*
X138702380Y-76357142D01*
X138750000Y-76261904D01*
X138797619Y-76214285D01*
X138892857Y-76166666D01*
X139035714Y-76166666D01*
X139130952Y-76214285D01*
X139178571Y-76261904D01*
X139226190Y-76357142D01*
X139226190Y-76738095D01*
X138797619Y-75785714D02*
X138750000Y-75738095D01*
X138702380Y-75642857D01*
X138702380Y-75404761D01*
X138750000Y-75309523D01*
X138797619Y-75261904D01*
X138892857Y-75214285D01*
X138988095Y-75214285D01*
X139130952Y-75261904D01*
X139702380Y-75833333D01*
X139702380Y-75214285D01*
D13*
%TO.C,J6*%
X69200000Y-38820000D02*
X70800000Y-38820000D01*
X70250000Y-44240000D02*
X70250000Y-43240000D01*
X70250000Y-42710000D02*
X77370000Y-42710000D01*
X73340000Y-38820000D02*
X73340000Y-38220000D01*
X77620000Y-43240000D02*
X77620000Y-44240000D01*
X68620000Y-38220000D02*
X68620000Y-44240000D01*
X75880000Y-38820000D02*
X75880000Y-38220000D01*
X71740000Y-38220000D02*
X71740000Y-38820000D01*
X74280000Y-38820000D02*
X75880000Y-38820000D01*
X68620000Y-44240000D02*
X79000000Y-44240000D01*
X69200000Y-38220000D02*
X69200000Y-38820000D01*
X70800000Y-38820000D02*
X70800000Y-38220000D01*
X76820000Y-38220000D02*
X76820000Y-38820000D01*
X79000000Y-38220000D02*
X68620000Y-38220000D01*
X77370000Y-42710000D02*
X77620000Y-43240000D01*
X68330000Y-39250000D02*
X68330000Y-43250000D01*
X71740000Y-38820000D02*
X73340000Y-38820000D01*
X70000000Y-43240000D02*
X77620000Y-43240000D01*
X74280000Y-38220000D02*
X74280000Y-38820000D01*
X78420000Y-38820000D02*
X78420000Y-38220000D01*
X79000000Y-44240000D02*
X79000000Y-38220000D01*
X70000000Y-44240000D02*
X70000000Y-43240000D01*
X70000000Y-43240000D02*
X70250000Y-42710000D01*
X76820000Y-38820000D02*
X78420000Y-38820000D01*
X77370000Y-44240000D02*
X77370000Y-43240000D01*
%TO.C,C8*%
X101660000Y-67248335D02*
X101660000Y-67016665D01*
X100940000Y-67248335D02*
X100940000Y-67016665D01*
%TO.C,Q1*%
X150662500Y-42210000D02*
X152337500Y-42210000D01*
X150662500Y-42210000D02*
X150012500Y-42210000D01*
X150662500Y-39090000D02*
X150012500Y-39090000D01*
X150662500Y-39090000D02*
X151312500Y-39090000D01*
%TO.C,R12*%
X89580000Y-57770121D02*
X89580000Y-57434879D01*
X88820000Y-57770121D02*
X88820000Y-57434879D01*
%TO.C,R6*%
X129630000Y-46570121D02*
X129630000Y-46234879D01*
X128870000Y-46570121D02*
X128870000Y-46234879D01*
%TO.C,C1*%
X141610000Y-81134165D02*
X141610000Y-81365835D01*
X140890000Y-81134165D02*
X140890000Y-81365835D01*
%TO.C,C10*%
X99384165Y-79860000D02*
X99615835Y-79860000D01*
X99384165Y-79140000D02*
X99615835Y-79140000D01*
%TO.C,C2*%
X138890000Y-81134165D02*
X138890000Y-81365835D01*
X139610000Y-81134165D02*
X139610000Y-81365835D01*
%TO.C,R13*%
X84132379Y-72580000D02*
X84467621Y-72580000D01*
X84132379Y-71820000D02*
X84467621Y-71820000D01*
%TO.C,C6*%
X145715835Y-75560000D02*
X145484165Y-75560000D01*
X145715835Y-74840000D02*
X145484165Y-74840000D01*
%TO.C,R5*%
X161179879Y-46620000D02*
X161515121Y-46620000D01*
X161179879Y-47380000D02*
X161515121Y-47380000D01*
%TO.C,U2*%
X148470000Y-53000000D02*
X148470000Y-50765000D01*
X148470000Y-50765000D02*
X128030000Y-50765000D01*
X128030000Y-50765000D02*
X128030000Y-57235000D01*
X128030000Y-57235000D02*
X148470000Y-57235000D01*
X148470000Y-57235000D02*
X148470000Y-55000000D01*
X148470000Y-55000000D02*
G75*
G02*
X148470000Y-53000000I0J1000000D01*
G01*
%TO.C,R7*%
X161380000Y-59820121D02*
X161380000Y-59484879D01*
X160620000Y-59820121D02*
X160620000Y-59484879D01*
%TO.C,R9*%
X58870000Y-57820121D02*
X58870000Y-57484879D01*
X59630000Y-57820121D02*
X59630000Y-57484879D01*
%TO.C,C7*%
X100460000Y-67215835D02*
X100460000Y-66984165D01*
X99740000Y-67215835D02*
X99740000Y-66984165D01*
D11*
%TO.C,U4*%
X107900000Y-48725000D02*
X107900000Y-54475000D01*
X99250000Y-48725000D02*
X99250000Y-54475000D01*
X107900000Y-48725000D02*
X107675000Y-48725000D01*
X107675000Y-48725000D02*
X107675000Y-47125000D01*
X107900000Y-54475000D02*
X107600000Y-54475000D01*
X99250000Y-54475000D02*
X99550000Y-54475000D01*
X99250000Y-48725000D02*
X99550000Y-48725000D01*
D13*
%TO.C,C18*%
X94360000Y-52115835D02*
X94360000Y-51884165D01*
X93640000Y-52115835D02*
X93640000Y-51884165D01*
%TO.C,J4*%
X59280000Y-38220000D02*
X59280000Y-38820000D01*
X54200000Y-38820000D02*
X55800000Y-38820000D01*
X60880000Y-38820000D02*
X60880000Y-38220000D01*
X55250000Y-42710000D02*
X62370000Y-42710000D01*
X53330000Y-39250000D02*
X53330000Y-43250000D01*
X63420000Y-38820000D02*
X63420000Y-38220000D01*
X54200000Y-38220000D02*
X54200000Y-38820000D01*
X55000000Y-43240000D02*
X55250000Y-42710000D01*
X55250000Y-44240000D02*
X55250000Y-43240000D01*
X64000000Y-38220000D02*
X53620000Y-38220000D01*
X55000000Y-43240000D02*
X62620000Y-43240000D01*
X62370000Y-44240000D02*
X62370000Y-43240000D01*
X64000000Y-44240000D02*
X64000000Y-38220000D01*
X61820000Y-38220000D02*
X61820000Y-38820000D01*
X62370000Y-42710000D02*
X62620000Y-43240000D01*
X56740000Y-38220000D02*
X56740000Y-38820000D01*
X55800000Y-38820000D02*
X55800000Y-38220000D01*
X62620000Y-43240000D02*
X62620000Y-44240000D01*
X61820000Y-38820000D02*
X63420000Y-38820000D01*
X53620000Y-44240000D02*
X64000000Y-44240000D01*
X56740000Y-38820000D02*
X58340000Y-38820000D01*
X53620000Y-38220000D02*
X53620000Y-44240000D01*
X59280000Y-38820000D02*
X60880000Y-38820000D01*
X58340000Y-38820000D02*
X58340000Y-38220000D01*
X55000000Y-44240000D02*
X55000000Y-43240000D01*
%TO.C,C13*%
X89384165Y-65240000D02*
X89615835Y-65240000D01*
X89384165Y-65960000D02*
X89615835Y-65960000D01*
%TO.C,R11*%
X74980000Y-57770121D02*
X74980000Y-57434879D01*
X74220000Y-57770121D02*
X74220000Y-57434879D01*
%TO.C,R10*%
X119980000Y-57670121D02*
X119980000Y-57334879D01*
X119220000Y-57670121D02*
X119220000Y-57334879D01*
%TO.C,C17*%
X79140000Y-52115835D02*
X79140000Y-51884165D01*
X79860000Y-52115835D02*
X79860000Y-51884165D01*
%TO.C,J5*%
X119280000Y-38820000D02*
X120880000Y-38820000D01*
X115000000Y-43240000D02*
X122620000Y-43240000D01*
X123420000Y-38820000D02*
X123420000Y-38220000D01*
X116740000Y-38220000D02*
X116740000Y-38820000D01*
X122620000Y-43240000D02*
X122620000Y-44240000D01*
X121820000Y-38820000D02*
X123420000Y-38820000D01*
X116740000Y-38820000D02*
X118340000Y-38820000D01*
X121820000Y-38220000D02*
X121820000Y-38820000D01*
X119280000Y-38220000D02*
X119280000Y-38820000D01*
X115000000Y-44240000D02*
X115000000Y-43240000D01*
X124000000Y-38220000D02*
X113620000Y-38220000D01*
X115250000Y-42710000D02*
X122370000Y-42710000D01*
X120880000Y-38820000D02*
X120880000Y-38220000D01*
X122370000Y-42710000D02*
X122620000Y-43240000D01*
X115000000Y-43240000D02*
X115250000Y-42710000D01*
X122370000Y-44240000D02*
X122370000Y-43240000D01*
X115250000Y-44240000D02*
X115250000Y-43240000D01*
X113620000Y-38220000D02*
X113620000Y-44240000D01*
X118340000Y-38820000D02*
X118340000Y-38220000D01*
X113330000Y-39250000D02*
X113330000Y-43250000D01*
X113620000Y-44240000D02*
X124000000Y-44240000D01*
X114200000Y-38820000D02*
X115800000Y-38820000D01*
X114200000Y-38220000D02*
X114200000Y-38820000D01*
X115800000Y-38820000D02*
X115800000Y-38220000D01*
X124000000Y-44240000D02*
X124000000Y-38220000D01*
%TO.C,C3*%
X154683335Y-41640000D02*
X154451665Y-41640000D01*
X154683335Y-42360000D02*
X154451665Y-42360000D01*
D11*
%TO.C,U7*%
X69675000Y-48725000D02*
X69975000Y-48725000D01*
X78325000Y-54475000D02*
X78025000Y-54475000D01*
X78100000Y-48725000D02*
X78100000Y-47125000D01*
X69675000Y-54475000D02*
X69975000Y-54475000D01*
X78325000Y-48725000D02*
X78100000Y-48725000D01*
X69675000Y-48725000D02*
X69675000Y-54475000D01*
X78325000Y-48725000D02*
X78325000Y-54475000D01*
D13*
%TO.C,C5*%
X141610000Y-78433335D02*
X141610000Y-78201665D01*
X140890000Y-78433335D02*
X140890000Y-78201665D01*
%TO.C,U1*%
X145600000Y-77240000D02*
X144800000Y-77240000D01*
X145600000Y-80360000D02*
X147400000Y-80360000D01*
X145600000Y-77240000D02*
X146400000Y-77240000D01*
X145600000Y-80360000D02*
X144800000Y-80360000D01*
%TO.C,C4*%
X145748335Y-81640000D02*
X145516665Y-81640000D01*
X145748335Y-82360000D02*
X145516665Y-82360000D01*
D11*
%TO.C,U8*%
X92675000Y-48725000D02*
X92675000Y-47125000D01*
X84250000Y-48725000D02*
X84550000Y-48725000D01*
X84250000Y-54475000D02*
X84550000Y-54475000D01*
X92900000Y-54475000D02*
X92600000Y-54475000D01*
X84250000Y-48725000D02*
X84250000Y-54475000D01*
X92900000Y-48725000D02*
X92675000Y-48725000D01*
X92900000Y-48725000D02*
X92900000Y-54475000D01*
D13*
%TO.C,R8*%
X104580000Y-57870121D02*
X104580000Y-57534879D01*
X103820000Y-57870121D02*
X103820000Y-57534879D01*
%TO.C,J1*%
X123557530Y-77525000D02*
X124212470Y-77525000D01*
X124010000Y-71186529D02*
X124010000Y-71055000D01*
X122120000Y-77525000D02*
X122942470Y-77525000D01*
X122120000Y-71750000D02*
X122120000Y-70990000D01*
X122120000Y-72510000D02*
X122120000Y-77525000D01*
X125650000Y-71055000D02*
X125650000Y-77525000D01*
X123813471Y-72510000D02*
X123956529Y-72510000D01*
X124827530Y-71055000D02*
X125650000Y-71055000D01*
X124827530Y-77525000D02*
X125650000Y-77525000D01*
X122120000Y-70990000D02*
X123250000Y-70990000D01*
X124010000Y-72456529D02*
X124010000Y-72313471D01*
X124010000Y-71055000D02*
X124212470Y-71055000D01*
X122120000Y-72510000D02*
X122686529Y-72510000D01*
%TO.C,C14*%
X109360000Y-51615835D02*
X109360000Y-51384165D01*
X108640000Y-51615835D02*
X108640000Y-51384165D01*
%TO.C,J3*%
X98620000Y-38220000D02*
X98620000Y-44240000D01*
X107370000Y-42710000D02*
X107620000Y-43240000D01*
X109000000Y-38220000D02*
X98620000Y-38220000D01*
X101740000Y-38820000D02*
X103340000Y-38820000D01*
X105880000Y-38820000D02*
X105880000Y-38220000D01*
X98330000Y-39250000D02*
X98330000Y-43250000D01*
X100000000Y-44240000D02*
X100000000Y-43240000D01*
X104280000Y-38220000D02*
X104280000Y-38820000D01*
X100000000Y-43240000D02*
X100250000Y-42710000D01*
X100000000Y-43240000D02*
X107620000Y-43240000D01*
X101740000Y-38220000D02*
X101740000Y-38820000D01*
X100250000Y-42710000D02*
X107370000Y-42710000D01*
X107620000Y-43240000D02*
X107620000Y-44240000D01*
X106820000Y-38220000D02*
X106820000Y-38820000D01*
X99200000Y-38820000D02*
X100800000Y-38820000D01*
X103340000Y-38820000D02*
X103340000Y-38220000D01*
X108420000Y-38820000D02*
X108420000Y-38220000D01*
X104280000Y-38820000D02*
X105880000Y-38820000D01*
X100800000Y-38820000D02*
X100800000Y-38220000D01*
X100250000Y-44240000D02*
X100250000Y-43240000D01*
X106820000Y-38820000D02*
X108420000Y-38820000D01*
X107370000Y-44240000D02*
X107370000Y-43240000D01*
X109000000Y-44240000D02*
X109000000Y-38220000D01*
X98620000Y-44240000D02*
X109000000Y-44240000D01*
X99200000Y-38220000D02*
X99200000Y-38820000D01*
%TO.C,C11*%
X90148335Y-80440000D02*
X89916665Y-80440000D01*
X90148335Y-81160000D02*
X89916665Y-81160000D01*
D11*
%TO.C,U5*%
X62925000Y-54575000D02*
X62625000Y-54575000D01*
X54275000Y-48825000D02*
X54575000Y-48825000D01*
X62925000Y-48825000D02*
X62925000Y-54575000D01*
X54275000Y-48825000D02*
X54275000Y-54575000D01*
X62925000Y-48825000D02*
X62700000Y-48825000D01*
X62700000Y-48825000D02*
X62700000Y-47225000D01*
X54275000Y-54575000D02*
X54575000Y-54575000D01*
D13*
%TO.C,J2*%
X129950000Y-38220000D02*
X129950000Y-38820000D01*
X136630000Y-38820000D02*
X136630000Y-38220000D01*
X131000000Y-42710000D02*
X143200000Y-42710000D01*
X129370000Y-38220000D02*
X129370000Y-44240000D01*
X142650000Y-38820000D02*
X144250000Y-38820000D01*
X137570000Y-38820000D02*
X139170000Y-38820000D01*
X144830000Y-44240000D02*
X144830000Y-38220000D01*
X141710000Y-38820000D02*
X141710000Y-38220000D01*
X139170000Y-38820000D02*
X139170000Y-38220000D01*
X137570000Y-38220000D02*
X137570000Y-38820000D01*
X140110000Y-38820000D02*
X141710000Y-38820000D01*
X143450000Y-43240000D02*
X143450000Y-44240000D01*
X131000000Y-44240000D02*
X131000000Y-43240000D01*
X130750000Y-44240000D02*
X130750000Y-43240000D01*
X129370000Y-44240000D02*
X144830000Y-44240000D01*
X144250000Y-38820000D02*
X144250000Y-38220000D01*
X129080000Y-39250000D02*
X129080000Y-43250000D01*
X130750000Y-43240000D02*
X131000000Y-42710000D01*
X130750000Y-43240000D02*
X143450000Y-43240000D01*
X143200000Y-44240000D02*
X143200000Y-43240000D01*
X140110000Y-38220000D02*
X140110000Y-38820000D01*
X132490000Y-38220000D02*
X132490000Y-38820000D01*
X143200000Y-42710000D02*
X143450000Y-43240000D01*
X134090000Y-38820000D02*
X134090000Y-38220000D01*
X142650000Y-38220000D02*
X142650000Y-38820000D01*
X129950000Y-38820000D02*
X131550000Y-38820000D01*
X144830000Y-38220000D02*
X129370000Y-38220000D01*
X131550000Y-38820000D02*
X131550000Y-38220000D01*
X135030000Y-38220000D02*
X135030000Y-38820000D01*
X135030000Y-38820000D02*
X136630000Y-38820000D01*
X132490000Y-38820000D02*
X134090000Y-38820000D01*
D11*
%TO.C,U6*%
X123100000Y-48625000D02*
X123100000Y-47025000D01*
X123325000Y-48625000D02*
X123100000Y-48625000D01*
X123325000Y-54375000D02*
X123025000Y-54375000D01*
X123325000Y-48625000D02*
X123325000Y-54375000D01*
X114675000Y-54375000D02*
X114975000Y-54375000D01*
X114675000Y-48625000D02*
X114975000Y-48625000D01*
X114675000Y-48625000D02*
X114675000Y-54375000D01*
D13*
%TO.C,R1*%
X145737621Y-72820000D02*
X145402379Y-72820000D01*
X145737621Y-73580000D02*
X145402379Y-73580000D01*
%TO.C,R4*%
X161179879Y-46130000D02*
X161515121Y-46130000D01*
X161179879Y-45370000D02*
X161515121Y-45370000D01*
%TO.C,J7*%
X85000000Y-43240000D02*
X85250000Y-42710000D01*
X91820000Y-38820000D02*
X93420000Y-38820000D01*
X83330000Y-39250000D02*
X83330000Y-43250000D01*
X86740000Y-38220000D02*
X86740000Y-38820000D01*
X89280000Y-38820000D02*
X90880000Y-38820000D01*
X85000000Y-44240000D02*
X85000000Y-43240000D01*
X92370000Y-42710000D02*
X92620000Y-43240000D01*
X88340000Y-38820000D02*
X88340000Y-38220000D01*
X85250000Y-42710000D02*
X92370000Y-42710000D01*
X89280000Y-38220000D02*
X89280000Y-38820000D01*
X93420000Y-38820000D02*
X93420000Y-38220000D01*
X84200000Y-38220000D02*
X84200000Y-38820000D01*
X85250000Y-44240000D02*
X85250000Y-43240000D01*
X85000000Y-43240000D02*
X92620000Y-43240000D01*
X94000000Y-44240000D02*
X94000000Y-38220000D01*
X83620000Y-44240000D02*
X94000000Y-44240000D01*
X94000000Y-38220000D02*
X83620000Y-38220000D01*
X83620000Y-38220000D02*
X83620000Y-44240000D01*
X84200000Y-38820000D02*
X85800000Y-38820000D01*
X92620000Y-43240000D02*
X92620000Y-44240000D01*
X91820000Y-38220000D02*
X91820000Y-38820000D01*
X92370000Y-44240000D02*
X92370000Y-43240000D01*
X90880000Y-38820000D02*
X90880000Y-38220000D01*
X85800000Y-38820000D02*
X85800000Y-38220000D01*
X86740000Y-38820000D02*
X88340000Y-38820000D01*
%TO.C,JP1*%
X137410000Y-66330000D02*
X137410000Y-63670000D01*
X132270000Y-66330000D02*
X132270000Y-63670000D01*
X132270000Y-63670000D02*
X137410000Y-63670000D01*
X132270000Y-66330000D02*
X137410000Y-66330000D01*
X129670000Y-66330000D02*
X129670000Y-65000000D01*
X131000000Y-66330000D02*
X129670000Y-66330000D01*
%TO.C,R3*%
X161179879Y-44880000D02*
X161515121Y-44880000D01*
X161179879Y-44120000D02*
X161515121Y-44120000D01*
%TO.C,C9*%
X102140000Y-67215835D02*
X102140000Y-66984165D01*
X102860000Y-67215835D02*
X102860000Y-66984165D01*
%TO.C,L1*%
X150450000Y-76000000D02*
X157250000Y-76000000D01*
X157250000Y-76000000D02*
X157250000Y-81800000D01*
X157250000Y-81800000D02*
X150450000Y-81800000D01*
X150450000Y-81800000D02*
X150450000Y-76000000D01*
%TO.C,U3*%
X88590000Y-68190000D02*
X88590000Y-69140000D01*
X88590000Y-69140000D02*
X87250000Y-69140000D01*
X89540000Y-68190000D02*
X88590000Y-68190000D01*
X97860000Y-68190000D02*
X98810000Y-68190000D01*
X98810000Y-68190000D02*
X98810000Y-69140000D01*
X89540000Y-78410000D02*
X88590000Y-78410000D01*
X97860000Y-78410000D02*
X98810000Y-78410000D01*
X98810000Y-78410000D02*
X98810000Y-77460000D01*
X88590000Y-78410000D02*
X88590000Y-77460000D01*
%TO.C,C12*%
X83948335Y-75760000D02*
X83716665Y-75760000D01*
X83948335Y-75040000D02*
X83716665Y-75040000D01*
%TO.C,D1*%
X162330000Y-56045000D02*
X162330000Y-52955000D01*
X156780000Y-54499538D02*
G75*
G03*
X162330000Y-56044830I2990000J-462D01*
G01*
X156780000Y-54500462D02*
G75*
G02*
X162330000Y-52955170I2990000J462D01*
G01*
X162270000Y-54500000D02*
G75*
G03*
X162270000Y-54500000I-2500000J0D01*
G01*
%TO.C,C15*%
X64360000Y-51615835D02*
X64360000Y-51384165D01*
X63640000Y-51615835D02*
X63640000Y-51384165D01*
%TO.C,C16*%
X124860000Y-51615835D02*
X124860000Y-51384165D01*
X124140000Y-51615835D02*
X124140000Y-51384165D01*
%TO.C,R2*%
X138870000Y-78179879D02*
X138870000Y-78515121D01*
X139630000Y-78179879D02*
X139630000Y-78515121D01*
%TD*%
M02*
