%TF.GenerationSoftware,KiCad,Pcbnew,(5.99.0-8593-g9f18fee124)*%
%TF.CreationDate,2021-02-26T16:48:12-06:00*%
%TF.ProjectId,EE223_Design,45453232-335f-4446-9573-69676e2e6b69,rev?*%
%TF.SameCoordinates,Original*%
%TF.FileFunction,Copper,L2,Inr*%
%TF.FilePolarity,Positive*%
%FSLAX46Y46*%
G04 Gerber Fmt 4.6, Leading zero omitted, Abs format (unit mm)*
G04 Created by KiCad (PCBNEW (5.99.0-8593-g9f18fee124)) date 2021-02-26 16:48:12*
%MOMM*%
%LPD*%
G01*
G04 APERTURE LIST*
G04 Aperture macros list*
%AMRoundRect*
0 Rectangle with rounded corners*
0 $1 Rounding radius*
0 $2 $3 $4 $5 $6 $7 $8 $9 X,Y pos of 4 corners*
0 Add a 4 corners polygon primitive as box body*
4,1,4,$2,$3,$4,$5,$6,$7,$8,$9,$2,$3,0*
0 Add four circle primitives for the rounded corners*
1,1,$1+$1,$2,$3*
1,1,$1+$1,$4,$5*
1,1,$1+$1,$6,$7*
1,1,$1+$1,$8,$9*
0 Add four rect primitives between the rounded corners*
20,1,$1+$1,$2,$3,$4,$5,0*
20,1,$1+$1,$4,$5,$6,$7,0*
20,1,$1+$1,$6,$7,$8,$9,0*
20,1,$1+$1,$8,$9,$2,$3,0*%
G04 Aperture macros list end*
%TA.AperFunction,ComponentPad*%
%ADD10RoundRect,0.250000X-0.620000X-0.845000X0.620000X-0.845000X0.620000X0.845000X-0.620000X0.845000X0*%
%TD*%
%TA.AperFunction,ComponentPad*%
%ADD11O,1.740000X2.190000*%
%TD*%
%TA.AperFunction,ComponentPad*%
%ADD12R,1.000000X1.000000*%
%TD*%
%TA.AperFunction,ComponentPad*%
%ADD13O,1.000000X1.000000*%
%TD*%
%TA.AperFunction,ComponentPad*%
%ADD14R,1.700000X1.700000*%
%TD*%
%TA.AperFunction,ComponentPad*%
%ADD15O,1.700000X1.700000*%
%TD*%
%TA.AperFunction,ComponentPad*%
%ADD16R,1.800000X1.800000*%
%TD*%
%TA.AperFunction,ComponentPad*%
%ADD17C,1.800000*%
%TD*%
%TA.AperFunction,ViaPad*%
%ADD18C,0.800000*%
%TD*%
G04 APERTURE END LIST*
D10*
%TO.N,Net-(J6-Pad1)*%
%TO.C,J6*%
X70000000Y-41250000D03*
D11*
%TO.N,Net-(J6-Pad2)*%
X72540000Y-41250000D03*
%TO.N,Net-(J6-Pad3)*%
X75080000Y-41250000D03*
%TO.N,Net-(J6-Pad4)*%
X77620000Y-41250000D03*
%TD*%
D10*
%TO.N,Net-(U5-Pad11)*%
%TO.C,J4*%
X55000000Y-41250000D03*
D11*
%TO.N,Net-(U5-Pad7)*%
X57540000Y-41250000D03*
%TO.N,Net-(U5-Pad5)*%
X60080000Y-41250000D03*
%TO.N,Net-(U5-Pad1)*%
X62620000Y-41250000D03*
%TD*%
D10*
%TO.N,Net-(J5-Pad1)*%
%TO.C,J5*%
X115000000Y-41250000D03*
D11*
%TO.N,Net-(J5-Pad2)*%
X117540000Y-41250000D03*
%TO.N,Net-(J5-Pad3)*%
X120080000Y-41250000D03*
%TO.N,Net-(J5-Pad4)*%
X122620000Y-41250000D03*
%TD*%
D12*
%TO.N,+3V3*%
%TO.C,J1*%
X123250000Y-71750000D03*
D13*
%TO.N,SWDIO*%
X124520000Y-71750000D03*
%TO.N,GND*%
X123250000Y-73020000D03*
%TO.N,SWCLK*%
X124520000Y-73020000D03*
%TO.N,GND*%
X123250000Y-74290000D03*
%TO.N,SWO*%
X124520000Y-74290000D03*
%TO.N,unconnected-(J1-Pad7)*%
X123250000Y-75560000D03*
%TO.N,unconnected-(J1-Pad8)*%
X124520000Y-75560000D03*
%TO.N,GND*%
X123250000Y-76830000D03*
%TO.N,NRST*%
X124520000Y-76830000D03*
%TD*%
D10*
%TO.N,Net-(J3-Pad1)*%
%TO.C,J3*%
X100000000Y-41250000D03*
D11*
%TO.N,Net-(J3-Pad2)*%
X102540000Y-41250000D03*
%TO.N,Net-(J3-Pad3)*%
X105080000Y-41250000D03*
%TO.N,Net-(J3-Pad4)*%
X107620000Y-41250000D03*
%TD*%
D10*
%TO.N,GND*%
%TO.C,J2*%
X130750000Y-41250000D03*
D11*
%TO.N,Net-(J2-Pad2)*%
X133290000Y-41250000D03*
%TO.N,Net-(J2-Pad3)*%
X135830000Y-41250000D03*
%TO.N,Net-(J2-Pad4)*%
X138370000Y-41250000D03*
%TO.N,Net-(J2-Pad5)*%
X140910000Y-41250000D03*
%TO.N,+12V*%
X143450000Y-41250000D03*
%TD*%
D10*
%TO.N,Net-(J7-Pad1)*%
%TO.C,J7*%
X85000000Y-41250000D03*
D11*
%TO.N,Net-(J7-Pad2)*%
X87540000Y-41250000D03*
%TO.N,Net-(J7-Pad3)*%
X90080000Y-41250000D03*
%TO.N,Net-(J7-Pad4)*%
X92620000Y-41250000D03*
%TD*%
D14*
%TO.N,+3V3*%
%TO.C,JP1*%
X131000000Y-65000000D03*
D15*
%TO.N,BOOT0*%
X133540000Y-65000000D03*
%TO.N,GND*%
X136080000Y-65000000D03*
%TD*%
D16*
%TO.N,Net-(D1-Pad1)*%
%TO.C,D1*%
X161040000Y-54500000D03*
D17*
%TO.N,Net-(D1-Pad2)*%
X158500000Y-54500000D03*
%TD*%
D18*
%TO.N,GND*%
X159250000Y-60250000D03*
X148500000Y-81500000D03*
X136750000Y-79250000D03*
X134500000Y-56050000D03*
X129500000Y-56000000D03*
X144500000Y-56050000D03*
X139500000Y-56000000D03*
X76000000Y-50000000D03*
X90200000Y-64400000D03*
X95500000Y-51500000D03*
X151600000Y-43800000D03*
X86500000Y-50000000D03*
X118700000Y-53100000D03*
X105500000Y-50000000D03*
X111000000Y-51000000D03*
X101500000Y-50500000D03*
X101400000Y-70000000D03*
X81000000Y-51500000D03*
X72000000Y-50000000D03*
X88400000Y-53200000D03*
X73600000Y-53200000D03*
X56750000Y-50000000D03*
X100000000Y-78200000D03*
X120800000Y-50000000D03*
X163500000Y-47000000D03*
X117000000Y-50200000D03*
X90500000Y-50000000D03*
X99000000Y-66500000D03*
X58200000Y-53200000D03*
X82000000Y-75200000D03*
X89400000Y-82000000D03*
X103300000Y-53200000D03*
X126000000Y-51000000D03*
X65250000Y-51000000D03*
X97000000Y-77200000D03*
X60500000Y-50000000D03*
%TO.N,V_MOTOR*%
X107800000Y-57600000D03*
X98800000Y-57600000D03*
X113800000Y-57600000D03*
X55000000Y-57600000D03*
X78000000Y-57600000D03*
X92600000Y-57600000D03*
X62400000Y-57600000D03*
X123000000Y-57600000D03*
X148700000Y-55700000D03*
X85400000Y-57600000D03*
X157700000Y-39700000D03*
X70800000Y-57600000D03*
%TO.N,+3V3*%
X89200000Y-59600000D03*
X82300000Y-72200000D03*
X75000000Y-53200000D03*
X119600000Y-59500000D03*
X158750000Y-78750000D03*
X89000000Y-64400000D03*
X158750000Y-81000000D03*
X99800000Y-68600000D03*
X74600000Y-59400000D03*
X111000000Y-52000000D03*
X126000000Y-52000000D03*
X98900000Y-80500000D03*
X95500000Y-52500000D03*
X59600000Y-53200000D03*
X81000000Y-52500000D03*
X65250000Y-52000000D03*
X158750000Y-76500000D03*
X147500000Y-75250000D03*
X89600000Y-53200000D03*
X90600000Y-82000000D03*
X104200000Y-59600000D03*
X59250000Y-59500000D03*
X90000000Y-75600000D03*
X120000000Y-53100000D03*
X104500000Y-53100000D03*
X142500000Y-79000000D03*
%TO.N,NRST*%
X96250000Y-72750000D03*
%TO.N,SWO*%
X94400000Y-70000000D03*
%TO.N,SWCLK*%
X97500000Y-66000000D03*
%TO.N,SWDIO*%
X124500000Y-69750000D03*
X97000000Y-70500000D03*
%TO.N,BOOT0*%
X92400000Y-63500000D03*
%TD*%
%TA.AperFunction,Conductor*%
%TO.N,GND*%
G36*
X169434121Y-35528002D02*
G01*
X169480614Y-35581658D01*
X169492000Y-35634000D01*
X169492000Y-89366000D01*
X169471998Y-89434121D01*
X169418342Y-89480614D01*
X169366000Y-89492000D01*
X50634000Y-89492000D01*
X50565879Y-89471998D01*
X50519386Y-89418342D01*
X50508000Y-89366000D01*
X50508000Y-82000000D01*
X89686500Y-82000000D01*
X89706462Y-82189927D01*
X89765476Y-82371554D01*
X89860963Y-82536942D01*
X89988749Y-82678863D01*
X89994091Y-82682744D01*
X89994093Y-82682746D01*
X90137908Y-82787233D01*
X90143250Y-82791114D01*
X90149278Y-82793798D01*
X90149280Y-82793799D01*
X90311682Y-82866105D01*
X90317713Y-82868790D01*
X90411113Y-82888643D01*
X90498056Y-82907124D01*
X90498061Y-82907124D01*
X90504513Y-82908496D01*
X90695487Y-82908496D01*
X90701939Y-82907124D01*
X90701944Y-82907124D01*
X90788887Y-82888643D01*
X90882287Y-82868790D01*
X90888318Y-82866105D01*
X91050720Y-82793799D01*
X91050722Y-82793798D01*
X91056750Y-82791114D01*
X91062092Y-82787233D01*
X91205907Y-82682746D01*
X91205909Y-82682744D01*
X91211251Y-82678863D01*
X91339037Y-82536942D01*
X91434524Y-82371554D01*
X91493538Y-82189927D01*
X91513500Y-82000000D01*
X91493538Y-81810073D01*
X91434524Y-81628446D01*
X91339037Y-81463058D01*
X91211251Y-81321137D01*
X91205909Y-81317256D01*
X91205907Y-81317254D01*
X91062092Y-81212767D01*
X91062091Y-81212766D01*
X91056750Y-81208886D01*
X91050722Y-81206202D01*
X91050720Y-81206201D01*
X90888318Y-81133895D01*
X90888317Y-81133895D01*
X90882287Y-81131210D01*
X90788887Y-81111357D01*
X90701944Y-81092876D01*
X90701939Y-81092876D01*
X90695487Y-81091504D01*
X90504513Y-81091504D01*
X90498061Y-81092876D01*
X90498056Y-81092876D01*
X90411113Y-81111357D01*
X90317713Y-81131210D01*
X90311683Y-81133895D01*
X90311682Y-81133895D01*
X90149280Y-81206201D01*
X90149278Y-81206202D01*
X90143250Y-81208886D01*
X90137909Y-81212766D01*
X90137908Y-81212767D01*
X89994093Y-81317254D01*
X89994091Y-81317256D01*
X89988749Y-81321137D01*
X89860963Y-81463058D01*
X89765476Y-81628446D01*
X89706462Y-81810073D01*
X89686500Y-82000000D01*
X50508000Y-82000000D01*
X50508000Y-80500000D01*
X97986500Y-80500000D01*
X98006462Y-80689927D01*
X98065476Y-80871554D01*
X98160963Y-81036942D01*
X98288749Y-81178863D01*
X98294091Y-81182744D01*
X98294093Y-81182746D01*
X98330072Y-81208886D01*
X98443250Y-81291114D01*
X98449278Y-81293798D01*
X98449280Y-81293799D01*
X98611682Y-81366105D01*
X98617713Y-81368790D01*
X98711113Y-81388643D01*
X98798056Y-81407124D01*
X98798061Y-81407124D01*
X98804513Y-81408496D01*
X98995487Y-81408496D01*
X99001939Y-81407124D01*
X99001944Y-81407124D01*
X99088887Y-81388643D01*
X99182287Y-81368790D01*
X99188318Y-81366105D01*
X99350720Y-81293799D01*
X99350722Y-81293798D01*
X99356750Y-81291114D01*
X99469928Y-81208886D01*
X99505907Y-81182746D01*
X99505909Y-81182744D01*
X99511251Y-81178863D01*
X99639037Y-81036942D01*
X99660366Y-81000000D01*
X157836500Y-81000000D01*
X157856462Y-81189927D01*
X157915476Y-81371554D01*
X157918779Y-81377276D01*
X157918780Y-81377277D01*
X157952689Y-81436008D01*
X158010963Y-81536942D01*
X158138749Y-81678863D01*
X158144091Y-81682744D01*
X158144093Y-81682746D01*
X158287908Y-81787233D01*
X158293250Y-81791114D01*
X158299278Y-81793798D01*
X158299280Y-81793799D01*
X158461682Y-81866105D01*
X158467713Y-81868790D01*
X158561113Y-81888643D01*
X158648056Y-81907124D01*
X158648061Y-81907124D01*
X158654513Y-81908496D01*
X158845487Y-81908496D01*
X158851939Y-81907124D01*
X158851944Y-81907124D01*
X158938887Y-81888643D01*
X159032287Y-81868790D01*
X159038318Y-81866105D01*
X159200720Y-81793799D01*
X159200722Y-81793798D01*
X159206750Y-81791114D01*
X159212092Y-81787233D01*
X159355907Y-81682746D01*
X159355909Y-81682744D01*
X159361251Y-81678863D01*
X159489037Y-81536942D01*
X159547311Y-81436008D01*
X159581220Y-81377277D01*
X159581221Y-81377276D01*
X159584524Y-81371554D01*
X159643538Y-81189927D01*
X159663500Y-81000000D01*
X159643538Y-80810073D01*
X159584524Y-80628446D01*
X159489037Y-80463058D01*
X159361251Y-80321137D01*
X159355909Y-80317256D01*
X159355907Y-80317254D01*
X159212092Y-80212767D01*
X159212091Y-80212766D01*
X159206750Y-80208886D01*
X159200722Y-80206202D01*
X159200720Y-80206201D01*
X159038318Y-80133895D01*
X159038317Y-80133895D01*
X159032287Y-80131210D01*
X158938887Y-80111357D01*
X158851944Y-80092876D01*
X158851939Y-80092876D01*
X158845487Y-80091504D01*
X158654513Y-80091504D01*
X158648061Y-80092876D01*
X158648056Y-80092876D01*
X158561113Y-80111357D01*
X158467713Y-80131210D01*
X158461683Y-80133895D01*
X158461682Y-80133895D01*
X158299280Y-80206201D01*
X158299278Y-80206202D01*
X158293250Y-80208886D01*
X158287909Y-80212766D01*
X158287908Y-80212767D01*
X158144093Y-80317254D01*
X158144091Y-80317256D01*
X158138749Y-80321137D01*
X158010963Y-80463058D01*
X157915476Y-80628446D01*
X157856462Y-80810073D01*
X157836500Y-81000000D01*
X99660366Y-81000000D01*
X99734524Y-80871554D01*
X99793538Y-80689927D01*
X99813500Y-80500000D01*
X99793538Y-80310073D01*
X99734524Y-80128446D01*
X99713196Y-80091504D01*
X99642338Y-79968776D01*
X99639037Y-79963058D01*
X99511251Y-79821137D01*
X99505909Y-79817256D01*
X99505907Y-79817254D01*
X99362092Y-79712767D01*
X99362091Y-79712766D01*
X99356750Y-79708886D01*
X99350722Y-79706202D01*
X99350720Y-79706201D01*
X99188318Y-79633895D01*
X99188317Y-79633895D01*
X99182287Y-79631210D01*
X99088887Y-79611357D01*
X99001944Y-79592876D01*
X99001939Y-79592876D01*
X98995487Y-79591504D01*
X98804513Y-79591504D01*
X98798061Y-79592876D01*
X98798056Y-79592876D01*
X98711113Y-79611357D01*
X98617713Y-79631210D01*
X98611683Y-79633895D01*
X98611682Y-79633895D01*
X98449280Y-79706201D01*
X98449278Y-79706202D01*
X98443250Y-79708886D01*
X98437909Y-79712766D01*
X98437908Y-79712767D01*
X98294093Y-79817254D01*
X98294091Y-79817256D01*
X98288749Y-79821137D01*
X98160963Y-79963058D01*
X98157662Y-79968776D01*
X98086805Y-80091504D01*
X98065476Y-80128446D01*
X98006462Y-80310073D01*
X97986500Y-80500000D01*
X50508000Y-80500000D01*
X50508000Y-79000000D01*
X141586500Y-79000000D01*
X141606462Y-79189927D01*
X141665476Y-79371554D01*
X141760963Y-79536942D01*
X141765381Y-79541849D01*
X141765382Y-79541850D01*
X141884327Y-79673952D01*
X141888749Y-79678863D01*
X141894091Y-79682744D01*
X141894093Y-79682746D01*
X141930072Y-79708886D01*
X142043250Y-79791114D01*
X142049278Y-79793798D01*
X142049280Y-79793799D01*
X142211682Y-79866105D01*
X142217713Y-79868790D01*
X142311113Y-79888643D01*
X142398056Y-79907124D01*
X142398061Y-79907124D01*
X142404513Y-79908496D01*
X142595487Y-79908496D01*
X142601939Y-79907124D01*
X142601944Y-79907124D01*
X142688887Y-79888643D01*
X142782287Y-79868790D01*
X142788318Y-79866105D01*
X142950720Y-79793799D01*
X142950722Y-79793798D01*
X142956750Y-79791114D01*
X143069928Y-79708886D01*
X143105907Y-79682746D01*
X143105909Y-79682744D01*
X143111251Y-79678863D01*
X143115673Y-79673952D01*
X143234618Y-79541850D01*
X143234619Y-79541849D01*
X143239037Y-79536942D01*
X143334524Y-79371554D01*
X143393538Y-79189927D01*
X143413500Y-79000000D01*
X143393538Y-78810073D01*
X143374019Y-78750000D01*
X157836500Y-78750000D01*
X157856462Y-78939927D01*
X157915476Y-79121554D01*
X158010963Y-79286942D01*
X158138749Y-79428863D01*
X158144091Y-79432744D01*
X158144093Y-79432746D01*
X158287908Y-79537233D01*
X158293250Y-79541114D01*
X158299278Y-79543798D01*
X158299280Y-79543799D01*
X158409509Y-79592876D01*
X158467713Y-79618790D01*
X158538776Y-79633895D01*
X158648056Y-79657124D01*
X158648061Y-79657124D01*
X158654513Y-79658496D01*
X158845487Y-79658496D01*
X158851939Y-79657124D01*
X158851944Y-79657124D01*
X158961224Y-79633895D01*
X159032287Y-79618790D01*
X159090491Y-79592876D01*
X159200720Y-79543799D01*
X159200722Y-79543798D01*
X159206750Y-79541114D01*
X159212092Y-79537233D01*
X159355907Y-79432746D01*
X159355909Y-79432744D01*
X159361251Y-79428863D01*
X159489037Y-79286942D01*
X159584524Y-79121554D01*
X159643538Y-78939927D01*
X159663500Y-78750000D01*
X159643538Y-78560073D01*
X159584524Y-78378446D01*
X159489037Y-78213058D01*
X159417759Y-78133895D01*
X159365673Y-78076048D01*
X159365672Y-78076047D01*
X159361251Y-78071137D01*
X159355909Y-78067256D01*
X159355907Y-78067254D01*
X159212092Y-77962767D01*
X159212091Y-77962766D01*
X159206750Y-77958886D01*
X159200722Y-77956202D01*
X159200720Y-77956201D01*
X159038318Y-77883895D01*
X159038317Y-77883895D01*
X159032287Y-77881210D01*
X158938887Y-77861357D01*
X158851944Y-77842876D01*
X158851939Y-77842876D01*
X158845487Y-77841504D01*
X158654513Y-77841504D01*
X158648061Y-77842876D01*
X158648056Y-77842876D01*
X158561113Y-77861357D01*
X158467713Y-77881210D01*
X158461683Y-77883895D01*
X158461682Y-77883895D01*
X158299280Y-77956201D01*
X158299278Y-77956202D01*
X158293250Y-77958886D01*
X158287909Y-77962766D01*
X158287908Y-77962767D01*
X158144093Y-78067254D01*
X158144091Y-78067256D01*
X158138749Y-78071137D01*
X158134328Y-78076047D01*
X158134327Y-78076048D01*
X158082242Y-78133895D01*
X158010963Y-78213058D01*
X157915476Y-78378446D01*
X157856462Y-78560073D01*
X157836500Y-78750000D01*
X143374019Y-78750000D01*
X143334524Y-78628446D01*
X143239037Y-78463058D01*
X143111251Y-78321137D01*
X143105909Y-78317256D01*
X143105907Y-78317254D01*
X142962092Y-78212767D01*
X142962091Y-78212766D01*
X142956750Y-78208886D01*
X142950722Y-78206202D01*
X142950720Y-78206201D01*
X142788318Y-78133895D01*
X142788317Y-78133895D01*
X142782287Y-78131210D01*
X142688887Y-78111357D01*
X142601944Y-78092876D01*
X142601939Y-78092876D01*
X142595487Y-78091504D01*
X142404513Y-78091504D01*
X142398061Y-78092876D01*
X142398056Y-78092876D01*
X142311113Y-78111357D01*
X142217713Y-78131210D01*
X142211683Y-78133895D01*
X142211682Y-78133895D01*
X142049280Y-78206201D01*
X142049278Y-78206202D01*
X142043250Y-78208886D01*
X142037909Y-78212766D01*
X142037908Y-78212767D01*
X141894093Y-78317254D01*
X141894091Y-78317256D01*
X141888749Y-78321137D01*
X141760963Y-78463058D01*
X141665476Y-78628446D01*
X141606462Y-78810073D01*
X141586500Y-79000000D01*
X50508000Y-79000000D01*
X50508000Y-75600000D01*
X89086500Y-75600000D01*
X89106462Y-75789927D01*
X89165476Y-75971554D01*
X89260963Y-76136942D01*
X89265381Y-76141849D01*
X89265382Y-76141850D01*
X89384327Y-76273952D01*
X89388749Y-76278863D01*
X89394091Y-76282744D01*
X89394093Y-76282746D01*
X89537908Y-76387233D01*
X89543250Y-76391114D01*
X89549278Y-76393798D01*
X89549280Y-76393799D01*
X89711682Y-76466105D01*
X89717713Y-76468790D01*
X89811113Y-76488643D01*
X89898056Y-76507124D01*
X89898061Y-76507124D01*
X89904513Y-76508496D01*
X90095487Y-76508496D01*
X90101939Y-76507124D01*
X90101944Y-76507124D01*
X90188887Y-76488643D01*
X90282287Y-76468790D01*
X90288318Y-76466105D01*
X90450720Y-76393799D01*
X90450722Y-76393798D01*
X90456750Y-76391114D01*
X90462092Y-76387233D01*
X90605907Y-76282746D01*
X90605909Y-76282744D01*
X90611251Y-76278863D01*
X90615673Y-76273952D01*
X90734618Y-76141850D01*
X90734619Y-76141849D01*
X90739037Y-76136942D01*
X90834524Y-75971554D01*
X90893538Y-75789927D01*
X90913500Y-75600000D01*
X90893538Y-75410073D01*
X90834524Y-75228446D01*
X90739037Y-75063058D01*
X90611251Y-74921137D01*
X90605909Y-74917256D01*
X90605907Y-74917254D01*
X90462092Y-74812767D01*
X90462091Y-74812766D01*
X90456750Y-74808886D01*
X90450722Y-74806202D01*
X90450720Y-74806201D01*
X90288318Y-74733895D01*
X90288317Y-74733895D01*
X90282287Y-74731210D01*
X90178198Y-74709085D01*
X90101944Y-74692876D01*
X90101939Y-74692876D01*
X90095487Y-74691504D01*
X89904513Y-74691504D01*
X89898061Y-74692876D01*
X89898056Y-74692876D01*
X89821802Y-74709085D01*
X89717713Y-74731210D01*
X89711683Y-74733895D01*
X89711682Y-74733895D01*
X89549280Y-74806201D01*
X89549278Y-74806202D01*
X89543250Y-74808886D01*
X89537909Y-74812766D01*
X89537908Y-74812767D01*
X89394093Y-74917254D01*
X89394091Y-74917256D01*
X89388749Y-74921137D01*
X89260963Y-75063058D01*
X89165476Y-75228446D01*
X89106462Y-75410073D01*
X89086500Y-75600000D01*
X50508000Y-75600000D01*
X50508000Y-72200000D01*
X81386500Y-72200000D01*
X81406462Y-72389927D01*
X81465476Y-72571554D01*
X81468779Y-72577276D01*
X81468780Y-72577277D01*
X81473973Y-72586271D01*
X81560963Y-72736942D01*
X81565381Y-72741849D01*
X81565382Y-72741850D01*
X81644101Y-72829276D01*
X81688749Y-72878863D01*
X81694091Y-72882744D01*
X81694093Y-72882746D01*
X81781439Y-72946206D01*
X81843250Y-72991114D01*
X81849278Y-72993798D01*
X81849280Y-72993799D01*
X82011682Y-73066105D01*
X82017713Y-73068790D01*
X82111113Y-73088643D01*
X82198056Y-73107124D01*
X82198061Y-73107124D01*
X82204513Y-73108496D01*
X82395487Y-73108496D01*
X82401939Y-73107124D01*
X82401944Y-73107124D01*
X82488887Y-73088643D01*
X82582287Y-73068790D01*
X82588318Y-73066105D01*
X82750720Y-72993799D01*
X82750722Y-72993798D01*
X82756750Y-72991114D01*
X82818561Y-72946206D01*
X82905907Y-72882746D01*
X82905909Y-72882744D01*
X82911251Y-72878863D01*
X82955899Y-72829276D01*
X83027280Y-72750000D01*
X95336500Y-72750000D01*
X95356462Y-72939927D01*
X95415476Y-73121554D01*
X95510963Y-73286942D01*
X95515381Y-73291849D01*
X95515382Y-73291850D01*
X95611474Y-73398571D01*
X95638749Y-73428863D01*
X95644091Y-73432744D01*
X95644093Y-73432746D01*
X95650762Y-73437591D01*
X95793250Y-73541114D01*
X95799278Y-73543798D01*
X95799280Y-73543799D01*
X95961682Y-73616105D01*
X95967713Y-73618790D01*
X96061113Y-73638643D01*
X96148056Y-73657124D01*
X96148061Y-73657124D01*
X96154513Y-73658496D01*
X96345487Y-73658496D01*
X96351939Y-73657124D01*
X96351944Y-73657124D01*
X96438887Y-73638643D01*
X96532287Y-73618790D01*
X96538318Y-73616105D01*
X96700720Y-73543799D01*
X96700722Y-73543798D01*
X96706750Y-73541114D01*
X96849238Y-73437591D01*
X96855907Y-73432746D01*
X96855909Y-73432744D01*
X96861251Y-73428863D01*
X96888526Y-73398571D01*
X96984618Y-73291850D01*
X96984619Y-73291849D01*
X96989037Y-73286942D01*
X97084524Y-73121554D01*
X97143538Y-72939927D01*
X97163500Y-72750000D01*
X97143538Y-72560073D01*
X97084524Y-72378446D01*
X96989037Y-72213058D01*
X96971369Y-72193435D01*
X96865673Y-72076048D01*
X96865672Y-72076047D01*
X96861251Y-72071137D01*
X96855909Y-72067256D01*
X96855907Y-72067254D01*
X96712092Y-71962767D01*
X96712091Y-71962766D01*
X96706750Y-71958886D01*
X96700722Y-71956202D01*
X96700720Y-71956201D01*
X96538318Y-71883895D01*
X96538317Y-71883895D01*
X96532287Y-71881210D01*
X96438887Y-71861357D01*
X96351944Y-71842876D01*
X96351939Y-71842876D01*
X96345487Y-71841504D01*
X96154513Y-71841504D01*
X96148061Y-71842876D01*
X96148056Y-71842876D01*
X96061113Y-71861357D01*
X95967713Y-71881210D01*
X95961683Y-71883895D01*
X95961682Y-71883895D01*
X95799280Y-71956201D01*
X95799278Y-71956202D01*
X95793250Y-71958886D01*
X95787909Y-71962766D01*
X95787908Y-71962767D01*
X95644093Y-72067254D01*
X95644091Y-72067256D01*
X95638749Y-72071137D01*
X95634328Y-72076047D01*
X95634327Y-72076048D01*
X95528632Y-72193435D01*
X95510963Y-72213058D01*
X95415476Y-72378446D01*
X95356462Y-72560073D01*
X95336500Y-72750000D01*
X83027280Y-72750000D01*
X83034618Y-72741850D01*
X83034619Y-72741849D01*
X83039037Y-72736942D01*
X83126027Y-72586271D01*
X83131220Y-72577277D01*
X83131221Y-72577276D01*
X83134524Y-72571554D01*
X83193538Y-72389927D01*
X83213500Y-72200000D01*
X83193538Y-72010073D01*
X83134524Y-71828446D01*
X83039037Y-71663058D01*
X82945592Y-71559276D01*
X82915673Y-71526048D01*
X82915672Y-71526047D01*
X82911251Y-71521137D01*
X82905909Y-71517256D01*
X82905907Y-71517254D01*
X82762092Y-71412767D01*
X82762091Y-71412766D01*
X82756750Y-71408886D01*
X82750722Y-71406202D01*
X82750720Y-71406201D01*
X82588318Y-71333895D01*
X82588317Y-71333895D01*
X82582287Y-71331210D01*
X82488887Y-71311357D01*
X82401944Y-71292876D01*
X82401939Y-71292876D01*
X82395487Y-71291504D01*
X82204513Y-71291504D01*
X82198061Y-71292876D01*
X82198056Y-71292876D01*
X82111113Y-71311357D01*
X82017713Y-71331210D01*
X82011683Y-71333895D01*
X82011682Y-71333895D01*
X81849280Y-71406201D01*
X81849278Y-71406202D01*
X81843250Y-71408886D01*
X81837909Y-71412766D01*
X81837908Y-71412767D01*
X81694093Y-71517254D01*
X81694091Y-71517256D01*
X81688749Y-71521137D01*
X81684328Y-71526047D01*
X81684327Y-71526048D01*
X81654409Y-71559276D01*
X81560963Y-71663058D01*
X81465476Y-71828446D01*
X81406462Y-72010073D01*
X81386500Y-72200000D01*
X50508000Y-72200000D01*
X50508000Y-70000000D01*
X93486500Y-70000000D01*
X93506462Y-70189927D01*
X93565476Y-70371554D01*
X93660963Y-70536942D01*
X93665381Y-70541849D01*
X93665382Y-70541850D01*
X93784327Y-70673952D01*
X93788749Y-70678863D01*
X93794091Y-70682744D01*
X93794093Y-70682746D01*
X93915554Y-70770992D01*
X93943250Y-70791114D01*
X93949278Y-70793798D01*
X93949280Y-70793799D01*
X94111682Y-70866105D01*
X94117713Y-70868790D01*
X94211113Y-70888643D01*
X94298056Y-70907124D01*
X94298061Y-70907124D01*
X94304513Y-70908496D01*
X94495487Y-70908496D01*
X94501939Y-70907124D01*
X94501944Y-70907124D01*
X94588887Y-70888643D01*
X94682287Y-70868790D01*
X94688318Y-70866105D01*
X94850720Y-70793799D01*
X94850722Y-70793798D01*
X94856750Y-70791114D01*
X94884446Y-70770992D01*
X95005907Y-70682746D01*
X95005909Y-70682744D01*
X95011251Y-70678863D01*
X95015673Y-70673952D01*
X95134618Y-70541850D01*
X95134619Y-70541849D01*
X95139037Y-70536942D01*
X95160366Y-70500000D01*
X96086500Y-70500000D01*
X96106462Y-70689927D01*
X96108502Y-70696205D01*
X96108502Y-70696206D01*
X96135847Y-70780365D01*
X96165476Y-70871554D01*
X96168779Y-70877276D01*
X96168780Y-70877277D01*
X96187540Y-70909770D01*
X96260963Y-71036942D01*
X96388749Y-71178863D01*
X96394091Y-71182744D01*
X96394093Y-71182746D01*
X96480539Y-71245552D01*
X96543250Y-71291114D01*
X96549278Y-71293798D01*
X96549280Y-71293799D01*
X96711682Y-71366105D01*
X96717713Y-71368790D01*
X96811113Y-71388643D01*
X96898056Y-71407124D01*
X96898061Y-71407124D01*
X96904513Y-71408496D01*
X97095487Y-71408496D01*
X97101939Y-71407124D01*
X97101944Y-71407124D01*
X97188887Y-71388643D01*
X97282287Y-71368790D01*
X97288318Y-71366105D01*
X97450720Y-71293799D01*
X97450722Y-71293798D01*
X97456750Y-71291114D01*
X97513339Y-71250000D01*
X122236500Y-71250000D01*
X122236500Y-72250000D01*
X122241727Y-72323079D01*
X122282904Y-72463316D01*
X122287775Y-72470895D01*
X122357051Y-72578691D01*
X122357053Y-72578694D01*
X122361923Y-72586271D01*
X122368733Y-72592172D01*
X122465569Y-72676082D01*
X122465572Y-72676084D01*
X122472381Y-72681984D01*
X122605330Y-72742700D01*
X122614245Y-72743982D01*
X122614246Y-72743982D01*
X122745552Y-72762861D01*
X122745559Y-72762862D01*
X122750000Y-72763500D01*
X123392859Y-72763500D01*
X123460980Y-72783502D01*
X123507473Y-72837158D01*
X123518074Y-72903545D01*
X123506599Y-73005849D01*
X123523150Y-73202956D01*
X123577672Y-73393094D01*
X123668086Y-73569021D01*
X123671911Y-73573847D01*
X123673689Y-73576090D01*
X123674250Y-73577475D01*
X123675251Y-73579029D01*
X123674956Y-73579219D01*
X123700325Y-73641901D01*
X123687153Y-73711665D01*
X123683743Y-73717404D01*
X123683747Y-73717406D01*
X123588456Y-73890740D01*
X123528647Y-74079282D01*
X123506599Y-74275849D01*
X123507115Y-74281993D01*
X123519007Y-74423621D01*
X123504775Y-74493177D01*
X123455198Y-74543996D01*
X123380280Y-74559474D01*
X123307018Y-74551774D01*
X123263205Y-74547169D01*
X123263203Y-74547169D01*
X123257076Y-74546525D01*
X123174226Y-74554065D01*
X123066228Y-74563893D01*
X123066225Y-74563894D01*
X123060089Y-74564452D01*
X123054183Y-74566190D01*
X123054179Y-74566191D01*
X122912779Y-74607808D01*
X122870336Y-74620299D01*
X122695045Y-74711939D01*
X122540891Y-74835882D01*
X122536933Y-74840599D01*
X122536931Y-74840601D01*
X122505175Y-74878446D01*
X122413747Y-74987406D01*
X122410783Y-74992798D01*
X122410780Y-74992802D01*
X122333031Y-75134227D01*
X122318456Y-75160740D01*
X122316595Y-75166607D01*
X122316594Y-75166609D01*
X122260509Y-75343412D01*
X122258647Y-75349282D01*
X122236599Y-75545849D01*
X122253150Y-75742956D01*
X122274455Y-75817254D01*
X122305051Y-75923952D01*
X122307672Y-75933094D01*
X122324208Y-75965269D01*
X122364567Y-76043799D01*
X122398086Y-76109021D01*
X122520949Y-76264036D01*
X122525636Y-76268025D01*
X122525639Y-76268028D01*
X122666890Y-76388242D01*
X122671582Y-76392235D01*
X122676960Y-76395241D01*
X122676962Y-76395242D01*
X122808561Y-76468790D01*
X122844246Y-76488734D01*
X123032366Y-76549857D01*
X123228775Y-76573278D01*
X123234910Y-76572806D01*
X123234913Y-76572806D01*
X123384604Y-76561288D01*
X123454058Y-76576005D01*
X123504530Y-76625936D01*
X123519485Y-76700961D01*
X123506599Y-76815849D01*
X123523150Y-77012956D01*
X123533319Y-77048419D01*
X123570724Y-77178863D01*
X123577672Y-77203094D01*
X123668086Y-77379021D01*
X123790949Y-77534036D01*
X123795636Y-77538025D01*
X123795639Y-77538028D01*
X123820615Y-77559284D01*
X123941582Y-77662235D01*
X123946960Y-77665241D01*
X123946962Y-77665242D01*
X123988585Y-77688504D01*
X124114246Y-77758734D01*
X124302366Y-77819857D01*
X124498775Y-77843278D01*
X124504910Y-77842806D01*
X124504912Y-77842806D01*
X124689850Y-77828576D01*
X124689854Y-77828575D01*
X124695992Y-77828103D01*
X124886507Y-77774910D01*
X125063060Y-77685726D01*
X125089279Y-77665242D01*
X125214073Y-77567742D01*
X125218929Y-77563948D01*
X125241303Y-77538028D01*
X125344147Y-77418882D01*
X125344148Y-77418880D01*
X125348176Y-77414214D01*
X125445878Y-77242228D01*
X125508314Y-77054539D01*
X125533105Y-76858299D01*
X125533500Y-76830000D01*
X125514198Y-76633143D01*
X125473999Y-76500000D01*
X157836500Y-76500000D01*
X157856462Y-76689927D01*
X157915476Y-76871554D01*
X158010963Y-77036942D01*
X158015381Y-77041849D01*
X158015382Y-77041850D01*
X158134327Y-77173952D01*
X158138749Y-77178863D01*
X158144091Y-77182744D01*
X158144093Y-77182746D01*
X158225964Y-77242228D01*
X158293250Y-77291114D01*
X158299278Y-77293798D01*
X158299280Y-77293799D01*
X158461682Y-77366105D01*
X158467713Y-77368790D01*
X158538583Y-77383854D01*
X158648056Y-77407124D01*
X158648061Y-77407124D01*
X158654513Y-77408496D01*
X158845487Y-77408496D01*
X158851939Y-77407124D01*
X158851944Y-77407124D01*
X158961417Y-77383854D01*
X159032287Y-77368790D01*
X159038318Y-77366105D01*
X159200720Y-77293799D01*
X159200722Y-77293798D01*
X159206750Y-77291114D01*
X159274036Y-77242228D01*
X159355907Y-77182746D01*
X159355909Y-77182744D01*
X159361251Y-77178863D01*
X159365673Y-77173952D01*
X159484618Y-77041850D01*
X159484619Y-77041849D01*
X159489037Y-77036942D01*
X159584524Y-76871554D01*
X159643538Y-76689927D01*
X159663500Y-76500000D01*
X159643538Y-76310073D01*
X159630238Y-76269138D01*
X159588879Y-76141850D01*
X159584524Y-76128446D01*
X159570145Y-76103540D01*
X159531862Y-76037233D01*
X159489037Y-75963058D01*
X159462058Y-75933094D01*
X159365673Y-75826048D01*
X159365672Y-75826047D01*
X159361251Y-75821137D01*
X159355909Y-75817256D01*
X159355907Y-75817254D01*
X159212092Y-75712767D01*
X159212091Y-75712766D01*
X159206750Y-75708886D01*
X159200722Y-75706202D01*
X159200720Y-75706201D01*
X159038318Y-75633895D01*
X159038317Y-75633895D01*
X159032287Y-75631210D01*
X158916343Y-75606565D01*
X158851944Y-75592876D01*
X158851939Y-75592876D01*
X158845487Y-75591504D01*
X158654513Y-75591504D01*
X158648061Y-75592876D01*
X158648056Y-75592876D01*
X158583657Y-75606565D01*
X158467713Y-75631210D01*
X158461683Y-75633895D01*
X158461682Y-75633895D01*
X158299280Y-75706201D01*
X158299278Y-75706202D01*
X158293250Y-75708886D01*
X158287909Y-75712766D01*
X158287908Y-75712767D01*
X158144093Y-75817254D01*
X158144091Y-75817256D01*
X158138749Y-75821137D01*
X158134328Y-75826047D01*
X158134327Y-75826048D01*
X158037943Y-75933094D01*
X158010963Y-75963058D01*
X157968138Y-76037233D01*
X157929856Y-76103540D01*
X157915476Y-76128446D01*
X157911121Y-76141850D01*
X157869763Y-76269138D01*
X157856462Y-76310073D01*
X157836500Y-76500000D01*
X125473999Y-76500000D01*
X125457027Y-76443785D01*
X125382593Y-76303794D01*
X125367058Y-76274577D01*
X125364166Y-76269138D01*
X125360268Y-76264359D01*
X125359857Y-76263740D01*
X125338816Y-76195933D01*
X125355245Y-76131770D01*
X125355555Y-76131224D01*
X125445878Y-75972228D01*
X125508314Y-75784539D01*
X125533105Y-75588299D01*
X125533500Y-75560000D01*
X125514198Y-75363143D01*
X125480038Y-75250000D01*
X146586500Y-75250000D01*
X146606462Y-75439927D01*
X146665476Y-75621554D01*
X146760963Y-75786942D01*
X146888749Y-75928863D01*
X146894091Y-75932744D01*
X146894093Y-75932746D01*
X147037908Y-76037233D01*
X147043250Y-76041114D01*
X147049278Y-76043798D01*
X147049280Y-76043799D01*
X147211682Y-76116105D01*
X147217713Y-76118790D01*
X147292709Y-76134731D01*
X147398056Y-76157124D01*
X147398061Y-76157124D01*
X147404513Y-76158496D01*
X147595487Y-76158496D01*
X147601939Y-76157124D01*
X147601944Y-76157124D01*
X147707291Y-76134731D01*
X147782287Y-76118790D01*
X147788318Y-76116105D01*
X147950720Y-76043799D01*
X147950722Y-76043798D01*
X147956750Y-76041114D01*
X147962092Y-76037233D01*
X148105907Y-75932746D01*
X148105909Y-75932744D01*
X148111251Y-75928863D01*
X148239037Y-75786942D01*
X148334524Y-75621554D01*
X148393538Y-75439927D01*
X148413500Y-75250000D01*
X148404735Y-75166609D01*
X148394228Y-75066637D01*
X148394228Y-75066636D01*
X148393538Y-75060073D01*
X148334524Y-74878446D01*
X148239037Y-74713058D01*
X148111251Y-74571137D01*
X148105909Y-74567256D01*
X148105907Y-74567254D01*
X147962092Y-74462767D01*
X147962091Y-74462766D01*
X147956750Y-74458886D01*
X147950722Y-74456202D01*
X147950720Y-74456201D01*
X147788318Y-74383895D01*
X147788317Y-74383895D01*
X147782287Y-74381210D01*
X147688887Y-74361357D01*
X147601944Y-74342876D01*
X147601939Y-74342876D01*
X147595487Y-74341504D01*
X147404513Y-74341504D01*
X147398061Y-74342876D01*
X147398056Y-74342876D01*
X147311113Y-74361357D01*
X147217713Y-74381210D01*
X147211683Y-74383895D01*
X147211682Y-74383895D01*
X147049280Y-74456201D01*
X147049278Y-74456202D01*
X147043250Y-74458886D01*
X147037909Y-74462766D01*
X147037908Y-74462767D01*
X146894093Y-74567254D01*
X146894091Y-74567256D01*
X146888749Y-74571137D01*
X146760963Y-74713058D01*
X146665476Y-74878446D01*
X146606462Y-75060073D01*
X146605772Y-75066636D01*
X146605772Y-75066637D01*
X146595265Y-75166609D01*
X146586500Y-75250000D01*
X125480038Y-75250000D01*
X125457027Y-75173785D01*
X125364166Y-74999138D01*
X125360268Y-74994359D01*
X125359857Y-74993740D01*
X125338816Y-74925933D01*
X125355245Y-74861770D01*
X125367271Y-74840601D01*
X125445878Y-74702228D01*
X125508314Y-74514539D01*
X125533105Y-74318299D01*
X125533500Y-74290000D01*
X125514198Y-74093143D01*
X125457027Y-73903785D01*
X125364166Y-73729138D01*
X125360268Y-73724359D01*
X125359857Y-73723740D01*
X125338816Y-73655933D01*
X125355245Y-73591770D01*
X125363366Y-73577475D01*
X125445878Y-73432228D01*
X125508314Y-73244539D01*
X125533105Y-73048299D01*
X125533500Y-73020000D01*
X125514198Y-72823143D01*
X125457027Y-72633785D01*
X125364166Y-72459138D01*
X125360268Y-72454359D01*
X125359857Y-72453740D01*
X125338816Y-72385933D01*
X125355245Y-72321770D01*
X125396016Y-72250000D01*
X125445878Y-72162228D01*
X125508314Y-71974539D01*
X125533105Y-71778299D01*
X125533500Y-71750000D01*
X125514198Y-71553143D01*
X125457027Y-71363785D01*
X125364166Y-71189138D01*
X125289131Y-71097136D01*
X125243045Y-71040628D01*
X125243042Y-71040625D01*
X125239150Y-71035853D01*
X125233555Y-71031224D01*
X125091491Y-70913698D01*
X125091486Y-70913695D01*
X125086742Y-70909770D01*
X125081323Y-70906840D01*
X125081320Y-70906838D01*
X124918165Y-70818621D01*
X124918161Y-70818619D01*
X124912747Y-70815692D01*
X124906864Y-70813871D01*
X124906862Y-70813870D01*
X124895145Y-70810243D01*
X124835985Y-70770992D01*
X124807438Y-70705988D01*
X124818566Y-70635869D01*
X124865838Y-70582897D01*
X124881155Y-70574771D01*
X124950720Y-70543799D01*
X124950722Y-70543798D01*
X124956750Y-70541114D01*
X124962092Y-70537233D01*
X125105907Y-70432746D01*
X125105909Y-70432744D01*
X125111251Y-70428863D01*
X125218210Y-70310073D01*
X125234618Y-70291850D01*
X125234619Y-70291849D01*
X125239037Y-70286942D01*
X125334524Y-70121554D01*
X125376152Y-69993435D01*
X125391498Y-69946206D01*
X125391498Y-69946205D01*
X125393538Y-69939927D01*
X125413500Y-69750000D01*
X125393538Y-69560073D01*
X125334524Y-69378446D01*
X125239037Y-69213058D01*
X125167759Y-69133895D01*
X125115673Y-69076048D01*
X125115672Y-69076047D01*
X125111251Y-69071137D01*
X125105909Y-69067256D01*
X125105907Y-69067254D01*
X124962092Y-68962767D01*
X124962091Y-68962766D01*
X124956750Y-68958886D01*
X124950722Y-68956202D01*
X124950720Y-68956201D01*
X124788318Y-68883895D01*
X124788317Y-68883895D01*
X124782287Y-68881210D01*
X124688887Y-68861357D01*
X124601944Y-68842876D01*
X124601939Y-68842876D01*
X124595487Y-68841504D01*
X124404513Y-68841504D01*
X124398061Y-68842876D01*
X124398056Y-68842876D01*
X124311113Y-68861357D01*
X124217713Y-68881210D01*
X124211683Y-68883895D01*
X124211682Y-68883895D01*
X124049280Y-68956201D01*
X124049278Y-68956202D01*
X124043250Y-68958886D01*
X124037909Y-68962766D01*
X124037908Y-68962767D01*
X123894093Y-69067254D01*
X123894091Y-69067256D01*
X123888749Y-69071137D01*
X123884328Y-69076047D01*
X123884327Y-69076048D01*
X123832242Y-69133895D01*
X123760963Y-69213058D01*
X123665476Y-69378446D01*
X123606462Y-69560073D01*
X123586500Y-69750000D01*
X123606462Y-69939927D01*
X123608502Y-69946205D01*
X123608502Y-69946206D01*
X123623848Y-69993435D01*
X123665476Y-70121554D01*
X123760963Y-70286942D01*
X123765381Y-70291849D01*
X123765382Y-70291850D01*
X123781790Y-70310073D01*
X123888749Y-70428863D01*
X123894091Y-70432744D01*
X123894093Y-70432746D01*
X124037908Y-70537233D01*
X124043250Y-70541114D01*
X124049278Y-70543798D01*
X124049280Y-70543799D01*
X124135993Y-70582406D01*
X124190089Y-70628386D01*
X124210738Y-70696314D01*
X124191386Y-70764622D01*
X124139256Y-70808218D01*
X124140342Y-70810295D01*
X124134545Y-70813326D01*
X124132712Y-70813690D01*
X124131930Y-70814344D01*
X124129147Y-70815468D01*
X124128747Y-70814478D01*
X124064910Y-70827164D01*
X124023822Y-70816282D01*
X124018541Y-70813870D01*
X123894670Y-70757300D01*
X123885755Y-70756018D01*
X123885754Y-70756018D01*
X123754448Y-70737139D01*
X123754441Y-70737138D01*
X123750000Y-70736500D01*
X122750000Y-70736500D01*
X122676921Y-70741727D01*
X122623884Y-70757300D01*
X122545330Y-70780365D01*
X122545328Y-70780366D01*
X122536684Y-70782904D01*
X122529105Y-70787775D01*
X122421309Y-70857051D01*
X122421306Y-70857053D01*
X122413729Y-70861923D01*
X122407828Y-70868733D01*
X122323918Y-70965569D01*
X122323916Y-70965572D01*
X122318016Y-70972381D01*
X122314272Y-70980579D01*
X122286849Y-71040628D01*
X122257300Y-71105330D01*
X122256018Y-71114245D01*
X122256018Y-71114246D01*
X122237139Y-71245552D01*
X122237138Y-71245559D01*
X122236500Y-71250000D01*
X97513339Y-71250000D01*
X97519461Y-71245552D01*
X97605907Y-71182746D01*
X97605909Y-71182744D01*
X97611251Y-71178863D01*
X97739037Y-71036942D01*
X97812460Y-70909770D01*
X97831220Y-70877277D01*
X97831221Y-70877276D01*
X97834524Y-70871554D01*
X97864153Y-70780365D01*
X97891498Y-70696206D01*
X97891498Y-70696205D01*
X97893538Y-70689927D01*
X97913500Y-70500000D01*
X97893538Y-70310073D01*
X97884165Y-70281224D01*
X97836566Y-70134731D01*
X97834524Y-70128446D01*
X97739037Y-69963058D01*
X97723864Y-69946206D01*
X97615673Y-69826048D01*
X97615672Y-69826047D01*
X97611251Y-69821137D01*
X97605909Y-69817256D01*
X97605907Y-69817254D01*
X97462092Y-69712767D01*
X97462091Y-69712766D01*
X97456750Y-69708886D01*
X97450722Y-69706202D01*
X97450720Y-69706201D01*
X97288318Y-69633895D01*
X97288317Y-69633895D01*
X97282287Y-69631210D01*
X97188887Y-69611357D01*
X97101944Y-69592876D01*
X97101939Y-69592876D01*
X97095487Y-69591504D01*
X96904513Y-69591504D01*
X96898061Y-69592876D01*
X96898056Y-69592876D01*
X96811113Y-69611357D01*
X96717713Y-69631210D01*
X96711683Y-69633895D01*
X96711682Y-69633895D01*
X96549280Y-69706201D01*
X96549278Y-69706202D01*
X96543250Y-69708886D01*
X96537909Y-69712766D01*
X96537908Y-69712767D01*
X96394093Y-69817254D01*
X96394091Y-69817256D01*
X96388749Y-69821137D01*
X96384328Y-69826047D01*
X96384327Y-69826048D01*
X96276137Y-69946206D01*
X96260963Y-69963058D01*
X96165476Y-70128446D01*
X96163434Y-70134731D01*
X96115836Y-70281224D01*
X96106462Y-70310073D01*
X96086500Y-70500000D01*
X95160366Y-70500000D01*
X95234524Y-70371554D01*
X95293538Y-70189927D01*
X95313500Y-70000000D01*
X95293538Y-69810073D01*
X95234524Y-69628446D01*
X95213196Y-69591504D01*
X95165271Y-69508496D01*
X95139037Y-69463058D01*
X95074259Y-69391114D01*
X95015673Y-69326048D01*
X95015672Y-69326047D01*
X95011251Y-69321137D01*
X95005909Y-69317256D01*
X95005907Y-69317254D01*
X94862092Y-69212767D01*
X94862091Y-69212766D01*
X94856750Y-69208886D01*
X94850722Y-69206202D01*
X94850720Y-69206201D01*
X94688318Y-69133895D01*
X94688317Y-69133895D01*
X94682287Y-69131210D01*
X94588887Y-69111357D01*
X94501944Y-69092876D01*
X94501939Y-69092876D01*
X94495487Y-69091504D01*
X94304513Y-69091504D01*
X94298061Y-69092876D01*
X94298056Y-69092876D01*
X94211113Y-69111357D01*
X94117713Y-69131210D01*
X94111683Y-69133895D01*
X94111682Y-69133895D01*
X93949280Y-69206201D01*
X93949278Y-69206202D01*
X93943250Y-69208886D01*
X93937909Y-69212766D01*
X93937908Y-69212767D01*
X93794093Y-69317254D01*
X93794091Y-69317256D01*
X93788749Y-69321137D01*
X93784328Y-69326047D01*
X93784327Y-69326048D01*
X93725742Y-69391114D01*
X93660963Y-69463058D01*
X93634729Y-69508496D01*
X93586805Y-69591504D01*
X93565476Y-69628446D01*
X93506462Y-69810073D01*
X93486500Y-70000000D01*
X50508000Y-70000000D01*
X50508000Y-68600000D01*
X98886500Y-68600000D01*
X98906462Y-68789927D01*
X98965476Y-68971554D01*
X99060963Y-69136942D01*
X99065381Y-69141849D01*
X99065382Y-69141850D01*
X99184327Y-69273952D01*
X99188749Y-69278863D01*
X99194091Y-69282744D01*
X99194093Y-69282746D01*
X99337908Y-69387233D01*
X99343250Y-69391114D01*
X99349278Y-69393798D01*
X99349280Y-69393799D01*
X99511682Y-69466105D01*
X99517713Y-69468790D01*
X99611113Y-69488643D01*
X99698056Y-69507124D01*
X99698061Y-69507124D01*
X99704513Y-69508496D01*
X99895487Y-69508496D01*
X99901939Y-69507124D01*
X99901944Y-69507124D01*
X99988887Y-69488643D01*
X100082287Y-69468790D01*
X100088318Y-69466105D01*
X100250720Y-69393799D01*
X100250722Y-69393798D01*
X100256750Y-69391114D01*
X100262092Y-69387233D01*
X100405907Y-69282746D01*
X100405909Y-69282744D01*
X100411251Y-69278863D01*
X100415673Y-69273952D01*
X100534618Y-69141850D01*
X100534619Y-69141849D01*
X100539037Y-69136942D01*
X100634524Y-68971554D01*
X100693538Y-68789927D01*
X100713500Y-68600000D01*
X100693538Y-68410073D01*
X100634524Y-68228446D01*
X100539037Y-68063058D01*
X100411251Y-67921137D01*
X100405909Y-67917256D01*
X100405907Y-67917254D01*
X100262092Y-67812767D01*
X100262091Y-67812766D01*
X100256750Y-67808886D01*
X100250722Y-67806202D01*
X100250720Y-67806201D01*
X100088318Y-67733895D01*
X100088317Y-67733895D01*
X100082287Y-67731210D01*
X99988887Y-67711357D01*
X99901944Y-67692876D01*
X99901939Y-67692876D01*
X99895487Y-67691504D01*
X99704513Y-67691504D01*
X99698061Y-67692876D01*
X99698056Y-67692876D01*
X99611113Y-67711357D01*
X99517713Y-67731210D01*
X99511683Y-67733895D01*
X99511682Y-67733895D01*
X99349280Y-67806201D01*
X99349278Y-67806202D01*
X99343250Y-67808886D01*
X99337909Y-67812766D01*
X99337908Y-67812767D01*
X99194093Y-67917254D01*
X99194091Y-67917256D01*
X99188749Y-67921137D01*
X99060963Y-68063058D01*
X98965476Y-68228446D01*
X98906462Y-68410073D01*
X98886500Y-68600000D01*
X50508000Y-68600000D01*
X50508000Y-66000000D01*
X96586500Y-66000000D01*
X96606462Y-66189927D01*
X96608502Y-66196205D01*
X96608502Y-66196206D01*
X96612802Y-66209439D01*
X96665476Y-66371554D01*
X96760963Y-66536942D01*
X96888749Y-66678863D01*
X96894091Y-66682744D01*
X96894093Y-66682746D01*
X97037908Y-66787233D01*
X97043250Y-66791114D01*
X97049278Y-66793798D01*
X97049280Y-66793799D01*
X97211682Y-66866105D01*
X97217713Y-66868790D01*
X97311113Y-66888643D01*
X97398056Y-66907124D01*
X97398061Y-66907124D01*
X97404513Y-66908496D01*
X97595487Y-66908496D01*
X97601939Y-66907124D01*
X97601944Y-66907124D01*
X97688887Y-66888643D01*
X97782287Y-66868790D01*
X97788318Y-66866105D01*
X97950720Y-66793799D01*
X97950722Y-66793798D01*
X97956750Y-66791114D01*
X97962092Y-66787233D01*
X98105907Y-66682746D01*
X98105909Y-66682744D01*
X98111251Y-66678863D01*
X98239037Y-66536942D01*
X98334524Y-66371554D01*
X98387198Y-66209439D01*
X98391498Y-66196206D01*
X98391498Y-66196205D01*
X98393538Y-66189927D01*
X98413500Y-66000000D01*
X98397971Y-65852250D01*
X98394228Y-65816637D01*
X98394228Y-65816636D01*
X98393538Y-65810073D01*
X98334524Y-65628446D01*
X98239037Y-65463058D01*
X98111251Y-65321137D01*
X98105909Y-65317256D01*
X98105907Y-65317254D01*
X97962092Y-65212767D01*
X97962091Y-65212766D01*
X97956750Y-65208886D01*
X97950722Y-65206202D01*
X97950720Y-65206201D01*
X97788318Y-65133895D01*
X97788317Y-65133895D01*
X97782287Y-65131210D01*
X97688887Y-65111357D01*
X97601944Y-65092876D01*
X97601939Y-65092876D01*
X97595487Y-65091504D01*
X97404513Y-65091504D01*
X97398061Y-65092876D01*
X97398056Y-65092876D01*
X97311113Y-65111357D01*
X97217713Y-65131210D01*
X97211683Y-65133895D01*
X97211682Y-65133895D01*
X97049280Y-65206201D01*
X97049278Y-65206202D01*
X97043250Y-65208886D01*
X97037909Y-65212766D01*
X97037908Y-65212767D01*
X96894093Y-65317254D01*
X96894091Y-65317256D01*
X96888749Y-65321137D01*
X96760963Y-65463058D01*
X96665476Y-65628446D01*
X96606462Y-65810073D01*
X96605772Y-65816636D01*
X96605772Y-65816637D01*
X96602029Y-65852250D01*
X96586500Y-66000000D01*
X50508000Y-66000000D01*
X50508000Y-64400000D01*
X88086500Y-64400000D01*
X88087190Y-64406565D01*
X88101961Y-64547098D01*
X88106462Y-64589927D01*
X88165476Y-64771554D01*
X88260963Y-64936942D01*
X88265381Y-64941849D01*
X88265382Y-64941850D01*
X88384327Y-65073952D01*
X88388749Y-65078863D01*
X88394091Y-65082744D01*
X88394093Y-65082746D01*
X88464494Y-65133895D01*
X88543250Y-65191114D01*
X88549278Y-65193798D01*
X88549280Y-65193799D01*
X88711682Y-65266105D01*
X88717713Y-65268790D01*
X88811113Y-65288643D01*
X88898056Y-65307124D01*
X88898061Y-65307124D01*
X88904513Y-65308496D01*
X89095487Y-65308496D01*
X89101939Y-65307124D01*
X89101944Y-65307124D01*
X89188887Y-65288643D01*
X89282287Y-65268790D01*
X89288318Y-65266105D01*
X89450720Y-65193799D01*
X89450722Y-65193798D01*
X89456750Y-65191114D01*
X89535506Y-65133895D01*
X89605907Y-65082746D01*
X89605909Y-65082744D01*
X89611251Y-65078863D01*
X89615673Y-65073952D01*
X89734618Y-64941850D01*
X89734619Y-64941849D01*
X89739037Y-64936942D01*
X89834524Y-64771554D01*
X89893538Y-64589927D01*
X89898040Y-64547098D01*
X89912810Y-64406565D01*
X89913500Y-64400000D01*
X89893538Y-64210073D01*
X89834524Y-64028446D01*
X89739037Y-63863058D01*
X89665572Y-63781466D01*
X89615673Y-63726048D01*
X89615672Y-63726047D01*
X89611251Y-63721137D01*
X89605909Y-63717256D01*
X89605907Y-63717254D01*
X89462092Y-63612767D01*
X89462091Y-63612766D01*
X89456750Y-63608886D01*
X89450722Y-63606202D01*
X89450720Y-63606201D01*
X89288318Y-63533895D01*
X89288317Y-63533895D01*
X89282287Y-63531210D01*
X89166343Y-63506565D01*
X89135458Y-63500000D01*
X91486500Y-63500000D01*
X91487190Y-63506565D01*
X91500864Y-63636661D01*
X91506462Y-63689927D01*
X91508502Y-63696205D01*
X91508502Y-63696206D01*
X91534668Y-63776735D01*
X91565476Y-63871554D01*
X91568779Y-63877276D01*
X91568780Y-63877277D01*
X91579324Y-63895539D01*
X91660963Y-64036942D01*
X91665381Y-64041849D01*
X91665382Y-64041850D01*
X91679353Y-64057366D01*
X91788749Y-64178863D01*
X91794091Y-64182744D01*
X91794093Y-64182746D01*
X91937908Y-64287233D01*
X91943250Y-64291114D01*
X91949278Y-64293798D01*
X91949280Y-64293799D01*
X92056964Y-64341743D01*
X92117713Y-64368790D01*
X92211113Y-64388643D01*
X92298056Y-64407124D01*
X92298061Y-64407124D01*
X92304513Y-64408496D01*
X92495487Y-64408496D01*
X92501939Y-64407124D01*
X92501944Y-64407124D01*
X92588887Y-64388643D01*
X92682287Y-64368790D01*
X92743036Y-64341743D01*
X92850720Y-64293799D01*
X92850722Y-64293798D01*
X92856750Y-64291114D01*
X92862092Y-64287233D01*
X93005907Y-64182746D01*
X93005909Y-64182744D01*
X93011251Y-64178863D01*
X93037239Y-64150000D01*
X129636500Y-64150000D01*
X129636500Y-65850000D01*
X129641727Y-65923079D01*
X129662063Y-65992337D01*
X129666241Y-66006565D01*
X129682904Y-66063316D01*
X129687775Y-66070895D01*
X129757051Y-66178691D01*
X129757053Y-66178694D01*
X129761923Y-66186271D01*
X129768733Y-66192172D01*
X129865569Y-66276082D01*
X129865572Y-66276084D01*
X129872381Y-66281984D01*
X129880579Y-66285728D01*
X129992998Y-66337068D01*
X130005330Y-66342700D01*
X130014245Y-66343982D01*
X130014246Y-66343982D01*
X130145552Y-66362861D01*
X130145559Y-66362862D01*
X130150000Y-66363500D01*
X131850000Y-66363500D01*
X131923079Y-66358273D01*
X132001165Y-66335345D01*
X132054670Y-66319635D01*
X132054672Y-66319634D01*
X132063316Y-66317096D01*
X132129721Y-66274420D01*
X132178691Y-66242949D01*
X132178694Y-66242947D01*
X132186271Y-66238077D01*
X132211086Y-66209439D01*
X132276082Y-66134431D01*
X132276084Y-66134428D01*
X132281984Y-66127619D01*
X132342700Y-65994670D01*
X132343320Y-65990360D01*
X132380432Y-65932610D01*
X132445012Y-65903117D01*
X132515286Y-65913220D01*
X132547335Y-65934270D01*
X132715629Y-66086069D01*
X132910406Y-66209439D01*
X133123184Y-66298228D01*
X133128387Y-66299425D01*
X133128392Y-66299426D01*
X133342678Y-66348701D01*
X133342683Y-66348702D01*
X133347881Y-66349897D01*
X133353209Y-66350200D01*
X133353212Y-66350200D01*
X133503877Y-66358755D01*
X133578071Y-66362968D01*
X133583378Y-66362368D01*
X133583380Y-66362368D01*
X133757354Y-66342700D01*
X133807173Y-66337068D01*
X133812288Y-66335587D01*
X133812292Y-66335586D01*
X133941298Y-66298228D01*
X134028635Y-66272937D01*
X134236125Y-66172409D01*
X134240463Y-66169309D01*
X134240468Y-66169306D01*
X134419370Y-66041459D01*
X134423711Y-66038357D01*
X134586030Y-65874617D01*
X134604882Y-65847743D01*
X134715375Y-65690236D01*
X134715376Y-65690234D01*
X134718439Y-65685868D01*
X134817153Y-65477508D01*
X134879349Y-65255494D01*
X134903249Y-65026176D01*
X134903500Y-65000000D01*
X134898150Y-64936942D01*
X134884458Y-64775576D01*
X134884457Y-64775572D01*
X134884007Y-64770265D01*
X134826084Y-64547098D01*
X134756864Y-64393435D01*
X134733578Y-64341743D01*
X134733577Y-64341741D01*
X134731388Y-64336882D01*
X134720338Y-64320468D01*
X134641788Y-64203794D01*
X134602627Y-64145626D01*
X134443482Y-63978799D01*
X134258504Y-63841171D01*
X134253753Y-63838755D01*
X134253749Y-63838753D01*
X134057740Y-63739097D01*
X134057739Y-63739097D01*
X134052982Y-63736678D01*
X133942887Y-63702492D01*
X133837895Y-63669891D01*
X133837889Y-63669890D01*
X133832792Y-63668307D01*
X133727798Y-63654391D01*
X133609515Y-63638714D01*
X133609510Y-63638714D01*
X133604230Y-63638014D01*
X133598900Y-63638214D01*
X133598899Y-63638214D01*
X133505320Y-63641727D01*
X133373831Y-63646663D01*
X133329246Y-63656018D01*
X133153411Y-63692912D01*
X133153408Y-63692913D01*
X133148184Y-63694009D01*
X132933740Y-63778697D01*
X132736631Y-63898306D01*
X132732601Y-63901803D01*
X132586657Y-64028446D01*
X132562492Y-64049415D01*
X132557339Y-64055700D01*
X132556364Y-64056365D01*
X132555390Y-64057366D01*
X132555186Y-64057168D01*
X132498681Y-64095695D01*
X132427710Y-64097628D01*
X132366961Y-64060885D01*
X132339008Y-64011309D01*
X132319634Y-63945329D01*
X132317096Y-63936684D01*
X132255713Y-63841171D01*
X132242949Y-63821309D01*
X132242947Y-63821306D01*
X132238077Y-63813729D01*
X132195384Y-63776735D01*
X132134431Y-63723918D01*
X132134428Y-63723916D01*
X132127619Y-63718016D01*
X132045175Y-63680365D01*
X132002864Y-63661042D01*
X132002863Y-63661042D01*
X131994670Y-63657300D01*
X131985755Y-63656018D01*
X131985754Y-63656018D01*
X131854448Y-63637139D01*
X131854441Y-63637138D01*
X131850000Y-63636500D01*
X130150000Y-63636500D01*
X130076921Y-63641727D01*
X130023884Y-63657300D01*
X129945330Y-63680365D01*
X129945328Y-63680366D01*
X129936684Y-63682904D01*
X129916350Y-63695972D01*
X129821309Y-63757051D01*
X129821306Y-63757053D01*
X129813729Y-63761923D01*
X129807828Y-63768733D01*
X129723918Y-63865569D01*
X129723916Y-63865572D01*
X129718016Y-63872381D01*
X129657300Y-64005330D01*
X129656018Y-64014245D01*
X129656018Y-64014246D01*
X129637139Y-64145552D01*
X129637138Y-64145559D01*
X129636500Y-64150000D01*
X93037239Y-64150000D01*
X93120647Y-64057366D01*
X93134618Y-64041850D01*
X93134619Y-64041849D01*
X93139037Y-64036942D01*
X93220676Y-63895539D01*
X93231220Y-63877277D01*
X93231221Y-63877276D01*
X93234524Y-63871554D01*
X93265332Y-63776735D01*
X93291498Y-63696206D01*
X93291498Y-63696205D01*
X93293538Y-63689927D01*
X93299137Y-63636661D01*
X93312810Y-63506565D01*
X93313500Y-63500000D01*
X93293538Y-63310073D01*
X93234524Y-63128446D01*
X93139037Y-62963058D01*
X93011251Y-62821137D01*
X93005909Y-62817256D01*
X93005907Y-62817254D01*
X92862092Y-62712767D01*
X92862091Y-62712766D01*
X92856750Y-62708886D01*
X92850722Y-62706202D01*
X92850720Y-62706201D01*
X92688318Y-62633895D01*
X92688317Y-62633895D01*
X92682287Y-62631210D01*
X92588887Y-62611357D01*
X92501944Y-62592876D01*
X92501939Y-62592876D01*
X92495487Y-62591504D01*
X92304513Y-62591504D01*
X92298061Y-62592876D01*
X92298056Y-62592876D01*
X92211113Y-62611357D01*
X92117713Y-62631210D01*
X92111683Y-62633895D01*
X92111682Y-62633895D01*
X91949280Y-62706201D01*
X91949278Y-62706202D01*
X91943250Y-62708886D01*
X91937909Y-62712766D01*
X91937908Y-62712767D01*
X91794093Y-62817254D01*
X91794091Y-62817256D01*
X91788749Y-62821137D01*
X91660963Y-62963058D01*
X91565476Y-63128446D01*
X91506462Y-63310073D01*
X91486500Y-63500000D01*
X89135458Y-63500000D01*
X89101944Y-63492876D01*
X89101939Y-63492876D01*
X89095487Y-63491504D01*
X88904513Y-63491504D01*
X88898061Y-63492876D01*
X88898056Y-63492876D01*
X88833657Y-63506565D01*
X88717713Y-63531210D01*
X88711683Y-63533895D01*
X88711682Y-63533895D01*
X88549280Y-63606201D01*
X88549278Y-63606202D01*
X88543250Y-63608886D01*
X88537909Y-63612766D01*
X88537908Y-63612767D01*
X88394093Y-63717254D01*
X88394091Y-63717256D01*
X88388749Y-63721137D01*
X88384328Y-63726047D01*
X88384327Y-63726048D01*
X88334429Y-63781466D01*
X88260963Y-63863058D01*
X88165476Y-64028446D01*
X88106462Y-64210073D01*
X88086500Y-64400000D01*
X50508000Y-64400000D01*
X50508000Y-59500000D01*
X58336500Y-59500000D01*
X58356462Y-59689927D01*
X58415476Y-59871554D01*
X58510963Y-60036942D01*
X58638749Y-60178863D01*
X58644091Y-60182744D01*
X58644093Y-60182746D01*
X58764412Y-60270162D01*
X58793250Y-60291114D01*
X58799278Y-60293798D01*
X58799280Y-60293799D01*
X58961682Y-60366105D01*
X58967713Y-60368790D01*
X59054480Y-60387233D01*
X59148056Y-60407124D01*
X59148061Y-60407124D01*
X59154513Y-60408496D01*
X59345487Y-60408496D01*
X59351939Y-60407124D01*
X59351944Y-60407124D01*
X59445520Y-60387233D01*
X59532287Y-60368790D01*
X59538318Y-60366105D01*
X59700720Y-60293799D01*
X59700722Y-60293798D01*
X59706750Y-60291114D01*
X59735588Y-60270162D01*
X59855907Y-60182746D01*
X59855909Y-60182744D01*
X59861251Y-60178863D01*
X59989037Y-60036942D01*
X60084524Y-59871554D01*
X60143538Y-59689927D01*
X60163500Y-59500000D01*
X60152990Y-59400000D01*
X73686500Y-59400000D01*
X73706462Y-59589927D01*
X73765476Y-59771554D01*
X73860963Y-59936942D01*
X73988749Y-60078863D01*
X73994091Y-60082744D01*
X73994093Y-60082746D01*
X74119628Y-60173952D01*
X74143250Y-60191114D01*
X74149278Y-60193798D01*
X74149280Y-60193799D01*
X74311682Y-60266105D01*
X74317713Y-60268790D01*
X74404480Y-60287233D01*
X74498056Y-60307124D01*
X74498061Y-60307124D01*
X74504513Y-60308496D01*
X74695487Y-60308496D01*
X74701939Y-60307124D01*
X74701944Y-60307124D01*
X74795520Y-60287233D01*
X74882287Y-60268790D01*
X74888318Y-60266105D01*
X75050720Y-60193799D01*
X75050722Y-60193798D01*
X75056750Y-60191114D01*
X75080372Y-60173952D01*
X75205907Y-60082746D01*
X75205909Y-60082744D01*
X75211251Y-60078863D01*
X75339037Y-59936942D01*
X75434524Y-59771554D01*
X75490265Y-59600000D01*
X88286500Y-59600000D01*
X88306462Y-59789927D01*
X88365476Y-59971554D01*
X88460963Y-60136942D01*
X88465381Y-60141849D01*
X88465382Y-60141850D01*
X88584327Y-60273952D01*
X88588749Y-60278863D01*
X88594091Y-60282744D01*
X88594093Y-60282746D01*
X88714412Y-60370162D01*
X88743250Y-60391114D01*
X88749278Y-60393798D01*
X88749280Y-60393799D01*
X88911682Y-60466105D01*
X88917713Y-60468790D01*
X89011113Y-60488643D01*
X89098056Y-60507124D01*
X89098061Y-60507124D01*
X89104513Y-60508496D01*
X89295487Y-60508496D01*
X89301939Y-60507124D01*
X89301944Y-60507124D01*
X89388887Y-60488643D01*
X89482287Y-60468790D01*
X89488318Y-60466105D01*
X89650720Y-60393799D01*
X89650722Y-60393798D01*
X89656750Y-60391114D01*
X89685588Y-60370162D01*
X89805907Y-60282746D01*
X89805909Y-60282744D01*
X89811251Y-60278863D01*
X89815673Y-60273952D01*
X89934618Y-60141850D01*
X89934619Y-60141849D01*
X89939037Y-60136942D01*
X90034524Y-59971554D01*
X90093538Y-59789927D01*
X90113500Y-59600000D01*
X103286500Y-59600000D01*
X103306462Y-59789927D01*
X103365476Y-59971554D01*
X103460963Y-60136942D01*
X103465381Y-60141849D01*
X103465382Y-60141850D01*
X103584327Y-60273952D01*
X103588749Y-60278863D01*
X103594091Y-60282744D01*
X103594093Y-60282746D01*
X103714412Y-60370162D01*
X103743250Y-60391114D01*
X103749278Y-60393798D01*
X103749280Y-60393799D01*
X103911682Y-60466105D01*
X103917713Y-60468790D01*
X104011113Y-60488643D01*
X104098056Y-60507124D01*
X104098061Y-60507124D01*
X104104513Y-60508496D01*
X104295487Y-60508496D01*
X104301939Y-60507124D01*
X104301944Y-60507124D01*
X104388887Y-60488643D01*
X104482287Y-60468790D01*
X104488318Y-60466105D01*
X104650720Y-60393799D01*
X104650722Y-60393798D01*
X104656750Y-60391114D01*
X104685588Y-60370162D01*
X104805907Y-60282746D01*
X104805909Y-60282744D01*
X104811251Y-60278863D01*
X104815673Y-60273952D01*
X104934618Y-60141850D01*
X104934619Y-60141849D01*
X104939037Y-60136942D01*
X105034524Y-59971554D01*
X105093538Y-59789927D01*
X105113500Y-59600000D01*
X105102990Y-59500000D01*
X118686500Y-59500000D01*
X118706462Y-59689927D01*
X118765476Y-59871554D01*
X118860963Y-60036942D01*
X118988749Y-60178863D01*
X118994091Y-60182744D01*
X118994093Y-60182746D01*
X119114412Y-60270162D01*
X119143250Y-60291114D01*
X119149278Y-60293798D01*
X119149280Y-60293799D01*
X119311682Y-60366105D01*
X119317713Y-60368790D01*
X119404480Y-60387233D01*
X119498056Y-60407124D01*
X119498061Y-60407124D01*
X119504513Y-60408496D01*
X119695487Y-60408496D01*
X119701939Y-60407124D01*
X119701944Y-60407124D01*
X119795520Y-60387233D01*
X119882287Y-60368790D01*
X119888318Y-60366105D01*
X120050720Y-60293799D01*
X120050722Y-60293798D01*
X120056750Y-60291114D01*
X120085588Y-60270162D01*
X120205907Y-60182746D01*
X120205909Y-60182744D01*
X120211251Y-60178863D01*
X120339037Y-60036942D01*
X120434524Y-59871554D01*
X120493538Y-59689927D01*
X120513500Y-59500000D01*
X120493538Y-59310073D01*
X120434524Y-59128446D01*
X120339037Y-58963058D01*
X120211251Y-58821137D01*
X120205909Y-58817256D01*
X120205907Y-58817254D01*
X120062092Y-58712767D01*
X120062091Y-58712766D01*
X120056750Y-58708886D01*
X120050722Y-58706202D01*
X120050720Y-58706201D01*
X119888318Y-58633895D01*
X119888317Y-58633895D01*
X119882287Y-58631210D01*
X119777262Y-58608886D01*
X119701944Y-58592876D01*
X119701939Y-58592876D01*
X119695487Y-58591504D01*
X119504513Y-58591504D01*
X119498061Y-58592876D01*
X119498056Y-58592876D01*
X119422738Y-58608886D01*
X119317713Y-58631210D01*
X119311683Y-58633895D01*
X119311682Y-58633895D01*
X119149280Y-58706201D01*
X119149278Y-58706202D01*
X119143250Y-58708886D01*
X119137909Y-58712766D01*
X119137908Y-58712767D01*
X118994093Y-58817254D01*
X118994091Y-58817256D01*
X118988749Y-58821137D01*
X118860963Y-58963058D01*
X118765476Y-59128446D01*
X118706462Y-59310073D01*
X118686500Y-59500000D01*
X105102990Y-59500000D01*
X105093538Y-59410073D01*
X105034524Y-59228446D01*
X104939037Y-59063058D01*
X104811251Y-58921137D01*
X104805909Y-58917256D01*
X104805907Y-58917254D01*
X104662092Y-58812767D01*
X104662091Y-58812766D01*
X104656750Y-58808886D01*
X104650722Y-58806202D01*
X104650720Y-58806201D01*
X104488318Y-58733895D01*
X104488317Y-58733895D01*
X104482287Y-58731210D01*
X104377262Y-58708886D01*
X104301944Y-58692876D01*
X104301939Y-58692876D01*
X104295487Y-58691504D01*
X104104513Y-58691504D01*
X104098061Y-58692876D01*
X104098056Y-58692876D01*
X104022738Y-58708886D01*
X103917713Y-58731210D01*
X103911683Y-58733895D01*
X103911682Y-58733895D01*
X103749280Y-58806201D01*
X103749278Y-58806202D01*
X103743250Y-58808886D01*
X103737909Y-58812766D01*
X103737908Y-58812767D01*
X103594093Y-58917254D01*
X103594091Y-58917256D01*
X103588749Y-58921137D01*
X103460963Y-59063058D01*
X103365476Y-59228446D01*
X103306462Y-59410073D01*
X103286500Y-59600000D01*
X90113500Y-59600000D01*
X90093538Y-59410073D01*
X90034524Y-59228446D01*
X89939037Y-59063058D01*
X89811251Y-58921137D01*
X89805909Y-58917256D01*
X89805907Y-58917254D01*
X89662092Y-58812767D01*
X89662091Y-58812766D01*
X89656750Y-58808886D01*
X89650722Y-58806202D01*
X89650720Y-58806201D01*
X89488318Y-58733895D01*
X89488317Y-58733895D01*
X89482287Y-58731210D01*
X89377262Y-58708886D01*
X89301944Y-58692876D01*
X89301939Y-58692876D01*
X89295487Y-58691504D01*
X89104513Y-58691504D01*
X89098061Y-58692876D01*
X89098056Y-58692876D01*
X89022738Y-58708886D01*
X88917713Y-58731210D01*
X88911683Y-58733895D01*
X88911682Y-58733895D01*
X88749280Y-58806201D01*
X88749278Y-58806202D01*
X88743250Y-58808886D01*
X88737909Y-58812766D01*
X88737908Y-58812767D01*
X88594093Y-58917254D01*
X88594091Y-58917256D01*
X88588749Y-58921137D01*
X88460963Y-59063058D01*
X88365476Y-59228446D01*
X88306462Y-59410073D01*
X88286500Y-59600000D01*
X75490265Y-59600000D01*
X75493538Y-59589927D01*
X75513500Y-59400000D01*
X75493538Y-59210073D01*
X75434524Y-59028446D01*
X75339037Y-58863058D01*
X75290261Y-58808886D01*
X75215673Y-58726048D01*
X75215672Y-58726047D01*
X75211251Y-58721137D01*
X75205909Y-58717256D01*
X75205907Y-58717254D01*
X75062092Y-58612767D01*
X75062091Y-58612766D01*
X75056750Y-58608886D01*
X75050722Y-58606202D01*
X75050720Y-58606201D01*
X74888318Y-58533895D01*
X74888317Y-58533895D01*
X74882287Y-58531210D01*
X74788887Y-58511357D01*
X74701944Y-58492876D01*
X74701939Y-58492876D01*
X74695487Y-58491504D01*
X74504513Y-58491504D01*
X74498061Y-58492876D01*
X74498056Y-58492876D01*
X74411113Y-58511357D01*
X74317713Y-58531210D01*
X74311683Y-58533895D01*
X74311682Y-58533895D01*
X74149280Y-58606201D01*
X74149278Y-58606202D01*
X74143250Y-58608886D01*
X74137909Y-58612766D01*
X74137908Y-58612767D01*
X73994093Y-58717254D01*
X73994091Y-58717256D01*
X73988749Y-58721137D01*
X73984328Y-58726047D01*
X73984327Y-58726048D01*
X73909740Y-58808886D01*
X73860963Y-58863058D01*
X73765476Y-59028446D01*
X73706462Y-59210073D01*
X73686500Y-59400000D01*
X60152990Y-59400000D01*
X60143538Y-59310073D01*
X60084524Y-59128446D01*
X59989037Y-58963058D01*
X59861251Y-58821137D01*
X59855909Y-58817256D01*
X59855907Y-58817254D01*
X59712092Y-58712767D01*
X59712091Y-58712766D01*
X59706750Y-58708886D01*
X59700722Y-58706202D01*
X59700720Y-58706201D01*
X59538318Y-58633895D01*
X59538317Y-58633895D01*
X59532287Y-58631210D01*
X59427262Y-58608886D01*
X59351944Y-58592876D01*
X59351939Y-58592876D01*
X59345487Y-58591504D01*
X59154513Y-58591504D01*
X59148061Y-58592876D01*
X59148056Y-58592876D01*
X59072738Y-58608886D01*
X58967713Y-58631210D01*
X58961683Y-58633895D01*
X58961682Y-58633895D01*
X58799280Y-58706201D01*
X58799278Y-58706202D01*
X58793250Y-58708886D01*
X58787909Y-58712766D01*
X58787908Y-58712767D01*
X58644093Y-58817254D01*
X58644091Y-58817256D01*
X58638749Y-58821137D01*
X58510963Y-58963058D01*
X58415476Y-59128446D01*
X58356462Y-59310073D01*
X58336500Y-59500000D01*
X50508000Y-59500000D01*
X50508000Y-57600000D01*
X54086500Y-57600000D01*
X54106462Y-57789927D01*
X54165476Y-57971554D01*
X54260963Y-58136942D01*
X54388749Y-58278863D01*
X54394091Y-58282744D01*
X54394093Y-58282746D01*
X54537908Y-58387233D01*
X54543250Y-58391114D01*
X54549278Y-58393798D01*
X54549280Y-58393799D01*
X54711682Y-58466105D01*
X54717713Y-58468790D01*
X54811113Y-58488643D01*
X54898056Y-58507124D01*
X54898061Y-58507124D01*
X54904513Y-58508496D01*
X55095487Y-58508496D01*
X55101939Y-58507124D01*
X55101944Y-58507124D01*
X55188887Y-58488643D01*
X55282287Y-58468790D01*
X55288318Y-58466105D01*
X55450720Y-58393799D01*
X55450722Y-58393798D01*
X55456750Y-58391114D01*
X55462092Y-58387233D01*
X55605907Y-58282746D01*
X55605909Y-58282744D01*
X55611251Y-58278863D01*
X55739037Y-58136942D01*
X55834524Y-57971554D01*
X55893538Y-57789927D01*
X55913500Y-57600000D01*
X61486500Y-57600000D01*
X61506462Y-57789927D01*
X61565476Y-57971554D01*
X61660963Y-58136942D01*
X61788749Y-58278863D01*
X61794091Y-58282744D01*
X61794093Y-58282746D01*
X61937908Y-58387233D01*
X61943250Y-58391114D01*
X61949278Y-58393798D01*
X61949280Y-58393799D01*
X62111682Y-58466105D01*
X62117713Y-58468790D01*
X62211113Y-58488643D01*
X62298056Y-58507124D01*
X62298061Y-58507124D01*
X62304513Y-58508496D01*
X62495487Y-58508496D01*
X62501939Y-58507124D01*
X62501944Y-58507124D01*
X62588887Y-58488643D01*
X62682287Y-58468790D01*
X62688318Y-58466105D01*
X62850720Y-58393799D01*
X62850722Y-58393798D01*
X62856750Y-58391114D01*
X62862092Y-58387233D01*
X63005907Y-58282746D01*
X63005909Y-58282744D01*
X63011251Y-58278863D01*
X63139037Y-58136942D01*
X63234524Y-57971554D01*
X63293538Y-57789927D01*
X63313500Y-57600000D01*
X69886500Y-57600000D01*
X69906462Y-57789927D01*
X69965476Y-57971554D01*
X70060963Y-58136942D01*
X70188749Y-58278863D01*
X70194091Y-58282744D01*
X70194093Y-58282746D01*
X70337908Y-58387233D01*
X70343250Y-58391114D01*
X70349278Y-58393798D01*
X70349280Y-58393799D01*
X70511682Y-58466105D01*
X70517713Y-58468790D01*
X70611113Y-58488643D01*
X70698056Y-58507124D01*
X70698061Y-58507124D01*
X70704513Y-58508496D01*
X70895487Y-58508496D01*
X70901939Y-58507124D01*
X70901944Y-58507124D01*
X70988887Y-58488643D01*
X71082287Y-58468790D01*
X71088318Y-58466105D01*
X71250720Y-58393799D01*
X71250722Y-58393798D01*
X71256750Y-58391114D01*
X71262092Y-58387233D01*
X71405907Y-58282746D01*
X71405909Y-58282744D01*
X71411251Y-58278863D01*
X71539037Y-58136942D01*
X71634524Y-57971554D01*
X71693538Y-57789927D01*
X71713500Y-57600000D01*
X77086500Y-57600000D01*
X77106462Y-57789927D01*
X77165476Y-57971554D01*
X77260963Y-58136942D01*
X77388749Y-58278863D01*
X77394091Y-58282744D01*
X77394093Y-58282746D01*
X77537908Y-58387233D01*
X77543250Y-58391114D01*
X77549278Y-58393798D01*
X77549280Y-58393799D01*
X77711682Y-58466105D01*
X77717713Y-58468790D01*
X77811113Y-58488643D01*
X77898056Y-58507124D01*
X77898061Y-58507124D01*
X77904513Y-58508496D01*
X78095487Y-58508496D01*
X78101939Y-58507124D01*
X78101944Y-58507124D01*
X78188887Y-58488643D01*
X78282287Y-58468790D01*
X78288318Y-58466105D01*
X78450720Y-58393799D01*
X78450722Y-58393798D01*
X78456750Y-58391114D01*
X78462092Y-58387233D01*
X78605907Y-58282746D01*
X78605909Y-58282744D01*
X78611251Y-58278863D01*
X78739037Y-58136942D01*
X78834524Y-57971554D01*
X78893538Y-57789927D01*
X78913500Y-57600000D01*
X84486500Y-57600000D01*
X84506462Y-57789927D01*
X84565476Y-57971554D01*
X84660963Y-58136942D01*
X84788749Y-58278863D01*
X84794091Y-58282744D01*
X84794093Y-58282746D01*
X84937908Y-58387233D01*
X84943250Y-58391114D01*
X84949278Y-58393798D01*
X84949280Y-58393799D01*
X85111682Y-58466105D01*
X85117713Y-58468790D01*
X85211113Y-58488643D01*
X85298056Y-58507124D01*
X85298061Y-58507124D01*
X85304513Y-58508496D01*
X85495487Y-58508496D01*
X85501939Y-58507124D01*
X85501944Y-58507124D01*
X85588887Y-58488643D01*
X85682287Y-58468790D01*
X85688318Y-58466105D01*
X85850720Y-58393799D01*
X85850722Y-58393798D01*
X85856750Y-58391114D01*
X85862092Y-58387233D01*
X86005907Y-58282746D01*
X86005909Y-58282744D01*
X86011251Y-58278863D01*
X86139037Y-58136942D01*
X86234524Y-57971554D01*
X86293538Y-57789927D01*
X86313500Y-57600000D01*
X91686500Y-57600000D01*
X91706462Y-57789927D01*
X91765476Y-57971554D01*
X91860963Y-58136942D01*
X91988749Y-58278863D01*
X91994091Y-58282744D01*
X91994093Y-58282746D01*
X92137908Y-58387233D01*
X92143250Y-58391114D01*
X92149278Y-58393798D01*
X92149280Y-58393799D01*
X92311682Y-58466105D01*
X92317713Y-58468790D01*
X92411113Y-58488643D01*
X92498056Y-58507124D01*
X92498061Y-58507124D01*
X92504513Y-58508496D01*
X92695487Y-58508496D01*
X92701939Y-58507124D01*
X92701944Y-58507124D01*
X92788887Y-58488643D01*
X92882287Y-58468790D01*
X92888318Y-58466105D01*
X93050720Y-58393799D01*
X93050722Y-58393798D01*
X93056750Y-58391114D01*
X93062092Y-58387233D01*
X93205907Y-58282746D01*
X93205909Y-58282744D01*
X93211251Y-58278863D01*
X93339037Y-58136942D01*
X93434524Y-57971554D01*
X93493538Y-57789927D01*
X93513500Y-57600000D01*
X97886500Y-57600000D01*
X97906462Y-57789927D01*
X97965476Y-57971554D01*
X98060963Y-58136942D01*
X98188749Y-58278863D01*
X98194091Y-58282744D01*
X98194093Y-58282746D01*
X98337908Y-58387233D01*
X98343250Y-58391114D01*
X98349278Y-58393798D01*
X98349280Y-58393799D01*
X98511682Y-58466105D01*
X98517713Y-58468790D01*
X98611113Y-58488643D01*
X98698056Y-58507124D01*
X98698061Y-58507124D01*
X98704513Y-58508496D01*
X98895487Y-58508496D01*
X98901939Y-58507124D01*
X98901944Y-58507124D01*
X98988887Y-58488643D01*
X99082287Y-58468790D01*
X99088318Y-58466105D01*
X99250720Y-58393799D01*
X99250722Y-58393798D01*
X99256750Y-58391114D01*
X99262092Y-58387233D01*
X99405907Y-58282746D01*
X99405909Y-58282744D01*
X99411251Y-58278863D01*
X99539037Y-58136942D01*
X99634524Y-57971554D01*
X99693538Y-57789927D01*
X99713500Y-57600000D01*
X106886500Y-57600000D01*
X106906462Y-57789927D01*
X106965476Y-57971554D01*
X107060963Y-58136942D01*
X107188749Y-58278863D01*
X107194091Y-58282744D01*
X107194093Y-58282746D01*
X107337908Y-58387233D01*
X107343250Y-58391114D01*
X107349278Y-58393798D01*
X107349280Y-58393799D01*
X107511682Y-58466105D01*
X107517713Y-58468790D01*
X107611113Y-58488643D01*
X107698056Y-58507124D01*
X107698061Y-58507124D01*
X107704513Y-58508496D01*
X107895487Y-58508496D01*
X107901939Y-58507124D01*
X107901944Y-58507124D01*
X107988887Y-58488643D01*
X108082287Y-58468790D01*
X108088318Y-58466105D01*
X108250720Y-58393799D01*
X108250722Y-58393798D01*
X108256750Y-58391114D01*
X108262092Y-58387233D01*
X108405907Y-58282746D01*
X108405909Y-58282744D01*
X108411251Y-58278863D01*
X108539037Y-58136942D01*
X108634524Y-57971554D01*
X108693538Y-57789927D01*
X108713500Y-57600000D01*
X112886500Y-57600000D01*
X112906462Y-57789927D01*
X112965476Y-57971554D01*
X113060963Y-58136942D01*
X113188749Y-58278863D01*
X113194091Y-58282744D01*
X113194093Y-58282746D01*
X113337908Y-58387233D01*
X113343250Y-58391114D01*
X113349278Y-58393798D01*
X113349280Y-58393799D01*
X113511682Y-58466105D01*
X113517713Y-58468790D01*
X113611113Y-58488643D01*
X113698056Y-58507124D01*
X113698061Y-58507124D01*
X113704513Y-58508496D01*
X113895487Y-58508496D01*
X113901939Y-58507124D01*
X113901944Y-58507124D01*
X113988887Y-58488643D01*
X114082287Y-58468790D01*
X114088318Y-58466105D01*
X114250720Y-58393799D01*
X114250722Y-58393798D01*
X114256750Y-58391114D01*
X114262092Y-58387233D01*
X114405907Y-58282746D01*
X114405909Y-58282744D01*
X114411251Y-58278863D01*
X114539037Y-58136942D01*
X114634524Y-57971554D01*
X114693538Y-57789927D01*
X114713500Y-57600000D01*
X122086500Y-57600000D01*
X122106462Y-57789927D01*
X122165476Y-57971554D01*
X122260963Y-58136942D01*
X122388749Y-58278863D01*
X122394091Y-58282744D01*
X122394093Y-58282746D01*
X122537908Y-58387233D01*
X122543250Y-58391114D01*
X122549278Y-58393798D01*
X122549280Y-58393799D01*
X122711682Y-58466105D01*
X122717713Y-58468790D01*
X122811113Y-58488643D01*
X122898056Y-58507124D01*
X122898061Y-58507124D01*
X122904513Y-58508496D01*
X123095487Y-58508496D01*
X123101939Y-58507124D01*
X123101944Y-58507124D01*
X123188887Y-58488643D01*
X123282287Y-58468790D01*
X123288318Y-58466105D01*
X123450720Y-58393799D01*
X123450722Y-58393798D01*
X123456750Y-58391114D01*
X123462092Y-58387233D01*
X123605907Y-58282746D01*
X123605909Y-58282744D01*
X123611251Y-58278863D01*
X123739037Y-58136942D01*
X123834524Y-57971554D01*
X123893538Y-57789927D01*
X123913500Y-57600000D01*
X123893538Y-57410073D01*
X123834524Y-57228446D01*
X123739037Y-57063058D01*
X123611251Y-56921137D01*
X123605909Y-56917256D01*
X123605907Y-56917254D01*
X123462092Y-56812767D01*
X123462091Y-56812766D01*
X123456750Y-56808886D01*
X123450722Y-56806202D01*
X123450720Y-56806201D01*
X123288318Y-56733895D01*
X123288317Y-56733895D01*
X123282287Y-56731210D01*
X123188887Y-56711357D01*
X123101944Y-56692876D01*
X123101939Y-56692876D01*
X123095487Y-56691504D01*
X122904513Y-56691504D01*
X122898061Y-56692876D01*
X122898056Y-56692876D01*
X122811113Y-56711357D01*
X122717713Y-56731210D01*
X122711683Y-56733895D01*
X122711682Y-56733895D01*
X122549280Y-56806201D01*
X122549278Y-56806202D01*
X122543250Y-56808886D01*
X122537909Y-56812766D01*
X122537908Y-56812767D01*
X122394093Y-56917254D01*
X122394091Y-56917256D01*
X122388749Y-56921137D01*
X122260963Y-57063058D01*
X122165476Y-57228446D01*
X122106462Y-57410073D01*
X122086500Y-57600000D01*
X114713500Y-57600000D01*
X114693538Y-57410073D01*
X114634524Y-57228446D01*
X114539037Y-57063058D01*
X114411251Y-56921137D01*
X114405909Y-56917256D01*
X114405907Y-56917254D01*
X114262092Y-56812767D01*
X114262091Y-56812766D01*
X114256750Y-56808886D01*
X114250722Y-56806202D01*
X114250720Y-56806201D01*
X114088318Y-56733895D01*
X114088317Y-56733895D01*
X114082287Y-56731210D01*
X113988887Y-56711357D01*
X113901944Y-56692876D01*
X113901939Y-56692876D01*
X113895487Y-56691504D01*
X113704513Y-56691504D01*
X113698061Y-56692876D01*
X113698056Y-56692876D01*
X113611113Y-56711357D01*
X113517713Y-56731210D01*
X113511683Y-56733895D01*
X113511682Y-56733895D01*
X113349280Y-56806201D01*
X113349278Y-56806202D01*
X113343250Y-56808886D01*
X113337909Y-56812766D01*
X113337908Y-56812767D01*
X113194093Y-56917254D01*
X113194091Y-56917256D01*
X113188749Y-56921137D01*
X113060963Y-57063058D01*
X112965476Y-57228446D01*
X112906462Y-57410073D01*
X112886500Y-57600000D01*
X108713500Y-57600000D01*
X108693538Y-57410073D01*
X108634524Y-57228446D01*
X108539037Y-57063058D01*
X108411251Y-56921137D01*
X108405909Y-56917256D01*
X108405907Y-56917254D01*
X108262092Y-56812767D01*
X108262091Y-56812766D01*
X108256750Y-56808886D01*
X108250722Y-56806202D01*
X108250720Y-56806201D01*
X108088318Y-56733895D01*
X108088317Y-56733895D01*
X108082287Y-56731210D01*
X107988887Y-56711357D01*
X107901944Y-56692876D01*
X107901939Y-56692876D01*
X107895487Y-56691504D01*
X107704513Y-56691504D01*
X107698061Y-56692876D01*
X107698056Y-56692876D01*
X107611113Y-56711357D01*
X107517713Y-56731210D01*
X107511683Y-56733895D01*
X107511682Y-56733895D01*
X107349280Y-56806201D01*
X107349278Y-56806202D01*
X107343250Y-56808886D01*
X107337909Y-56812766D01*
X107337908Y-56812767D01*
X107194093Y-56917254D01*
X107194091Y-56917256D01*
X107188749Y-56921137D01*
X107060963Y-57063058D01*
X106965476Y-57228446D01*
X106906462Y-57410073D01*
X106886500Y-57600000D01*
X99713500Y-57600000D01*
X99693538Y-57410073D01*
X99634524Y-57228446D01*
X99539037Y-57063058D01*
X99411251Y-56921137D01*
X99405909Y-56917256D01*
X99405907Y-56917254D01*
X99262092Y-56812767D01*
X99262091Y-56812766D01*
X99256750Y-56808886D01*
X99250722Y-56806202D01*
X99250720Y-56806201D01*
X99088318Y-56733895D01*
X99088317Y-56733895D01*
X99082287Y-56731210D01*
X98988887Y-56711357D01*
X98901944Y-56692876D01*
X98901939Y-56692876D01*
X98895487Y-56691504D01*
X98704513Y-56691504D01*
X98698061Y-56692876D01*
X98698056Y-56692876D01*
X98611113Y-56711357D01*
X98517713Y-56731210D01*
X98511683Y-56733895D01*
X98511682Y-56733895D01*
X98349280Y-56806201D01*
X98349278Y-56806202D01*
X98343250Y-56808886D01*
X98337909Y-56812766D01*
X98337908Y-56812767D01*
X98194093Y-56917254D01*
X98194091Y-56917256D01*
X98188749Y-56921137D01*
X98060963Y-57063058D01*
X97965476Y-57228446D01*
X97906462Y-57410073D01*
X97886500Y-57600000D01*
X93513500Y-57600000D01*
X93493538Y-57410073D01*
X93434524Y-57228446D01*
X93339037Y-57063058D01*
X93211251Y-56921137D01*
X93205909Y-56917256D01*
X93205907Y-56917254D01*
X93062092Y-56812767D01*
X93062091Y-56812766D01*
X93056750Y-56808886D01*
X93050722Y-56806202D01*
X93050720Y-56806201D01*
X92888318Y-56733895D01*
X92888317Y-56733895D01*
X92882287Y-56731210D01*
X92788887Y-56711357D01*
X92701944Y-56692876D01*
X92701939Y-56692876D01*
X92695487Y-56691504D01*
X92504513Y-56691504D01*
X92498061Y-56692876D01*
X92498056Y-56692876D01*
X92411113Y-56711357D01*
X92317713Y-56731210D01*
X92311683Y-56733895D01*
X92311682Y-56733895D01*
X92149280Y-56806201D01*
X92149278Y-56806202D01*
X92143250Y-56808886D01*
X92137909Y-56812766D01*
X92137908Y-56812767D01*
X91994093Y-56917254D01*
X91994091Y-56917256D01*
X91988749Y-56921137D01*
X91860963Y-57063058D01*
X91765476Y-57228446D01*
X91706462Y-57410073D01*
X91686500Y-57600000D01*
X86313500Y-57600000D01*
X86293538Y-57410073D01*
X86234524Y-57228446D01*
X86139037Y-57063058D01*
X86011251Y-56921137D01*
X86005909Y-56917256D01*
X86005907Y-56917254D01*
X85862092Y-56812767D01*
X85862091Y-56812766D01*
X85856750Y-56808886D01*
X85850722Y-56806202D01*
X85850720Y-56806201D01*
X85688318Y-56733895D01*
X85688317Y-56733895D01*
X85682287Y-56731210D01*
X85588887Y-56711357D01*
X85501944Y-56692876D01*
X85501939Y-56692876D01*
X85495487Y-56691504D01*
X85304513Y-56691504D01*
X85298061Y-56692876D01*
X85298056Y-56692876D01*
X85211113Y-56711357D01*
X85117713Y-56731210D01*
X85111683Y-56733895D01*
X85111682Y-56733895D01*
X84949280Y-56806201D01*
X84949278Y-56806202D01*
X84943250Y-56808886D01*
X84937909Y-56812766D01*
X84937908Y-56812767D01*
X84794093Y-56917254D01*
X84794091Y-56917256D01*
X84788749Y-56921137D01*
X84660963Y-57063058D01*
X84565476Y-57228446D01*
X84506462Y-57410073D01*
X84486500Y-57600000D01*
X78913500Y-57600000D01*
X78893538Y-57410073D01*
X78834524Y-57228446D01*
X78739037Y-57063058D01*
X78611251Y-56921137D01*
X78605909Y-56917256D01*
X78605907Y-56917254D01*
X78462092Y-56812767D01*
X78462091Y-56812766D01*
X78456750Y-56808886D01*
X78450722Y-56806202D01*
X78450720Y-56806201D01*
X78288318Y-56733895D01*
X78288317Y-56733895D01*
X78282287Y-56731210D01*
X78188887Y-56711357D01*
X78101944Y-56692876D01*
X78101939Y-56692876D01*
X78095487Y-56691504D01*
X77904513Y-56691504D01*
X77898061Y-56692876D01*
X77898056Y-56692876D01*
X77811113Y-56711357D01*
X77717713Y-56731210D01*
X77711683Y-56733895D01*
X77711682Y-56733895D01*
X77549280Y-56806201D01*
X77549278Y-56806202D01*
X77543250Y-56808886D01*
X77537909Y-56812766D01*
X77537908Y-56812767D01*
X77394093Y-56917254D01*
X77394091Y-56917256D01*
X77388749Y-56921137D01*
X77260963Y-57063058D01*
X77165476Y-57228446D01*
X77106462Y-57410073D01*
X77086500Y-57600000D01*
X71713500Y-57600000D01*
X71693538Y-57410073D01*
X71634524Y-57228446D01*
X71539037Y-57063058D01*
X71411251Y-56921137D01*
X71405909Y-56917256D01*
X71405907Y-56917254D01*
X71262092Y-56812767D01*
X71262091Y-56812766D01*
X71256750Y-56808886D01*
X71250722Y-56806202D01*
X71250720Y-56806201D01*
X71088318Y-56733895D01*
X71088317Y-56733895D01*
X71082287Y-56731210D01*
X70988887Y-56711357D01*
X70901944Y-56692876D01*
X70901939Y-56692876D01*
X70895487Y-56691504D01*
X70704513Y-56691504D01*
X70698061Y-56692876D01*
X70698056Y-56692876D01*
X70611113Y-56711357D01*
X70517713Y-56731210D01*
X70511683Y-56733895D01*
X70511682Y-56733895D01*
X70349280Y-56806201D01*
X70349278Y-56806202D01*
X70343250Y-56808886D01*
X70337909Y-56812766D01*
X70337908Y-56812767D01*
X70194093Y-56917254D01*
X70194091Y-56917256D01*
X70188749Y-56921137D01*
X70060963Y-57063058D01*
X69965476Y-57228446D01*
X69906462Y-57410073D01*
X69886500Y-57600000D01*
X63313500Y-57600000D01*
X63293538Y-57410073D01*
X63234524Y-57228446D01*
X63139037Y-57063058D01*
X63011251Y-56921137D01*
X63005909Y-56917256D01*
X63005907Y-56917254D01*
X62862092Y-56812767D01*
X62862091Y-56812766D01*
X62856750Y-56808886D01*
X62850722Y-56806202D01*
X62850720Y-56806201D01*
X62688318Y-56733895D01*
X62688317Y-56733895D01*
X62682287Y-56731210D01*
X62588887Y-56711357D01*
X62501944Y-56692876D01*
X62501939Y-56692876D01*
X62495487Y-56691504D01*
X62304513Y-56691504D01*
X62298061Y-56692876D01*
X62298056Y-56692876D01*
X62211113Y-56711357D01*
X62117713Y-56731210D01*
X62111683Y-56733895D01*
X62111682Y-56733895D01*
X61949280Y-56806201D01*
X61949278Y-56806202D01*
X61943250Y-56808886D01*
X61937909Y-56812766D01*
X61937908Y-56812767D01*
X61794093Y-56917254D01*
X61794091Y-56917256D01*
X61788749Y-56921137D01*
X61660963Y-57063058D01*
X61565476Y-57228446D01*
X61506462Y-57410073D01*
X61486500Y-57600000D01*
X55913500Y-57600000D01*
X55893538Y-57410073D01*
X55834524Y-57228446D01*
X55739037Y-57063058D01*
X55611251Y-56921137D01*
X55605909Y-56917256D01*
X55605907Y-56917254D01*
X55462092Y-56812767D01*
X55462091Y-56812766D01*
X55456750Y-56808886D01*
X55450722Y-56806202D01*
X55450720Y-56806201D01*
X55288318Y-56733895D01*
X55288317Y-56733895D01*
X55282287Y-56731210D01*
X55188887Y-56711357D01*
X55101944Y-56692876D01*
X55101939Y-56692876D01*
X55095487Y-56691504D01*
X54904513Y-56691504D01*
X54898061Y-56692876D01*
X54898056Y-56692876D01*
X54811113Y-56711357D01*
X54717713Y-56731210D01*
X54711683Y-56733895D01*
X54711682Y-56733895D01*
X54549280Y-56806201D01*
X54549278Y-56806202D01*
X54543250Y-56808886D01*
X54537909Y-56812766D01*
X54537908Y-56812767D01*
X54394093Y-56917254D01*
X54394091Y-56917256D01*
X54388749Y-56921137D01*
X54260963Y-57063058D01*
X54165476Y-57228446D01*
X54106462Y-57410073D01*
X54086500Y-57600000D01*
X50508000Y-57600000D01*
X50508000Y-55700000D01*
X147786500Y-55700000D01*
X147787190Y-55706565D01*
X147792154Y-55753790D01*
X147806462Y-55889927D01*
X147808502Y-55896205D01*
X147808502Y-55896206D01*
X147813747Y-55912349D01*
X147865476Y-56071554D01*
X147960963Y-56236942D01*
X148088749Y-56378863D01*
X148094091Y-56382744D01*
X148094093Y-56382746D01*
X148237908Y-56487233D01*
X148243250Y-56491114D01*
X148249278Y-56493798D01*
X148249280Y-56493799D01*
X148411682Y-56566105D01*
X148417713Y-56568790D01*
X148511113Y-56588643D01*
X148598056Y-56607124D01*
X148598061Y-56607124D01*
X148604513Y-56608496D01*
X148795487Y-56608496D01*
X148801939Y-56607124D01*
X148801944Y-56607124D01*
X148888887Y-56588643D01*
X148982287Y-56568790D01*
X148988318Y-56566105D01*
X149150720Y-56493799D01*
X149150722Y-56493798D01*
X149156750Y-56491114D01*
X149162092Y-56487233D01*
X149305907Y-56382746D01*
X149305909Y-56382744D01*
X149311251Y-56378863D01*
X149439037Y-56236942D01*
X149534524Y-56071554D01*
X149586253Y-55912349D01*
X149591498Y-55896206D01*
X149591498Y-55896205D01*
X149593538Y-55889927D01*
X149607847Y-55753790D01*
X149612810Y-55706565D01*
X149613500Y-55700000D01*
X149600114Y-55572639D01*
X149594228Y-55516637D01*
X149594228Y-55516636D01*
X149593538Y-55510073D01*
X149534524Y-55328446D01*
X149439037Y-55163058D01*
X149311251Y-55021137D01*
X149305909Y-55017256D01*
X149305907Y-55017254D01*
X149162092Y-54912767D01*
X149162091Y-54912766D01*
X149156750Y-54908886D01*
X149150722Y-54906202D01*
X149150720Y-54906201D01*
X148988318Y-54833895D01*
X148988317Y-54833895D01*
X148982287Y-54831210D01*
X148888887Y-54811357D01*
X148801944Y-54792876D01*
X148801939Y-54792876D01*
X148795487Y-54791504D01*
X148604513Y-54791504D01*
X148598061Y-54792876D01*
X148598056Y-54792876D01*
X148511113Y-54811357D01*
X148417713Y-54831210D01*
X148411683Y-54833895D01*
X148411682Y-54833895D01*
X148249280Y-54906201D01*
X148249278Y-54906202D01*
X148243250Y-54908886D01*
X148237909Y-54912766D01*
X148237908Y-54912767D01*
X148094093Y-55017254D01*
X148094091Y-55017256D01*
X148088749Y-55021137D01*
X147960963Y-55163058D01*
X147865476Y-55328446D01*
X147806462Y-55510073D01*
X147805772Y-55516636D01*
X147805772Y-55516637D01*
X147799886Y-55572639D01*
X147786500Y-55700000D01*
X50508000Y-55700000D01*
X50508000Y-54605982D01*
X157090479Y-54605982D01*
X157091328Y-54611252D01*
X157091328Y-54611254D01*
X157120582Y-54792876D01*
X157128487Y-54841957D01*
X157130212Y-54847009D01*
X157130212Y-54847010D01*
X157189660Y-55021137D01*
X157205711Y-55068153D01*
X157319943Y-55278105D01*
X157467916Y-55465807D01*
X157645399Y-55625895D01*
X157847318Y-55753790D01*
X157941161Y-55792949D01*
X158034707Y-55831984D01*
X158067900Y-55845835D01*
X158171402Y-55869635D01*
X158295629Y-55898201D01*
X158295633Y-55898202D01*
X158300836Y-55899398D01*
X158306169Y-55899701D01*
X158306170Y-55899701D01*
X158420151Y-55906173D01*
X158539467Y-55912949D01*
X158544774Y-55912349D01*
X158544776Y-55912349D01*
X158687568Y-55896206D01*
X158776970Y-55886099D01*
X158782085Y-55884618D01*
X158782089Y-55884617D01*
X159001430Y-55821100D01*
X159001435Y-55821098D01*
X159006553Y-55819616D01*
X159221652Y-55715401D01*
X159376602Y-55604672D01*
X159411771Y-55579540D01*
X159411773Y-55579538D01*
X159416117Y-55576434D01*
X159455619Y-55536586D01*
X159517782Y-55502289D01*
X159588619Y-55507045D01*
X159645640Y-55549344D01*
X159665997Y-55589793D01*
X159672904Y-55613316D01*
X159680988Y-55625895D01*
X159747051Y-55728691D01*
X159747053Y-55728694D01*
X159751923Y-55736271D01*
X159758733Y-55742172D01*
X159855569Y-55826082D01*
X159855572Y-55826084D01*
X159862381Y-55831984D01*
X159870579Y-55835728D01*
X159982188Y-55886698D01*
X159995330Y-55892700D01*
X160004245Y-55893982D01*
X160004246Y-55893982D01*
X160135552Y-55912861D01*
X160135559Y-55912862D01*
X160140000Y-55913500D01*
X161940000Y-55913500D01*
X162013079Y-55908273D01*
X162097915Y-55883363D01*
X162144670Y-55869635D01*
X162144672Y-55869634D01*
X162153316Y-55867096D01*
X162230817Y-55817289D01*
X162268691Y-55792949D01*
X162268694Y-55792947D01*
X162276271Y-55788077D01*
X162305981Y-55753790D01*
X162366082Y-55684431D01*
X162366084Y-55684428D01*
X162371984Y-55677619D01*
X162432700Y-55544670D01*
X162433982Y-55535754D01*
X162452861Y-55404448D01*
X162452862Y-55404441D01*
X162453500Y-55400000D01*
X162453500Y-53600000D01*
X162448273Y-53526921D01*
X162407096Y-53386684D01*
X162361393Y-53315569D01*
X162332949Y-53271309D01*
X162332947Y-53271306D01*
X162328077Y-53263729D01*
X162296861Y-53236680D01*
X162224431Y-53173918D01*
X162224428Y-53173916D01*
X162217619Y-53168016D01*
X162135175Y-53130365D01*
X162092864Y-53111042D01*
X162092863Y-53111042D01*
X162084670Y-53107300D01*
X162075755Y-53106018D01*
X162075754Y-53106018D01*
X161944448Y-53087139D01*
X161944441Y-53087138D01*
X161940000Y-53086500D01*
X160140000Y-53086500D01*
X160066921Y-53091727D01*
X160013884Y-53107300D01*
X159935330Y-53130365D01*
X159935328Y-53130366D01*
X159926684Y-53132904D01*
X159919105Y-53137775D01*
X159811309Y-53207051D01*
X159811306Y-53207053D01*
X159803729Y-53211923D01*
X159797828Y-53218733D01*
X159713918Y-53315569D01*
X159713916Y-53315572D01*
X159708016Y-53322381D01*
X159668689Y-53408496D01*
X159660725Y-53425934D01*
X159614232Y-53479590D01*
X159546111Y-53499592D01*
X159477990Y-53479590D01*
X159454941Y-53460563D01*
X159440298Y-53445213D01*
X159440293Y-53445208D01*
X159436613Y-53441351D01*
X159374759Y-53395330D01*
X159249134Y-53301863D01*
X159244852Y-53298677D01*
X159240101Y-53296261D01*
X159240097Y-53296259D01*
X159036549Y-53192770D01*
X159036548Y-53192770D01*
X159031793Y-53190352D01*
X158803528Y-53119474D01*
X158739911Y-53111042D01*
X158571868Y-53088769D01*
X158571865Y-53088769D01*
X158566585Y-53088069D01*
X158561256Y-53088269D01*
X158561255Y-53088269D01*
X158481988Y-53091245D01*
X158327738Y-53097036D01*
X158260986Y-53111042D01*
X158099043Y-53145021D01*
X158099040Y-53145022D01*
X158093816Y-53146118D01*
X157871508Y-53233911D01*
X157866944Y-53236680D01*
X157866945Y-53236680D01*
X157671732Y-53355138D01*
X157671729Y-53355140D01*
X157667171Y-53357906D01*
X157486647Y-53514557D01*
X157483264Y-53518683D01*
X157483259Y-53518688D01*
X157404866Y-53614296D01*
X157335098Y-53699385D01*
X157216857Y-53907104D01*
X157135304Y-54131777D01*
X157092773Y-54366978D01*
X157090479Y-54605982D01*
X50508000Y-54605982D01*
X50508000Y-53200000D01*
X58686500Y-53200000D01*
X58687190Y-53206565D01*
X58705325Y-53379105D01*
X58706462Y-53389927D01*
X58708502Y-53396205D01*
X58708502Y-53396206D01*
X58712495Y-53408496D01*
X58765476Y-53571554D01*
X58860963Y-53736942D01*
X58988749Y-53878863D01*
X58994091Y-53882744D01*
X58994093Y-53882746D01*
X59114412Y-53970162D01*
X59143250Y-53991114D01*
X59149278Y-53993798D01*
X59149280Y-53993799D01*
X59311682Y-54066105D01*
X59317713Y-54068790D01*
X59411113Y-54088643D01*
X59498056Y-54107124D01*
X59498061Y-54107124D01*
X59504513Y-54108496D01*
X59695487Y-54108496D01*
X59701939Y-54107124D01*
X59701944Y-54107124D01*
X59788887Y-54088643D01*
X59882287Y-54068790D01*
X59888318Y-54066105D01*
X60050720Y-53993799D01*
X60050722Y-53993798D01*
X60056750Y-53991114D01*
X60085588Y-53970162D01*
X60205907Y-53882746D01*
X60205909Y-53882744D01*
X60211251Y-53878863D01*
X60339037Y-53736942D01*
X60434524Y-53571554D01*
X60487505Y-53408496D01*
X60491498Y-53396206D01*
X60491498Y-53396205D01*
X60493538Y-53389927D01*
X60494676Y-53379105D01*
X60512810Y-53206565D01*
X60513500Y-53200000D01*
X74086500Y-53200000D01*
X74087190Y-53206565D01*
X74105325Y-53379105D01*
X74106462Y-53389927D01*
X74108502Y-53396205D01*
X74108502Y-53396206D01*
X74112495Y-53408496D01*
X74165476Y-53571554D01*
X74260963Y-53736942D01*
X74388749Y-53878863D01*
X74394091Y-53882744D01*
X74394093Y-53882746D01*
X74514412Y-53970162D01*
X74543250Y-53991114D01*
X74549278Y-53993798D01*
X74549280Y-53993799D01*
X74711682Y-54066105D01*
X74717713Y-54068790D01*
X74811113Y-54088643D01*
X74898056Y-54107124D01*
X74898061Y-54107124D01*
X74904513Y-54108496D01*
X75095487Y-54108496D01*
X75101939Y-54107124D01*
X75101944Y-54107124D01*
X75188887Y-54088643D01*
X75282287Y-54068790D01*
X75288318Y-54066105D01*
X75450720Y-53993799D01*
X75450722Y-53993798D01*
X75456750Y-53991114D01*
X75485588Y-53970162D01*
X75605907Y-53882746D01*
X75605909Y-53882744D01*
X75611251Y-53878863D01*
X75739037Y-53736942D01*
X75834524Y-53571554D01*
X75887505Y-53408496D01*
X75891498Y-53396206D01*
X75891498Y-53396205D01*
X75893538Y-53389927D01*
X75894676Y-53379105D01*
X75912810Y-53206565D01*
X75913500Y-53200000D01*
X75902120Y-53091727D01*
X75894228Y-53016637D01*
X75894228Y-53016636D01*
X75893538Y-53010073D01*
X75834524Y-52828446D01*
X75739037Y-52663058D01*
X75611251Y-52521137D01*
X75605909Y-52517256D01*
X75605907Y-52517254D01*
X75582159Y-52500000D01*
X80086500Y-52500000D01*
X80106462Y-52689927D01*
X80108502Y-52696205D01*
X80108502Y-52696206D01*
X80121020Y-52734731D01*
X80165476Y-52871554D01*
X80168779Y-52877276D01*
X80168780Y-52877277D01*
X80187715Y-52910073D01*
X80260963Y-53036942D01*
X80265381Y-53041849D01*
X80265382Y-53041850D01*
X80384327Y-53173952D01*
X80388749Y-53178863D01*
X80394091Y-53182744D01*
X80394093Y-53182746D01*
X80537908Y-53287233D01*
X80543250Y-53291114D01*
X80549278Y-53293798D01*
X80549280Y-53293799D01*
X80711682Y-53366105D01*
X80717713Y-53368790D01*
X80786273Y-53383363D01*
X80898056Y-53407124D01*
X80898061Y-53407124D01*
X80904513Y-53408496D01*
X81095487Y-53408496D01*
X81101939Y-53407124D01*
X81101944Y-53407124D01*
X81213727Y-53383363D01*
X81282287Y-53368790D01*
X81288318Y-53366105D01*
X81450720Y-53293799D01*
X81450722Y-53293798D01*
X81456750Y-53291114D01*
X81462092Y-53287233D01*
X81582159Y-53200000D01*
X88686500Y-53200000D01*
X88687190Y-53206565D01*
X88705325Y-53379105D01*
X88706462Y-53389927D01*
X88708502Y-53396205D01*
X88708502Y-53396206D01*
X88712495Y-53408496D01*
X88765476Y-53571554D01*
X88860963Y-53736942D01*
X88988749Y-53878863D01*
X88994091Y-53882744D01*
X88994093Y-53882746D01*
X89114412Y-53970162D01*
X89143250Y-53991114D01*
X89149278Y-53993798D01*
X89149280Y-53993799D01*
X89311682Y-54066105D01*
X89317713Y-54068790D01*
X89411113Y-54088643D01*
X89498056Y-54107124D01*
X89498061Y-54107124D01*
X89504513Y-54108496D01*
X89695487Y-54108496D01*
X89701939Y-54107124D01*
X89701944Y-54107124D01*
X89788887Y-54088643D01*
X89882287Y-54068790D01*
X89888318Y-54066105D01*
X90050720Y-53993799D01*
X90050722Y-53993798D01*
X90056750Y-53991114D01*
X90085588Y-53970162D01*
X90205907Y-53882746D01*
X90205909Y-53882744D01*
X90211251Y-53878863D01*
X90339037Y-53736942D01*
X90434524Y-53571554D01*
X90487505Y-53408496D01*
X90491498Y-53396206D01*
X90491498Y-53396205D01*
X90493538Y-53389927D01*
X90494676Y-53379105D01*
X90512810Y-53206565D01*
X90513500Y-53200000D01*
X90502120Y-53091727D01*
X90494228Y-53016637D01*
X90494228Y-53016636D01*
X90493538Y-53010073D01*
X90434524Y-52828446D01*
X90339037Y-52663058D01*
X90211251Y-52521137D01*
X90205909Y-52517256D01*
X90205907Y-52517254D01*
X90182159Y-52500000D01*
X94586500Y-52500000D01*
X94606462Y-52689927D01*
X94608502Y-52696205D01*
X94608502Y-52696206D01*
X94621020Y-52734731D01*
X94665476Y-52871554D01*
X94668779Y-52877276D01*
X94668780Y-52877277D01*
X94687715Y-52910073D01*
X94760963Y-53036942D01*
X94765381Y-53041849D01*
X94765382Y-53041850D01*
X94884327Y-53173952D01*
X94888749Y-53178863D01*
X94894091Y-53182744D01*
X94894093Y-53182746D01*
X95037908Y-53287233D01*
X95043250Y-53291114D01*
X95049278Y-53293798D01*
X95049280Y-53293799D01*
X95211682Y-53366105D01*
X95217713Y-53368790D01*
X95286273Y-53383363D01*
X95398056Y-53407124D01*
X95398061Y-53407124D01*
X95404513Y-53408496D01*
X95595487Y-53408496D01*
X95601939Y-53407124D01*
X95601944Y-53407124D01*
X95713727Y-53383363D01*
X95782287Y-53368790D01*
X95788318Y-53366105D01*
X95950720Y-53293799D01*
X95950722Y-53293798D01*
X95956750Y-53291114D01*
X95962092Y-53287233D01*
X96105907Y-53182746D01*
X96105909Y-53182744D01*
X96111251Y-53178863D01*
X96115673Y-53173952D01*
X96182260Y-53100000D01*
X103586500Y-53100000D01*
X103587190Y-53106565D01*
X103600866Y-53236680D01*
X103606462Y-53289927D01*
X103608502Y-53296205D01*
X103608502Y-53296206D01*
X103627650Y-53355138D01*
X103665476Y-53471554D01*
X103668779Y-53477276D01*
X103668780Y-53477277D01*
X103681664Y-53499592D01*
X103760963Y-53636942D01*
X103888749Y-53778863D01*
X103894091Y-53782744D01*
X103894093Y-53782746D01*
X104019628Y-53873952D01*
X104043250Y-53891114D01*
X104049278Y-53893798D01*
X104049280Y-53893799D01*
X104211682Y-53966105D01*
X104217713Y-53968790D01*
X104304480Y-53987233D01*
X104398056Y-54007124D01*
X104398061Y-54007124D01*
X104404513Y-54008496D01*
X104595487Y-54008496D01*
X104601939Y-54007124D01*
X104601944Y-54007124D01*
X104695520Y-53987233D01*
X104782287Y-53968790D01*
X104788318Y-53966105D01*
X104950720Y-53893799D01*
X104950722Y-53893798D01*
X104956750Y-53891114D01*
X104980372Y-53873952D01*
X105105907Y-53782746D01*
X105105909Y-53782744D01*
X105111251Y-53778863D01*
X105239037Y-53636942D01*
X105318336Y-53499592D01*
X105331220Y-53477277D01*
X105331221Y-53477276D01*
X105334524Y-53471554D01*
X105372350Y-53355138D01*
X105391498Y-53296206D01*
X105391498Y-53296205D01*
X105393538Y-53289927D01*
X105399135Y-53236680D01*
X105412810Y-53106565D01*
X105413500Y-53100000D01*
X119086500Y-53100000D01*
X119087190Y-53106565D01*
X119100866Y-53236680D01*
X119106462Y-53289927D01*
X119108502Y-53296205D01*
X119108502Y-53296206D01*
X119127650Y-53355138D01*
X119165476Y-53471554D01*
X119168779Y-53477276D01*
X119168780Y-53477277D01*
X119181664Y-53499592D01*
X119260963Y-53636942D01*
X119388749Y-53778863D01*
X119394091Y-53782744D01*
X119394093Y-53782746D01*
X119519628Y-53873952D01*
X119543250Y-53891114D01*
X119549278Y-53893798D01*
X119549280Y-53893799D01*
X119711682Y-53966105D01*
X119717713Y-53968790D01*
X119804480Y-53987233D01*
X119898056Y-54007124D01*
X119898061Y-54007124D01*
X119904513Y-54008496D01*
X120095487Y-54008496D01*
X120101939Y-54007124D01*
X120101944Y-54007124D01*
X120195520Y-53987233D01*
X120282287Y-53968790D01*
X120288318Y-53966105D01*
X120450720Y-53893799D01*
X120450722Y-53893798D01*
X120456750Y-53891114D01*
X120480372Y-53873952D01*
X120605907Y-53782746D01*
X120605909Y-53782744D01*
X120611251Y-53778863D01*
X120739037Y-53636942D01*
X120818336Y-53499592D01*
X120831220Y-53477277D01*
X120831221Y-53477276D01*
X120834524Y-53471554D01*
X120872350Y-53355138D01*
X120891498Y-53296206D01*
X120891498Y-53296205D01*
X120893538Y-53289927D01*
X120899135Y-53236680D01*
X120912810Y-53106565D01*
X120913500Y-53100000D01*
X120893538Y-52910073D01*
X120881023Y-52871554D01*
X120836566Y-52734731D01*
X120834524Y-52728446D01*
X120739037Y-52563058D01*
X120682260Y-52500000D01*
X120615673Y-52426048D01*
X120615672Y-52426047D01*
X120611251Y-52421137D01*
X120605909Y-52417256D01*
X120605907Y-52417254D01*
X120462092Y-52312767D01*
X120462091Y-52312766D01*
X120456750Y-52308886D01*
X120450722Y-52306202D01*
X120450720Y-52306201D01*
X120288318Y-52233895D01*
X120288317Y-52233895D01*
X120282287Y-52231210D01*
X120188887Y-52211357D01*
X120101944Y-52192876D01*
X120101939Y-52192876D01*
X120095487Y-52191504D01*
X119904513Y-52191504D01*
X119898061Y-52192876D01*
X119898056Y-52192876D01*
X119811113Y-52211357D01*
X119717713Y-52231210D01*
X119711683Y-52233895D01*
X119711682Y-52233895D01*
X119549280Y-52306201D01*
X119549278Y-52306202D01*
X119543250Y-52308886D01*
X119537909Y-52312766D01*
X119537908Y-52312767D01*
X119394093Y-52417254D01*
X119394091Y-52417256D01*
X119388749Y-52421137D01*
X119384328Y-52426047D01*
X119384327Y-52426048D01*
X119317741Y-52500000D01*
X119260963Y-52563058D01*
X119165476Y-52728446D01*
X119163434Y-52734731D01*
X119118978Y-52871554D01*
X119106462Y-52910073D01*
X119086500Y-53100000D01*
X105413500Y-53100000D01*
X105393538Y-52910073D01*
X105381023Y-52871554D01*
X105336566Y-52734731D01*
X105334524Y-52728446D01*
X105239037Y-52563058D01*
X105182260Y-52500000D01*
X105115673Y-52426048D01*
X105115672Y-52426047D01*
X105111251Y-52421137D01*
X105105909Y-52417256D01*
X105105907Y-52417254D01*
X104962092Y-52312767D01*
X104962091Y-52312766D01*
X104956750Y-52308886D01*
X104950722Y-52306202D01*
X104950720Y-52306201D01*
X104788318Y-52233895D01*
X104788317Y-52233895D01*
X104782287Y-52231210D01*
X104688887Y-52211357D01*
X104601944Y-52192876D01*
X104601939Y-52192876D01*
X104595487Y-52191504D01*
X104404513Y-52191504D01*
X104398061Y-52192876D01*
X104398056Y-52192876D01*
X104311113Y-52211357D01*
X104217713Y-52231210D01*
X104211683Y-52233895D01*
X104211682Y-52233895D01*
X104049280Y-52306201D01*
X104049278Y-52306202D01*
X104043250Y-52308886D01*
X104037909Y-52312766D01*
X104037908Y-52312767D01*
X103894093Y-52417254D01*
X103894091Y-52417256D01*
X103888749Y-52421137D01*
X103884328Y-52426047D01*
X103884327Y-52426048D01*
X103817741Y-52500000D01*
X103760963Y-52563058D01*
X103665476Y-52728446D01*
X103663434Y-52734731D01*
X103618978Y-52871554D01*
X103606462Y-52910073D01*
X103586500Y-53100000D01*
X96182260Y-53100000D01*
X96234618Y-53041850D01*
X96234619Y-53041849D01*
X96239037Y-53036942D01*
X96312285Y-52910073D01*
X96331220Y-52877277D01*
X96331221Y-52877276D01*
X96334524Y-52871554D01*
X96378980Y-52734731D01*
X96391498Y-52696206D01*
X96391498Y-52696205D01*
X96393538Y-52689927D01*
X96413500Y-52500000D01*
X96393538Y-52310073D01*
X96387951Y-52292876D01*
X96356540Y-52196206D01*
X96334524Y-52128446D01*
X96260366Y-52000000D01*
X110086500Y-52000000D01*
X110106462Y-52189927D01*
X110165476Y-52371554D01*
X110260963Y-52536942D01*
X110388749Y-52678863D01*
X110394091Y-52682744D01*
X110394093Y-52682746D01*
X110449117Y-52722723D01*
X110543250Y-52791114D01*
X110549278Y-52793798D01*
X110549280Y-52793799D01*
X110711682Y-52866105D01*
X110717713Y-52868790D01*
X110811113Y-52888643D01*
X110898056Y-52907124D01*
X110898061Y-52907124D01*
X110904513Y-52908496D01*
X111095487Y-52908496D01*
X111101939Y-52907124D01*
X111101944Y-52907124D01*
X111188887Y-52888643D01*
X111282287Y-52868790D01*
X111288318Y-52866105D01*
X111450720Y-52793799D01*
X111450722Y-52793798D01*
X111456750Y-52791114D01*
X111550883Y-52722723D01*
X111605907Y-52682746D01*
X111605909Y-52682744D01*
X111611251Y-52678863D01*
X111739037Y-52536942D01*
X111834524Y-52371554D01*
X111893538Y-52189927D01*
X111913500Y-52000000D01*
X125086500Y-52000000D01*
X125106462Y-52189927D01*
X125165476Y-52371554D01*
X125260963Y-52536942D01*
X125388749Y-52678863D01*
X125394091Y-52682744D01*
X125394093Y-52682746D01*
X125449117Y-52722723D01*
X125543250Y-52791114D01*
X125549278Y-52793798D01*
X125549280Y-52793799D01*
X125711682Y-52866105D01*
X125717713Y-52868790D01*
X125811113Y-52888643D01*
X125898056Y-52907124D01*
X125898061Y-52907124D01*
X125904513Y-52908496D01*
X126095487Y-52908496D01*
X126101939Y-52907124D01*
X126101944Y-52907124D01*
X126188887Y-52888643D01*
X126282287Y-52868790D01*
X126288318Y-52866105D01*
X126450720Y-52793799D01*
X126450722Y-52793798D01*
X126456750Y-52791114D01*
X126550883Y-52722723D01*
X126605907Y-52682746D01*
X126605909Y-52682744D01*
X126611251Y-52678863D01*
X126739037Y-52536942D01*
X126834524Y-52371554D01*
X126893538Y-52189927D01*
X126913500Y-52000000D01*
X126893538Y-51810073D01*
X126834524Y-51628446D01*
X126813196Y-51591504D01*
X126742338Y-51468776D01*
X126739037Y-51463058D01*
X126611251Y-51321137D01*
X126605909Y-51317256D01*
X126605907Y-51317254D01*
X126462092Y-51212767D01*
X126462091Y-51212766D01*
X126456750Y-51208886D01*
X126450722Y-51206202D01*
X126450720Y-51206201D01*
X126288318Y-51133895D01*
X126288317Y-51133895D01*
X126282287Y-51131210D01*
X126188887Y-51111357D01*
X126101944Y-51092876D01*
X126101939Y-51092876D01*
X126095487Y-51091504D01*
X125904513Y-51091504D01*
X125898061Y-51092876D01*
X125898056Y-51092876D01*
X125811113Y-51111357D01*
X125717713Y-51131210D01*
X125711683Y-51133895D01*
X125711682Y-51133895D01*
X125549280Y-51206201D01*
X125549278Y-51206202D01*
X125543250Y-51208886D01*
X125537909Y-51212766D01*
X125537908Y-51212767D01*
X125394093Y-51317254D01*
X125394091Y-51317256D01*
X125388749Y-51321137D01*
X125260963Y-51463058D01*
X125257662Y-51468776D01*
X125186805Y-51591504D01*
X125165476Y-51628446D01*
X125106462Y-51810073D01*
X125086500Y-52000000D01*
X111913500Y-52000000D01*
X111893538Y-51810073D01*
X111834524Y-51628446D01*
X111813196Y-51591504D01*
X111742338Y-51468776D01*
X111739037Y-51463058D01*
X111611251Y-51321137D01*
X111605909Y-51317256D01*
X111605907Y-51317254D01*
X111462092Y-51212767D01*
X111462091Y-51212766D01*
X111456750Y-51208886D01*
X111450722Y-51206202D01*
X111450720Y-51206201D01*
X111288318Y-51133895D01*
X111288317Y-51133895D01*
X111282287Y-51131210D01*
X111188887Y-51111357D01*
X111101944Y-51092876D01*
X111101939Y-51092876D01*
X111095487Y-51091504D01*
X110904513Y-51091504D01*
X110898061Y-51092876D01*
X110898056Y-51092876D01*
X110811113Y-51111357D01*
X110717713Y-51131210D01*
X110711683Y-51133895D01*
X110711682Y-51133895D01*
X110549280Y-51206201D01*
X110549278Y-51206202D01*
X110543250Y-51208886D01*
X110537909Y-51212766D01*
X110537908Y-51212767D01*
X110394093Y-51317254D01*
X110394091Y-51317256D01*
X110388749Y-51321137D01*
X110260963Y-51463058D01*
X110257662Y-51468776D01*
X110186805Y-51591504D01*
X110165476Y-51628446D01*
X110106462Y-51810073D01*
X110086500Y-52000000D01*
X96260366Y-52000000D01*
X96239037Y-51963058D01*
X96111251Y-51821137D01*
X96105909Y-51817256D01*
X96105907Y-51817254D01*
X95962092Y-51712767D01*
X95962091Y-51712766D01*
X95956750Y-51708886D01*
X95950722Y-51706202D01*
X95950720Y-51706201D01*
X95788318Y-51633895D01*
X95788317Y-51633895D01*
X95782287Y-51631210D01*
X95688887Y-51611357D01*
X95601944Y-51592876D01*
X95601939Y-51592876D01*
X95595487Y-51591504D01*
X95404513Y-51591504D01*
X95398061Y-51592876D01*
X95398056Y-51592876D01*
X95311113Y-51611357D01*
X95217713Y-51631210D01*
X95211683Y-51633895D01*
X95211682Y-51633895D01*
X95049280Y-51706201D01*
X95049278Y-51706202D01*
X95043250Y-51708886D01*
X95037909Y-51712766D01*
X95037908Y-51712767D01*
X94894093Y-51817254D01*
X94894091Y-51817256D01*
X94888749Y-51821137D01*
X94760963Y-51963058D01*
X94665476Y-52128446D01*
X94643460Y-52196206D01*
X94612050Y-52292876D01*
X94606462Y-52310073D01*
X94586500Y-52500000D01*
X90182159Y-52500000D01*
X90062092Y-52412767D01*
X90062091Y-52412766D01*
X90056750Y-52408886D01*
X90050722Y-52406202D01*
X90050720Y-52406201D01*
X89888318Y-52333895D01*
X89888317Y-52333895D01*
X89882287Y-52331210D01*
X89777262Y-52308886D01*
X89701944Y-52292876D01*
X89701939Y-52292876D01*
X89695487Y-52291504D01*
X89504513Y-52291504D01*
X89498061Y-52292876D01*
X89498056Y-52292876D01*
X89422738Y-52308886D01*
X89317713Y-52331210D01*
X89311683Y-52333895D01*
X89311682Y-52333895D01*
X89149280Y-52406201D01*
X89149278Y-52406202D01*
X89143250Y-52408886D01*
X89137909Y-52412766D01*
X89137908Y-52412767D01*
X88994093Y-52517254D01*
X88994091Y-52517256D01*
X88988749Y-52521137D01*
X88860963Y-52663058D01*
X88765476Y-52828446D01*
X88706462Y-53010073D01*
X88705772Y-53016636D01*
X88705772Y-53016637D01*
X88697880Y-53091727D01*
X88686500Y-53200000D01*
X81582159Y-53200000D01*
X81605907Y-53182746D01*
X81605909Y-53182744D01*
X81611251Y-53178863D01*
X81615673Y-53173952D01*
X81734618Y-53041850D01*
X81734619Y-53041849D01*
X81739037Y-53036942D01*
X81812285Y-52910073D01*
X81831220Y-52877277D01*
X81831221Y-52877276D01*
X81834524Y-52871554D01*
X81878980Y-52734731D01*
X81891498Y-52696206D01*
X81891498Y-52696205D01*
X81893538Y-52689927D01*
X81913500Y-52500000D01*
X81893538Y-52310073D01*
X81887951Y-52292876D01*
X81856540Y-52196206D01*
X81834524Y-52128446D01*
X81739037Y-51963058D01*
X81611251Y-51821137D01*
X81605909Y-51817256D01*
X81605907Y-51817254D01*
X81462092Y-51712767D01*
X81462091Y-51712766D01*
X81456750Y-51708886D01*
X81450722Y-51706202D01*
X81450720Y-51706201D01*
X81288318Y-51633895D01*
X81288317Y-51633895D01*
X81282287Y-51631210D01*
X81188887Y-51611357D01*
X81101944Y-51592876D01*
X81101939Y-51592876D01*
X81095487Y-51591504D01*
X80904513Y-51591504D01*
X80898061Y-51592876D01*
X80898056Y-51592876D01*
X80811113Y-51611357D01*
X80717713Y-51631210D01*
X80711683Y-51633895D01*
X80711682Y-51633895D01*
X80549280Y-51706201D01*
X80549278Y-51706202D01*
X80543250Y-51708886D01*
X80537909Y-51712766D01*
X80537908Y-51712767D01*
X80394093Y-51817254D01*
X80394091Y-51817256D01*
X80388749Y-51821137D01*
X80260963Y-51963058D01*
X80165476Y-52128446D01*
X80143460Y-52196206D01*
X80112050Y-52292876D01*
X80106462Y-52310073D01*
X80086500Y-52500000D01*
X75582159Y-52500000D01*
X75462092Y-52412767D01*
X75462091Y-52412766D01*
X75456750Y-52408886D01*
X75450722Y-52406202D01*
X75450720Y-52406201D01*
X75288318Y-52333895D01*
X75288317Y-52333895D01*
X75282287Y-52331210D01*
X75177262Y-52308886D01*
X75101944Y-52292876D01*
X75101939Y-52292876D01*
X75095487Y-52291504D01*
X74904513Y-52291504D01*
X74898061Y-52292876D01*
X74898056Y-52292876D01*
X74822738Y-52308886D01*
X74717713Y-52331210D01*
X74711683Y-52333895D01*
X74711682Y-52333895D01*
X74549280Y-52406201D01*
X74549278Y-52406202D01*
X74543250Y-52408886D01*
X74537909Y-52412766D01*
X74537908Y-52412767D01*
X74394093Y-52517254D01*
X74394091Y-52517256D01*
X74388749Y-52521137D01*
X74260963Y-52663058D01*
X74165476Y-52828446D01*
X74106462Y-53010073D01*
X74105772Y-53016636D01*
X74105772Y-53016637D01*
X74097880Y-53091727D01*
X74086500Y-53200000D01*
X60513500Y-53200000D01*
X60502120Y-53091727D01*
X60494228Y-53016637D01*
X60494228Y-53016636D01*
X60493538Y-53010073D01*
X60434524Y-52828446D01*
X60339037Y-52663058D01*
X60211251Y-52521137D01*
X60205909Y-52517256D01*
X60205907Y-52517254D01*
X60062092Y-52412767D01*
X60062091Y-52412766D01*
X60056750Y-52408886D01*
X60050722Y-52406202D01*
X60050720Y-52406201D01*
X59888318Y-52333895D01*
X59888317Y-52333895D01*
X59882287Y-52331210D01*
X59777262Y-52308886D01*
X59701944Y-52292876D01*
X59701939Y-52292876D01*
X59695487Y-52291504D01*
X59504513Y-52291504D01*
X59498061Y-52292876D01*
X59498056Y-52292876D01*
X59422738Y-52308886D01*
X59317713Y-52331210D01*
X59311683Y-52333895D01*
X59311682Y-52333895D01*
X59149280Y-52406201D01*
X59149278Y-52406202D01*
X59143250Y-52408886D01*
X59137909Y-52412766D01*
X59137908Y-52412767D01*
X58994093Y-52517254D01*
X58994091Y-52517256D01*
X58988749Y-52521137D01*
X58860963Y-52663058D01*
X58765476Y-52828446D01*
X58706462Y-53010073D01*
X58705772Y-53016636D01*
X58705772Y-53016637D01*
X58697880Y-53091727D01*
X58686500Y-53200000D01*
X50508000Y-53200000D01*
X50508000Y-52000000D01*
X64336500Y-52000000D01*
X64356462Y-52189927D01*
X64415476Y-52371554D01*
X64510963Y-52536942D01*
X64638749Y-52678863D01*
X64644091Y-52682744D01*
X64644093Y-52682746D01*
X64699117Y-52722723D01*
X64793250Y-52791114D01*
X64799278Y-52793798D01*
X64799280Y-52793799D01*
X64961682Y-52866105D01*
X64967713Y-52868790D01*
X65061113Y-52888643D01*
X65148056Y-52907124D01*
X65148061Y-52907124D01*
X65154513Y-52908496D01*
X65345487Y-52908496D01*
X65351939Y-52907124D01*
X65351944Y-52907124D01*
X65438887Y-52888643D01*
X65532287Y-52868790D01*
X65538318Y-52866105D01*
X65700720Y-52793799D01*
X65700722Y-52793798D01*
X65706750Y-52791114D01*
X65800883Y-52722723D01*
X65855907Y-52682746D01*
X65855909Y-52682744D01*
X65861251Y-52678863D01*
X65989037Y-52536942D01*
X66084524Y-52371554D01*
X66143538Y-52189927D01*
X66163500Y-52000000D01*
X66143538Y-51810073D01*
X66084524Y-51628446D01*
X66063196Y-51591504D01*
X65992338Y-51468776D01*
X65989037Y-51463058D01*
X65861251Y-51321137D01*
X65855909Y-51317256D01*
X65855907Y-51317254D01*
X65712092Y-51212767D01*
X65712091Y-51212766D01*
X65706750Y-51208886D01*
X65700722Y-51206202D01*
X65700720Y-51206201D01*
X65538318Y-51133895D01*
X65538317Y-51133895D01*
X65532287Y-51131210D01*
X65438887Y-51111357D01*
X65351944Y-51092876D01*
X65351939Y-51092876D01*
X65345487Y-51091504D01*
X65154513Y-51091504D01*
X65148061Y-51092876D01*
X65148056Y-51092876D01*
X65061113Y-51111357D01*
X64967713Y-51131210D01*
X64961683Y-51133895D01*
X64961682Y-51133895D01*
X64799280Y-51206201D01*
X64799278Y-51206202D01*
X64793250Y-51208886D01*
X64787909Y-51212766D01*
X64787908Y-51212767D01*
X64644093Y-51317254D01*
X64644091Y-51317256D01*
X64638749Y-51321137D01*
X64510963Y-51463058D01*
X64507662Y-51468776D01*
X64436805Y-51591504D01*
X64415476Y-51628446D01*
X64356462Y-51810073D01*
X64336500Y-52000000D01*
X50508000Y-52000000D01*
X50508000Y-40348978D01*
X53621500Y-40348978D01*
X53621500Y-42137886D01*
X53631250Y-42221515D01*
X53635577Y-42258623D01*
X53636978Y-42270643D01*
X53697313Y-42436864D01*
X53794269Y-42584747D01*
X53922645Y-42706358D01*
X54075555Y-42795175D01*
X54244796Y-42846433D01*
X54251236Y-42847008D01*
X54251237Y-42847008D01*
X54321185Y-42853251D01*
X54321191Y-42853251D01*
X54323978Y-42853500D01*
X55662886Y-42853500D01*
X55758106Y-42842398D01*
X55788371Y-42838870D01*
X55788372Y-42838870D01*
X55795643Y-42838022D01*
X55802521Y-42835526D01*
X55802523Y-42835525D01*
X55954985Y-42780184D01*
X55961864Y-42777687D01*
X56109747Y-42680731D01*
X56231358Y-42552355D01*
X56235033Y-42546028D01*
X56235036Y-42546024D01*
X56310252Y-42416529D01*
X56361763Y-42367670D01*
X56431511Y-42354416D01*
X56497353Y-42380976D01*
X56510376Y-42392842D01*
X56558209Y-42442984D01*
X56623265Y-42511180D01*
X56810957Y-42650827D01*
X57019494Y-42756852D01*
X57073670Y-42773674D01*
X57237811Y-42824642D01*
X57237817Y-42824643D01*
X57242914Y-42826226D01*
X57367795Y-42842778D01*
X57469544Y-42856264D01*
X57469548Y-42856264D01*
X57474828Y-42856964D01*
X57480158Y-42856764D01*
X57480159Y-42856764D01*
X57591717Y-42852576D01*
X57708606Y-42848188D01*
X57823084Y-42824168D01*
X57932346Y-42801242D01*
X57932350Y-42801241D01*
X57937563Y-42800147D01*
X58070544Y-42747630D01*
X58150183Y-42716180D01*
X58150186Y-42716179D01*
X58155153Y-42714217D01*
X58355153Y-42592854D01*
X58531846Y-42439528D01*
X58615521Y-42337479D01*
X58676795Y-42262751D01*
X58676799Y-42262745D01*
X58680179Y-42258623D01*
X58701302Y-42221515D01*
X58752384Y-42172209D01*
X58822014Y-42158347D01*
X58888085Y-42184330D01*
X58915324Y-42213480D01*
X58942593Y-42253984D01*
X59001786Y-42341906D01*
X59005465Y-42345763D01*
X59005467Y-42345765D01*
X59039057Y-42380976D01*
X59163265Y-42511180D01*
X59350957Y-42650827D01*
X59559494Y-42756852D01*
X59613670Y-42773674D01*
X59777811Y-42824642D01*
X59777817Y-42824643D01*
X59782914Y-42826226D01*
X59907795Y-42842778D01*
X60009544Y-42856264D01*
X60009548Y-42856264D01*
X60014828Y-42856964D01*
X60020158Y-42856764D01*
X60020159Y-42856764D01*
X60131717Y-42852576D01*
X60248606Y-42848188D01*
X60363084Y-42824168D01*
X60472346Y-42801242D01*
X60472350Y-42801241D01*
X60477563Y-42800147D01*
X60610544Y-42747630D01*
X60690183Y-42716180D01*
X60690186Y-42716179D01*
X60695153Y-42714217D01*
X60895153Y-42592854D01*
X61071846Y-42439528D01*
X61155521Y-42337479D01*
X61216795Y-42262751D01*
X61216799Y-42262745D01*
X61220179Y-42258623D01*
X61241302Y-42221515D01*
X61292384Y-42172209D01*
X61362014Y-42158347D01*
X61428085Y-42184330D01*
X61455324Y-42213480D01*
X61482593Y-42253984D01*
X61541786Y-42341906D01*
X61545465Y-42345763D01*
X61545467Y-42345765D01*
X61579057Y-42380976D01*
X61703265Y-42511180D01*
X61890957Y-42650827D01*
X62099494Y-42756852D01*
X62153670Y-42773674D01*
X62317811Y-42824642D01*
X62317817Y-42824643D01*
X62322914Y-42826226D01*
X62447795Y-42842778D01*
X62549544Y-42856264D01*
X62549548Y-42856264D01*
X62554828Y-42856964D01*
X62560158Y-42856764D01*
X62560159Y-42856764D01*
X62671717Y-42852576D01*
X62788606Y-42848188D01*
X62903084Y-42824168D01*
X63012346Y-42801242D01*
X63012350Y-42801241D01*
X63017563Y-42800147D01*
X63150544Y-42747630D01*
X63230183Y-42716180D01*
X63230186Y-42716179D01*
X63235153Y-42714217D01*
X63435153Y-42592854D01*
X63611846Y-42439528D01*
X63695521Y-42337479D01*
X63756795Y-42262751D01*
X63756799Y-42262745D01*
X63760179Y-42258623D01*
X63875910Y-42055312D01*
X63955731Y-41835408D01*
X63997360Y-41605199D01*
X63998500Y-41581025D01*
X63998500Y-40966073D01*
X63983721Y-40791895D01*
X63982383Y-40786740D01*
X63982382Y-40786734D01*
X63926291Y-40570626D01*
X63924949Y-40565455D01*
X63828864Y-40352155D01*
X63826725Y-40348978D01*
X68621500Y-40348978D01*
X68621500Y-42137886D01*
X68631250Y-42221515D01*
X68635577Y-42258623D01*
X68636978Y-42270643D01*
X68697313Y-42436864D01*
X68794269Y-42584747D01*
X68922645Y-42706358D01*
X69075555Y-42795175D01*
X69244796Y-42846433D01*
X69251236Y-42847008D01*
X69251237Y-42847008D01*
X69321185Y-42853251D01*
X69321191Y-42853251D01*
X69323978Y-42853500D01*
X70662886Y-42853500D01*
X70758106Y-42842398D01*
X70788371Y-42838870D01*
X70788372Y-42838870D01*
X70795643Y-42838022D01*
X70802521Y-42835526D01*
X70802523Y-42835525D01*
X70954985Y-42780184D01*
X70961864Y-42777687D01*
X71109747Y-42680731D01*
X71231358Y-42552355D01*
X71235033Y-42546028D01*
X71235036Y-42546024D01*
X71310252Y-42416529D01*
X71361763Y-42367670D01*
X71431511Y-42354416D01*
X71497353Y-42380976D01*
X71510376Y-42392842D01*
X71558209Y-42442984D01*
X71623265Y-42511180D01*
X71810957Y-42650827D01*
X72019494Y-42756852D01*
X72073670Y-42773674D01*
X72237811Y-42824642D01*
X72237817Y-42824643D01*
X72242914Y-42826226D01*
X72367795Y-42842778D01*
X72469544Y-42856264D01*
X72469548Y-42856264D01*
X72474828Y-42856964D01*
X72480158Y-42856764D01*
X72480159Y-42856764D01*
X72591717Y-42852576D01*
X72708606Y-42848188D01*
X72823085Y-42824167D01*
X72932346Y-42801242D01*
X72932350Y-42801241D01*
X72937563Y-42800147D01*
X73070544Y-42747630D01*
X73150183Y-42716180D01*
X73150186Y-42716179D01*
X73155153Y-42714217D01*
X73355153Y-42592854D01*
X73531846Y-42439528D01*
X73615521Y-42337479D01*
X73676795Y-42262751D01*
X73676799Y-42262745D01*
X73680179Y-42258623D01*
X73701302Y-42221515D01*
X73752384Y-42172209D01*
X73822014Y-42158347D01*
X73888085Y-42184330D01*
X73915324Y-42213480D01*
X73942593Y-42253984D01*
X74001786Y-42341906D01*
X74005465Y-42345763D01*
X74005467Y-42345765D01*
X74039057Y-42380976D01*
X74163265Y-42511180D01*
X74350957Y-42650827D01*
X74559494Y-42756852D01*
X74613670Y-42773674D01*
X74777811Y-42824642D01*
X74777817Y-42824643D01*
X74782914Y-42826226D01*
X74907795Y-42842778D01*
X75009544Y-42856264D01*
X75009548Y-42856264D01*
X75014828Y-42856964D01*
X75020158Y-42856764D01*
X75020159Y-42856764D01*
X75131717Y-42852576D01*
X75248606Y-42848188D01*
X75363085Y-42824167D01*
X75472346Y-42801242D01*
X75472350Y-42801241D01*
X75477563Y-42800147D01*
X75610544Y-42747630D01*
X75690183Y-42716180D01*
X75690186Y-42716179D01*
X75695153Y-42714217D01*
X75895153Y-42592854D01*
X76071846Y-42439528D01*
X76155521Y-42337479D01*
X76216795Y-42262751D01*
X76216799Y-42262745D01*
X76220179Y-42258623D01*
X76241302Y-42221515D01*
X76292384Y-42172209D01*
X76362014Y-42158347D01*
X76428085Y-42184330D01*
X76455324Y-42213480D01*
X76482593Y-42253984D01*
X76541786Y-42341906D01*
X76545465Y-42345763D01*
X76545467Y-42345765D01*
X76579057Y-42380976D01*
X76703265Y-42511180D01*
X76890957Y-42650827D01*
X77099494Y-42756852D01*
X77153670Y-42773674D01*
X77317811Y-42824642D01*
X77317817Y-42824643D01*
X77322914Y-42826226D01*
X77447795Y-42842778D01*
X77549544Y-42856264D01*
X77549548Y-42856264D01*
X77554828Y-42856964D01*
X77560158Y-42856764D01*
X77560159Y-42856764D01*
X77671717Y-42852576D01*
X77788606Y-42848188D01*
X77903085Y-42824167D01*
X78012346Y-42801242D01*
X78012350Y-42801241D01*
X78017563Y-42800147D01*
X78150544Y-42747630D01*
X78230183Y-42716180D01*
X78230186Y-42716179D01*
X78235153Y-42714217D01*
X78435153Y-42592854D01*
X78611846Y-42439528D01*
X78695521Y-42337479D01*
X78756795Y-42262751D01*
X78756799Y-42262745D01*
X78760179Y-42258623D01*
X78875910Y-42055312D01*
X78955731Y-41835408D01*
X78997360Y-41605199D01*
X78998500Y-41581025D01*
X78998500Y-40966073D01*
X78983721Y-40791895D01*
X78982383Y-40786740D01*
X78982382Y-40786734D01*
X78926291Y-40570626D01*
X78924949Y-40565455D01*
X78828864Y-40352155D01*
X78826725Y-40348978D01*
X83621500Y-40348978D01*
X83621500Y-42137886D01*
X83631250Y-42221515D01*
X83635577Y-42258623D01*
X83636978Y-42270643D01*
X83697313Y-42436864D01*
X83794269Y-42584747D01*
X83922645Y-42706358D01*
X84075555Y-42795175D01*
X84244796Y-42846433D01*
X84251236Y-42847008D01*
X84251237Y-42847008D01*
X84321185Y-42853251D01*
X84321191Y-42853251D01*
X84323978Y-42853500D01*
X85662886Y-42853500D01*
X85758106Y-42842398D01*
X85788371Y-42838870D01*
X85788372Y-42838870D01*
X85795643Y-42838022D01*
X85802521Y-42835526D01*
X85802523Y-42835525D01*
X85954985Y-42780184D01*
X85961864Y-42777687D01*
X86109747Y-42680731D01*
X86231358Y-42552355D01*
X86235033Y-42546028D01*
X86235036Y-42546024D01*
X86310252Y-42416529D01*
X86361763Y-42367670D01*
X86431511Y-42354416D01*
X86497353Y-42380976D01*
X86510376Y-42392842D01*
X86558209Y-42442984D01*
X86623265Y-42511180D01*
X86810957Y-42650827D01*
X87019494Y-42756852D01*
X87073670Y-42773674D01*
X87237811Y-42824642D01*
X87237817Y-42824643D01*
X87242914Y-42826226D01*
X87367795Y-42842778D01*
X87469544Y-42856264D01*
X87469548Y-42856264D01*
X87474828Y-42856964D01*
X87480158Y-42856764D01*
X87480159Y-42856764D01*
X87591717Y-42852576D01*
X87708606Y-42848188D01*
X87823085Y-42824167D01*
X87932346Y-42801242D01*
X87932350Y-42801241D01*
X87937563Y-42800147D01*
X88070544Y-42747630D01*
X88150183Y-42716180D01*
X88150186Y-42716179D01*
X88155153Y-42714217D01*
X88355153Y-42592854D01*
X88531846Y-42439528D01*
X88615521Y-42337479D01*
X88676795Y-42262751D01*
X88676799Y-42262745D01*
X88680179Y-42258623D01*
X88701302Y-42221515D01*
X88752384Y-42172209D01*
X88822014Y-42158347D01*
X88888085Y-42184330D01*
X88915324Y-42213480D01*
X88942593Y-42253984D01*
X89001786Y-42341906D01*
X89005465Y-42345763D01*
X89005467Y-42345765D01*
X89039057Y-42380976D01*
X89163265Y-42511180D01*
X89350957Y-42650827D01*
X89559494Y-42756852D01*
X89613670Y-42773674D01*
X89777811Y-42824642D01*
X89777817Y-42824643D01*
X89782914Y-42826226D01*
X89907795Y-42842778D01*
X90009544Y-42856264D01*
X90009548Y-42856264D01*
X90014828Y-42856964D01*
X90020158Y-42856764D01*
X90020159Y-42856764D01*
X90131717Y-42852576D01*
X90248606Y-42848188D01*
X90363085Y-42824167D01*
X90472346Y-42801242D01*
X90472350Y-42801241D01*
X90477563Y-42800147D01*
X90610544Y-42747630D01*
X90690183Y-42716180D01*
X90690186Y-42716179D01*
X90695153Y-42714217D01*
X90895153Y-42592854D01*
X91071846Y-42439528D01*
X91155521Y-42337479D01*
X91216795Y-42262751D01*
X91216799Y-42262745D01*
X91220179Y-42258623D01*
X91241302Y-42221515D01*
X91292384Y-42172209D01*
X91362014Y-42158347D01*
X91428085Y-42184330D01*
X91455324Y-42213480D01*
X91482593Y-42253984D01*
X91541786Y-42341906D01*
X91545465Y-42345763D01*
X91545467Y-42345765D01*
X91579057Y-42380976D01*
X91703265Y-42511180D01*
X91890957Y-42650827D01*
X92099494Y-42756852D01*
X92153670Y-42773674D01*
X92317811Y-42824642D01*
X92317817Y-42824643D01*
X92322914Y-42826226D01*
X92447795Y-42842778D01*
X92549544Y-42856264D01*
X92549548Y-42856264D01*
X92554828Y-42856964D01*
X92560158Y-42856764D01*
X92560159Y-42856764D01*
X92671717Y-42852576D01*
X92788606Y-42848188D01*
X92903085Y-42824167D01*
X93012346Y-42801242D01*
X93012350Y-42801241D01*
X93017563Y-42800147D01*
X93150544Y-42747630D01*
X93230183Y-42716180D01*
X93230186Y-42716179D01*
X93235153Y-42714217D01*
X93435153Y-42592854D01*
X93611846Y-42439528D01*
X93695521Y-42337479D01*
X93756795Y-42262751D01*
X93756799Y-42262745D01*
X93760179Y-42258623D01*
X93875910Y-42055312D01*
X93955731Y-41835408D01*
X93997360Y-41605199D01*
X93998500Y-41581025D01*
X93998500Y-40966073D01*
X93983721Y-40791895D01*
X93982383Y-40786740D01*
X93982382Y-40786734D01*
X93926291Y-40570626D01*
X93924949Y-40565455D01*
X93828864Y-40352155D01*
X93826725Y-40348978D01*
X98621500Y-40348978D01*
X98621500Y-42137886D01*
X98631250Y-42221515D01*
X98635577Y-42258623D01*
X98636978Y-42270643D01*
X98697313Y-42436864D01*
X98794269Y-42584747D01*
X98922645Y-42706358D01*
X99075555Y-42795175D01*
X99244796Y-42846433D01*
X99251236Y-42847008D01*
X99251237Y-42847008D01*
X99321185Y-42853251D01*
X99321191Y-42853251D01*
X99323978Y-42853500D01*
X100662886Y-42853500D01*
X100758106Y-42842398D01*
X100788371Y-42838870D01*
X100788372Y-42838870D01*
X100795643Y-42838022D01*
X100802521Y-42835526D01*
X100802523Y-42835525D01*
X100954985Y-42780184D01*
X100961864Y-42777687D01*
X101109747Y-42680731D01*
X101231358Y-42552355D01*
X101235033Y-42546028D01*
X101235036Y-42546024D01*
X101310252Y-42416529D01*
X101361763Y-42367670D01*
X101431511Y-42354416D01*
X101497353Y-42380976D01*
X101510376Y-42392842D01*
X101558209Y-42442984D01*
X101623265Y-42511180D01*
X101810957Y-42650827D01*
X102019494Y-42756852D01*
X102073670Y-42773674D01*
X102237811Y-42824642D01*
X102237817Y-42824643D01*
X102242914Y-42826226D01*
X102367795Y-42842778D01*
X102469544Y-42856264D01*
X102469548Y-42856264D01*
X102474828Y-42856964D01*
X102480158Y-42856764D01*
X102480159Y-42856764D01*
X102591717Y-42852576D01*
X102708606Y-42848188D01*
X102823085Y-42824167D01*
X102932346Y-42801242D01*
X102932350Y-42801241D01*
X102937563Y-42800147D01*
X103070544Y-42747630D01*
X103150183Y-42716180D01*
X103150186Y-42716179D01*
X103155153Y-42714217D01*
X103355153Y-42592854D01*
X103531846Y-42439528D01*
X103615521Y-42337479D01*
X103676795Y-42262751D01*
X103676799Y-42262745D01*
X103680179Y-42258623D01*
X103701302Y-42221515D01*
X103752384Y-42172209D01*
X103822014Y-42158347D01*
X103888085Y-42184330D01*
X103915324Y-42213480D01*
X103942593Y-42253984D01*
X104001786Y-42341906D01*
X104005465Y-42345763D01*
X104005467Y-42345765D01*
X104039057Y-42380976D01*
X104163265Y-42511180D01*
X104350957Y-42650827D01*
X104559494Y-42756852D01*
X104613670Y-42773674D01*
X104777811Y-42824642D01*
X104777817Y-42824643D01*
X104782914Y-42826226D01*
X104907795Y-42842778D01*
X105009544Y-42856264D01*
X105009548Y-42856264D01*
X105014828Y-42856964D01*
X105020158Y-42856764D01*
X105020159Y-42856764D01*
X105131717Y-42852576D01*
X105248606Y-42848188D01*
X105363085Y-42824167D01*
X105472346Y-42801242D01*
X105472350Y-42801241D01*
X105477563Y-42800147D01*
X105610544Y-42747630D01*
X105690183Y-42716180D01*
X105690186Y-42716179D01*
X105695153Y-42714217D01*
X105895153Y-42592854D01*
X106071846Y-42439528D01*
X106155521Y-42337479D01*
X106216795Y-42262751D01*
X106216799Y-42262745D01*
X106220179Y-42258623D01*
X106241302Y-42221515D01*
X106292384Y-42172209D01*
X106362014Y-42158347D01*
X106428085Y-42184330D01*
X106455324Y-42213480D01*
X106482593Y-42253984D01*
X106541786Y-42341906D01*
X106545465Y-42345763D01*
X106545467Y-42345765D01*
X106579057Y-42380976D01*
X106703265Y-42511180D01*
X106890957Y-42650827D01*
X107099494Y-42756852D01*
X107153670Y-42773674D01*
X107317811Y-42824642D01*
X107317817Y-42824643D01*
X107322914Y-42826226D01*
X107447795Y-42842778D01*
X107549544Y-42856264D01*
X107549548Y-42856264D01*
X107554828Y-42856964D01*
X107560158Y-42856764D01*
X107560159Y-42856764D01*
X107671717Y-42852576D01*
X107788606Y-42848188D01*
X107903085Y-42824167D01*
X108012346Y-42801242D01*
X108012350Y-42801241D01*
X108017563Y-42800147D01*
X108150544Y-42747630D01*
X108230183Y-42716180D01*
X108230186Y-42716179D01*
X108235153Y-42714217D01*
X108435153Y-42592854D01*
X108611846Y-42439528D01*
X108695521Y-42337479D01*
X108756795Y-42262751D01*
X108756799Y-42262745D01*
X108760179Y-42258623D01*
X108875910Y-42055312D01*
X108955731Y-41835408D01*
X108997360Y-41605199D01*
X108998500Y-41581025D01*
X108998500Y-40966073D01*
X108983721Y-40791895D01*
X108982383Y-40786740D01*
X108982382Y-40786734D01*
X108926291Y-40570626D01*
X108924949Y-40565455D01*
X108828864Y-40352155D01*
X108826725Y-40348978D01*
X113621500Y-40348978D01*
X113621500Y-42137886D01*
X113631250Y-42221515D01*
X113635577Y-42258623D01*
X113636978Y-42270643D01*
X113697313Y-42436864D01*
X113794269Y-42584747D01*
X113922645Y-42706358D01*
X114075555Y-42795175D01*
X114244796Y-42846433D01*
X114251236Y-42847008D01*
X114251237Y-42847008D01*
X114321185Y-42853251D01*
X114321191Y-42853251D01*
X114323978Y-42853500D01*
X115662886Y-42853500D01*
X115758106Y-42842398D01*
X115788371Y-42838870D01*
X115788372Y-42838870D01*
X115795643Y-42838022D01*
X115802521Y-42835526D01*
X115802523Y-42835525D01*
X115954985Y-42780184D01*
X115961864Y-42777687D01*
X116109747Y-42680731D01*
X116231358Y-42552355D01*
X116235033Y-42546028D01*
X116235036Y-42546024D01*
X116310252Y-42416529D01*
X116361763Y-42367670D01*
X116431511Y-42354416D01*
X116497353Y-42380976D01*
X116510376Y-42392842D01*
X116558209Y-42442984D01*
X116623265Y-42511180D01*
X116810957Y-42650827D01*
X117019494Y-42756852D01*
X117073670Y-42773674D01*
X117237811Y-42824642D01*
X117237817Y-42824643D01*
X117242914Y-42826226D01*
X117367795Y-42842778D01*
X117469544Y-42856264D01*
X117469548Y-42856264D01*
X117474828Y-42856964D01*
X117480158Y-42856764D01*
X117480159Y-42856764D01*
X117591717Y-42852576D01*
X117708606Y-42848188D01*
X117823085Y-42824167D01*
X117932346Y-42801242D01*
X117932350Y-42801241D01*
X117937563Y-42800147D01*
X118070544Y-42747630D01*
X118150183Y-42716180D01*
X118150186Y-42716179D01*
X118155153Y-42714217D01*
X118355153Y-42592854D01*
X118531846Y-42439528D01*
X118615521Y-42337479D01*
X118676795Y-42262751D01*
X118676799Y-42262745D01*
X118680179Y-42258623D01*
X118701302Y-42221515D01*
X118752384Y-42172209D01*
X118822014Y-42158347D01*
X118888085Y-42184330D01*
X118915324Y-42213480D01*
X118942593Y-42253984D01*
X119001786Y-42341906D01*
X119005465Y-42345763D01*
X119005467Y-42345765D01*
X119039057Y-42380976D01*
X119163265Y-42511180D01*
X119350957Y-42650827D01*
X119559494Y-42756852D01*
X119613670Y-42773674D01*
X119777811Y-42824642D01*
X119777817Y-42824643D01*
X119782914Y-42826226D01*
X119907795Y-42842778D01*
X120009544Y-42856264D01*
X120009548Y-42856264D01*
X120014828Y-42856964D01*
X120020158Y-42856764D01*
X120020159Y-42856764D01*
X120131717Y-42852576D01*
X120248606Y-42848188D01*
X120363085Y-42824167D01*
X120472346Y-42801242D01*
X120472350Y-42801241D01*
X120477563Y-42800147D01*
X120610544Y-42747630D01*
X120690183Y-42716180D01*
X120690186Y-42716179D01*
X120695153Y-42714217D01*
X120895153Y-42592854D01*
X121071846Y-42439528D01*
X121155521Y-42337479D01*
X121216795Y-42262751D01*
X121216799Y-42262745D01*
X121220179Y-42258623D01*
X121241302Y-42221515D01*
X121292384Y-42172209D01*
X121362014Y-42158347D01*
X121428085Y-42184330D01*
X121455324Y-42213480D01*
X121482593Y-42253984D01*
X121541786Y-42341906D01*
X121545465Y-42345763D01*
X121545467Y-42345765D01*
X121579057Y-42380976D01*
X121703265Y-42511180D01*
X121890957Y-42650827D01*
X122099494Y-42756852D01*
X122153670Y-42773674D01*
X122317811Y-42824642D01*
X122317817Y-42824643D01*
X122322914Y-42826226D01*
X122447795Y-42842778D01*
X122549544Y-42856264D01*
X122549548Y-42856264D01*
X122554828Y-42856964D01*
X122560158Y-42856764D01*
X122560159Y-42856764D01*
X122671717Y-42852576D01*
X122788606Y-42848188D01*
X122903085Y-42824167D01*
X123012346Y-42801242D01*
X123012350Y-42801241D01*
X123017563Y-42800147D01*
X123150544Y-42747630D01*
X123230183Y-42716180D01*
X123230186Y-42716179D01*
X123235153Y-42714217D01*
X123435153Y-42592854D01*
X123611846Y-42439528D01*
X123695521Y-42337479D01*
X123756795Y-42262751D01*
X123756799Y-42262745D01*
X123760179Y-42258623D01*
X123875910Y-42055312D01*
X123955731Y-41835408D01*
X123997360Y-41605199D01*
X123998500Y-41581025D01*
X123998500Y-40966073D01*
X123994504Y-40918975D01*
X131911500Y-40918975D01*
X131911500Y-41533927D01*
X131926279Y-41708105D01*
X131927617Y-41713260D01*
X131927618Y-41713266D01*
X131957957Y-41830156D01*
X131985051Y-41934545D01*
X132020878Y-42014077D01*
X132075000Y-42134223D01*
X132081136Y-42147845D01*
X132211786Y-42341906D01*
X132215465Y-42345763D01*
X132215467Y-42345765D01*
X132249057Y-42380976D01*
X132373265Y-42511180D01*
X132560957Y-42650827D01*
X132769494Y-42756852D01*
X132823670Y-42773674D01*
X132987811Y-42824642D01*
X132987817Y-42824643D01*
X132992914Y-42826226D01*
X133117795Y-42842778D01*
X133219544Y-42856264D01*
X133219548Y-42856264D01*
X133224828Y-42856964D01*
X133230158Y-42856764D01*
X133230159Y-42856764D01*
X133341717Y-42852576D01*
X133458606Y-42848188D01*
X133573085Y-42824167D01*
X133682346Y-42801242D01*
X133682350Y-42801241D01*
X133687563Y-42800147D01*
X133820544Y-42747630D01*
X133900183Y-42716180D01*
X133900186Y-42716179D01*
X133905153Y-42714217D01*
X134105153Y-42592854D01*
X134281846Y-42439528D01*
X134365521Y-42337479D01*
X134426795Y-42262751D01*
X134426799Y-42262745D01*
X134430179Y-42258623D01*
X134451302Y-42221515D01*
X134502384Y-42172209D01*
X134572014Y-42158347D01*
X134638085Y-42184330D01*
X134665324Y-42213480D01*
X134692593Y-42253984D01*
X134751786Y-42341906D01*
X134755465Y-42345763D01*
X134755467Y-42345765D01*
X134789057Y-42380976D01*
X134913265Y-42511180D01*
X135100957Y-42650827D01*
X135309494Y-42756852D01*
X135363670Y-42773674D01*
X135527811Y-42824642D01*
X135527817Y-42824643D01*
X135532914Y-42826226D01*
X135657795Y-42842778D01*
X135759544Y-42856264D01*
X135759548Y-42856264D01*
X135764828Y-42856964D01*
X135770158Y-42856764D01*
X135770159Y-42856764D01*
X135881717Y-42852576D01*
X135998606Y-42848188D01*
X136113085Y-42824167D01*
X136222346Y-42801242D01*
X136222350Y-42801241D01*
X136227563Y-42800147D01*
X136360544Y-42747630D01*
X136440183Y-42716180D01*
X136440186Y-42716179D01*
X136445153Y-42714217D01*
X136645153Y-42592854D01*
X136821846Y-42439528D01*
X136905521Y-42337479D01*
X136966795Y-42262751D01*
X136966799Y-42262745D01*
X136970179Y-42258623D01*
X136991302Y-42221515D01*
X137042384Y-42172209D01*
X137112014Y-42158347D01*
X137178085Y-42184330D01*
X137205324Y-42213480D01*
X137232593Y-42253984D01*
X137291786Y-42341906D01*
X137295465Y-42345763D01*
X137295467Y-42345765D01*
X137329057Y-42380976D01*
X137453265Y-42511180D01*
X137640957Y-42650827D01*
X137849494Y-42756852D01*
X137903670Y-42773674D01*
X138067811Y-42824642D01*
X138067817Y-42824643D01*
X138072914Y-42826226D01*
X138197795Y-42842778D01*
X138299544Y-42856264D01*
X138299548Y-42856264D01*
X138304828Y-42856964D01*
X138310158Y-42856764D01*
X138310159Y-42856764D01*
X138421717Y-42852576D01*
X138538606Y-42848188D01*
X138653085Y-42824167D01*
X138762346Y-42801242D01*
X138762350Y-42801241D01*
X138767563Y-42800147D01*
X138900544Y-42747630D01*
X138980183Y-42716180D01*
X138980186Y-42716179D01*
X138985153Y-42714217D01*
X139185153Y-42592854D01*
X139361846Y-42439528D01*
X139445521Y-42337479D01*
X139506795Y-42262751D01*
X139506799Y-42262745D01*
X139510179Y-42258623D01*
X139531302Y-42221515D01*
X139582384Y-42172209D01*
X139652014Y-42158347D01*
X139718085Y-42184330D01*
X139745324Y-42213480D01*
X139772593Y-42253984D01*
X139831786Y-42341906D01*
X139835465Y-42345763D01*
X139835467Y-42345765D01*
X139869057Y-42380976D01*
X139993265Y-42511180D01*
X140180957Y-42650827D01*
X140389494Y-42756852D01*
X140443670Y-42773674D01*
X140607811Y-42824642D01*
X140607817Y-42824643D01*
X140612914Y-42826226D01*
X140737795Y-42842778D01*
X140839544Y-42856264D01*
X140839548Y-42856264D01*
X140844828Y-42856964D01*
X140850158Y-42856764D01*
X140850159Y-42856764D01*
X140961717Y-42852576D01*
X141078606Y-42848188D01*
X141193085Y-42824167D01*
X141302346Y-42801242D01*
X141302350Y-42801241D01*
X141307563Y-42800147D01*
X141440544Y-42747630D01*
X141520183Y-42716180D01*
X141520186Y-42716179D01*
X141525153Y-42714217D01*
X141725153Y-42592854D01*
X141901846Y-42439528D01*
X141985521Y-42337479D01*
X142046795Y-42262751D01*
X142046799Y-42262745D01*
X142050179Y-42258623D01*
X142071302Y-42221515D01*
X142122384Y-42172209D01*
X142192014Y-42158347D01*
X142258085Y-42184330D01*
X142285324Y-42213480D01*
X142312593Y-42253984D01*
X142371786Y-42341906D01*
X142375465Y-42345763D01*
X142375467Y-42345765D01*
X142409057Y-42380976D01*
X142533265Y-42511180D01*
X142720957Y-42650827D01*
X142929494Y-42756852D01*
X142983670Y-42773674D01*
X143147811Y-42824642D01*
X143147817Y-42824643D01*
X143152914Y-42826226D01*
X143277795Y-42842778D01*
X143379544Y-42856264D01*
X143379548Y-42856264D01*
X143384828Y-42856964D01*
X143390158Y-42856764D01*
X143390159Y-42856764D01*
X143501717Y-42852576D01*
X143618606Y-42848188D01*
X143733085Y-42824167D01*
X143842346Y-42801242D01*
X143842350Y-42801241D01*
X143847563Y-42800147D01*
X143980544Y-42747630D01*
X144060183Y-42716180D01*
X144060186Y-42716179D01*
X144065153Y-42714217D01*
X144265153Y-42592854D01*
X144441846Y-42439528D01*
X144525521Y-42337479D01*
X144586795Y-42262751D01*
X144586799Y-42262745D01*
X144590179Y-42258623D01*
X144705910Y-42055312D01*
X144785731Y-41835408D01*
X144827360Y-41605199D01*
X144828500Y-41581025D01*
X144828500Y-40966073D01*
X144813721Y-40791895D01*
X144812383Y-40786740D01*
X144812382Y-40786734D01*
X144756291Y-40570626D01*
X144754949Y-40565455D01*
X144658864Y-40352155D01*
X144528214Y-40158094D01*
X144366735Y-39988820D01*
X144179043Y-39849173D01*
X143970506Y-39743148D01*
X143895365Y-39719816D01*
X143831548Y-39700000D01*
X156786500Y-39700000D01*
X156787190Y-39706565D01*
X156790869Y-39741564D01*
X156806462Y-39889927D01*
X156865476Y-40071554D01*
X156960963Y-40236942D01*
X156965381Y-40241849D01*
X156965382Y-40241850D01*
X157031850Y-40315670D01*
X157088749Y-40378863D01*
X157094091Y-40382744D01*
X157094093Y-40382746D01*
X157236105Y-40485923D01*
X157243250Y-40491114D01*
X157249278Y-40493798D01*
X157249280Y-40493799D01*
X157410222Y-40565455D01*
X157417713Y-40568790D01*
X157511113Y-40588643D01*
X157598056Y-40607124D01*
X157598061Y-40607124D01*
X157604513Y-40608496D01*
X157795487Y-40608496D01*
X157801939Y-40607124D01*
X157801944Y-40607124D01*
X157888887Y-40588643D01*
X157982287Y-40568790D01*
X157989778Y-40565455D01*
X158150720Y-40493799D01*
X158150722Y-40493798D01*
X158156750Y-40491114D01*
X158163895Y-40485923D01*
X158305907Y-40382746D01*
X158305909Y-40382744D01*
X158311251Y-40378863D01*
X158368150Y-40315670D01*
X158434618Y-40241850D01*
X158434619Y-40241849D01*
X158439037Y-40236942D01*
X158534524Y-40071554D01*
X158593538Y-39889927D01*
X158609132Y-39741564D01*
X158612810Y-39706565D01*
X158613500Y-39700000D01*
X158593538Y-39510073D01*
X158534524Y-39328446D01*
X158439037Y-39163058D01*
X158311251Y-39021137D01*
X158305909Y-39017256D01*
X158305907Y-39017254D01*
X158162092Y-38912767D01*
X158162091Y-38912766D01*
X158156750Y-38908886D01*
X158150722Y-38906202D01*
X158150720Y-38906201D01*
X157988318Y-38833895D01*
X157988317Y-38833895D01*
X157982287Y-38831210D01*
X157888887Y-38811357D01*
X157801944Y-38792876D01*
X157801939Y-38792876D01*
X157795487Y-38791504D01*
X157604513Y-38791504D01*
X157598061Y-38792876D01*
X157598056Y-38792876D01*
X157511113Y-38811357D01*
X157417713Y-38831210D01*
X157411683Y-38833895D01*
X157411682Y-38833895D01*
X157249280Y-38906201D01*
X157249278Y-38906202D01*
X157243250Y-38908886D01*
X157237909Y-38912766D01*
X157237908Y-38912767D01*
X157094093Y-39017254D01*
X157094091Y-39017256D01*
X157088749Y-39021137D01*
X156960963Y-39163058D01*
X156865476Y-39328446D01*
X156806462Y-39510073D01*
X156786500Y-39700000D01*
X143831548Y-39700000D01*
X143752189Y-39675358D01*
X143752183Y-39675357D01*
X143747086Y-39673774D01*
X143608774Y-39655442D01*
X143520456Y-39643736D01*
X143520452Y-39643736D01*
X143515172Y-39643036D01*
X143509842Y-39643236D01*
X143509841Y-39643236D01*
X143398283Y-39647424D01*
X143281394Y-39651812D01*
X143180067Y-39673073D01*
X143057654Y-39698758D01*
X143057650Y-39698759D01*
X143052437Y-39699853D01*
X142936679Y-39745568D01*
X142839817Y-39783820D01*
X142839814Y-39783821D01*
X142834847Y-39785783D01*
X142779664Y-39819269D01*
X142652876Y-39896206D01*
X142634847Y-39907146D01*
X142458154Y-40060472D01*
X142444375Y-40077277D01*
X142313205Y-40237249D01*
X142313201Y-40237255D01*
X142309821Y-40241377D01*
X142297168Y-40263605D01*
X142288698Y-40278485D01*
X142237616Y-40327791D01*
X142167986Y-40341653D01*
X142101915Y-40315670D01*
X142074676Y-40286520D01*
X141991194Y-40162521D01*
X141988214Y-40158094D01*
X141826735Y-39988820D01*
X141639043Y-39849173D01*
X141430506Y-39743148D01*
X141355365Y-39719816D01*
X141212189Y-39675358D01*
X141212183Y-39675357D01*
X141207086Y-39673774D01*
X141068774Y-39655442D01*
X140980456Y-39643736D01*
X140980452Y-39643736D01*
X140975172Y-39643036D01*
X140969842Y-39643236D01*
X140969841Y-39643236D01*
X140858283Y-39647424D01*
X140741394Y-39651812D01*
X140640067Y-39673073D01*
X140517654Y-39698758D01*
X140517650Y-39698759D01*
X140512437Y-39699853D01*
X140396679Y-39745568D01*
X140299817Y-39783820D01*
X140299814Y-39783821D01*
X140294847Y-39785783D01*
X140239664Y-39819269D01*
X140112876Y-39896206D01*
X140094847Y-39907146D01*
X139918154Y-40060472D01*
X139904375Y-40077277D01*
X139773205Y-40237249D01*
X139773201Y-40237255D01*
X139769821Y-40241377D01*
X139757168Y-40263605D01*
X139748698Y-40278485D01*
X139697616Y-40327791D01*
X139627986Y-40341653D01*
X139561915Y-40315670D01*
X139534676Y-40286520D01*
X139451194Y-40162521D01*
X139448214Y-40158094D01*
X139286735Y-39988820D01*
X139099043Y-39849173D01*
X138890506Y-39743148D01*
X138815365Y-39719816D01*
X138672189Y-39675358D01*
X138672183Y-39675357D01*
X138667086Y-39673774D01*
X138528774Y-39655442D01*
X138440456Y-39643736D01*
X138440452Y-39643736D01*
X138435172Y-39643036D01*
X138429842Y-39643236D01*
X138429841Y-39643236D01*
X138318283Y-39647424D01*
X138201394Y-39651812D01*
X138100067Y-39673073D01*
X137977654Y-39698758D01*
X137977650Y-39698759D01*
X137972437Y-39699853D01*
X137856679Y-39745568D01*
X137759817Y-39783820D01*
X137759814Y-39783821D01*
X137754847Y-39785783D01*
X137699664Y-39819269D01*
X137572876Y-39896206D01*
X137554847Y-39907146D01*
X137378154Y-40060472D01*
X137364375Y-40077277D01*
X137233205Y-40237249D01*
X137233201Y-40237255D01*
X137229821Y-40241377D01*
X137217168Y-40263605D01*
X137208698Y-40278485D01*
X137157616Y-40327791D01*
X137087986Y-40341653D01*
X137021915Y-40315670D01*
X136994676Y-40286520D01*
X136911194Y-40162521D01*
X136908214Y-40158094D01*
X136746735Y-39988820D01*
X136559043Y-39849173D01*
X136350506Y-39743148D01*
X136275365Y-39719816D01*
X136132189Y-39675358D01*
X136132183Y-39675357D01*
X136127086Y-39673774D01*
X135988774Y-39655442D01*
X135900456Y-39643736D01*
X135900452Y-39643736D01*
X135895172Y-39643036D01*
X135889842Y-39643236D01*
X135889841Y-39643236D01*
X135778283Y-39647424D01*
X135661394Y-39651812D01*
X135560067Y-39673073D01*
X135437654Y-39698758D01*
X135437650Y-39698759D01*
X135432437Y-39699853D01*
X135316679Y-39745568D01*
X135219817Y-39783820D01*
X135219814Y-39783821D01*
X135214847Y-39785783D01*
X135159664Y-39819269D01*
X135032876Y-39896206D01*
X135014847Y-39907146D01*
X134838154Y-40060472D01*
X134824375Y-40077277D01*
X134693205Y-40237249D01*
X134693201Y-40237255D01*
X134689821Y-40241377D01*
X134677168Y-40263605D01*
X134668698Y-40278485D01*
X134617616Y-40327791D01*
X134547986Y-40341653D01*
X134481915Y-40315670D01*
X134454676Y-40286520D01*
X134371194Y-40162521D01*
X134368214Y-40158094D01*
X134206735Y-39988820D01*
X134019043Y-39849173D01*
X133810506Y-39743148D01*
X133735365Y-39719816D01*
X133592189Y-39675358D01*
X133592183Y-39675357D01*
X133587086Y-39673774D01*
X133448774Y-39655442D01*
X133360456Y-39643736D01*
X133360452Y-39643736D01*
X133355172Y-39643036D01*
X133349842Y-39643236D01*
X133349841Y-39643236D01*
X133238283Y-39647424D01*
X133121394Y-39651812D01*
X133020067Y-39673073D01*
X132897654Y-39698758D01*
X132897650Y-39698759D01*
X132892437Y-39699853D01*
X132776679Y-39745568D01*
X132679817Y-39783820D01*
X132679814Y-39783821D01*
X132674847Y-39785783D01*
X132619664Y-39819269D01*
X132492876Y-39896206D01*
X132474847Y-39907146D01*
X132298154Y-40060472D01*
X132284375Y-40077277D01*
X132153205Y-40237249D01*
X132153201Y-40237255D01*
X132149821Y-40241377D01*
X132034090Y-40444688D01*
X131954269Y-40664592D01*
X131912640Y-40894801D01*
X131911500Y-40918975D01*
X123994504Y-40918975D01*
X123983721Y-40791895D01*
X123982383Y-40786740D01*
X123982382Y-40786734D01*
X123926291Y-40570626D01*
X123924949Y-40565455D01*
X123828864Y-40352155D01*
X123698214Y-40158094D01*
X123536735Y-39988820D01*
X123349043Y-39849173D01*
X123140506Y-39743148D01*
X123065365Y-39719816D01*
X122922189Y-39675358D01*
X122922183Y-39675357D01*
X122917086Y-39673774D01*
X122778774Y-39655442D01*
X122690456Y-39643736D01*
X122690452Y-39643736D01*
X122685172Y-39643036D01*
X122679842Y-39643236D01*
X122679841Y-39643236D01*
X122568283Y-39647424D01*
X122451394Y-39651812D01*
X122350067Y-39673073D01*
X122227654Y-39698758D01*
X122227650Y-39698759D01*
X122222437Y-39699853D01*
X122106679Y-39745568D01*
X122009817Y-39783820D01*
X122009814Y-39783821D01*
X122004847Y-39785783D01*
X121949664Y-39819269D01*
X121822876Y-39896206D01*
X121804847Y-39907146D01*
X121628154Y-40060472D01*
X121614375Y-40077277D01*
X121483205Y-40237249D01*
X121483201Y-40237255D01*
X121479821Y-40241377D01*
X121467168Y-40263605D01*
X121458698Y-40278485D01*
X121407616Y-40327791D01*
X121337986Y-40341653D01*
X121271915Y-40315670D01*
X121244676Y-40286520D01*
X121161194Y-40162521D01*
X121158214Y-40158094D01*
X120996735Y-39988820D01*
X120809043Y-39849173D01*
X120600506Y-39743148D01*
X120525365Y-39719816D01*
X120382189Y-39675358D01*
X120382183Y-39675357D01*
X120377086Y-39673774D01*
X120238774Y-39655442D01*
X120150456Y-39643736D01*
X120150452Y-39643736D01*
X120145172Y-39643036D01*
X120139842Y-39643236D01*
X120139841Y-39643236D01*
X120028283Y-39647424D01*
X119911394Y-39651812D01*
X119810067Y-39673073D01*
X119687654Y-39698758D01*
X119687650Y-39698759D01*
X119682437Y-39699853D01*
X119566679Y-39745568D01*
X119469817Y-39783820D01*
X119469814Y-39783821D01*
X119464847Y-39785783D01*
X119409664Y-39819269D01*
X119282876Y-39896206D01*
X119264847Y-39907146D01*
X119088154Y-40060472D01*
X119074375Y-40077277D01*
X118943205Y-40237249D01*
X118943201Y-40237255D01*
X118939821Y-40241377D01*
X118927168Y-40263605D01*
X118918698Y-40278485D01*
X118867616Y-40327791D01*
X118797986Y-40341653D01*
X118731915Y-40315670D01*
X118704676Y-40286520D01*
X118621194Y-40162521D01*
X118618214Y-40158094D01*
X118456735Y-39988820D01*
X118269043Y-39849173D01*
X118060506Y-39743148D01*
X117985365Y-39719816D01*
X117842189Y-39675358D01*
X117842183Y-39675357D01*
X117837086Y-39673774D01*
X117698774Y-39655442D01*
X117610456Y-39643736D01*
X117610452Y-39643736D01*
X117605172Y-39643036D01*
X117599842Y-39643236D01*
X117599841Y-39643236D01*
X117488283Y-39647424D01*
X117371394Y-39651812D01*
X117270067Y-39673073D01*
X117147654Y-39698758D01*
X117147650Y-39698759D01*
X117142437Y-39699853D01*
X117026679Y-39745568D01*
X116929817Y-39783820D01*
X116929814Y-39783821D01*
X116924847Y-39785783D01*
X116869664Y-39819269D01*
X116742876Y-39896206D01*
X116724847Y-39907146D01*
X116548154Y-40060472D01*
X116517480Y-40097881D01*
X116458822Y-40137875D01*
X116387852Y-40139807D01*
X116327103Y-40103063D01*
X116307384Y-40074409D01*
X116305185Y-40070018D01*
X116302687Y-40063136D01*
X116205731Y-39915253D01*
X116077355Y-39793642D01*
X115924445Y-39704825D01*
X115755204Y-39653567D01*
X115748764Y-39652992D01*
X115748763Y-39652992D01*
X115678815Y-39646749D01*
X115678809Y-39646749D01*
X115676022Y-39646500D01*
X114337114Y-39646500D01*
X114241894Y-39657602D01*
X114211629Y-39661130D01*
X114211628Y-39661130D01*
X114204357Y-39661978D01*
X114197479Y-39664474D01*
X114197477Y-39664475D01*
X114092161Y-39702703D01*
X114038136Y-39722313D01*
X113890253Y-39819269D01*
X113768642Y-39947645D01*
X113679825Y-40100555D01*
X113628567Y-40269796D01*
X113627992Y-40276236D01*
X113627992Y-40276237D01*
X113622154Y-40341653D01*
X113621500Y-40348978D01*
X108826725Y-40348978D01*
X108698214Y-40158094D01*
X108536735Y-39988820D01*
X108349043Y-39849173D01*
X108140506Y-39743148D01*
X108065365Y-39719816D01*
X107922189Y-39675358D01*
X107922183Y-39675357D01*
X107917086Y-39673774D01*
X107778774Y-39655442D01*
X107690456Y-39643736D01*
X107690452Y-39643736D01*
X107685172Y-39643036D01*
X107679842Y-39643236D01*
X107679841Y-39643236D01*
X107568283Y-39647424D01*
X107451394Y-39651812D01*
X107350067Y-39673073D01*
X107227654Y-39698758D01*
X107227650Y-39698759D01*
X107222437Y-39699853D01*
X107106679Y-39745568D01*
X107009817Y-39783820D01*
X107009814Y-39783821D01*
X107004847Y-39785783D01*
X106949664Y-39819269D01*
X106822876Y-39896206D01*
X106804847Y-39907146D01*
X106628154Y-40060472D01*
X106614375Y-40077277D01*
X106483205Y-40237249D01*
X106483201Y-40237255D01*
X106479821Y-40241377D01*
X106467168Y-40263605D01*
X106458698Y-40278485D01*
X106407616Y-40327791D01*
X106337986Y-40341653D01*
X106271915Y-40315670D01*
X106244676Y-40286520D01*
X106161194Y-40162521D01*
X106158214Y-40158094D01*
X105996735Y-39988820D01*
X105809043Y-39849173D01*
X105600506Y-39743148D01*
X105525365Y-39719816D01*
X105382189Y-39675358D01*
X105382183Y-39675357D01*
X105377086Y-39673774D01*
X105238774Y-39655442D01*
X105150456Y-39643736D01*
X105150452Y-39643736D01*
X105145172Y-39643036D01*
X105139842Y-39643236D01*
X105139841Y-39643236D01*
X105028283Y-39647424D01*
X104911394Y-39651812D01*
X104810067Y-39673073D01*
X104687654Y-39698758D01*
X104687650Y-39698759D01*
X104682437Y-39699853D01*
X104566679Y-39745568D01*
X104469817Y-39783820D01*
X104469814Y-39783821D01*
X104464847Y-39785783D01*
X104409664Y-39819269D01*
X104282876Y-39896206D01*
X104264847Y-39907146D01*
X104088154Y-40060472D01*
X104074375Y-40077277D01*
X103943205Y-40237249D01*
X103943201Y-40237255D01*
X103939821Y-40241377D01*
X103927168Y-40263605D01*
X103918698Y-40278485D01*
X103867616Y-40327791D01*
X103797986Y-40341653D01*
X103731915Y-40315670D01*
X103704676Y-40286520D01*
X103621194Y-40162521D01*
X103618214Y-40158094D01*
X103456735Y-39988820D01*
X103269043Y-39849173D01*
X103060506Y-39743148D01*
X102985365Y-39719816D01*
X102842189Y-39675358D01*
X102842183Y-39675357D01*
X102837086Y-39673774D01*
X102698774Y-39655442D01*
X102610456Y-39643736D01*
X102610452Y-39643736D01*
X102605172Y-39643036D01*
X102599842Y-39643236D01*
X102599841Y-39643236D01*
X102488283Y-39647424D01*
X102371394Y-39651812D01*
X102270067Y-39673073D01*
X102147654Y-39698758D01*
X102147650Y-39698759D01*
X102142437Y-39699853D01*
X102026679Y-39745568D01*
X101929817Y-39783820D01*
X101929814Y-39783821D01*
X101924847Y-39785783D01*
X101869664Y-39819269D01*
X101742876Y-39896206D01*
X101724847Y-39907146D01*
X101548154Y-40060472D01*
X101517480Y-40097881D01*
X101458822Y-40137875D01*
X101387852Y-40139807D01*
X101327103Y-40103063D01*
X101307384Y-40074409D01*
X101305185Y-40070018D01*
X101302687Y-40063136D01*
X101205731Y-39915253D01*
X101077355Y-39793642D01*
X100924445Y-39704825D01*
X100755204Y-39653567D01*
X100748764Y-39652992D01*
X100748763Y-39652992D01*
X100678815Y-39646749D01*
X100678809Y-39646749D01*
X100676022Y-39646500D01*
X99337114Y-39646500D01*
X99241894Y-39657602D01*
X99211629Y-39661130D01*
X99211628Y-39661130D01*
X99204357Y-39661978D01*
X99197479Y-39664474D01*
X99197477Y-39664475D01*
X99092161Y-39702703D01*
X99038136Y-39722313D01*
X98890253Y-39819269D01*
X98768642Y-39947645D01*
X98679825Y-40100555D01*
X98628567Y-40269796D01*
X98627992Y-40276236D01*
X98627992Y-40276237D01*
X98622154Y-40341653D01*
X98621500Y-40348978D01*
X93826725Y-40348978D01*
X93698214Y-40158094D01*
X93536735Y-39988820D01*
X93349043Y-39849173D01*
X93140506Y-39743148D01*
X93065365Y-39719816D01*
X92922189Y-39675358D01*
X92922183Y-39675357D01*
X92917086Y-39673774D01*
X92778774Y-39655442D01*
X92690456Y-39643736D01*
X92690452Y-39643736D01*
X92685172Y-39643036D01*
X92679842Y-39643236D01*
X92679841Y-39643236D01*
X92568283Y-39647424D01*
X92451394Y-39651812D01*
X92350067Y-39673073D01*
X92227654Y-39698758D01*
X92227650Y-39698759D01*
X92222437Y-39699853D01*
X92106679Y-39745568D01*
X92009817Y-39783820D01*
X92009814Y-39783821D01*
X92004847Y-39785783D01*
X91949664Y-39819269D01*
X91822876Y-39896206D01*
X91804847Y-39907146D01*
X91628154Y-40060472D01*
X91614375Y-40077277D01*
X91483205Y-40237249D01*
X91483201Y-40237255D01*
X91479821Y-40241377D01*
X91467168Y-40263605D01*
X91458698Y-40278485D01*
X91407616Y-40327791D01*
X91337986Y-40341653D01*
X91271915Y-40315670D01*
X91244676Y-40286520D01*
X91161194Y-40162521D01*
X91158214Y-40158094D01*
X90996735Y-39988820D01*
X90809043Y-39849173D01*
X90600506Y-39743148D01*
X90525365Y-39719816D01*
X90382189Y-39675358D01*
X90382183Y-39675357D01*
X90377086Y-39673774D01*
X90238774Y-39655442D01*
X90150456Y-39643736D01*
X90150452Y-39643736D01*
X90145172Y-39643036D01*
X90139842Y-39643236D01*
X90139841Y-39643236D01*
X90028283Y-39647424D01*
X89911394Y-39651812D01*
X89810067Y-39673073D01*
X89687654Y-39698758D01*
X89687650Y-39698759D01*
X89682437Y-39699853D01*
X89566679Y-39745568D01*
X89469817Y-39783820D01*
X89469814Y-39783821D01*
X89464847Y-39785783D01*
X89409664Y-39819269D01*
X89282876Y-39896206D01*
X89264847Y-39907146D01*
X89088154Y-40060472D01*
X89074375Y-40077277D01*
X88943205Y-40237249D01*
X88943201Y-40237255D01*
X88939821Y-40241377D01*
X88927168Y-40263605D01*
X88918698Y-40278485D01*
X88867616Y-40327791D01*
X88797986Y-40341653D01*
X88731915Y-40315670D01*
X88704676Y-40286520D01*
X88621194Y-40162521D01*
X88618214Y-40158094D01*
X88456735Y-39988820D01*
X88269043Y-39849173D01*
X88060506Y-39743148D01*
X87985365Y-39719816D01*
X87842189Y-39675358D01*
X87842183Y-39675357D01*
X87837086Y-39673774D01*
X87698774Y-39655442D01*
X87610456Y-39643736D01*
X87610452Y-39643736D01*
X87605172Y-39643036D01*
X87599842Y-39643236D01*
X87599841Y-39643236D01*
X87488283Y-39647424D01*
X87371394Y-39651812D01*
X87270067Y-39673073D01*
X87147654Y-39698758D01*
X87147650Y-39698759D01*
X87142437Y-39699853D01*
X87026679Y-39745568D01*
X86929817Y-39783820D01*
X86929814Y-39783821D01*
X86924847Y-39785783D01*
X86869664Y-39819269D01*
X86742876Y-39896206D01*
X86724847Y-39907146D01*
X86548154Y-40060472D01*
X86517480Y-40097881D01*
X86458822Y-40137875D01*
X86387852Y-40139807D01*
X86327103Y-40103063D01*
X86307384Y-40074409D01*
X86305185Y-40070018D01*
X86302687Y-40063136D01*
X86205731Y-39915253D01*
X86077355Y-39793642D01*
X85924445Y-39704825D01*
X85755204Y-39653567D01*
X85748764Y-39652992D01*
X85748763Y-39652992D01*
X85678815Y-39646749D01*
X85678809Y-39646749D01*
X85676022Y-39646500D01*
X84337114Y-39646500D01*
X84241894Y-39657602D01*
X84211629Y-39661130D01*
X84211628Y-39661130D01*
X84204357Y-39661978D01*
X84197479Y-39664474D01*
X84197477Y-39664475D01*
X84092161Y-39702703D01*
X84038136Y-39722313D01*
X83890253Y-39819269D01*
X83768642Y-39947645D01*
X83679825Y-40100555D01*
X83628567Y-40269796D01*
X83627992Y-40276236D01*
X83627992Y-40276237D01*
X83622154Y-40341653D01*
X83621500Y-40348978D01*
X78826725Y-40348978D01*
X78698214Y-40158094D01*
X78536735Y-39988820D01*
X78349043Y-39849173D01*
X78140506Y-39743148D01*
X78065365Y-39719816D01*
X77922189Y-39675358D01*
X77922183Y-39675357D01*
X77917086Y-39673774D01*
X77778774Y-39655442D01*
X77690456Y-39643736D01*
X77690452Y-39643736D01*
X77685172Y-39643036D01*
X77679842Y-39643236D01*
X77679841Y-39643236D01*
X77568283Y-39647424D01*
X77451394Y-39651812D01*
X77350067Y-39673073D01*
X77227654Y-39698758D01*
X77227650Y-39698759D01*
X77222437Y-39699853D01*
X77106679Y-39745568D01*
X77009817Y-39783820D01*
X77009814Y-39783821D01*
X77004847Y-39785783D01*
X76949664Y-39819269D01*
X76822876Y-39896206D01*
X76804847Y-39907146D01*
X76628154Y-40060472D01*
X76614375Y-40077277D01*
X76483205Y-40237249D01*
X76483201Y-40237255D01*
X76479821Y-40241377D01*
X76467168Y-40263605D01*
X76458698Y-40278485D01*
X76407616Y-40327791D01*
X76337986Y-40341653D01*
X76271915Y-40315670D01*
X76244676Y-40286520D01*
X76161194Y-40162521D01*
X76158214Y-40158094D01*
X75996735Y-39988820D01*
X75809043Y-39849173D01*
X75600506Y-39743148D01*
X75525365Y-39719816D01*
X75382189Y-39675358D01*
X75382183Y-39675357D01*
X75377086Y-39673774D01*
X75238774Y-39655442D01*
X75150456Y-39643736D01*
X75150452Y-39643736D01*
X75145172Y-39643036D01*
X75139842Y-39643236D01*
X75139841Y-39643236D01*
X75028283Y-39647424D01*
X74911394Y-39651812D01*
X74810067Y-39673073D01*
X74687654Y-39698758D01*
X74687650Y-39698759D01*
X74682437Y-39699853D01*
X74566679Y-39745568D01*
X74469817Y-39783820D01*
X74469814Y-39783821D01*
X74464847Y-39785783D01*
X74409664Y-39819269D01*
X74282876Y-39896206D01*
X74264847Y-39907146D01*
X74088154Y-40060472D01*
X74074375Y-40077277D01*
X73943205Y-40237249D01*
X73943201Y-40237255D01*
X73939821Y-40241377D01*
X73927168Y-40263605D01*
X73918698Y-40278485D01*
X73867616Y-40327791D01*
X73797986Y-40341653D01*
X73731915Y-40315670D01*
X73704676Y-40286520D01*
X73621194Y-40162521D01*
X73618214Y-40158094D01*
X73456735Y-39988820D01*
X73269043Y-39849173D01*
X73060506Y-39743148D01*
X72985365Y-39719816D01*
X72842189Y-39675358D01*
X72842183Y-39675357D01*
X72837086Y-39673774D01*
X72698774Y-39655442D01*
X72610456Y-39643736D01*
X72610452Y-39643736D01*
X72605172Y-39643036D01*
X72599842Y-39643236D01*
X72599841Y-39643236D01*
X72488283Y-39647424D01*
X72371394Y-39651812D01*
X72270067Y-39673073D01*
X72147654Y-39698758D01*
X72147650Y-39698759D01*
X72142437Y-39699853D01*
X72026679Y-39745568D01*
X71929817Y-39783820D01*
X71929814Y-39783821D01*
X71924847Y-39785783D01*
X71869664Y-39819269D01*
X71742876Y-39896206D01*
X71724847Y-39907146D01*
X71548154Y-40060472D01*
X71517480Y-40097881D01*
X71458822Y-40137875D01*
X71387852Y-40139807D01*
X71327103Y-40103063D01*
X71307384Y-40074409D01*
X71305185Y-40070018D01*
X71302687Y-40063136D01*
X71205731Y-39915253D01*
X71077355Y-39793642D01*
X70924445Y-39704825D01*
X70755204Y-39653567D01*
X70748764Y-39652992D01*
X70748763Y-39652992D01*
X70678815Y-39646749D01*
X70678809Y-39646749D01*
X70676022Y-39646500D01*
X69337114Y-39646500D01*
X69241894Y-39657602D01*
X69211629Y-39661130D01*
X69211628Y-39661130D01*
X69204357Y-39661978D01*
X69197479Y-39664474D01*
X69197477Y-39664475D01*
X69092161Y-39702703D01*
X69038136Y-39722313D01*
X68890253Y-39819269D01*
X68768642Y-39947645D01*
X68679825Y-40100555D01*
X68628567Y-40269796D01*
X68627992Y-40276236D01*
X68627992Y-40276237D01*
X68622154Y-40341653D01*
X68621500Y-40348978D01*
X63826725Y-40348978D01*
X63698214Y-40158094D01*
X63536735Y-39988820D01*
X63349043Y-39849173D01*
X63140506Y-39743148D01*
X63065365Y-39719816D01*
X62922189Y-39675358D01*
X62922183Y-39675357D01*
X62917086Y-39673774D01*
X62778774Y-39655442D01*
X62690456Y-39643736D01*
X62690452Y-39643736D01*
X62685172Y-39643036D01*
X62679842Y-39643236D01*
X62679841Y-39643236D01*
X62568283Y-39647424D01*
X62451394Y-39651812D01*
X62350067Y-39673073D01*
X62227654Y-39698758D01*
X62227650Y-39698759D01*
X62222437Y-39699853D01*
X62106679Y-39745568D01*
X62009817Y-39783820D01*
X62009814Y-39783821D01*
X62004847Y-39785783D01*
X61949664Y-39819269D01*
X61822876Y-39896206D01*
X61804847Y-39907146D01*
X61628154Y-40060472D01*
X61614375Y-40077277D01*
X61483205Y-40237249D01*
X61483201Y-40237255D01*
X61479821Y-40241377D01*
X61467168Y-40263605D01*
X61458698Y-40278485D01*
X61407616Y-40327791D01*
X61337986Y-40341653D01*
X61271915Y-40315670D01*
X61244676Y-40286520D01*
X61161194Y-40162521D01*
X61158214Y-40158094D01*
X60996735Y-39988820D01*
X60809043Y-39849173D01*
X60600506Y-39743148D01*
X60525365Y-39719816D01*
X60382189Y-39675358D01*
X60382183Y-39675357D01*
X60377086Y-39673774D01*
X60238774Y-39655442D01*
X60150456Y-39643736D01*
X60150452Y-39643736D01*
X60145172Y-39643036D01*
X60139842Y-39643236D01*
X60139841Y-39643236D01*
X60028283Y-39647424D01*
X59911394Y-39651812D01*
X59810067Y-39673073D01*
X59687654Y-39698758D01*
X59687650Y-39698759D01*
X59682437Y-39699853D01*
X59566679Y-39745568D01*
X59469817Y-39783820D01*
X59469814Y-39783821D01*
X59464847Y-39785783D01*
X59409664Y-39819269D01*
X59282876Y-39896206D01*
X59264847Y-39907146D01*
X59088154Y-40060472D01*
X59074375Y-40077277D01*
X58943205Y-40237249D01*
X58943201Y-40237255D01*
X58939821Y-40241377D01*
X58927168Y-40263605D01*
X58918698Y-40278485D01*
X58867616Y-40327791D01*
X58797986Y-40341653D01*
X58731915Y-40315670D01*
X58704676Y-40286520D01*
X58621194Y-40162521D01*
X58618214Y-40158094D01*
X58456735Y-39988820D01*
X58269043Y-39849173D01*
X58060506Y-39743148D01*
X57985365Y-39719816D01*
X57842189Y-39675358D01*
X57842183Y-39675357D01*
X57837086Y-39673774D01*
X57698774Y-39655442D01*
X57610456Y-39643736D01*
X57610452Y-39643736D01*
X57605172Y-39643036D01*
X57599842Y-39643236D01*
X57599841Y-39643236D01*
X57488283Y-39647424D01*
X57371394Y-39651812D01*
X57270067Y-39673073D01*
X57147654Y-39698758D01*
X57147650Y-39698759D01*
X57142437Y-39699853D01*
X57026679Y-39745568D01*
X56929817Y-39783820D01*
X56929814Y-39783821D01*
X56924847Y-39785783D01*
X56869664Y-39819269D01*
X56742876Y-39896206D01*
X56724847Y-39907146D01*
X56548154Y-40060472D01*
X56517480Y-40097881D01*
X56458822Y-40137875D01*
X56387852Y-40139807D01*
X56327103Y-40103063D01*
X56307384Y-40074409D01*
X56305185Y-40070018D01*
X56302687Y-40063136D01*
X56205731Y-39915253D01*
X56077355Y-39793642D01*
X55924445Y-39704825D01*
X55755204Y-39653567D01*
X55748764Y-39652992D01*
X55748763Y-39652992D01*
X55678815Y-39646749D01*
X55678809Y-39646749D01*
X55676022Y-39646500D01*
X54337114Y-39646500D01*
X54241894Y-39657602D01*
X54211629Y-39661130D01*
X54211628Y-39661130D01*
X54204357Y-39661978D01*
X54197479Y-39664474D01*
X54197477Y-39664475D01*
X54092161Y-39702703D01*
X54038136Y-39722313D01*
X53890253Y-39819269D01*
X53768642Y-39947645D01*
X53679825Y-40100555D01*
X53628567Y-40269796D01*
X53627992Y-40276236D01*
X53627992Y-40276237D01*
X53622154Y-40341653D01*
X53621500Y-40348978D01*
X50508000Y-40348978D01*
X50508000Y-35634000D01*
X50528002Y-35565879D01*
X50581658Y-35519386D01*
X50634000Y-35508000D01*
X169366000Y-35508000D01*
X169434121Y-35528002D01*
G37*
%TD.AperFunction*%
%TD*%
M02*
