%TF.GenerationSoftware,KiCad,Pcbnew,(5.99.0-8593-g9f18fee124)*%
%TF.CreationDate,2021-02-26T16:48:12-06:00*%
%TF.ProjectId,EE223_Design,45453232-335f-4446-9573-69676e2e6b69,rev?*%
%TF.SameCoordinates,Original*%
%TF.FileFunction,Soldermask,Top*%
%TF.FilePolarity,Negative*%
%FSLAX46Y46*%
G04 Gerber Fmt 4.6, Leading zero omitted, Abs format (unit mm)*
G04 Created by KiCad (PCBNEW (5.99.0-8593-g9f18fee124)) date 2021-02-26 16:48:12*
%MOMM*%
%LPD*%
G01*
G04 APERTURE LIST*
G04 Aperture macros list*
%AMRoundRect*
0 Rectangle with rounded corners*
0 $1 Rounding radius*
0 $2 $3 $4 $5 $6 $7 $8 $9 X,Y pos of 4 corners*
0 Add a 4 corners polygon primitive as box body*
4,1,4,$2,$3,$4,$5,$6,$7,$8,$9,$2,$3,0*
0 Add four circle primitives for the rounded corners*
1,1,$1+$1,$2,$3*
1,1,$1+$1,$4,$5*
1,1,$1+$1,$6,$7*
1,1,$1+$1,$8,$9*
0 Add four rect primitives between the rounded corners*
20,1,$1+$1,$2,$3,$4,$5,0*
20,1,$1+$1,$4,$5,$6,$7,0*
20,1,$1+$1,$6,$7,$8,$9,0*
20,1,$1+$1,$8,$9,$2,$3,0*%
G04 Aperture macros list end*
%ADD10RoundRect,0.250000X-0.620000X-0.845000X0.620000X-0.845000X0.620000X0.845000X-0.620000X0.845000X0*%
%ADD11O,1.740000X2.190000*%
%ADD12RoundRect,0.155000X0.155000X-0.212500X0.155000X0.212500X-0.155000X0.212500X-0.155000X-0.212500X0*%
%ADD13RoundRect,0.150000X0.587500X0.150000X-0.587500X0.150000X-0.587500X-0.150000X0.587500X-0.150000X0*%
%ADD14RoundRect,0.160000X0.160000X-0.197500X0.160000X0.197500X-0.160000X0.197500X-0.160000X-0.197500X0*%
%ADD15RoundRect,0.155000X-0.155000X0.212500X-0.155000X-0.212500X0.155000X-0.212500X0.155000X0.212500X0*%
%ADD16RoundRect,0.155000X-0.212500X-0.155000X0.212500X-0.155000X0.212500X0.155000X-0.212500X0.155000X0*%
%ADD17RoundRect,0.160000X-0.197500X-0.160000X0.197500X-0.160000X0.197500X0.160000X-0.197500X0.160000X0*%
%ADD18RoundRect,0.155000X0.212500X0.155000X-0.212500X0.155000X-0.212500X-0.155000X0.212500X-0.155000X0*%
%ADD19R,1.780000X2.000000*%
%ADD20R,0.450000X1.750000*%
%ADD21RoundRect,0.150000X0.512500X0.150000X-0.512500X0.150000X-0.512500X-0.150000X0.512500X-0.150000X0*%
%ADD22R,1.000000X1.000000*%
%ADD23O,1.000000X1.000000*%
%ADD24RoundRect,0.160000X0.197500X0.160000X-0.197500X0.160000X-0.197500X-0.160000X0.197500X-0.160000X0*%
%ADD25R,1.700000X1.700000*%
%ADD26O,1.700000X1.700000*%
%ADD27R,1.900000X5.100000*%
%ADD28RoundRect,0.075000X-0.700000X-0.075000X0.700000X-0.075000X0.700000X0.075000X-0.700000X0.075000X0*%
%ADD29RoundRect,0.075000X-0.075000X-0.700000X0.075000X-0.700000X0.075000X0.700000X-0.075000X0.700000X0*%
%ADD30R,1.800000X1.800000*%
%ADD31C,1.800000*%
%ADD32RoundRect,0.160000X-0.160000X0.197500X-0.160000X-0.197500X0.160000X-0.197500X0.160000X0.197500X0*%
G04 APERTURE END LIST*
D10*
%TO.C,J6*%
X70000000Y-41250000D03*
D11*
X72540000Y-41250000D03*
X75080000Y-41250000D03*
X77620000Y-41250000D03*
%TD*%
D12*
%TO.C,C8*%
X101300000Y-67700000D03*
X101300000Y-66565000D03*
%TD*%
D13*
%TO.C,Q1*%
X151600000Y-41600000D03*
X151600000Y-39700000D03*
X149725000Y-40650000D03*
%TD*%
D14*
%TO.C,R12*%
X89200000Y-58200000D03*
X89200000Y-57005000D03*
%TD*%
%TO.C,R6*%
X129250000Y-47000000D03*
X129250000Y-45805000D03*
%TD*%
D15*
%TO.C,C1*%
X141250000Y-80682500D03*
X141250000Y-81817500D03*
%TD*%
D16*
%TO.C,C10*%
X98932500Y-79500000D03*
X100067500Y-79500000D03*
%TD*%
D15*
%TO.C,C2*%
X139250000Y-80682500D03*
X139250000Y-81817500D03*
%TD*%
D17*
%TO.C,R13*%
X83702500Y-72200000D03*
X84897500Y-72200000D03*
%TD*%
D18*
%TO.C,C6*%
X146167500Y-75200000D03*
X145032500Y-75200000D03*
%TD*%
D17*
%TO.C,R5*%
X160750000Y-47000000D03*
X161945000Y-47000000D03*
%TD*%
D19*
%TO.C,U2*%
X147140000Y-49235000D03*
X144600000Y-49235000D03*
X142060000Y-49235000D03*
X139520000Y-49235000D03*
X136980000Y-49235000D03*
X134440000Y-49235000D03*
X131900000Y-49235000D03*
X129360000Y-49235000D03*
X129360000Y-58765000D03*
X131900000Y-58765000D03*
X134440000Y-58765000D03*
X136980000Y-58765000D03*
X139520000Y-58765000D03*
X142060000Y-58765000D03*
X144600000Y-58765000D03*
X147140000Y-58765000D03*
%TD*%
D14*
%TO.C,R7*%
X161000000Y-60250000D03*
X161000000Y-59055000D03*
%TD*%
%TO.C,R9*%
X59250000Y-58250000D03*
X59250000Y-57055000D03*
%TD*%
D12*
%TO.C,C7*%
X100100000Y-67667500D03*
X100100000Y-66532500D03*
%TD*%
D20*
%TO.C,U4*%
X107150000Y-48000000D03*
X106500000Y-48000000D03*
X105850000Y-48000000D03*
X105200000Y-48000000D03*
X104550000Y-48000000D03*
X103900000Y-48000000D03*
X103250000Y-48000000D03*
X102600000Y-48000000D03*
X101950000Y-48000000D03*
X101300000Y-48000000D03*
X100650000Y-48000000D03*
X100000000Y-48000000D03*
X100000000Y-55200000D03*
X100650000Y-55200000D03*
X101300000Y-55200000D03*
X101950000Y-55200000D03*
X102600000Y-55200000D03*
X103250000Y-55200000D03*
X103900000Y-55200000D03*
X104550000Y-55200000D03*
X105200000Y-55200000D03*
X105850000Y-55200000D03*
X106500000Y-55200000D03*
X107150000Y-55200000D03*
%TD*%
D12*
%TO.C,C18*%
X94000000Y-52567500D03*
X94000000Y-51432500D03*
%TD*%
D10*
%TO.C,J4*%
X55000000Y-41250000D03*
D11*
X57540000Y-41250000D03*
X60080000Y-41250000D03*
X62620000Y-41250000D03*
%TD*%
D16*
%TO.C,C13*%
X88932500Y-65600000D03*
X90067500Y-65600000D03*
%TD*%
D14*
%TO.C,R11*%
X74600000Y-58200000D03*
X74600000Y-57005000D03*
%TD*%
%TO.C,R10*%
X119600000Y-58100000D03*
X119600000Y-56905000D03*
%TD*%
D12*
%TO.C,C17*%
X79500000Y-52567500D03*
X79500000Y-51432500D03*
%TD*%
D10*
%TO.C,J5*%
X115000000Y-41250000D03*
D11*
X117540000Y-41250000D03*
X120080000Y-41250000D03*
X122620000Y-41250000D03*
%TD*%
D18*
%TO.C,C3*%
X155135000Y-42000000D03*
X154000000Y-42000000D03*
%TD*%
D20*
%TO.C,U7*%
X77575000Y-48000000D03*
X76925000Y-48000000D03*
X76275000Y-48000000D03*
X75625000Y-48000000D03*
X74975000Y-48000000D03*
X74325000Y-48000000D03*
X73675000Y-48000000D03*
X73025000Y-48000000D03*
X72375000Y-48000000D03*
X71725000Y-48000000D03*
X71075000Y-48000000D03*
X70425000Y-48000000D03*
X70425000Y-55200000D03*
X71075000Y-55200000D03*
X71725000Y-55200000D03*
X72375000Y-55200000D03*
X73025000Y-55200000D03*
X73675000Y-55200000D03*
X74325000Y-55200000D03*
X74975000Y-55200000D03*
X75625000Y-55200000D03*
X76275000Y-55200000D03*
X76925000Y-55200000D03*
X77575000Y-55200000D03*
%TD*%
D12*
%TO.C,C5*%
X141250000Y-78885000D03*
X141250000Y-77750000D03*
%TD*%
D21*
%TO.C,U1*%
X146737500Y-79750000D03*
X146737500Y-78800000D03*
X146737500Y-77850000D03*
X144462500Y-77850000D03*
X144462500Y-78800000D03*
X144462500Y-79750000D03*
%TD*%
D18*
%TO.C,C4*%
X146200000Y-82000000D03*
X145065000Y-82000000D03*
%TD*%
D20*
%TO.C,U8*%
X92150000Y-48000000D03*
X91500000Y-48000000D03*
X90850000Y-48000000D03*
X90200000Y-48000000D03*
X89550000Y-48000000D03*
X88900000Y-48000000D03*
X88250000Y-48000000D03*
X87600000Y-48000000D03*
X86950000Y-48000000D03*
X86300000Y-48000000D03*
X85650000Y-48000000D03*
X85000000Y-48000000D03*
X85000000Y-55200000D03*
X85650000Y-55200000D03*
X86300000Y-55200000D03*
X86950000Y-55200000D03*
X87600000Y-55200000D03*
X88250000Y-55200000D03*
X88900000Y-55200000D03*
X89550000Y-55200000D03*
X90200000Y-55200000D03*
X90850000Y-55200000D03*
X91500000Y-55200000D03*
X92150000Y-55200000D03*
%TD*%
D14*
%TO.C,R8*%
X104200000Y-58300000D03*
X104200000Y-57105000D03*
%TD*%
D22*
%TO.C,J1*%
X123250000Y-71750000D03*
D23*
X124520000Y-71750000D03*
X123250000Y-73020000D03*
X124520000Y-73020000D03*
X123250000Y-74290000D03*
X124520000Y-74290000D03*
X123250000Y-75560000D03*
X124520000Y-75560000D03*
X123250000Y-76830000D03*
X124520000Y-76830000D03*
%TD*%
D12*
%TO.C,C14*%
X109000000Y-52067500D03*
X109000000Y-50932500D03*
%TD*%
D10*
%TO.C,J3*%
X100000000Y-41250000D03*
D11*
X102540000Y-41250000D03*
X105080000Y-41250000D03*
X107620000Y-41250000D03*
%TD*%
D18*
%TO.C,C11*%
X90600000Y-80800000D03*
X89465000Y-80800000D03*
%TD*%
D20*
%TO.C,U5*%
X62175000Y-48100000D03*
X61525000Y-48100000D03*
X60875000Y-48100000D03*
X60225000Y-48100000D03*
X59575000Y-48100000D03*
X58925000Y-48100000D03*
X58275000Y-48100000D03*
X57625000Y-48100000D03*
X56975000Y-48100000D03*
X56325000Y-48100000D03*
X55675000Y-48100000D03*
X55025000Y-48100000D03*
X55025000Y-55300000D03*
X55675000Y-55300000D03*
X56325000Y-55300000D03*
X56975000Y-55300000D03*
X57625000Y-55300000D03*
X58275000Y-55300000D03*
X58925000Y-55300000D03*
X59575000Y-55300000D03*
X60225000Y-55300000D03*
X60875000Y-55300000D03*
X61525000Y-55300000D03*
X62175000Y-55300000D03*
%TD*%
D10*
%TO.C,J2*%
X130750000Y-41250000D03*
D11*
X133290000Y-41250000D03*
X135830000Y-41250000D03*
X138370000Y-41250000D03*
X140910000Y-41250000D03*
X143450000Y-41250000D03*
%TD*%
D20*
%TO.C,U6*%
X122575000Y-47900000D03*
X121925000Y-47900000D03*
X121275000Y-47900000D03*
X120625000Y-47900000D03*
X119975000Y-47900000D03*
X119325000Y-47900000D03*
X118675000Y-47900000D03*
X118025000Y-47900000D03*
X117375000Y-47900000D03*
X116725000Y-47900000D03*
X116075000Y-47900000D03*
X115425000Y-47900000D03*
X115425000Y-55100000D03*
X116075000Y-55100000D03*
X116725000Y-55100000D03*
X117375000Y-55100000D03*
X118025000Y-55100000D03*
X118675000Y-55100000D03*
X119325000Y-55100000D03*
X119975000Y-55100000D03*
X120625000Y-55100000D03*
X121275000Y-55100000D03*
X121925000Y-55100000D03*
X122575000Y-55100000D03*
%TD*%
D24*
%TO.C,R1*%
X146167500Y-73200000D03*
X144972500Y-73200000D03*
%TD*%
D17*
%TO.C,R4*%
X160750000Y-45750000D03*
X161945000Y-45750000D03*
%TD*%
D10*
%TO.C,J7*%
X85000000Y-41250000D03*
D11*
X87540000Y-41250000D03*
X90080000Y-41250000D03*
X92620000Y-41250000D03*
%TD*%
D25*
%TO.C,JP1*%
X131000000Y-65000000D03*
D26*
X133540000Y-65000000D03*
X136080000Y-65000000D03*
%TD*%
D17*
%TO.C,R3*%
X160750000Y-44500000D03*
X161945000Y-44500000D03*
%TD*%
D12*
%TO.C,C9*%
X102500000Y-67667500D03*
X102500000Y-66532500D03*
%TD*%
D27*
%TO.C,L1*%
X151750000Y-78900000D03*
X155950000Y-78900000D03*
%TD*%
D28*
%TO.C,U3*%
X88025000Y-69550000D03*
X88025000Y-70050000D03*
X88025000Y-70550000D03*
X88025000Y-71050000D03*
X88025000Y-71550000D03*
X88025000Y-72050000D03*
X88025000Y-72550000D03*
X88025000Y-73050000D03*
X88025000Y-73550000D03*
X88025000Y-74050000D03*
X88025000Y-74550000D03*
X88025000Y-75050000D03*
X88025000Y-75550000D03*
X88025000Y-76050000D03*
X88025000Y-76550000D03*
X88025000Y-77050000D03*
D29*
X89950000Y-78975000D03*
X90450000Y-78975000D03*
X90950000Y-78975000D03*
X91450000Y-78975000D03*
X91950000Y-78975000D03*
X92450000Y-78975000D03*
X92950000Y-78975000D03*
X93450000Y-78975000D03*
X93950000Y-78975000D03*
X94450000Y-78975000D03*
X94950000Y-78975000D03*
X95450000Y-78975000D03*
X95950000Y-78975000D03*
X96450000Y-78975000D03*
X96950000Y-78975000D03*
X97450000Y-78975000D03*
D28*
X99375000Y-77050000D03*
X99375000Y-76550000D03*
X99375000Y-76050000D03*
X99375000Y-75550000D03*
X99375000Y-75050000D03*
X99375000Y-74550000D03*
X99375000Y-74050000D03*
X99375000Y-73550000D03*
X99375000Y-73050000D03*
X99375000Y-72550000D03*
X99375000Y-72050000D03*
X99375000Y-71550000D03*
X99375000Y-71050000D03*
X99375000Y-70550000D03*
X99375000Y-70050000D03*
X99375000Y-69550000D03*
D29*
X97450000Y-67625000D03*
X96950000Y-67625000D03*
X96450000Y-67625000D03*
X95950000Y-67625000D03*
X95450000Y-67625000D03*
X94950000Y-67625000D03*
X94450000Y-67625000D03*
X93950000Y-67625000D03*
X93450000Y-67625000D03*
X92950000Y-67625000D03*
X92450000Y-67625000D03*
X91950000Y-67625000D03*
X91450000Y-67625000D03*
X90950000Y-67625000D03*
X90450000Y-67625000D03*
X89950000Y-67625000D03*
%TD*%
D18*
%TO.C,C12*%
X84400000Y-75400000D03*
X83265000Y-75400000D03*
%TD*%
D30*
%TO.C,D1*%
X161040000Y-54500000D03*
D31*
X158500000Y-54500000D03*
%TD*%
D12*
%TO.C,C15*%
X64000000Y-52067500D03*
X64000000Y-50932500D03*
%TD*%
%TO.C,C16*%
X124500000Y-52067500D03*
X124500000Y-50932500D03*
%TD*%
D32*
%TO.C,R2*%
X139250000Y-77750000D03*
X139250000Y-78945000D03*
%TD*%
M02*
