%TF.GenerationSoftware,KiCad,Pcbnew,(5.99.0-8593-g9f18fee124)*%
%TF.CreationDate,2021-02-26T16:48:12-06:00*%
%TF.ProjectId,EE223_Design,45453232-335f-4446-9573-69676e2e6b69,rev?*%
%TF.SameCoordinates,Original*%
%TF.FileFunction,Copper,L1,Top*%
%TF.FilePolarity,Positive*%
%FSLAX46Y46*%
G04 Gerber Fmt 4.6, Leading zero omitted, Abs format (unit mm)*
G04 Created by KiCad (PCBNEW (5.99.0-8593-g9f18fee124)) date 2021-02-26 16:48:12*
%MOMM*%
%LPD*%
G01*
G04 APERTURE LIST*
G04 Aperture macros list*
%AMRoundRect*
0 Rectangle with rounded corners*
0 $1 Rounding radius*
0 $2 $3 $4 $5 $6 $7 $8 $9 X,Y pos of 4 corners*
0 Add a 4 corners polygon primitive as box body*
4,1,4,$2,$3,$4,$5,$6,$7,$8,$9,$2,$3,0*
0 Add four circle primitives for the rounded corners*
1,1,$1+$1,$2,$3*
1,1,$1+$1,$4,$5*
1,1,$1+$1,$6,$7*
1,1,$1+$1,$8,$9*
0 Add four rect primitives between the rounded corners*
20,1,$1+$1,$2,$3,$4,$5,0*
20,1,$1+$1,$4,$5,$6,$7,0*
20,1,$1+$1,$6,$7,$8,$9,0*
20,1,$1+$1,$8,$9,$2,$3,0*%
G04 Aperture macros list end*
%TA.AperFunction,ComponentPad*%
%ADD10RoundRect,0.250000X-0.620000X-0.845000X0.620000X-0.845000X0.620000X0.845000X-0.620000X0.845000X0*%
%TD*%
%TA.AperFunction,ComponentPad*%
%ADD11O,1.740000X2.190000*%
%TD*%
%TA.AperFunction,SMDPad,CuDef*%
%ADD12RoundRect,0.155000X0.155000X-0.212500X0.155000X0.212500X-0.155000X0.212500X-0.155000X-0.212500X0*%
%TD*%
%TA.AperFunction,SMDPad,CuDef*%
%ADD13RoundRect,0.150000X0.587500X0.150000X-0.587500X0.150000X-0.587500X-0.150000X0.587500X-0.150000X0*%
%TD*%
%TA.AperFunction,SMDPad,CuDef*%
%ADD14RoundRect,0.160000X0.160000X-0.197500X0.160000X0.197500X-0.160000X0.197500X-0.160000X-0.197500X0*%
%TD*%
%TA.AperFunction,SMDPad,CuDef*%
%ADD15RoundRect,0.155000X-0.155000X0.212500X-0.155000X-0.212500X0.155000X-0.212500X0.155000X0.212500X0*%
%TD*%
%TA.AperFunction,SMDPad,CuDef*%
%ADD16RoundRect,0.155000X-0.212500X-0.155000X0.212500X-0.155000X0.212500X0.155000X-0.212500X0.155000X0*%
%TD*%
%TA.AperFunction,SMDPad,CuDef*%
%ADD17RoundRect,0.160000X-0.197500X-0.160000X0.197500X-0.160000X0.197500X0.160000X-0.197500X0.160000X0*%
%TD*%
%TA.AperFunction,SMDPad,CuDef*%
%ADD18RoundRect,0.155000X0.212500X0.155000X-0.212500X0.155000X-0.212500X-0.155000X0.212500X-0.155000X0*%
%TD*%
%TA.AperFunction,SMDPad,CuDef*%
%ADD19R,1.780000X2.000000*%
%TD*%
%TA.AperFunction,SMDPad,CuDef*%
%ADD20R,0.450000X1.750000*%
%TD*%
%TA.AperFunction,SMDPad,CuDef*%
%ADD21RoundRect,0.150000X0.512500X0.150000X-0.512500X0.150000X-0.512500X-0.150000X0.512500X-0.150000X0*%
%TD*%
%TA.AperFunction,ComponentPad*%
%ADD22R,1.000000X1.000000*%
%TD*%
%TA.AperFunction,ComponentPad*%
%ADD23O,1.000000X1.000000*%
%TD*%
%TA.AperFunction,SMDPad,CuDef*%
%ADD24RoundRect,0.160000X0.197500X0.160000X-0.197500X0.160000X-0.197500X-0.160000X0.197500X-0.160000X0*%
%TD*%
%TA.AperFunction,ComponentPad*%
%ADD25R,1.700000X1.700000*%
%TD*%
%TA.AperFunction,ComponentPad*%
%ADD26O,1.700000X1.700000*%
%TD*%
%TA.AperFunction,SMDPad,CuDef*%
%ADD27R,1.900000X5.100000*%
%TD*%
%TA.AperFunction,SMDPad,CuDef*%
%ADD28RoundRect,0.075000X-0.700000X-0.075000X0.700000X-0.075000X0.700000X0.075000X-0.700000X0.075000X0*%
%TD*%
%TA.AperFunction,SMDPad,CuDef*%
%ADD29RoundRect,0.075000X-0.075000X-0.700000X0.075000X-0.700000X0.075000X0.700000X-0.075000X0.700000X0*%
%TD*%
%TA.AperFunction,ComponentPad*%
%ADD30R,1.800000X1.800000*%
%TD*%
%TA.AperFunction,ComponentPad*%
%ADD31C,1.800000*%
%TD*%
%TA.AperFunction,SMDPad,CuDef*%
%ADD32RoundRect,0.160000X-0.160000X0.197500X-0.160000X-0.197500X0.160000X-0.197500X0.160000X0.197500X0*%
%TD*%
%TA.AperFunction,ViaPad*%
%ADD33C,0.800000*%
%TD*%
%TA.AperFunction,Conductor*%
%ADD34C,1.000000*%
%TD*%
%TA.AperFunction,Conductor*%
%ADD35C,2.000000*%
%TD*%
%TA.AperFunction,Conductor*%
%ADD36C,0.400000*%
%TD*%
%TA.AperFunction,Conductor*%
%ADD37C,0.250000*%
%TD*%
G04 APERTURE END LIST*
D10*
%TO.P,J6,1,Pin_1*%
%TO.N,Net-(J6-Pad1)*%
X70000000Y-41250000D03*
D11*
%TO.P,J6,2,Pin_2*%
%TO.N,Net-(J6-Pad2)*%
X72540000Y-41250000D03*
%TO.P,J6,3,Pin_3*%
%TO.N,Net-(J6-Pad3)*%
X75080000Y-41250000D03*
%TO.P,J6,4,Pin_4*%
%TO.N,Net-(J6-Pad4)*%
X77620000Y-41250000D03*
%TD*%
D12*
%TO.P,C8,1*%
%TO.N,+3V3*%
X101300000Y-67700000D03*
%TO.P,C8,2*%
%TO.N,GND*%
X101300000Y-66565000D03*
%TD*%
D13*
%TO.P,Q1,1,G*%
%TO.N,GND*%
X151600000Y-41600000D03*
%TO.P,Q1,2,S*%
%TO.N,V_MOTOR*%
X151600000Y-39700000D03*
%TO.P,Q1,3,D*%
%TO.N,+12V*%
X149725000Y-40650000D03*
%TD*%
D14*
%TO.P,R12,1*%
%TO.N,+3V3*%
X89200000Y-58200000D03*
%TO.P,R12,2*%
%TO.N,Net-(R12-Pad2)*%
X89200000Y-57005000D03*
%TD*%
%TO.P,R6,1*%
%TO.N,Net-(R6-Pad1)*%
X129250000Y-47000000D03*
%TO.P,R6,2*%
%TO.N,GND*%
X129250000Y-45805000D03*
%TD*%
D15*
%TO.P,C1,1*%
%TO.N,V_MOTOR*%
X141250000Y-80682500D03*
%TO.P,C1,2*%
%TO.N,GND*%
X141250000Y-81817500D03*
%TD*%
D16*
%TO.P,C10,1*%
%TO.N,+3V3*%
X98932500Y-79500000D03*
%TO.P,C10,2*%
%TO.N,GND*%
X100067500Y-79500000D03*
%TD*%
D15*
%TO.P,C2,1*%
%TO.N,V_MOTOR*%
X139250000Y-80682500D03*
%TO.P,C2,2*%
%TO.N,GND*%
X139250000Y-81817500D03*
%TD*%
D17*
%TO.P,R13,1*%
%TO.N,+3V3*%
X83702500Y-72200000D03*
%TO.P,R13,2*%
%TO.N,NRST*%
X84897500Y-72200000D03*
%TD*%
D18*
%TO.P,C6,1*%
%TO.N,+3V3*%
X146167500Y-75200000D03*
%TO.P,C6,2*%
%TO.N,Net-(C5-Pad2)*%
X145032500Y-75200000D03*
%TD*%
D17*
%TO.P,R5,1*%
%TO.N,Net-(R5-Pad1)*%
X160750000Y-47000000D03*
%TO.P,R5,2*%
%TO.N,GND*%
X161945000Y-47000000D03*
%TD*%
D19*
%TO.P,U2,1*%
%TO.N,Net-(J2-Pad5)*%
X147140000Y-49235000D03*
%TO.P,U2,2*%
%TO.N,Net-(R3-Pad1)*%
X144600000Y-49235000D03*
%TO.P,U2,3*%
%TO.N,Net-(J2-Pad4)*%
X142060000Y-49235000D03*
%TO.P,U2,4*%
%TO.N,Net-(R4-Pad1)*%
X139520000Y-49235000D03*
%TO.P,U2,5*%
%TO.N,Net-(J2-Pad3)*%
X136980000Y-49235000D03*
%TO.P,U2,6*%
%TO.N,Net-(R5-Pad1)*%
X134440000Y-49235000D03*
%TO.P,U2,7*%
%TO.N,Net-(J2-Pad2)*%
X131900000Y-49235000D03*
%TO.P,U2,8*%
%TO.N,Net-(R6-Pad1)*%
X129360000Y-49235000D03*
%TO.P,U2,9*%
%TO.N,GND*%
X129360000Y-58765000D03*
%TO.P,U2,10*%
%TO.N,PEDAL4*%
X131900000Y-58765000D03*
%TO.P,U2,11*%
%TO.N,GND*%
X134440000Y-58765000D03*
%TO.P,U2,12*%
%TO.N,PEDAL3*%
X136980000Y-58765000D03*
%TO.P,U2,13*%
%TO.N,GND*%
X139520000Y-58765000D03*
%TO.P,U2,14*%
%TO.N,PEDAL2*%
X142060000Y-58765000D03*
%TO.P,U2,15*%
%TO.N,GND*%
X144600000Y-58765000D03*
%TO.P,U2,16*%
%TO.N,PEDAL1*%
X147140000Y-58765000D03*
%TD*%
D14*
%TO.P,R7,1*%
%TO.N,GND*%
X161000000Y-60250000D03*
%TO.P,R7,2*%
%TO.N,Net-(D1-Pad1)*%
X161000000Y-59055000D03*
%TD*%
%TO.P,R9,1*%
%TO.N,+3V3*%
X59250000Y-58250000D03*
%TO.P,R9,2*%
%TO.N,Net-(R9-Pad2)*%
X59250000Y-57055000D03*
%TD*%
D12*
%TO.P,C7,1*%
%TO.N,+3V3*%
X100100000Y-67667500D03*
%TO.P,C7,2*%
%TO.N,GND*%
X100100000Y-66532500D03*
%TD*%
D20*
%TO.P,U4,1,AO1*%
%TO.N,Net-(J3-Pad4)*%
X107150000Y-48000000D03*
%TO.P,U4,2,AO1*%
X106500000Y-48000000D03*
%TO.P,U4,3,PGND1*%
%TO.N,GND*%
X105850000Y-48000000D03*
%TO.P,U4,4,PGND1*%
X105200000Y-48000000D03*
%TO.P,U4,5,AO2*%
%TO.N,Net-(J3-Pad3)*%
X104550000Y-48000000D03*
%TO.P,U4,6,AO2*%
X103900000Y-48000000D03*
%TO.P,U4,7,BO2*%
%TO.N,Net-(J3-Pad2)*%
X103250000Y-48000000D03*
%TO.P,U4,8,BO2*%
X102600000Y-48000000D03*
%TO.P,U4,9,PGND2*%
%TO.N,GND*%
X101950000Y-48000000D03*
%TO.P,U4,10,PGND2*%
X101300000Y-48000000D03*
%TO.P,U4,11,BO1*%
%TO.N,Net-(J3-Pad1)*%
X100650000Y-48000000D03*
%TO.P,U4,12,BO1*%
X100000000Y-48000000D03*
%TO.P,U4,13,VM2*%
%TO.N,V_MOTOR*%
X100000000Y-55200000D03*
%TO.P,U4,14,VM3*%
X100650000Y-55200000D03*
%TO.P,U4,15,PWMB*%
%TO.N,M4_PWM_B*%
X101300000Y-55200000D03*
%TO.P,U4,16,BIN2*%
%TO.N,M4_B2*%
X101950000Y-55200000D03*
%TO.P,U4,17,BIN1*%
%TO.N,M4_B1*%
X102600000Y-55200000D03*
%TO.P,U4,18,GND*%
%TO.N,GND*%
X103250000Y-55200000D03*
%TO.P,U4,19,STBY*%
%TO.N,Net-(R8-Pad2)*%
X103900000Y-55200000D03*
%TO.P,U4,20,VCC*%
%TO.N,+3V3*%
X104550000Y-55200000D03*
%TO.P,U4,21,AIN1*%
%TO.N,M4_A1*%
X105200000Y-55200000D03*
%TO.P,U4,22,AIN2*%
%TO.N,M4_A2*%
X105850000Y-55200000D03*
%TO.P,U4,23,PWMA*%
%TO.N,M4_PWM_A*%
X106500000Y-55200000D03*
%TO.P,U4,24,VM1*%
%TO.N,V_MOTOR*%
X107150000Y-55200000D03*
%TD*%
D12*
%TO.P,C18,1*%
%TO.N,+3V3*%
X94000000Y-52567500D03*
%TO.P,C18,2*%
%TO.N,GND*%
X94000000Y-51432500D03*
%TD*%
D10*
%TO.P,J4,1,Pin_1*%
%TO.N,Net-(U5-Pad11)*%
X55000000Y-41250000D03*
D11*
%TO.P,J4,2,Pin_2*%
%TO.N,Net-(U5-Pad7)*%
X57540000Y-41250000D03*
%TO.P,J4,3,Pin_3*%
%TO.N,Net-(U5-Pad5)*%
X60080000Y-41250000D03*
%TO.P,J4,4,Pin_4*%
%TO.N,Net-(U5-Pad1)*%
X62620000Y-41250000D03*
%TD*%
D16*
%TO.P,C13,1*%
%TO.N,+3V3*%
X88932500Y-65600000D03*
%TO.P,C13,2*%
%TO.N,GND*%
X90067500Y-65600000D03*
%TD*%
D14*
%TO.P,R11,1*%
%TO.N,+3V3*%
X74600000Y-58200000D03*
%TO.P,R11,2*%
%TO.N,Net-(R11-Pad2)*%
X74600000Y-57005000D03*
%TD*%
%TO.P,R10,1*%
%TO.N,+3V3*%
X119600000Y-58100000D03*
%TO.P,R10,2*%
%TO.N,Net-(R10-Pad2)*%
X119600000Y-56905000D03*
%TD*%
D12*
%TO.P,C17,1*%
%TO.N,+3V3*%
X79500000Y-52567500D03*
%TO.P,C17,2*%
%TO.N,GND*%
X79500000Y-51432500D03*
%TD*%
D10*
%TO.P,J5,1,Pin_1*%
%TO.N,Net-(J5-Pad1)*%
X115000000Y-41250000D03*
D11*
%TO.P,J5,2,Pin_2*%
%TO.N,Net-(J5-Pad2)*%
X117540000Y-41250000D03*
%TO.P,J5,3,Pin_3*%
%TO.N,Net-(J5-Pad3)*%
X120080000Y-41250000D03*
%TO.P,J5,4,Pin_4*%
%TO.N,Net-(J5-Pad4)*%
X122620000Y-41250000D03*
%TD*%
D18*
%TO.P,C3,1*%
%TO.N,V_MOTOR*%
X155135000Y-42000000D03*
%TO.P,C3,2*%
%TO.N,GND*%
X154000000Y-42000000D03*
%TD*%
D20*
%TO.P,U7,1,AO1*%
%TO.N,Net-(J6-Pad4)*%
X77575000Y-48000000D03*
%TO.P,U7,2,AO1*%
X76925000Y-48000000D03*
%TO.P,U7,3,PGND1*%
%TO.N,GND*%
X76275000Y-48000000D03*
%TO.P,U7,4,PGND1*%
X75625000Y-48000000D03*
%TO.P,U7,5,AO2*%
%TO.N,Net-(J6-Pad3)*%
X74975000Y-48000000D03*
%TO.P,U7,6,AO2*%
X74325000Y-48000000D03*
%TO.P,U7,7,BO2*%
%TO.N,Net-(J6-Pad2)*%
X73675000Y-48000000D03*
%TO.P,U7,8,BO2*%
X73025000Y-48000000D03*
%TO.P,U7,9,PGND2*%
%TO.N,GND*%
X72375000Y-48000000D03*
%TO.P,U7,10,PGND2*%
X71725000Y-48000000D03*
%TO.P,U7,11,BO1*%
%TO.N,Net-(J6-Pad1)*%
X71075000Y-48000000D03*
%TO.P,U7,12,BO1*%
X70425000Y-48000000D03*
%TO.P,U7,13,VM2*%
%TO.N,V_MOTOR*%
X70425000Y-55200000D03*
%TO.P,U7,14,VM3*%
X71075000Y-55200000D03*
%TO.P,U7,15,PWMB*%
%TO.N,M2_PWM_B*%
X71725000Y-55200000D03*
%TO.P,U7,16,BIN2*%
%TO.N,M2_B2*%
X72375000Y-55200000D03*
%TO.P,U7,17,BIN1*%
%TO.N,M2_B1*%
X73025000Y-55200000D03*
%TO.P,U7,18,GND*%
%TO.N,GND*%
X73675000Y-55200000D03*
%TO.P,U7,19,STBY*%
%TO.N,Net-(R11-Pad2)*%
X74325000Y-55200000D03*
%TO.P,U7,20,VCC*%
%TO.N,+3V3*%
X74975000Y-55200000D03*
%TO.P,U7,21,AIN1*%
%TO.N,M2_A1*%
X75625000Y-55200000D03*
%TO.P,U7,22,AIN2*%
%TO.N,M2_A2*%
X76275000Y-55200000D03*
%TO.P,U7,23,PWMA*%
%TO.N,M2_PWM_A*%
X76925000Y-55200000D03*
%TO.P,U7,24,VM1*%
%TO.N,V_MOTOR*%
X77575000Y-55200000D03*
%TD*%
D12*
%TO.P,C5,1*%
%TO.N,+3V3*%
X141250000Y-78885000D03*
%TO.P,C5,2*%
%TO.N,Net-(C5-Pad2)*%
X141250000Y-77750000D03*
%TD*%
D21*
%TO.P,U1,1,GND*%
%TO.N,GND*%
X146737500Y-79750000D03*
%TO.P,U1,2,SW*%
%TO.N,Net-(C4-Pad1)*%
X146737500Y-78800000D03*
%TO.P,U1,3,VIN*%
%TO.N,V_MOTOR*%
X146737500Y-77850000D03*
%TO.P,U1,4,VFB*%
%TO.N,Net-(C5-Pad2)*%
X144462500Y-77850000D03*
%TO.P,U1,5,EN*%
%TO.N,V_MOTOR*%
X144462500Y-78800000D03*
%TO.P,U1,6,VBST*%
%TO.N,Net-(C4-Pad2)*%
X144462500Y-79750000D03*
%TD*%
D18*
%TO.P,C4,1*%
%TO.N,Net-(C4-Pad1)*%
X146200000Y-82000000D03*
%TO.P,C4,2*%
%TO.N,Net-(C4-Pad2)*%
X145065000Y-82000000D03*
%TD*%
D20*
%TO.P,U8,1,AO1*%
%TO.N,Net-(J7-Pad4)*%
X92150000Y-48000000D03*
%TO.P,U8,2,AO1*%
X91500000Y-48000000D03*
%TO.P,U8,3,PGND1*%
%TO.N,GND*%
X90850000Y-48000000D03*
%TO.P,U8,4,PGND1*%
X90200000Y-48000000D03*
%TO.P,U8,5,AO2*%
%TO.N,Net-(J7-Pad3)*%
X89550000Y-48000000D03*
%TO.P,U8,6,AO2*%
X88900000Y-48000000D03*
%TO.P,U8,7,BO2*%
%TO.N,Net-(J7-Pad2)*%
X88250000Y-48000000D03*
%TO.P,U8,8,BO2*%
X87600000Y-48000000D03*
%TO.P,U8,9,PGND2*%
%TO.N,GND*%
X86950000Y-48000000D03*
%TO.P,U8,10,PGND2*%
X86300000Y-48000000D03*
%TO.P,U8,11,BO1*%
%TO.N,Net-(J7-Pad1)*%
X85650000Y-48000000D03*
%TO.P,U8,12,BO1*%
X85000000Y-48000000D03*
%TO.P,U8,13,VM2*%
%TO.N,V_MOTOR*%
X85000000Y-55200000D03*
%TO.P,U8,14,VM3*%
X85650000Y-55200000D03*
%TO.P,U8,15,PWMB*%
%TO.N,M3_PWM_B*%
X86300000Y-55200000D03*
%TO.P,U8,16,BIN2*%
%TO.N,M3_B2*%
X86950000Y-55200000D03*
%TO.P,U8,17,BIN1*%
%TO.N,M3_B1*%
X87600000Y-55200000D03*
%TO.P,U8,18,GND*%
%TO.N,GND*%
X88250000Y-55200000D03*
%TO.P,U8,19,STBY*%
%TO.N,Net-(R12-Pad2)*%
X88900000Y-55200000D03*
%TO.P,U8,20,VCC*%
%TO.N,+3V3*%
X89550000Y-55200000D03*
%TO.P,U8,21,AIN1*%
%TO.N,M3_A1*%
X90200000Y-55200000D03*
%TO.P,U8,22,AIN2*%
%TO.N,M3_A2*%
X90850000Y-55200000D03*
%TO.P,U8,23,PWMA*%
%TO.N,M3_PWM_A*%
X91500000Y-55200000D03*
%TO.P,U8,24,VM1*%
%TO.N,V_MOTOR*%
X92150000Y-55200000D03*
%TD*%
D14*
%TO.P,R8,1*%
%TO.N,+3V3*%
X104200000Y-58300000D03*
%TO.P,R8,2*%
%TO.N,Net-(R8-Pad2)*%
X104200000Y-57105000D03*
%TD*%
D22*
%TO.P,J1,1,Pin_1*%
%TO.N,+3V3*%
X123250000Y-71750000D03*
D23*
%TO.P,J1,2,Pin_2*%
%TO.N,SWDIO*%
X124520000Y-71750000D03*
%TO.P,J1,3,Pin_3*%
%TO.N,GND*%
X123250000Y-73020000D03*
%TO.P,J1,4,Pin_4*%
%TO.N,SWCLK*%
X124520000Y-73020000D03*
%TO.P,J1,5,Pin_5*%
%TO.N,GND*%
X123250000Y-74290000D03*
%TO.P,J1,6,Pin_6*%
%TO.N,SWO*%
X124520000Y-74290000D03*
%TO.P,J1,7,Pin_7*%
%TO.N,unconnected-(J1-Pad7)*%
X123250000Y-75560000D03*
%TO.P,J1,8,Pin_8*%
%TO.N,unconnected-(J1-Pad8)*%
X124520000Y-75560000D03*
%TO.P,J1,9,Pin_9*%
%TO.N,GND*%
X123250000Y-76830000D03*
%TO.P,J1,10,Pin_10*%
%TO.N,NRST*%
X124520000Y-76830000D03*
%TD*%
D12*
%TO.P,C14,1*%
%TO.N,+3V3*%
X109000000Y-52067500D03*
%TO.P,C14,2*%
%TO.N,GND*%
X109000000Y-50932500D03*
%TD*%
D10*
%TO.P,J3,1,Pin_1*%
%TO.N,Net-(J3-Pad1)*%
X100000000Y-41250000D03*
D11*
%TO.P,J3,2,Pin_2*%
%TO.N,Net-(J3-Pad2)*%
X102540000Y-41250000D03*
%TO.P,J3,3,Pin_3*%
%TO.N,Net-(J3-Pad3)*%
X105080000Y-41250000D03*
%TO.P,J3,4,Pin_4*%
%TO.N,Net-(J3-Pad4)*%
X107620000Y-41250000D03*
%TD*%
D18*
%TO.P,C11,1*%
%TO.N,+3V3*%
X90600000Y-80800000D03*
%TO.P,C11,2*%
%TO.N,GND*%
X89465000Y-80800000D03*
%TD*%
D20*
%TO.P,U5,1,AO1*%
%TO.N,Net-(U5-Pad1)*%
X62175000Y-48100000D03*
%TO.P,U5,2,AO1*%
X61525000Y-48100000D03*
%TO.P,U5,3,PGND1*%
%TO.N,GND*%
X60875000Y-48100000D03*
%TO.P,U5,4,PGND1*%
X60225000Y-48100000D03*
%TO.P,U5,5,AO2*%
%TO.N,Net-(U5-Pad5)*%
X59575000Y-48100000D03*
%TO.P,U5,6,AO2*%
X58925000Y-48100000D03*
%TO.P,U5,7,BO2*%
%TO.N,Net-(U5-Pad7)*%
X58275000Y-48100000D03*
%TO.P,U5,8,BO2*%
X57625000Y-48100000D03*
%TO.P,U5,9,PGND2*%
%TO.N,GND*%
X56975000Y-48100000D03*
%TO.P,U5,10,PGND2*%
X56325000Y-48100000D03*
%TO.P,U5,11,BO1*%
%TO.N,Net-(U5-Pad11)*%
X55675000Y-48100000D03*
%TO.P,U5,12,BO1*%
X55025000Y-48100000D03*
%TO.P,U5,13,VM2*%
%TO.N,V_MOTOR*%
X55025000Y-55300000D03*
%TO.P,U5,14,VM3*%
X55675000Y-55300000D03*
%TO.P,U5,15,PWMB*%
%TO.N,M1_PWM_B*%
X56325000Y-55300000D03*
%TO.P,U5,16,BIN2*%
%TO.N,M1_B2*%
X56975000Y-55300000D03*
%TO.P,U5,17,BIN1*%
%TO.N,M1_B1*%
X57625000Y-55300000D03*
%TO.P,U5,18,GND*%
%TO.N,GND*%
X58275000Y-55300000D03*
%TO.P,U5,19,STBY*%
%TO.N,Net-(R9-Pad2)*%
X58925000Y-55300000D03*
%TO.P,U5,20,VCC*%
%TO.N,+3V3*%
X59575000Y-55300000D03*
%TO.P,U5,21,AIN1*%
%TO.N,M1_A1*%
X60225000Y-55300000D03*
%TO.P,U5,22,AIN2*%
%TO.N,M1_A2*%
X60875000Y-55300000D03*
%TO.P,U5,23,PWMA*%
%TO.N,M1_PWM_A*%
X61525000Y-55300000D03*
%TO.P,U5,24,VM1*%
%TO.N,V_MOTOR*%
X62175000Y-55300000D03*
%TD*%
D10*
%TO.P,J2,1,Pin_1*%
%TO.N,GND*%
X130750000Y-41250000D03*
D11*
%TO.P,J2,2,Pin_2*%
%TO.N,Net-(J2-Pad2)*%
X133290000Y-41250000D03*
%TO.P,J2,3,Pin_3*%
%TO.N,Net-(J2-Pad3)*%
X135830000Y-41250000D03*
%TO.P,J2,4,Pin_4*%
%TO.N,Net-(J2-Pad4)*%
X138370000Y-41250000D03*
%TO.P,J2,5,Pin_5*%
%TO.N,Net-(J2-Pad5)*%
X140910000Y-41250000D03*
%TO.P,J2,6,Pin_6*%
%TO.N,+12V*%
X143450000Y-41250000D03*
%TD*%
D20*
%TO.P,U6,1,AO1*%
%TO.N,Net-(J5-Pad4)*%
X122575000Y-47900000D03*
%TO.P,U6,2,AO1*%
X121925000Y-47900000D03*
%TO.P,U6,3,PGND1*%
%TO.N,GND*%
X121275000Y-47900000D03*
%TO.P,U6,4,PGND1*%
X120625000Y-47900000D03*
%TO.P,U6,5,AO2*%
%TO.N,Net-(J5-Pad3)*%
X119975000Y-47900000D03*
%TO.P,U6,6,AO2*%
X119325000Y-47900000D03*
%TO.P,U6,7,BO2*%
%TO.N,Net-(J5-Pad2)*%
X118675000Y-47900000D03*
%TO.P,U6,8,BO2*%
X118025000Y-47900000D03*
%TO.P,U6,9,PGND2*%
%TO.N,GND*%
X117375000Y-47900000D03*
%TO.P,U6,10,PGND2*%
X116725000Y-47900000D03*
%TO.P,U6,11,BO1*%
%TO.N,Net-(J5-Pad1)*%
X116075000Y-47900000D03*
%TO.P,U6,12,BO1*%
X115425000Y-47900000D03*
%TO.P,U6,13,VM2*%
%TO.N,V_MOTOR*%
X115425000Y-55100000D03*
%TO.P,U6,14,VM3*%
X116075000Y-55100000D03*
%TO.P,U6,15,PWMB*%
%TO.N,M5_PWM_B*%
X116725000Y-55100000D03*
%TO.P,U6,16,BIN2*%
%TO.N,M5_B2*%
X117375000Y-55100000D03*
%TO.P,U6,17,BIN1*%
%TO.N,M5_B1*%
X118025000Y-55100000D03*
%TO.P,U6,18,GND*%
%TO.N,GND*%
X118675000Y-55100000D03*
%TO.P,U6,19,STBY*%
%TO.N,Net-(R10-Pad2)*%
X119325000Y-55100000D03*
%TO.P,U6,20,VCC*%
%TO.N,+3V3*%
X119975000Y-55100000D03*
%TO.P,U6,21,AIN1*%
%TO.N,M5_A1*%
X120625000Y-55100000D03*
%TO.P,U6,22,AIN2*%
%TO.N,M5_A2*%
X121275000Y-55100000D03*
%TO.P,U6,23,PWMA*%
%TO.N,M5_PWM_A*%
X121925000Y-55100000D03*
%TO.P,U6,24,VM1*%
%TO.N,V_MOTOR*%
X122575000Y-55100000D03*
%TD*%
D24*
%TO.P,R1,1*%
%TO.N,+3V3*%
X146167500Y-73200000D03*
%TO.P,R1,2*%
%TO.N,Net-(C5-Pad2)*%
X144972500Y-73200000D03*
%TD*%
D17*
%TO.P,R4,1*%
%TO.N,Net-(R4-Pad1)*%
X160750000Y-45750000D03*
%TO.P,R4,2*%
%TO.N,GND*%
X161945000Y-45750000D03*
%TD*%
D10*
%TO.P,J7,1,Pin_1*%
%TO.N,Net-(J7-Pad1)*%
X85000000Y-41250000D03*
D11*
%TO.P,J7,2,Pin_2*%
%TO.N,Net-(J7-Pad2)*%
X87540000Y-41250000D03*
%TO.P,J7,3,Pin_3*%
%TO.N,Net-(J7-Pad3)*%
X90080000Y-41250000D03*
%TO.P,J7,4,Pin_4*%
%TO.N,Net-(J7-Pad4)*%
X92620000Y-41250000D03*
%TD*%
D25*
%TO.P,JP1,1,A*%
%TO.N,+3V3*%
X131000000Y-65000000D03*
D26*
%TO.P,JP1,2,C*%
%TO.N,BOOT0*%
X133540000Y-65000000D03*
%TO.P,JP1,3,B*%
%TO.N,GND*%
X136080000Y-65000000D03*
%TD*%
D17*
%TO.P,R3,1*%
%TO.N,Net-(R3-Pad1)*%
X160750000Y-44500000D03*
%TO.P,R3,2*%
%TO.N,GND*%
X161945000Y-44500000D03*
%TD*%
D12*
%TO.P,C9,1*%
%TO.N,+3V3*%
X102500000Y-67667500D03*
%TO.P,C9,2*%
%TO.N,GND*%
X102500000Y-66532500D03*
%TD*%
D27*
%TO.P,L1,1*%
%TO.N,Net-(C4-Pad1)*%
X151750000Y-78900000D03*
%TO.P,L1,2*%
%TO.N,+3V3*%
X155950000Y-78900000D03*
%TD*%
D28*
%TO.P,U3,1,VBAT*%
%TO.N,unconnected-(U3-Pad1)*%
X88025000Y-69550000D03*
%TO.P,U3,2,PC13*%
%TO.N,M3_B1*%
X88025000Y-70050000D03*
%TO.P,U3,3,PC14*%
%TO.N,M3_B2*%
X88025000Y-70550000D03*
%TO.P,U3,4,PC15*%
%TO.N,M3_PWM_B*%
X88025000Y-71050000D03*
%TO.P,U3,5,PD0*%
%TO.N,unconnected-(U3-Pad5)*%
X88025000Y-71550000D03*
%TO.P,U3,6,PD1*%
%TO.N,unconnected-(U3-Pad6)*%
X88025000Y-72050000D03*
%TO.P,U3,7,NRST*%
%TO.N,NRST*%
X88025000Y-72550000D03*
%TO.P,U3,8,PC0*%
%TO.N,unconnected-(U3-Pad8)*%
X88025000Y-73050000D03*
%TO.P,U3,9,PC1*%
%TO.N,M2_PWM_A*%
X88025000Y-73550000D03*
%TO.P,U3,10,PC2*%
%TO.N,M2_A2*%
X88025000Y-74050000D03*
%TO.P,U3,11,PC3*%
%TO.N,M2_A1*%
X88025000Y-74550000D03*
%TO.P,U3,12,VSSA*%
%TO.N,GND*%
X88025000Y-75050000D03*
%TO.P,U3,13,VDDA*%
%TO.N,+3V3*%
X88025000Y-75550000D03*
%TO.P,U3,14,PA0*%
%TO.N,M2_B1*%
X88025000Y-76050000D03*
%TO.P,U3,15,PA1*%
%TO.N,M2_B2*%
X88025000Y-76550000D03*
%TO.P,U3,16,PA2*%
%TO.N,M2_PWM_B*%
X88025000Y-77050000D03*
D29*
%TO.P,U3,17,PA3*%
%TO.N,M1_PWM_A*%
X89950000Y-78975000D03*
%TO.P,U3,18,VSS*%
%TO.N,GND*%
X90450000Y-78975000D03*
%TO.P,U3,19,VDD*%
%TO.N,+3V3*%
X90950000Y-78975000D03*
%TO.P,U3,20,PA4*%
%TO.N,M1_A2*%
X91450000Y-78975000D03*
%TO.P,U3,21,PA5*%
%TO.N,M1_A1*%
X91950000Y-78975000D03*
%TO.P,U3,22,PA6*%
%TO.N,M1_B1*%
X92450000Y-78975000D03*
%TO.P,U3,23,PA7*%
%TO.N,M1_B2*%
X92950000Y-78975000D03*
%TO.P,U3,24,PC4*%
%TO.N,M1_PWM_B*%
X93450000Y-78975000D03*
%TO.P,U3,25,PC5*%
%TO.N,unconnected-(U3-Pad25)*%
X93950000Y-78975000D03*
%TO.P,U3,26,PB0*%
%TO.N,unconnected-(U3-Pad26)*%
X94450000Y-78975000D03*
%TO.P,U3,27,PB1*%
%TO.N,unconnected-(U3-Pad27)*%
X94950000Y-78975000D03*
%TO.P,U3,28,PB2*%
%TO.N,unconnected-(U3-Pad28)*%
X95450000Y-78975000D03*
%TO.P,U3,29,PB10*%
%TO.N,PEDAL1*%
X95950000Y-78975000D03*
%TO.P,U3,30,PB11*%
%TO.N,PEDAL2*%
X96450000Y-78975000D03*
%TO.P,U3,31,VSS*%
%TO.N,GND*%
X96950000Y-78975000D03*
%TO.P,U3,32,VDD*%
%TO.N,+3V3*%
X97450000Y-78975000D03*
D28*
%TO.P,U3,33,PB12*%
%TO.N,PEDAL3*%
X99375000Y-77050000D03*
%TO.P,U3,34,PB13*%
%TO.N,PEDAL4*%
X99375000Y-76550000D03*
%TO.P,U3,35,PB14*%
%TO.N,unconnected-(U3-Pad35)*%
X99375000Y-76050000D03*
%TO.P,U3,36,PB15*%
%TO.N,Net-(D1-Pad2)*%
X99375000Y-75550000D03*
%TO.P,U3,37,PC6*%
%TO.N,unconnected-(U3-Pad37)*%
X99375000Y-75050000D03*
%TO.P,U3,38,PC7*%
%TO.N,M5_PWM_A*%
X99375000Y-74550000D03*
%TO.P,U3,39,PC8*%
%TO.N,M5_A2*%
X99375000Y-74050000D03*
%TO.P,U3,40,PC9*%
%TO.N,M5_A1*%
X99375000Y-73550000D03*
%TO.P,U3,41,PA8*%
%TO.N,M5_B1*%
X99375000Y-73050000D03*
%TO.P,U3,42,PA9*%
%TO.N,M5_B2*%
X99375000Y-72550000D03*
%TO.P,U3,43,PA10*%
%TO.N,M5_PWM_B*%
X99375000Y-72050000D03*
%TO.P,U3,44,PA11*%
%TO.N,USB_D-*%
X99375000Y-71550000D03*
%TO.P,U3,45,PA12*%
%TO.N,USB_D+*%
X99375000Y-71050000D03*
%TO.P,U3,46,PA13*%
%TO.N,SWDIO*%
X99375000Y-70550000D03*
%TO.P,U3,47,VSS*%
%TO.N,GND*%
X99375000Y-70050000D03*
%TO.P,U3,48,VDD*%
%TO.N,+3V3*%
X99375000Y-69550000D03*
D29*
%TO.P,U3,49,PA14*%
%TO.N,SWCLK*%
X97450000Y-67625000D03*
%TO.P,U3,50,PA15*%
%TO.N,unconnected-(U3-Pad50)*%
X96950000Y-67625000D03*
%TO.P,U3,51,PC10*%
%TO.N,unconnected-(U3-Pad51)*%
X96450000Y-67625000D03*
%TO.P,U3,52,PC11*%
%TO.N,M4_PWM_A*%
X95950000Y-67625000D03*
%TO.P,U3,53,PC12*%
%TO.N,M4_A2*%
X95450000Y-67625000D03*
%TO.P,U3,54,PD2*%
%TO.N,M4_A1*%
X94950000Y-67625000D03*
%TO.P,U3,55,PB3*%
%TO.N,SWO*%
X94450000Y-67625000D03*
%TO.P,U3,56,PB4*%
%TO.N,M4_B1*%
X93950000Y-67625000D03*
%TO.P,U3,57,PB5*%
%TO.N,M4_B2*%
X93450000Y-67625000D03*
%TO.P,U3,58,PB6*%
%TO.N,M4_PWM_B*%
X92950000Y-67625000D03*
%TO.P,U3,59,PB7*%
%TO.N,M3_PWM_A*%
X92450000Y-67625000D03*
%TO.P,U3,60,BOOT0*%
%TO.N,BOOT0*%
X91950000Y-67625000D03*
%TO.P,U3,61,PB8*%
%TO.N,M3_A2*%
X91450000Y-67625000D03*
%TO.P,U3,62,PB9*%
%TO.N,M3_A1*%
X90950000Y-67625000D03*
%TO.P,U3,63,VSS*%
%TO.N,GND*%
X90450000Y-67625000D03*
%TO.P,U3,64,VDD*%
%TO.N,+3V3*%
X89950000Y-67625000D03*
%TD*%
D18*
%TO.P,C12,1*%
%TO.N,+3V3*%
X84400000Y-75400000D03*
%TO.P,C12,2*%
%TO.N,GND*%
X83265000Y-75400000D03*
%TD*%
D30*
%TO.P,D1,1,K*%
%TO.N,Net-(D1-Pad1)*%
X161040000Y-54500000D03*
D31*
%TO.P,D1,2,A*%
%TO.N,Net-(D1-Pad2)*%
X158500000Y-54500000D03*
%TD*%
D12*
%TO.P,C15,1*%
%TO.N,+3V3*%
X64000000Y-52067500D03*
%TO.P,C15,2*%
%TO.N,GND*%
X64000000Y-50932500D03*
%TD*%
%TO.P,C16,1*%
%TO.N,+3V3*%
X124500000Y-52067500D03*
%TO.P,C16,2*%
%TO.N,GND*%
X124500000Y-50932500D03*
%TD*%
D32*
%TO.P,R2,1*%
%TO.N,Net-(C5-Pad2)*%
X139250000Y-77750000D03*
%TO.P,R2,2*%
%TO.N,GND*%
X139250000Y-78945000D03*
%TD*%
D33*
%TO.N,GND*%
X159250000Y-60250000D03*
X148500000Y-81500000D03*
X136750000Y-79250000D03*
X134500000Y-56050000D03*
X129500000Y-56000000D03*
X144500000Y-56050000D03*
X139500000Y-56000000D03*
X76000000Y-50000000D03*
X90200000Y-64400000D03*
X95500000Y-51500000D03*
X151600000Y-43800000D03*
X86500000Y-50000000D03*
X118700000Y-53100000D03*
X105500000Y-50000000D03*
X111000000Y-51000000D03*
X101500000Y-50500000D03*
X101400000Y-70000000D03*
X81000000Y-51500000D03*
X72000000Y-50000000D03*
X88400000Y-53200000D03*
X73600000Y-53200000D03*
X56750000Y-50000000D03*
X100000000Y-78200000D03*
X120800000Y-50000000D03*
X163500000Y-47000000D03*
X117000000Y-50200000D03*
X90500000Y-50000000D03*
X99000000Y-66500000D03*
X58200000Y-53200000D03*
X82000000Y-75200000D03*
X89400000Y-82000000D03*
X103300000Y-53200000D03*
X126000000Y-51000000D03*
X65250000Y-51000000D03*
X97000000Y-77200000D03*
X60500000Y-50000000D03*
%TO.N,V_MOTOR*%
X107800000Y-57600000D03*
X98800000Y-57600000D03*
X113800000Y-57600000D03*
X55000000Y-57600000D03*
X78000000Y-57600000D03*
X92600000Y-57600000D03*
X62400000Y-57600000D03*
X123000000Y-57600000D03*
X148700000Y-55700000D03*
X85400000Y-57600000D03*
X157700000Y-39700000D03*
X70800000Y-57600000D03*
%TO.N,+3V3*%
X89200000Y-59600000D03*
X82300000Y-72200000D03*
X75000000Y-53200000D03*
X119600000Y-59500000D03*
X158750000Y-78750000D03*
X89000000Y-64400000D03*
X158750000Y-81000000D03*
X99800000Y-68600000D03*
X74600000Y-59400000D03*
X111000000Y-52000000D03*
X126000000Y-52000000D03*
X98900000Y-80500000D03*
X95500000Y-52500000D03*
X59600000Y-53200000D03*
X81000000Y-52500000D03*
X65250000Y-52000000D03*
X158750000Y-76500000D03*
X147500000Y-75250000D03*
X89600000Y-53200000D03*
X90600000Y-82000000D03*
X104200000Y-59600000D03*
X59250000Y-59500000D03*
X90000000Y-75600000D03*
X120000000Y-53100000D03*
X104500000Y-53100000D03*
X142500000Y-79000000D03*
%TO.N,NRST*%
X96250000Y-72750000D03*
%TO.N,SWO*%
X94400000Y-70000000D03*
%TO.N,SWCLK*%
X97500000Y-66000000D03*
%TO.N,SWDIO*%
X124500000Y-69750000D03*
X97000000Y-70500000D03*
%TO.N,BOOT0*%
X92400000Y-63500000D03*
%TD*%
D34*
%TO.N,Net-(U5-Pad5)*%
X59200000Y-43100000D02*
X59200000Y-48300000D01*
X60080000Y-41250000D02*
X60080000Y-42220000D01*
X60080000Y-42220000D02*
X59200000Y-43100000D01*
%TO.N,Net-(J5-Pad4)*%
X122620000Y-47680000D02*
X122500000Y-47800000D01*
X122620000Y-41250000D02*
X122620000Y-47680000D01*
X122620000Y-47680000D02*
X122200000Y-48100000D01*
%TO.N,Net-(J5-Pad3)*%
X119700000Y-41630000D02*
X119700000Y-48100000D01*
X120080000Y-41250000D02*
X119700000Y-41630000D01*
%TO.N,Net-(J5-Pad2)*%
X118400000Y-42110000D02*
X118400000Y-48000000D01*
X117540000Y-41250000D02*
X118400000Y-42110000D01*
%TO.N,Net-(J5-Pad1)*%
X115000000Y-41250000D02*
X115000000Y-47200000D01*
%TO.N,Net-(J3-Pad3)*%
X104200000Y-42130000D02*
X104200000Y-48200000D01*
X105080000Y-41250000D02*
X104200000Y-42130000D01*
%TO.N,Net-(J3-Pad2)*%
X102900000Y-41610000D02*
X102900000Y-48300000D01*
X102540000Y-41250000D02*
X102900000Y-41610000D01*
%TO.N,Net-(J7-Pad3)*%
X89300000Y-42030000D02*
X89300000Y-48200000D01*
X90080000Y-41250000D02*
X89300000Y-42030000D01*
%TO.N,Net-(J7-Pad2)*%
X87900000Y-41610000D02*
X87900000Y-48300000D01*
X87540000Y-41250000D02*
X87900000Y-41610000D01*
%TO.N,Net-(J6-Pad3)*%
X74700000Y-41630000D02*
X74700000Y-48300000D01*
X75080000Y-41250000D02*
X74700000Y-41630000D01*
%TO.N,Net-(J6-Pad2)*%
X73400000Y-42110000D02*
X73400000Y-48500000D01*
X72540000Y-41250000D02*
X73400000Y-42110000D01*
%TO.N,Net-(U5-Pad7)*%
X57540000Y-41250000D02*
X57850011Y-41560011D01*
X57850011Y-41560011D02*
X57850011Y-48100000D01*
%TO.N,Net-(U5-Pad11)*%
X55000000Y-41250000D02*
X55000000Y-48075000D01*
X55000000Y-48075000D02*
X55025000Y-48100000D01*
%TO.N,Net-(U5-Pad1)*%
X62620000Y-47280000D02*
X62500000Y-47400000D01*
X62620000Y-41250000D02*
X62620000Y-47280000D01*
X62620000Y-47280000D02*
X61800000Y-48100000D01*
%TO.N,Net-(J6-Pad1)*%
X70000000Y-41250000D02*
X70000000Y-47400000D01*
%TO.N,Net-(J6-Pad4)*%
X77620000Y-41250000D02*
X77620000Y-47955000D01*
X77620000Y-47955000D02*
X77575000Y-48000000D01*
%TO.N,Net-(J7-Pad1)*%
X85000000Y-41250000D02*
X85000000Y-47350000D01*
%TO.N,Net-(J7-Pad4)*%
X92620000Y-47280000D02*
X92500000Y-47400000D01*
X92620000Y-41250000D02*
X92620000Y-47280000D01*
X92620000Y-47280000D02*
X91800000Y-48100000D01*
%TO.N,Net-(J3-Pad1)*%
X100000000Y-41250000D02*
X100000000Y-48000000D01*
%TO.N,Net-(J3-Pad4)*%
X107620000Y-47180000D02*
X107500000Y-47300000D01*
X107620000Y-41250000D02*
X107620000Y-47180000D01*
X107620000Y-47180000D02*
X106800000Y-48000000D01*
D35*
%TO.N,Net-(J2-Pad5)*%
X147000000Y-49095000D02*
X147140000Y-49235000D01*
X140910000Y-41250000D02*
X140910000Y-41862450D01*
X140910000Y-41862450D02*
X141000000Y-41952450D01*
X141000000Y-41952450D02*
X141000000Y-42250000D01*
X141000000Y-42250000D02*
X144750000Y-46000000D01*
X144750000Y-46000000D02*
X146000000Y-46000000D01*
X146000000Y-46000000D02*
X147000000Y-47000000D01*
X147000000Y-47000000D02*
X147000000Y-49095000D01*
%TO.N,Net-(J2-Pad4)*%
X142060000Y-47060000D02*
X142060000Y-49235000D01*
X138370000Y-41250000D02*
X138370000Y-43370000D01*
X138370000Y-43370000D02*
X142060000Y-47060000D01*
%TO.N,Net-(J2-Pad3)*%
X135830000Y-45330000D02*
X137000000Y-46500000D01*
X137000000Y-46500000D02*
X137000000Y-49215000D01*
X135830000Y-41250000D02*
X135830000Y-45330000D01*
X137000000Y-49215000D02*
X136980000Y-49235000D01*
%TO.N,Net-(J2-Pad2)*%
X133290000Y-41250000D02*
X133290000Y-46424980D01*
X133290000Y-46424980D02*
X131900000Y-47814980D01*
X131900000Y-47814980D02*
X131900000Y-49235000D01*
D36*
%TO.N,Net-(R6-Pad1)*%
X129250000Y-47000000D02*
X129250000Y-49125000D01*
X129250000Y-49125000D02*
X129360000Y-49235000D01*
%TO.N,GND*%
X130750000Y-41250000D02*
X130750000Y-44305000D01*
X130750000Y-44305000D02*
X129250000Y-45805000D01*
X161000000Y-60250000D02*
X159250000Y-60250000D01*
%TO.N,Net-(D1-Pad1)*%
X161040000Y-54500000D02*
X161040000Y-59015000D01*
X161040000Y-59015000D02*
X161000000Y-59055000D01*
%TO.N,GND*%
X147250000Y-81500000D02*
X148500000Y-81500000D01*
X147250000Y-82500000D02*
X147250000Y-81500000D01*
X147250000Y-81500000D02*
X147250000Y-80262500D01*
X138250000Y-79250000D02*
X136750000Y-79250000D01*
D34*
X134440000Y-56110000D02*
X134500000Y-56050000D01*
X134440000Y-58765000D02*
X134440000Y-56110000D01*
X129360000Y-56140000D02*
X129500000Y-56000000D01*
X129360000Y-58765000D02*
X129360000Y-56140000D01*
X144600000Y-56150000D02*
X144500000Y-56050000D01*
X144600000Y-58765000D02*
X144600000Y-56150000D01*
X139520000Y-56020000D02*
X139500000Y-56000000D01*
X139520000Y-58765000D02*
X139520000Y-56020000D01*
X134440000Y-58765000D02*
X134440000Y-58244980D01*
D36*
X138567500Y-81817500D02*
X139250000Y-81817500D01*
X138555000Y-78945000D02*
X138250000Y-79250000D01*
X143500000Y-83000000D02*
X146750000Y-83000000D01*
X147250000Y-80262500D02*
X146737500Y-79750000D01*
X142317500Y-81817500D02*
X143500000Y-83000000D01*
X139250000Y-81817500D02*
X141250000Y-81817500D01*
X146750000Y-83000000D02*
X147250000Y-82500000D01*
X139250000Y-78945000D02*
X138555000Y-78945000D01*
X138250000Y-79250000D02*
X138250000Y-81500000D01*
X141250000Y-81817500D02*
X142317500Y-81817500D01*
X138250000Y-81500000D02*
X138567500Y-81817500D01*
D35*
%TO.N,+12V*%
X143600000Y-40650000D02*
X143450000Y-40500000D01*
D36*
%TO.N,GND*%
X72375000Y-49625000D02*
X72000000Y-50000000D01*
D37*
X82200000Y-75400000D02*
X82000000Y-75200000D01*
X161945000Y-44500000D02*
X161945000Y-47000000D01*
D36*
X71725000Y-48000000D02*
X71725000Y-49725000D01*
X90200000Y-48000000D02*
X90200000Y-49700000D01*
D37*
X88250000Y-55200000D02*
X88250000Y-53350000D01*
X99032500Y-66532500D02*
X99000000Y-66500000D01*
D36*
X56325000Y-49575000D02*
X56750000Y-50000000D01*
X86950000Y-49550000D02*
X86500000Y-50000000D01*
X154000000Y-42000000D02*
X152000000Y-42000000D01*
X90850000Y-49650000D02*
X90500000Y-50000000D01*
X124500000Y-50932500D02*
X125932500Y-50932500D01*
D37*
X118675000Y-55100000D02*
X118675000Y-53125000D01*
X83265000Y-75400000D02*
X82200000Y-75400000D01*
X118675000Y-53125000D02*
X118700000Y-53100000D01*
X88025000Y-75050000D02*
X85096352Y-75050000D01*
X100067500Y-79500000D02*
X100067500Y-78267500D01*
D36*
X101300000Y-48000000D02*
X101300000Y-50300000D01*
X76275000Y-48000000D02*
X76275000Y-49725000D01*
D34*
X151600000Y-41600000D02*
X151600000Y-43800000D01*
D36*
X110932500Y-50932500D02*
X111000000Y-51000000D01*
X60225000Y-49725000D02*
X60500000Y-50000000D01*
D37*
X161945000Y-47000000D02*
X163500000Y-47000000D01*
D36*
X116725000Y-49925000D02*
X117000000Y-50200000D01*
X72375000Y-48000000D02*
X72375000Y-49625000D01*
X121275000Y-49525000D02*
X120800000Y-50000000D01*
X120625000Y-49825000D02*
X120800000Y-50000000D01*
X56975000Y-49775000D02*
X56750000Y-50000000D01*
X65182500Y-50932500D02*
X65250000Y-51000000D01*
D37*
X89465000Y-80800000D02*
X89465000Y-81935000D01*
D36*
X56975000Y-48100000D02*
X56975000Y-49775000D01*
X121275000Y-47900000D02*
X121275000Y-49525000D01*
D37*
X90067500Y-64532500D02*
X90200000Y-64400000D01*
D36*
X60225000Y-48100000D02*
X60225000Y-49725000D01*
X76275000Y-49725000D02*
X76000000Y-50000000D01*
D37*
X85096352Y-75050000D02*
X84811332Y-74764980D01*
D36*
X152000000Y-42000000D02*
X151600000Y-41600000D01*
X90200000Y-49700000D02*
X90500000Y-50000000D01*
X79500000Y-51432500D02*
X80932500Y-51432500D01*
X101950000Y-48000000D02*
X101950000Y-50050000D01*
D37*
X90450000Y-78975000D02*
X90450000Y-79815000D01*
D36*
X105850000Y-48000000D02*
X105850000Y-49650000D01*
X86950000Y-48000000D02*
X86950000Y-49550000D01*
D37*
X90450000Y-79815000D02*
X89465000Y-80800000D01*
X96950000Y-78975000D02*
X96950000Y-77250000D01*
D36*
X60875000Y-48100000D02*
X60875000Y-49625000D01*
X95432500Y-51432500D02*
X95500000Y-51500000D01*
X56325000Y-48100000D02*
X56325000Y-49575000D01*
D37*
X100067500Y-78267500D02*
X100000000Y-78200000D01*
D36*
X75625000Y-48000000D02*
X75625000Y-49625000D01*
X105200000Y-48000000D02*
X105200000Y-49700000D01*
X80932500Y-51432500D02*
X81000000Y-51500000D01*
D37*
X90067500Y-65600000D02*
X90067500Y-64532500D01*
D36*
X60875000Y-49625000D02*
X60500000Y-50000000D01*
D37*
X90067500Y-65600000D02*
X90450000Y-65982500D01*
D36*
X125932500Y-50932500D02*
X126000000Y-51000000D01*
X101950000Y-50050000D02*
X101500000Y-50500000D01*
D37*
X101350000Y-70050000D02*
X101400000Y-70000000D01*
X83435020Y-74764980D02*
X83265000Y-74935000D01*
X84811332Y-74764980D02*
X83435020Y-74764980D01*
D36*
X90850000Y-48000000D02*
X90850000Y-49650000D01*
X117375000Y-49825000D02*
X117000000Y-50200000D01*
D37*
X58275000Y-53275000D02*
X58200000Y-53200000D01*
X99375000Y-70050000D02*
X101350000Y-70050000D01*
D36*
X64000000Y-50932500D02*
X65182500Y-50932500D01*
D37*
X103250000Y-53250000D02*
X103300000Y-53200000D01*
X103250000Y-55200000D02*
X103250000Y-53250000D01*
D36*
X105200000Y-49700000D02*
X105500000Y-50000000D01*
X109000000Y-50932500D02*
X110932500Y-50932500D01*
D37*
X102500000Y-66532500D02*
X100100000Y-66532500D01*
X90450000Y-65982500D02*
X90450000Y-67625000D01*
D36*
X120625000Y-47900000D02*
X120625000Y-49825000D01*
D37*
X73675000Y-55200000D02*
X73675000Y-53275000D01*
D36*
X86300000Y-49800000D02*
X86500000Y-50000000D01*
X94000000Y-51432500D02*
X95432500Y-51432500D01*
D37*
X73675000Y-53275000D02*
X73600000Y-53200000D01*
X96950000Y-77250000D02*
X97000000Y-77200000D01*
X88250000Y-53350000D02*
X88400000Y-53200000D01*
X100100000Y-66532500D02*
X99032500Y-66532500D01*
D36*
X116725000Y-47900000D02*
X116725000Y-49925000D01*
D37*
X89465000Y-81935000D02*
X89400000Y-82000000D01*
D36*
X86300000Y-48000000D02*
X86300000Y-49800000D01*
X101300000Y-50300000D02*
X101500000Y-50500000D01*
X105850000Y-49650000D02*
X105500000Y-50000000D01*
X71725000Y-49725000D02*
X72000000Y-50000000D01*
D37*
X83265000Y-74935000D02*
X83265000Y-75400000D01*
D36*
X75625000Y-49625000D02*
X76000000Y-50000000D01*
X117375000Y-47900000D02*
X117375000Y-49825000D01*
D37*
X58275000Y-55300000D02*
X58275000Y-53275000D01*
D36*
%TO.N,V_MOTOR*%
X85650000Y-57350000D02*
X85400000Y-57600000D01*
X92150000Y-55200000D02*
X92150000Y-57150000D01*
X114800000Y-57600000D02*
X113800000Y-57600000D01*
X146176444Y-77850000D02*
X146737500Y-77850000D01*
X99600000Y-57600000D02*
X98800000Y-57600000D01*
D34*
X147900000Y-77850000D02*
X149000000Y-76750000D01*
D36*
X71075000Y-55200000D02*
X71075000Y-57325000D01*
X145226444Y-78800000D02*
X146176444Y-77850000D01*
X55025000Y-55300000D02*
X55025000Y-57575000D01*
X143700000Y-78800000D02*
X144462500Y-78800000D01*
X100650000Y-55200000D02*
X100650000Y-56550000D01*
X107150000Y-56950000D02*
X107800000Y-57600000D01*
X85000000Y-57200000D02*
X85400000Y-57600000D01*
X62175000Y-55300000D02*
X62175000Y-57375000D01*
X115425000Y-55975000D02*
X113800000Y-57600000D01*
X62175000Y-57375000D02*
X62400000Y-57600000D01*
X141250000Y-80682500D02*
X142067500Y-80682500D01*
D34*
X149000000Y-56000000D02*
X148700000Y-55700000D01*
D36*
X115425000Y-55100000D02*
X115425000Y-55975000D01*
X55675000Y-55300000D02*
X55675000Y-56925000D01*
X139250000Y-80682500D02*
X141250000Y-80682500D01*
X77575000Y-57175000D02*
X78000000Y-57600000D01*
X116075000Y-55100000D02*
X116075000Y-56325000D01*
X143500000Y-79000000D02*
X143700000Y-78800000D01*
X143500000Y-79250000D02*
X143500000Y-79000000D01*
D34*
X149000000Y-76750000D02*
X149000000Y-56000000D01*
D36*
X55675000Y-56925000D02*
X55000000Y-57600000D01*
X100000000Y-55200000D02*
X100000000Y-56400000D01*
X85000000Y-55200000D02*
X85000000Y-57200000D01*
X77575000Y-55200000D02*
X77575000Y-57175000D01*
X142067500Y-80682500D02*
X143500000Y-79250000D01*
X144462500Y-78800000D02*
X145226444Y-78800000D01*
X85650000Y-55200000D02*
X85650000Y-57350000D01*
D34*
X146737500Y-77850000D02*
X147900000Y-77850000D01*
D36*
X107150000Y-55200000D02*
X107150000Y-56950000D01*
X55025000Y-57575000D02*
X55000000Y-57600000D01*
X116075000Y-56325000D02*
X114800000Y-57600000D01*
X70425000Y-55200000D02*
X70425000Y-57225000D01*
X100650000Y-56550000D02*
X99600000Y-57600000D01*
X70425000Y-57225000D02*
X70800000Y-57600000D01*
X71075000Y-57325000D02*
X70800000Y-57600000D01*
X100000000Y-56400000D02*
X98800000Y-57600000D01*
X122575000Y-55100000D02*
X122575000Y-57175000D01*
X122575000Y-57175000D02*
X123000000Y-57600000D01*
X92150000Y-57150000D02*
X92600000Y-57600000D01*
%TO.N,Net-(C4-Pad2)*%
X145065000Y-82000000D02*
X145065000Y-80352500D01*
X145065000Y-80352500D02*
X144462500Y-79750000D01*
%TO.N,Net-(C4-Pad1)*%
X146075000Y-78800000D02*
X146737500Y-78800000D01*
X146200000Y-82000000D02*
X145724980Y-81524980D01*
X145724980Y-81524980D02*
X145724980Y-79150020D01*
X146837500Y-78900000D02*
X146737500Y-78800000D01*
X145724980Y-79150020D02*
X146075000Y-78800000D01*
X151750000Y-78900000D02*
X146837500Y-78900000D01*
D37*
%TO.N,+3V3*%
X100100000Y-67667500D02*
X100100000Y-68300000D01*
D36*
X141250000Y-78885000D02*
X142385000Y-78885000D01*
X110932500Y-52067500D02*
X111000000Y-52000000D01*
D37*
X89950000Y-75550000D02*
X90000000Y-75600000D01*
X88932500Y-66607500D02*
X89950000Y-67625000D01*
X59575000Y-53225000D02*
X59600000Y-53200000D01*
X89550000Y-55200000D02*
X89550000Y-53250000D01*
X74975000Y-55200000D02*
X74975000Y-53225000D01*
D36*
X125932500Y-52067500D02*
X126000000Y-52000000D01*
D37*
X90600000Y-80800000D02*
X90600000Y-82000000D01*
D36*
X142385000Y-78885000D02*
X142500000Y-79000000D01*
D37*
X104550000Y-55200000D02*
X104550000Y-53150000D01*
D36*
X95432500Y-52567500D02*
X95500000Y-52500000D01*
X109000000Y-52067500D02*
X110932500Y-52067500D01*
D37*
X104200000Y-58300000D02*
X104200000Y-59600000D01*
X99375000Y-69550000D02*
X99375000Y-69025000D01*
X98932500Y-80467500D02*
X98900000Y-80500000D01*
D36*
X146167500Y-75200000D02*
X147450000Y-75200000D01*
D37*
X83702500Y-72200000D02*
X82300000Y-72200000D01*
X89550000Y-53250000D02*
X89600000Y-53200000D01*
D36*
X147450000Y-75200000D02*
X147500000Y-75250000D01*
D37*
X74600000Y-58200000D02*
X74600000Y-59400000D01*
D36*
X65182500Y-52067500D02*
X65250000Y-52000000D01*
D37*
X119600000Y-58100000D02*
X119600000Y-59500000D01*
X119975000Y-55100000D02*
X119975000Y-53125000D01*
D36*
X146167500Y-73200000D02*
X146167500Y-75200000D01*
X94000000Y-52567500D02*
X95432500Y-52567500D01*
D37*
X88932500Y-64467500D02*
X89000000Y-64400000D01*
X104550000Y-53150000D02*
X104500000Y-53100000D01*
X84550000Y-75550000D02*
X84400000Y-75400000D01*
X119975000Y-53125000D02*
X120000000Y-53100000D01*
X89200000Y-58200000D02*
X89200000Y-59600000D01*
X98932500Y-79500000D02*
X98932500Y-80467500D01*
X90950000Y-80450000D02*
X90600000Y-80800000D01*
X97450000Y-78975000D02*
X98407500Y-78975000D01*
X98407500Y-78975000D02*
X98932500Y-79500000D01*
D36*
X80932500Y-52567500D02*
X81000000Y-52500000D01*
D37*
X102500000Y-67667500D02*
X100100000Y-67667500D01*
X59250000Y-58250000D02*
X59250000Y-59500000D01*
X59575000Y-55300000D02*
X59575000Y-53225000D01*
D36*
X124500000Y-52067500D02*
X125932500Y-52067500D01*
D37*
X100100000Y-68300000D02*
X99800000Y-68600000D01*
X74975000Y-53225000D02*
X75000000Y-53200000D01*
D36*
X64000000Y-52067500D02*
X65182500Y-52067500D01*
X79500000Y-52567500D02*
X80932500Y-52567500D01*
D37*
X88025000Y-75550000D02*
X84550000Y-75550000D01*
X99375000Y-69025000D02*
X99800000Y-68600000D01*
X88932500Y-65600000D02*
X88932500Y-66607500D01*
X88932500Y-65600000D02*
X88932500Y-64467500D01*
X90950000Y-78975000D02*
X90950000Y-80450000D01*
X88025000Y-75550000D02*
X89950000Y-75550000D01*
%TO.N,NRST*%
X96050000Y-72550000D02*
X88025000Y-72550000D01*
X85247500Y-72550000D02*
X88025000Y-72550000D01*
X84897500Y-72200000D02*
X85247500Y-72550000D01*
X96250000Y-72750000D02*
X96050000Y-72550000D01*
%TO.N,PEDAL1*%
X145000000Y-62000000D02*
X147140000Y-59860000D01*
X147140000Y-59860000D02*
X147140000Y-58765000D01*
X95950000Y-78975000D02*
X95950000Y-81450000D01*
X126000000Y-62000000D02*
X145000000Y-62000000D01*
X95950000Y-81450000D02*
X97000000Y-82500000D01*
X105500000Y-82500000D02*
X126000000Y-62000000D01*
X97000000Y-82500000D02*
X105500000Y-82500000D01*
%TO.N,Net-(D1-Pad2)*%
X129000000Y-54500000D02*
X158500000Y-54500000D01*
X107950000Y-75550000D02*
X129000000Y-54500000D01*
X99375000Y-75550000D02*
X107950000Y-75550000D01*
%TO.N,PEDAL2*%
X96500000Y-79800000D02*
X96500000Y-81000000D01*
X96450000Y-79750000D02*
X96500000Y-79800000D01*
X142060000Y-59940000D02*
X142060000Y-58765000D01*
X97500000Y-82000000D02*
X105000000Y-82000000D01*
X96500000Y-81000000D02*
X97500000Y-82000000D01*
X96450000Y-78975000D02*
X96450000Y-79750000D01*
X140500000Y-61500000D02*
X142060000Y-59940000D01*
X125500000Y-61500000D02*
X140500000Y-61500000D01*
X105000000Y-82000000D02*
X125500000Y-61500000D01*
D34*
%TO.N,Net-(U5-Pad11)*%
X55000000Y-47800000D02*
X55400000Y-48200000D01*
%TO.N,Net-(J6-Pad4)*%
X77500000Y-47900000D02*
X77300000Y-48100000D01*
D37*
%TO.N,PEDAL3*%
X136980000Y-60020000D02*
X136980000Y-58765000D01*
X125000000Y-61000000D02*
X136000000Y-61000000D01*
X108950000Y-77050000D02*
X125000000Y-61000000D01*
X136000000Y-61000000D02*
X136980000Y-60020000D01*
X99375000Y-77050000D02*
X108950000Y-77050000D01*
%TO.N,PEDAL4*%
X108450000Y-76550000D02*
X124500000Y-60500000D01*
X124500000Y-60500000D02*
X131000000Y-60500000D01*
X131900000Y-59600000D02*
X131900000Y-58765000D01*
X131000000Y-60500000D02*
X131900000Y-59600000D01*
X99375000Y-76550000D02*
X108450000Y-76550000D01*
D34*
%TO.N,Net-(J6-Pad1)*%
X70000000Y-47400000D02*
X70700000Y-48100000D01*
%TO.N,Net-(J3-Pad1)*%
X100000000Y-47800000D02*
X100300000Y-48100000D01*
D37*
%TO.N,Net-(R3-Pad1)*%
X145500000Y-51500000D02*
X144600000Y-50600000D01*
X156000000Y-44500000D02*
X149000000Y-51500000D01*
X144600000Y-50600000D02*
X144600000Y-49235000D01*
X149000000Y-51500000D02*
X145500000Y-51500000D01*
X160750000Y-44500000D02*
X156000000Y-44500000D01*
%TO.N,Net-(R4-Pad1)*%
X139520000Y-51020000D02*
X139520000Y-49235000D01*
X149250000Y-52000000D02*
X140500000Y-52000000D01*
X140500000Y-52000000D02*
X139520000Y-51020000D01*
X160750000Y-45750000D02*
X155500000Y-45750000D01*
X155500000Y-45750000D02*
X149250000Y-52000000D01*
%TO.N,Net-(R5-Pad1)*%
X134440000Y-51440000D02*
X134440000Y-49235000D01*
X149500000Y-52500000D02*
X135500000Y-52500000D01*
X155000000Y-47000000D02*
X149500000Y-52500000D01*
X160750000Y-47000000D02*
X155000000Y-47000000D01*
X135500000Y-52500000D02*
X134440000Y-51440000D01*
D36*
%TO.N,Net-(R6-Pad1)*%
X129400000Y-49195000D02*
X129360000Y-49235000D01*
D37*
%TO.N,Net-(R8-Pad2)*%
X103900000Y-56805000D02*
X104200000Y-57105000D01*
X103900000Y-55200000D02*
X103900000Y-56805000D01*
%TO.N,Net-(R9-Pad2)*%
X58925000Y-56730000D02*
X59250000Y-57055000D01*
X58925000Y-55300000D02*
X58925000Y-56730000D01*
%TO.N,Net-(R10-Pad2)*%
X119325000Y-56630000D02*
X119325000Y-55100000D01*
X119600000Y-56905000D02*
X119325000Y-56630000D01*
%TO.N,Net-(R11-Pad2)*%
X74600000Y-57005000D02*
X74325000Y-56730000D01*
X74325000Y-56730000D02*
X74325000Y-55200000D01*
%TO.N,Net-(R12-Pad2)*%
X88900000Y-55200000D02*
X88900000Y-56705000D01*
X88900000Y-56705000D02*
X89200000Y-57005000D01*
%TO.N,M4_B1*%
X93950000Y-66050000D02*
X102600000Y-57400000D01*
X93950000Y-67625000D02*
X93950000Y-66050000D01*
X102600000Y-57400000D02*
X102600000Y-55200000D01*
%TO.N,M4_A2*%
X105100000Y-61400000D02*
X99936424Y-61400000D01*
X95450000Y-65886424D02*
X95450000Y-67625000D01*
X105850000Y-55200000D02*
X105850000Y-58550000D01*
X106000000Y-60500000D02*
X105100000Y-61400000D01*
X106000000Y-58700000D02*
X106000000Y-60500000D01*
X105850000Y-58550000D02*
X106000000Y-58700000D01*
X99936424Y-61400000D02*
X95450000Y-65886424D01*
%TO.N,M4_A1*%
X94950000Y-65750000D02*
X94950000Y-67625000D01*
X99800000Y-60900000D02*
X94950000Y-65750000D01*
X104700000Y-60900000D02*
X99800000Y-60900000D01*
X105200000Y-55200000D02*
X105200000Y-58700000D01*
X105200000Y-58700000D02*
X105500000Y-59000000D01*
X105500000Y-59000000D02*
X105500000Y-60100000D01*
X105500000Y-60100000D02*
X104700000Y-60900000D01*
%TO.N,M4_PWM_B*%
X101300000Y-56900000D02*
X92950000Y-65250000D01*
X101300000Y-55200000D02*
X101300000Y-56900000D01*
X92950000Y-65250000D02*
X92950000Y-67625000D01*
%TO.N,M4_PWM_A*%
X105400000Y-61900000D02*
X100100000Y-61900000D01*
X95950000Y-66050000D02*
X95950000Y-67625000D01*
X106500000Y-60800000D02*
X105400000Y-61900000D01*
X106500000Y-55200000D02*
X106500000Y-60800000D01*
X100100000Y-61900000D02*
X95950000Y-66050000D01*
%TO.N,SWO*%
X94450000Y-69950000D02*
X94400000Y-70000000D01*
X94450000Y-67625000D02*
X94450000Y-69950000D01*
%TO.N,M2_B2*%
X88025000Y-76550000D02*
X73386424Y-76550000D01*
X72375000Y-55200000D02*
X72375000Y-75538576D01*
X72375000Y-75538576D02*
X73386424Y-76550000D01*
%TO.N,M2_B1*%
X88025000Y-76050000D02*
X73650000Y-76050000D01*
X73650000Y-76050000D02*
X73025000Y-75425000D01*
X73650000Y-76050000D02*
X73627520Y-76027520D01*
X73025000Y-75425000D02*
X73025000Y-55200000D01*
X88002520Y-76027520D02*
X88025000Y-76050000D01*
%TO.N,M2_A2*%
X85369200Y-74050000D02*
X85069180Y-73749980D01*
X76275000Y-71675000D02*
X76275000Y-55200000D01*
X78349980Y-73749980D02*
X77200000Y-72600000D01*
X78349980Y-73749980D02*
X76275000Y-71675000D01*
X88025000Y-74050000D02*
X85369200Y-74050000D01*
X85069180Y-73749980D02*
X78349980Y-73749980D01*
%TO.N,SWCLK*%
X97450000Y-67625000D02*
X97450000Y-66050000D01*
X97500000Y-67575000D02*
X97450000Y-67625000D01*
X97450000Y-66050000D02*
X97500000Y-66000000D01*
%TO.N,SWDIO*%
X124520000Y-69770000D02*
X124500000Y-69750000D01*
X99325000Y-70500000D02*
X99375000Y-70550000D01*
X97000000Y-70500000D02*
X99325000Y-70500000D01*
X124520000Y-71750000D02*
X124520000Y-69770000D01*
%TO.N,M2_A1*%
X88025000Y-74550000D02*
X85232776Y-74550000D01*
X75625000Y-71825000D02*
X75625000Y-55200000D01*
X85232776Y-74550000D02*
X84882776Y-74200000D01*
X78000000Y-74200000D02*
X77000000Y-73200000D01*
X78000000Y-74200000D02*
X75625000Y-71825000D01*
X84882776Y-74200000D02*
X78000000Y-74200000D01*
%TO.N,M2_PWM_B*%
X73250000Y-77050000D02*
X88025000Y-77050000D01*
X71725000Y-55200000D02*
X71725000Y-75525000D01*
X71725000Y-75525000D02*
X73250000Y-77050000D01*
%TO.N,M2_PWM_A*%
X78699960Y-73299960D02*
X77400000Y-72000000D01*
X85505624Y-73550000D02*
X85255584Y-73299960D01*
X85255584Y-73299960D02*
X78699960Y-73299960D01*
X88025000Y-73550000D02*
X85505624Y-73550000D01*
X78699960Y-73299960D02*
X76925000Y-71525000D01*
X76925000Y-71525000D02*
X76925000Y-55200000D01*
%TO.N,M1_B2*%
X56975000Y-76475000D02*
X56975000Y-55300000D01*
X92950000Y-82650000D02*
X91524966Y-84075034D01*
X64575034Y-84075034D02*
X64500000Y-84000000D01*
X92950000Y-78975000D02*
X92950000Y-82650000D01*
X64500000Y-84000000D02*
X63135042Y-82635042D01*
X64500000Y-84000000D02*
X56975000Y-76475000D01*
X91524966Y-84075034D02*
X64575034Y-84075034D01*
%TO.N,BOOT0*%
X91950000Y-63950000D02*
X92400000Y-63500000D01*
X91950000Y-67625000D02*
X91950000Y-63950000D01*
%TO.N,M4_B2*%
X101950000Y-57150000D02*
X93450000Y-65650000D01*
X93450000Y-65650000D02*
X93450000Y-67625000D01*
X101950000Y-55200000D02*
X101950000Y-57150000D01*
%TO.N,M1_B1*%
X57625000Y-76125000D02*
X57625000Y-55300000D01*
X92450000Y-78975000D02*
X92450000Y-82495824D01*
X91320801Y-83625023D02*
X65125023Y-83625023D01*
X65125023Y-83625023D02*
X57625000Y-76125000D01*
X92450000Y-82495824D02*
X91320801Y-83625023D01*
%TO.N,M1_A2*%
X65200000Y-82200000D02*
X64000000Y-81000000D01*
X60875000Y-77875000D02*
X60875000Y-55300000D01*
X91450000Y-82223002D02*
X90948001Y-82725001D01*
X90948001Y-82725001D02*
X65725001Y-82725001D01*
X91450000Y-78975000D02*
X91450000Y-82223002D01*
X65725001Y-82725001D02*
X65200000Y-82200000D01*
X65200000Y-82200000D02*
X60875000Y-77875000D01*
%TO.N,M3_B2*%
X86300000Y-66900000D02*
X86300000Y-70100000D01*
X86750000Y-70550000D02*
X88025000Y-70550000D01*
X86950000Y-66250000D02*
X86300000Y-66900000D01*
X86950000Y-55200000D02*
X86950000Y-66250000D01*
X86300000Y-70100000D02*
X86750000Y-70550000D01*
%TO.N,M3_B1*%
X88025000Y-70050000D02*
X87184286Y-70050000D01*
X87600000Y-66400000D02*
X87600000Y-55200000D01*
X86800000Y-69665714D02*
X86800000Y-67200000D01*
X86800000Y-67200000D02*
X87600000Y-66400000D01*
X87184286Y-70050000D02*
X86800000Y-69665714D01*
%TO.N,M3_A2*%
X90850000Y-58750000D02*
X91450000Y-59350000D01*
X90850000Y-55200000D02*
X90850000Y-58750000D01*
X91450000Y-59350000D02*
X91450000Y-67625000D01*
%TO.N,M3_A1*%
X90950000Y-59650000D02*
X90950000Y-67625000D01*
X90200000Y-58900000D02*
X90950000Y-59650000D01*
X90200000Y-55200000D02*
X90200000Y-58900000D01*
%TO.N,M3_PWM_B*%
X85700000Y-66800000D02*
X85700000Y-70200000D01*
X86300000Y-66200000D02*
X85700000Y-66800000D01*
X86550000Y-71050000D02*
X88025000Y-71050000D01*
X85700000Y-70200000D02*
X86550000Y-71050000D01*
X86300000Y-55200000D02*
X86300000Y-66200000D01*
%TO.N,M3_PWM_A*%
X92450000Y-67625000D02*
X92450000Y-64650000D01*
X91500000Y-58500000D02*
X91500000Y-55200000D01*
X93100000Y-60100000D02*
X91500000Y-58500000D01*
X92450000Y-64650000D02*
X93100000Y-64000000D01*
X93100000Y-64000000D02*
X93100000Y-60100000D01*
%TO.N,M1_A1*%
X65050000Y-82800000D02*
X60225000Y-77975000D01*
X60225000Y-77975000D02*
X60750000Y-78500000D01*
X65425012Y-83175012D02*
X65050000Y-82800000D01*
X60225000Y-55300000D02*
X60225000Y-77975000D01*
X91950000Y-78975000D02*
X91950000Y-82359413D01*
X91134401Y-83175012D02*
X65425012Y-83175012D01*
X65050000Y-82800000D02*
X63985020Y-81735020D01*
X91950000Y-82359413D02*
X91134401Y-83175012D01*
%TO.N,M1_PWM_B*%
X93450000Y-82950000D02*
X91800000Y-84600000D01*
X56325000Y-76825000D02*
X56325000Y-55300000D01*
X64100000Y-84600000D02*
X56325000Y-76825000D01*
X64100000Y-84600000D02*
X62585053Y-83085053D01*
X91800000Y-84600000D02*
X64100000Y-84600000D01*
X93450000Y-78975000D02*
X93450000Y-82950000D01*
%TO.N,M1_PWM_A*%
X65400000Y-81600000D02*
X87325000Y-81600000D01*
X87325000Y-81600000D02*
X89950000Y-78975000D01*
X61525000Y-77725000D02*
X65400000Y-81600000D01*
X61525000Y-55300000D02*
X61525000Y-77725000D01*
D34*
%TO.N,Net-(J5-Pad1)*%
X115000000Y-47200000D02*
X115800000Y-48000000D01*
D37*
%TO.N,M5_PWM_A*%
X108050000Y-74550000D02*
X99375000Y-74550000D01*
X121925000Y-60675000D02*
X108050000Y-74550000D01*
X121925000Y-55100000D02*
X121925000Y-60675000D01*
%TO.N,M5_A2*%
X107850000Y-74050000D02*
X121275000Y-60625000D01*
X99375000Y-74050000D02*
X107850000Y-74050000D01*
X121275000Y-60625000D02*
X121275000Y-55100000D01*
%TO.N,M5_A1*%
X120625000Y-58225000D02*
X120625000Y-55100000D01*
X120800000Y-60400000D02*
X120800000Y-58400000D01*
X120800000Y-58400000D02*
X120625000Y-58225000D01*
X99375000Y-73550000D02*
X107650000Y-73550000D01*
X107650000Y-73550000D02*
X120800000Y-60400000D01*
%TO.N,M5_B1*%
X101522848Y-73050000D02*
X101547828Y-73025020D01*
X117925011Y-55100000D02*
X118025000Y-55100000D01*
X118025000Y-56547848D02*
X117925011Y-56647837D01*
X99375000Y-73050000D02*
X101522848Y-73050000D01*
X118025000Y-55100000D02*
X118025000Y-56547848D01*
X118025000Y-56547848D02*
X101522848Y-73050000D01*
X99399980Y-73025020D02*
X99375000Y-73050000D01*
%TO.N,M5_B2*%
X99375000Y-72550000D02*
X101386424Y-72550000D01*
X101386424Y-72550000D02*
X101411404Y-72525020D01*
X117375000Y-55100000D02*
X117275011Y-55100000D01*
X101386424Y-72550000D02*
X117375000Y-56561424D01*
X117375000Y-55100000D02*
X117375000Y-56561424D01*
X117375000Y-56561424D02*
X117275011Y-56661413D01*
%TO.N,M5_PWM_B*%
X116725000Y-56575000D02*
X101350000Y-71950000D01*
X99375000Y-72050000D02*
X101250000Y-72050000D01*
X101250000Y-72050000D02*
X101350000Y-71950000D01*
X116725000Y-55100000D02*
X116725000Y-56575000D01*
D34*
%TO.N,Net-(J7-Pad1)*%
X85000000Y-47350000D02*
X85424989Y-47774989D01*
%TD*%
%TA.AperFunction,Conductor*%
%TO.N,+3V3*%
G36*
X159942121Y-75770002D02*
G01*
X159988614Y-75823658D01*
X160000000Y-75876000D01*
X160000000Y-81874000D01*
X159979998Y-81942121D01*
X159926342Y-81988614D01*
X159874000Y-82000000D01*
X154126000Y-82000000D01*
X154057879Y-81979998D01*
X154011386Y-81926342D01*
X154000000Y-81874000D01*
X154000000Y-75876000D01*
X154020002Y-75807879D01*
X154073658Y-75761386D01*
X154126000Y-75750000D01*
X159874000Y-75750000D01*
X159942121Y-75770002D01*
G37*
%TD.AperFunction*%
%TD*%
%TA.AperFunction,Conductor*%
%TO.N,+12V*%
G36*
X150042121Y-35528002D02*
G01*
X150088614Y-35581658D01*
X150100000Y-35634000D01*
X150100000Y-42474000D01*
X150079998Y-42542121D01*
X150026342Y-42588614D01*
X149974000Y-42600000D01*
X143535531Y-42600000D01*
X143467410Y-42579998D01*
X143446436Y-42563095D01*
X142486419Y-41603078D01*
X142453151Y-41544038D01*
X142437330Y-41479626D01*
X142436124Y-41474715D01*
X142428516Y-41456791D01*
X142418500Y-41407560D01*
X142418500Y-41187855D01*
X142404031Y-41008020D01*
X142346124Y-40772265D01*
X142251269Y-40548801D01*
X142219380Y-40498162D01*
X142200000Y-40431020D01*
X142200000Y-35634000D01*
X142220002Y-35565879D01*
X142273658Y-35519386D01*
X142326000Y-35508000D01*
X149974000Y-35508000D01*
X150042121Y-35528002D01*
G37*
%TD.AperFunction*%
%TD*%
%TA.AperFunction,Conductor*%
%TO.N,Net-(C5-Pad2)*%
G36*
X145442121Y-72020002D02*
G01*
X145488614Y-72073658D01*
X145500000Y-72126000D01*
X145500000Y-72514428D01*
X145479998Y-72582549D01*
X145468076Y-72598247D01*
X145422008Y-72649952D01*
X145422002Y-72649960D01*
X145416956Y-72655624D01*
X145341234Y-72798639D01*
X145301811Y-72955588D01*
X145301500Y-72960531D01*
X145301500Y-73401318D01*
X145315941Y-73520652D01*
X145373142Y-73672030D01*
X145377443Y-73678288D01*
X145436840Y-73764712D01*
X145459000Y-73836079D01*
X145459000Y-74556074D01*
X145438998Y-74624195D01*
X145427077Y-74639892D01*
X145406062Y-74663478D01*
X145402510Y-74670187D01*
X145402507Y-74670191D01*
X145334456Y-74798716D01*
X145330901Y-74805431D01*
X145291771Y-74961215D01*
X145291500Y-74965523D01*
X145291500Y-75396317D01*
X145305797Y-75514460D01*
X145362573Y-75664713D01*
X145453551Y-75797087D01*
X145459219Y-75802137D01*
X145464246Y-75807839D01*
X145462895Y-75809030D01*
X145495377Y-75861148D01*
X145500000Y-75894967D01*
X145500000Y-77472283D01*
X145479998Y-77540404D01*
X145463095Y-77561379D01*
X145069877Y-77954596D01*
X145007565Y-77988621D01*
X144980782Y-77991500D01*
X143910421Y-77991500D01*
X143851307Y-77998968D01*
X143792859Y-78006351D01*
X143792856Y-78006352D01*
X143784994Y-78007345D01*
X143777628Y-78010262D01*
X143777626Y-78010262D01*
X143744704Y-78023297D01*
X143630356Y-78068571D01*
X143613281Y-78080976D01*
X143554364Y-78104124D01*
X143546879Y-78105030D01*
X143537349Y-78106183D01*
X143537348Y-78106183D01*
X143529806Y-78107096D01*
X143522698Y-78109782D01*
X143520088Y-78110423D01*
X143503831Y-78114870D01*
X143501263Y-78115645D01*
X143493776Y-78116952D01*
X143467205Y-78128616D01*
X143435294Y-78142624D01*
X143429186Y-78145117D01*
X143399067Y-78156498D01*
X143369438Y-78167694D01*
X143363173Y-78172000D01*
X143360782Y-78173250D01*
X143346080Y-78181433D01*
X143343757Y-78182807D01*
X143336799Y-78185861D01*
X143330774Y-78190484D01*
X143330769Y-78190487D01*
X143287142Y-78223963D01*
X143220922Y-78249563D01*
X143210439Y-78250000D01*
X143054278Y-78250000D01*
X142986157Y-78229998D01*
X142980240Y-78225953D01*
X142956750Y-78208886D01*
X142950722Y-78206202D01*
X142950720Y-78206201D01*
X142788318Y-78133895D01*
X142788317Y-78133895D01*
X142782287Y-78131210D01*
X142664546Y-78106183D01*
X142601944Y-78092876D01*
X142601939Y-78092876D01*
X142595487Y-78091504D01*
X142404513Y-78091504D01*
X142398061Y-78092876D01*
X142398056Y-78092876D01*
X142335454Y-78106183D01*
X142217713Y-78131210D01*
X142211683Y-78133895D01*
X142211682Y-78133895D01*
X142140456Y-78165607D01*
X142089207Y-78176500D01*
X141893926Y-78176500D01*
X141825805Y-78156498D01*
X141810106Y-78144575D01*
X141807917Y-78142624D01*
X141803075Y-78138311D01*
X141792195Y-78128616D01*
X141792193Y-78128614D01*
X141786522Y-78123562D01*
X141779813Y-78120010D01*
X141779809Y-78120007D01*
X141651284Y-78051956D01*
X141651281Y-78051955D01*
X141644569Y-78048401D01*
X141488785Y-78009271D01*
X141484477Y-78009000D01*
X141053683Y-78009000D01*
X140935540Y-78023297D01*
X140785287Y-78080073D01*
X140779029Y-78084374D01*
X140661706Y-78165008D01*
X140652913Y-78171051D01*
X140620153Y-78207821D01*
X140559904Y-78245375D01*
X140526078Y-78250000D01*
X139904705Y-78250000D01*
X139836584Y-78229998D01*
X139820896Y-78218084D01*
X139794376Y-78194456D01*
X139763903Y-78178321D01*
X139658070Y-78122286D01*
X139658069Y-78122285D01*
X139651361Y-78118734D01*
X139494412Y-78079311D01*
X139489469Y-78079000D01*
X139048682Y-78079000D01*
X138929348Y-78093441D01*
X138777970Y-78150642D01*
X138771712Y-78154943D01*
X138685288Y-78214340D01*
X138613921Y-78236500D01*
X138580943Y-78236500D01*
X138572373Y-78236208D01*
X138525234Y-78232994D01*
X138525230Y-78232994D01*
X138517658Y-78232478D01*
X138454708Y-78243465D01*
X138448250Y-78244418D01*
X138409656Y-78249089D01*
X138394532Y-78250000D01*
X138376000Y-78250000D01*
X138307879Y-78229998D01*
X138261386Y-78176342D01*
X138250000Y-78124000D01*
X138250000Y-76376000D01*
X138270002Y-76307879D01*
X138323658Y-76261386D01*
X138376000Y-76250000D01*
X143250000Y-76250000D01*
X143250000Y-72126000D01*
X143270002Y-72057879D01*
X143323658Y-72011386D01*
X143376000Y-72000000D01*
X145374000Y-72000000D01*
X145442121Y-72020002D01*
G37*
%TD.AperFunction*%
%TD*%
%TA.AperFunction,Conductor*%
%TO.N,V_MOTOR*%
G36*
X160542121Y-35528002D02*
G01*
X160588614Y-35581658D01*
X160600000Y-35634000D01*
X160600000Y-42874000D01*
X160579998Y-42942121D01*
X160526342Y-42988614D01*
X160474000Y-43000000D01*
X154543709Y-43000000D01*
X154475588Y-42979998D01*
X154429095Y-42926342D01*
X154418991Y-42856068D01*
X154448485Y-42791488D01*
X154499169Y-42756135D01*
X154522213Y-42747427D01*
X154557542Y-42723146D01*
X154648328Y-42660751D01*
X154648330Y-42660750D01*
X154654587Y-42656449D01*
X154761438Y-42536522D01*
X154764990Y-42529813D01*
X154764993Y-42529809D01*
X154833044Y-42401284D01*
X154833045Y-42401281D01*
X154836599Y-42394569D01*
X154875729Y-42238785D01*
X154876000Y-42234477D01*
X154876000Y-41803683D01*
X154861703Y-41685540D01*
X154804927Y-41535287D01*
X154713949Y-41402913D01*
X154698321Y-41388989D01*
X154599695Y-41301116D01*
X154599693Y-41301114D01*
X154594022Y-41296062D01*
X154587313Y-41292510D01*
X154587309Y-41292507D01*
X154458784Y-41224456D01*
X154458781Y-41224455D01*
X154452069Y-41220901D01*
X154296285Y-41181771D01*
X154291977Y-41181500D01*
X153746183Y-41181500D01*
X153628040Y-41195797D01*
X153477787Y-41252573D01*
X153471529Y-41256874D01*
X153453391Y-41269340D01*
X153382024Y-41291500D01*
X152918360Y-41291500D01*
X152850239Y-41271498D01*
X152801208Y-41211883D01*
X152771848Y-41137727D01*
X152771846Y-41137723D01*
X152768929Y-41130356D01*
X152671171Y-40995803D01*
X152543021Y-40889788D01*
X152392533Y-40818974D01*
X152384750Y-40817489D01*
X152384746Y-40817488D01*
X152254353Y-40792614D01*
X152254348Y-40792614D01*
X152248511Y-40791500D01*
X152242566Y-40791500D01*
X152238852Y-40791149D01*
X152177539Y-40765751D01*
X152176599Y-40767144D01*
X152171490Y-40763698D01*
X152166742Y-40759770D01*
X152161323Y-40756840D01*
X152161320Y-40756838D01*
X151998165Y-40668621D01*
X151998161Y-40668619D01*
X151992747Y-40665692D01*
X151986867Y-40663872D01*
X151986865Y-40663871D01*
X151936117Y-40648162D01*
X151803792Y-40607200D01*
X151797674Y-40606557D01*
X151797669Y-40606556D01*
X151613205Y-40587169D01*
X151613203Y-40587169D01*
X151607076Y-40586525D01*
X151524226Y-40594065D01*
X151416228Y-40603893D01*
X151416225Y-40603894D01*
X151410089Y-40604452D01*
X151404183Y-40606190D01*
X151404179Y-40606191D01*
X151312846Y-40633072D01*
X151261574Y-40648162D01*
X151190578Y-40648207D01*
X151130828Y-40609861D01*
X151101294Y-40545299D01*
X151100000Y-40527288D01*
X151100000Y-35634000D01*
X151120002Y-35565879D01*
X151173658Y-35519386D01*
X151226000Y-35508000D01*
X160474000Y-35508000D01*
X160542121Y-35528002D01*
G37*
%TD.AperFunction*%
%TD*%
M02*
